<mxfile host="65bd71144e">
    <diagram id="UWx5lki8bHt7hAOdeLvT" name="Page-1">
        <mxGraphModel dx="1922" dy="467" grid="1" gridSize="10" guides="1" tooltips="1" connect="1" arrows="1" fold="1" page="1" pageScale="1" pageWidth="850" pageHeight="1100" math="0" shadow="0">
            <root>
                <mxCell id="0"/>
                <mxCell id="1" parent="0"/>
                <mxCell id="2" value="" style="shape=image;verticalLabelPosition=bottom;labelBackgroundColor=default;verticalAlign=top;aspect=fixed;imageAspect=0;image=data:image/png,iVBORw0KGgoAAAANSUhEUgAABR4AAAKCCAYAAAC3XMXxAAAAAXNSR0IArs4c6QAAAARnQU1BAACxjwv8YQUAAAAJcEhZcwAADsMAAA7DAcdvqGQAAP+lSURBVHhe7N15nFV3ff/x1znnrrNvMAwMDDskBAhrCBBCyL4YNUmtiVq3pi4RqzX6azVWq621NtZWqzUmmqpVm6rRJMaYhAAJJCEsCTtk2GFgmBlmX+56zvn9ce9MmAuBmeECc++8n4/HfSR8z7nbuXfu8r6f7/djXH311W5xcTH5+fnk5eXh8XgQERERERERERERSRWPx+no6KC9vZ2WlhbC4TCmaQJgGEavfY3ly5e7vUZERERERERERERE+uDgwYPU19djmiaGYfQKHxNxpIiIiIiIiIiIiEg/jR07lilTpuD1enFdF9d9q8ZRwaOIiIiIiIiIiIgMWGFhIQUFBb1CRxQ8ioiIiIiIiIiIyLkaN24cPp9PFY8iIiIiIiIiIiKSXsXFxb2mWyt4FBERERERERERkXOWl5eH4zgKHkVERERERERERCR98vLyev1bwaOIiIiIiIiIiIicM5/P1+vfCh5FREREREREREQk7RQ8ioiIiIiIiIiISFqoq7WIiIiIiIiIiIicVwoeRUREREREREREJO0UPIqIiIiIiIiIiEjaKXgUERERERERERGRtFPwKCIiIiIiIiIiImmn4FFERERERERERETSTsGjiIiIiIiIiIiIpJ2CRxEREREREREREUk7BY8iIiIiIiIiIiKSdgoeRUREREREREREJO0UPIqIiIiIiIiIiEjaKXgUERERERERERGRtFPwKCIiIiIiIiIiImmn4FFERERERERERETSTsGjiIiIiIiIiIiIpJ2CRxEREREREREREUk7BY8iIiIiIiIiIiKSdgoeRUREREREREREJO0UPIqIiIiIiIiIiEjaKXgUERERERERERGRtFPwKCIiIiIiIiIiImmn4FFERERERERERETSTsGjiIiIiIiIiIiIpJ2CRxEREREREREREUk7BY8iIiIiIiIiIiKSdgoeRUREREREREREJO0UPIqIiIiIiIiIiEjaKXgUERERERERERGRtFPwKCIiIiIiIiIiImmn4FFERERERERERETSTsGjiIiIiIiIiIiIpJ2CRxEREREREREREUk7BY8iIiIiIiIiIiKSdgoeRUREREREREREJO0UPIqIiIiIiIiIiEjaKXgUERERERERERGRtFPwKCIiIiIiIiIiImmn4FFERERERERERETSTsGjiIiIiIiIiIiIpJ2CRxEREREREREREUk7BY8iIiIiIiIiIiKSdgoeRUREREREREREJO0UPIqIiIiIiIiIiEjaKXgUERERERERERGRtFPwKCIiIiIiIiIiImmn4FFERERERERERETSTsGjiIiIiIiIiIiIpJ2CRxEREREREREREUk7BY8iIiIiIiIiIiKSdgoeRUREREREREREJO0UPIqIiIiIiIiIiEjaKXgUERERERERERGRtFPwKCIiIiIiIiIiImmn4FFERERERERERETSTsGjiIiIiIiIiIiIpJ2CRxEREREREREREUk7BY8iIiIiIiIiIiKSdgoeRUREREREREREJO0UPIqIiIiIiIiIiEjaKXgUERERERERERGRtFPwKCIiIiIiIiIiImmn4FFERERERERERETSTsGjiIiIiIiIiIiIpJ2CRxEREREREREREUk7BY8iIiIiIiIiIiKSdgoeRUREREREREREJO0UPIqIiIiIiIiIiEjaKXgUERERERERERGRtFPwKCIiIiIiIiIiImmn4FFERERERERERETSTsGjiIiIiIiIiIiIpJ2CRxEREREREREREUk7BY8iIiIiIiIiIiKSdgoeRUREREREREREJO0UPIqIiIiIiIiIiEjaKXgUERERERERERGRtFPwKCIiIiIiIiIiImmn4FFERERERERERETSTsGjiIiIiIiIiIiIpJ2CRxEREREREREREUk7BY8iIiIiIiIiIiKSdgoeRUREREREREREJO0UPIqIiIiIiIiIiEjaKXgUERERERERERGRtFPwKCIiIiIiIiIiImmn4FFERERERERERETSzrriiiu+mjooIiKSSVzXTR0SERHJGIZhpA6JiIhkrJqaGkzTxDAMVTyKiEjmcV2310lERCST6X1NRESylbF8+XK9s4mISMbo/kKW+sUs9d8iIiKZILXasfvfqeMiIiKZYt26dXg8HkzT1FRrERHJHCeHjicHjQodRUQkU53uPUzho4iIZLKTp1qr4lFERDJCauj4/e9/P3UXERGRjHffffclvqgpfBQRkQx1csWj1ngUEZFBLzV0PF11iIiISDZIfa/Te56IiGQyBY8iIpIRTv4i5jhO6mYREZGs4DjOKeGjiIhIplLwKCIiGUVfwkREJNvpvU5ERLKFgkcREckoqngUEZFs1l3xKCIikg0UPIqIyKB28pcvfRETEZGhQu9/IiKSDRQ8iohIRtAXMBERGQr0ficiItlEwaOIiIiIiIiIiIiknYJHERERERERERERSTsFjyIiklE07UxERLKd3utERCRbKHgUERERERERERGRtFPwKCIiIiIiIiIiImmn4FFERERERERERETSTsGjiIiIiIiIiIiIpJ2CRxEREREREREREUk7BY8iIiIiIiIiIiKSdgoeRUREREREREREJO0UPIqIiIiIiIiIiEjaKXgUERERERERERGRtFPwKCIiIiIiIiIiImmn4FFERERERERERETSTsGjiIiIiIiIiIiIpJ2CRxEREREREREREUk7BY8iIiIiIiIiIiKSdgoeRUREREREREREJO0UPIqIiIiIiIiIiEjaKXgUERERERERERGRtFPwKCIiIiIiIiIiImmn4FFERERERERERETSTsGjiIiIiIiIiIiIpJ2CRxEREREREREREUk7BY8iIiIiIiIiIiKSdgoeRUREREREREREJO0UPIqIiIiIiIiIiEjaKXgUERERERERERGRtFPwKCIiIiIiIiIiImmn4FFERERERERERETSTsGjiIiIiIiIiIiIpJ2CRxEREREREREREUk7BY8iIiIiIiIiIiKSdgoeRUREREREREREJO0UPIqIiIiIiIiIiEjaKXgUERERERERERGRtFPwKCIiIiIiIiIiImmn4FFERCSDOUBNDH5wAnaGIe6m7iEiIiIiInJxKHgUERHJUCEHnm+HJXvh/lpYuBe+UQ+tNih/zD7RaIyvfOUh/uEffkQ0Gk/dLCIiIiIy6BjLly/XdxMRERm0XDfxNuU4Dq7rYts2juPw8MMPp+46ZERd2BWBB+vhyTbosBOVjwYQMGFGAD5ZBu8sgAIrMX4uXBdaW9v53e9W9SnwMk2D+fMv47LLJmBZ2fEbZzQa45lnXqG+vom77rqWwsJ8TPNcj2z/hEIRbr31rzFNkz/84TsEAv7UXUQkC9x7772YpollWRiGgWkmXkcN48K+5oiIiAzUunXr8Hg8mKap4FFERAY3BY9vsV1otOGJVvjn+sQU61jyXdxMTrvu/v+gCbfkw2eHweVB8JsDn+bgui579hxm0aKPEovF8fm8ZwzdLMvk//2/D/HJT/4ZHo+VujnjOI5LQ0MzCxZ8kPr6Jr761Y/x6U+/F7/fl7rreRUKhbnppk9jWSZPP/0fBIMKHkWykYJHERHJdAoeRUQkYyh4TASKURf2hOGTR2FDV+LfAJYBAQMm+GFfBMJuIqB0kxWQ+Sb8RQk8UA7FFniN/ldAuq5LdfVh5s37CxYunMGXv/yXeL2e1N16GIbB6NHlDB9e3POFOZNFIlG+851f8uUv/xc+n5fCwjzWr/8plZXlqbueVwoeRYYGBY8iIpLpTg4eM//bgIiISBZzgIY4/MNxuGYfvNwJETcRHvoMuD4fVkyA1ybBH8bDDfmJcNEkET62OfD9E4nzPtKYOG93ZeRADB9ezKxZU5g/f9rbnubNu5QRI0qzInQEqK1t5Ec/epxly+bx93//l3R0dPHaaztwHP12KyIiIiJyJtnxjUBERCQLhV34XSvcvB/+tQGakk1jDGBqAH5QCb8bC/NywG/AVbnw+Fj43yq4Igc8yeIYF9gdhs8egxv2wXPtb03R7q9kAeqQ4TgOr766lcbGVj70oXdw661XYVkWjz32PF1d4dTdRURERETkJAoeRUREBqnXQ/B3tYlGMnYy8Ms14WOl8MIEeH9xouqx+83cTFZB3lYAz06AH1fCaF+iAtIlETa+2gV3HYS7D0FjfOAB5FDR0RHiZz/7A16vh+uum8/UqWNZtGgmK1eu5403dqfuLiIiIiIiJ1HwKCIiMkjYjks0/tZE6LlB+MM4+PtyqPIlplU/OQ7+bSQM9yRCxtQVvwwSQWOeCXcXw6oJ8E8VifN7DIi70OkkumFftTdRCXkhOY5DR0eI6urDvPzyFl57bTvHjzcSjcZ61vNMFY3GaG5uY8uWPbz00uts2rSL+vqmM54nHI7Q1RUmHrexbYfm5jbeeONN1q7dzM6d++no6OrTVOkXX9zEpk27+dSn/pyysiI8HouvfOWvsCyLn//8j8Rip+/ybdsOnZ0hwuEIjuMQCkU4cOAYL7+8hSNH6nrdbsdxCIej1NTUs379dtau3czevUfo7AzjOKefGO+6LrFYnOPHG1m3bhuvvrqVgwePEQpFUncVEREREblo1FxGREQGtaHUXGbjvhP84fUa7lk8nnHD8vBYJoaRWJfxaCwRJpZ5+v+rYcSFNyPwUCP8vhWOx8AJQW4bPDsXFpWknqO3k5vLvPOdV/PQQ18kJyeQutsZOY5LV1eIZ599lV/+8k+8/vpuotEYAGVlxdx++xI++MHbqKqq6Glc4zgux4418Nhjz/L737/IgQNHcd3E7Rk5chi33rqID3zg1l7nIXl7/+mffsLOnfv5z//8AitWrOeRR37Pjh37cV0Xj8fi8sun8NnP3sOSJbOwrNN33o5EYnzoQ19h48ZdvPTSw1RUlAHQ2Rnillv+mhMnWli9+iGGDStOPSvhcIR77/0nKiuHc9997+H73/8/fv3rFYTDUT73uffx1399N6ZpEolE2b59H48++hSrV2+kubkN1wW/38fixTP56EffxYIFl+H3+wmHE81lDAMee+yb/OQnT/DrX6+grq4J13XJywty441X8rnPvZ+qqgo1ohDJUGouIyIimU7NZURERAahxo4I//rUdpZ97U/8Yu1+2sMxonEHHzDel6hyHMgbt9+AywLwzyPg6bFQ1A4cATrB6OfPj5FIlPb2Tlpa2k97am3toKOjq1dFn+u6RCIR/v7vf8hHPvI11q3bzkc+cjs/+clX+I//+Dxjxozg3//9l9x446fYv78GkhWDJ0408+d//rd8/es/7qk0/OUv/5FvfnM5o0YN49///Ve8612fY8+ew9h278rAY8ca2LBhJ08/vZaPf/yf8XgsHnzwM/z0p//AX/zFraxZ8wbvec/fsm9fzSnn7dba2sG6dduZPXsqpaWFPeM5OQFuumkhx4418MQTL5626jIWs9m5cz9vvLGbD37w7/nxj3/P/PnT+Pzn38+yZfMAg3g8znPPvcY73vFZ/ud//sgVV1zGd7/7BX72s69x113X8qc/vcqf/dn/4/e/X93rOsLhKH/zN//Gv/7rz1i8+HIeeeTL/Nd//S1z5lzCz372NPfd9y9Eo/HT3i4RERERkQtJFY8iIjKoDaWKx2e3HOWd33qBSNzBYxrMqCrhE9dP5T1XjiUv4ME0+1/t4gKOC4djie7W/9sCx6LghiC3FZ6bBwtLU8/V28kVj7FYnLy8IG9XeGOaFvPmXcrvfvcgHk+ikjAajfGTnzzJ5z73HT70oXfw1a/+FWVlRT3VO7FYnN/85gXWrHmDL33pI4waNZzOzjDvf/8DrF27mR/96EvccMMCcnODPdcTi8V56aXX+djHvsHw4SU888x3KSzM69l+//3/zg9+8GtycgJ84xv38aEPvQOfzwtAPG6zYcMObr7509x994185zufIxDw9ZyX5H1evvxbPPbY8/zsZ//AzTcv6rV9794j3HTTcmzb4fXX/4eiooJex6Sjo4sbbriPrVv3Mm7cSH72s39g5szJvTp979tXw403fori4nweeeTLzJgxqeeYOI7Dtm37+Md/fITPfOYerrxyBpFIhJtu+jSvvbad0tJCfv/7B5kz59Ke50VbWyf/8A8/4nvfe4wnn/w3rr/+iret5hSRwUsVjyIikulU8SgiIjLIxR2XzQeb+OSPX+XGbzzHk5uO0BFOTE3uKxeoj8EPG+HqvfDvJ+BYDFwDyIHSKgi+leX1ycSJlXzoQ+/gox9919uc3sntty/pFZIeOVLH1772MHPmXMK3vvXpXqEjgNfr4T3vuZ7vfe8LjBw5rCcYfO65dXz843dy880LycnpfUO9Xg/XXDOX++9/P9XVh/jZz54+Zbvrwrx5l/LhD9/eEzoCeDwW06dPZPr0iWzZUk08bvc6r+u6HDlSxy9/+Sfmzr2UxYtn9doOMHr0CO6661oaGppZu3YLrtu7atIwjJ7g9b//+6vMmDGpV+ho2w5f/OL3CYUifPOby5k+/a3QEcA0TaZPn8j//u8/c+WVM3odT6/Xw7/+61/3Ch0B8vNzuP/+D5CXl8Pq1ZtOuV8iIiIiIheagkcREZFBynFdYrbDxn0neN/3XmLpP/yJFduOEYraZ5xG6wBdDvxvM1yxF+4/llgjsrszdsCAdxXCpklwWT+Dx+nTJ/KlL32Er371r057+vu/v5cPfegdPSGb67ps2VJNV1eYT37yLgIB/2mrdizLxLJMDMMgGo3x3e/+Lz6fl+XL34vP5ztthaVpmrznPTdQVVXB9773WM+akd0CAR9/93cf7rX+YzfTNCkrK6S9vfe0cJJrSz777Dps2+EDH7iFnBx/r+0APp+HW29djNfr4Re/eOZtGtUYjB1bwaRJY3pVHiaCzeM899w6br55IQsWTD9tNatpGliWecq2UaOGcdNNC08ZNwyDnJwAhYV5Pes+ioiIiIhcTAoeRUREBinTMDCMRPVjVyTO5oNNvPc/XuSuf1vFc1uP0RmJc3K25AIdDjzZCrcfgE8chSNRCLuJbUETFufCL6vg0dFQbCU6YPeHZVn4fF78ft/bnLy9gj7Hcdi//yiO4zBhwujTho6pwuEoe/ceYcqUKoqL808J2E4WCPiYNm08J04009bW2et45OYGqaqqOHn3HoYBPp83GRi+dSbXdQmHozzyyO+wbYf29i7+9KdXefrptb1Of/zjy9TU1JGbG+CZZ16muvrQKWtFGgaUlhb1qnTsduJEC7Ztc+ml4/D7e0/zPpvhw0vw+9+q4DxZd6VlYmmC1K0iIiIiIhfWqZ+ERUREZFBYPHU4Sy8dQVGOD8s0sB2XxvYIz245ynv//UU+9ZN1vLa3gc5InE4H1nXBx2rgLw7Dqg5otRPVj34Dpvjhy+Xw5Dh4ZyEUWYlg7HxnU66bWOMREkFfH3JHHMchGo2Rn5+TuukUhmGQl5eD47jJqcVv3SOPx+w1xfpURq/9AWzb5k9/epktW6oxDPjSl77PRz7ytdOePv3pB2lr6yIUivDww78nFov3uiySlZyp99l1E+tMAskK0N7bz8bjsU4bZp5M1Y4iIiIiMhic+VOriIiIXDSXjS7m/z67lJ996iqqhuUR9Fk9AWRLV5Sfv7SPm77xPA+9UM2PTzjcvB8ea4Z2JxGneQzIM+HPiuC5CfD5YYnAESDkwP4oNJyalaWVaRqUlBRiGAbNzW19CsT8fi/DhhVz4MAxbPvM08rj8TiHDtXi9/vIyQn0qqh03X4mekA0Gue///spiory+d73vsB3v/t5vvOdvznt6T/+437+8z8/T2XlcP70p1eIRKJnvK3dDAPy8nIwDIO6ukbi8dN31RYRERERyXQKHkVERAaxXL+X22aP5vVvvoMffPRKZlaV4LVMTCMRQHZF4myvaeFIxCXkgJ18c/cacE0e/HFcYlr1aC9YBsRc2BOBTx+DxXsS/38+mabJjBkT8Xgsnn321VOmI3dzXbcntPP5vNx005UcPVrP2rVbznie6urDbN26hyVLZvepQvJMHMelrq6RV17ZxnXXXcGf//kN3HPPTWc8vec9N3DbbVexb18Nzz23rk8NXQzDoKpqBGVlxTzzzCs0N7el7gIpx0REREREJBMpeBQRERmkGtrDdEZiGAYU5Pj4wJIJrPrKTXzng/OZPqYYyzRwgfbOKHmmi5F8Y780AP9VCb8fC4vyEpWPLnAgCv9QB4v3wqNNifUg+1sT2N9pwQDTpk3giisu44c//C0vv7z5lHDOdV3q6prYsGEH0WgMn8/Lvfe+mxEjyvjyl/+LpqbW0wZwnZ0h/uVfforrunzpSx/p0/qRZxIOR/j2t39BZ2eID3/4Hfh8pzalSeX1evjgB2/D47H4xjd+QmtrR+oup5Wfn8vXvvYx9u8/yre//T+nnabd1RXmuefW0dERSt0kIiIiIpIRFDyKiIgMUk9uPMJ1X3+OFdtqCUXiWKZBftDLvddO5qV/uJnvfXgBpXl+OkIx8j2JadRfLIc1E+H9xZBjJoLFNhv+owEW7oEH66Ex/laH61PjvDOrq2ti/fodvPzylrc9vfLKFrZu3dMTpuXl5fCzn32NESNKeN/7vsxvf7uSpqZWOjtDtLd3sXPnfu666wu8+92fZ8OGnRiGQXFxAV/+8kfZvn0fy5Z9nI0bd9HW1klXV5iOji527z7Irbf+NS+8sJ4PfegdXHrpuNSb2m+HDx/nsceeY+HCGSxefPlZ11EkuYbj9OkTWbJkFvv3H2Xbtr2nDUlP593vvoZrrpnHI4/8nk996l84fPg4nZ0hOjtDNDQ087WvPcz73/9l/uM/foXjnL7qU0RERERkMDOWL1/et0/HIiIiF0F3iJPo0uti2zaO4/Dwww+n7prxnt1ylHd+6wUiJ6355zENCnJ8zBlfymdvvZSrLxlBwGdhYBCN2xxt7mLzgUbGXjYG0zSZ7E90r3Zc6HLgN63wUCNsDyfWdXSSLVUKLbirCL4+AkacpbDPdV327DnMokUfJRaL4/N5MIy3D+UMw2DGjIk8+eS/EQj4IbkW4/bt+/nKV37Ia6/tYMSIUoqK8ojHbWpq6jFNgy984YPcc89NFBTk4rou0Wic3/1uFf/4jz+mvb2TiooycnIChMMRjh9vxDAMPv/5DyTPk9frNvzd3/0n//d/z/PKK49SXl7SaxvJ6sYPf/gf2LXrAGvX/oRAwMcPfvBrvv71R/jOdz7H3XffiGW9/X08meM4/Pa3K/n4x7/Bn//5DXznO5/Dtm1uv/2zWJbF7373IDk5gdSz4boux4838sMf/paHHvothYX5DB9ejGWZNDQ009zczvXXL+Af//ETVFYOJxKJctttn8WyTJ544t8IBE7tht3R0cX8+R9k7txL+NGPHjjtPiIyuN17772YpollWRiG0fMjyLlWdYuIiFwo69atw+PxYJqmgkcRERnchnrw2M0yDXL9Ht41bwwfXTaZWWNLyPF7sEwDx3UBA9NIVDK2O7C+C753AlZ2QDgZOJqA34R5Qfj0MLg5HwLm2ac/uC60tnbwxBOricUSHarPzGDYsCJuvnlxr+nKruvS0tLO6tWbePnlLRw5cjy5BuRkbrllEZdcMhav19Pry7Vt29TVNfH002vZuHEXjY0t5OfnMmvWFG69dTGVleX4/ad2rt6wYQf79h3lttuuIi8vmLqZeNzmpZdep6mpjdtvX4Jpmrz00uscPlzHbbctprQ00RCnL1zXpamplT/8YS0FBbnccssiTNPk2WdfxTQNrr9+AV7v6dNd13UJh6Ns376XF17YwLZte4lEYowbN5Jly+Zx1VWzem5/PB7nT396FcMwuPHGK/F4kp2CThKNxvjd71YzYkQJixZdftp9RGRwU/AoIiKZTsGjiIhkjKEcPPq9idAobjvYzltv1/kBL+++ooqv/dnllBcG8XlNMAwiDtTE4IvH4Y9tiYpHkhWOXgNKPfDF4fChEshNTsO+WFzXxUnep75XFrq4rtPri3i26W6kY5qGQgaRIUrBo4iIZLqTg8fs/NQuIiKSBe5ZPI7vf+QKZo8rxWOZPV8628Mxfv7SXq788tN8+r9f40B9Bwci8OmjcNVe+G3LW6Fjd5Xjp8tg1QS4rwzyzMTajjEXIhfp50fDMLAss8+hI8kwzrKsrA0dSYaw1kmPtYiIiIhIJsveT+4iIiIZLuj18N6F43n2Szfwb38xj+mjizCTgZTrwvGWED9/aR//9swufthg8z8tUB9/q2GM34CbCmD1BPhGBUxOLLdIyIFn2+HG/bBZDZNFREREROQ8UfAoIiIySBlG4lSU4+Vj101hzddu4aG/upLSPD9ey8R1wXZc2ruieF0H102Ejl4Dyj3w27Hwf1UwNwgeA6Iu7I3ALQfgzw7CptBb3a1FRERERETSTcGjiIjIIPXExiN85487OdYcwjQgP+jlL5ZM5NV/upVv3D2bqSML8XlMWjsj5HsMPAaM9sJXymHdJLgxP7GWY5xEZeOnj8KSvbC2EzqdROjYn9zRth26usK0tnYQCkV6xkOhCG1tHXR1hYnHbVwXIpEotp0IQx3HJR63cRyXWCxOR0cXXV1hYrE4tm33rOMZj9vYtoNtO8nLcenoCNHe3kV7e+I80Wi853yxWBzHScwp774OgFgsTmdniLa2TsLhaM/t7GbbNtHoW01yotFYz3ld1yUej+O6LqFQhI6OLjo7E7f1ZPF44jLC4WjP7evo6OrZL9GVO9ZzG2KxeM++HR1dRKMxIpEonZ2h5P2KEYslrpfkmqbxuE08Hu+5bZFIlPb2Tjo7Q0SjMWzboaPjrWMTiyWOTWtr4rHoXi9SRERERORisa644oqvpg6KiIgMNt2BjOu6uK7L7bffnrpLxjtQ38Gv1x0klgyM2kIxXqmu5/ltteQGvAwvCJAX8FCWH2DehDLeMXc0HtMkErOZefkYLMPke5XwzsJEIxkb2B+Fhxvh/mOJwLEt2eHaZ8AEP7y/GIafvuFyL7btsHnzm/zmNy+wbdte1q7dzLRpE6itPcHPf/40O3bsY926bTiOQ0VFGb/73WqOHq2jqqoCx3H4/vd/zZQpVbz44iZeeGE969ZtY+zYCn75y2eZNGkMwaCfvXtrqKtrZP/+oxQU5GGaBg8//DteeGEDq1dvYs+ew8ycOYk1a97ANC2+8pWHuPLKGQQCPmprT3DwYC25uUGeeeZlXnhhA5s3v8n27fuYMWMSlpVo1OO6LocO1fKlL32fa6+dj8fjYe3azbz22jYmT64C4De/eYFx40bxT//0YzZs2MmmTbuorT1BRUUZwaAfwzDYs+cIL764iY0bd7Jy5QZ++9sXqK4+zMiRZZSWFhKP2/z4x0/w+uu7efnlLUybNp4f/ehx1q3bzqZNuzAMg8bGVn7ykyd54403aWpqZefOAwSDAQoL84hEYjz++ErC4SgdHV2Ypsljjz3P+vU7WLduO+FwhFgsxoMP/g87d+5ny5Y9TJhQyTPPvMzatZtZv34Hc+deoq7WIhnoqaee6mkqYxhvNZrS2q8iIpIpampqet7HFDyKiEhGGArBo99rsfd4G0caO5PTpl3itktdS4g/vlHD02/UMLo0l8rSHLyWSUlegGsuq+D6maOYlmvxniKDCm/isjod+EUzfPAI/LEdWuxEdaPHgBwT3l0Evx4LI71gneW7rOu67N9/lH/915/xwAN/yRVXXMb8+dMAl29/+xd85jP3sGDBdGbNmsLPfvY0paWFHDhwlDVrNjNhQiX5+Tn8+tcrWLhwOr/73Wo++ck/48orp+PxeHjiiRdZsGA6ubkB9u8/SmdniObmNoYPL6KwMJ9Zs6YybtxIhg0r5t3vvgbXdVm3bhslJQXs2nWQ9vZOpkwZS2NjC7W1J9i//wh+v48777yWOXMuYdq08fh8vp6GNPG4zerVr1NZWU4kEmXUqOGsXbuZF17YwOjR5ZSVFfHcc+uYPXsKjz76JJ///AdZunQOubkBfvOblVxxxWUYhsH+/UfZuXM/9977bi6/fDLbtu3lM5+5m+HDSzFNg0gkyv79R3nf+25m/vxpOI7DK69s5a/+6t0sXDiDsWNHsmnTbqZNG88NNyzgJz95knnzpvHii5uYM+cS9u49wrZte/B6E11t167dzHXXXcHSpXO44opp5OQEOXq0Acsy+cAHbmHBguk0N7fx+OOruP/+9zNnziX4/d6sbsQjkq0UPIqISKY7OXjUp1EREZFBorIkh//966Ws+PKN3LWgCr/H6mkmE4k77DjSwnv+fTXv+JcX+OMbNUTjNoYBBUEveZaBaUDEgd+2wnX74RNHoTYGcTextorXgKtz4fdj4aejocRKjJ2N67pUVx/mgQc+Sl5eEL/fRzDop7W1g4qKUoJBPz6fl9zcIJ/97Ps4fPg4lmXypS99hN/9bhWdneHkJRmMGjWcn/70Dxw6dLynCrFb95qW3fsahoHf701Op3bxej09XbBt22HmzEkcO3aC9et39ATTe/YcYenSuQQCPrZu3cMzz7xCe3tnz3W0tnZw+PBxbr11Ma++ug3XdTBNg3vuuYnnnnuVcDjScxtM08TjscjLy6GqaiRNTW0krwbDeGt7dzDg83l7bp9pmuzefYDHHnuOUCiCZVk0NbXy2GPP88tfPsv+/UfxeDw8//xr/OQnT5KXF2TevEupq2siHrdZsWI9V189BzAxDDhw4CgjRpQQCPgIBPyMHDkMj8di3bpt/OpXz/LMMy9TXJxPWVkhP/7xEzQ0NCukEBEREZGLTsGjiIjIIOKxDOZNKOOn913Fcw/cwO1zR5MXTJYxAtG4w0u76njPd17kjm+vYvWO40TiNhEXVrXDOw/CBw/Dpq63GscYwLQA/OcoeHo8XJOfqHzsD4/Hor29qyfgA/B6vUQisZOqURPrEFqWieO4FBcXMG/epfziF8/0VO/ce++7uOWWRfz8539kzZo3kud76/wnXfxZ2bbLBz5wCy+88BrRaGJtxe4KP8MwGD68hIMHa9m3r6bnOp544kXa2jp46aXX2bRpFw0NzTiOQ0lJAbfeehX//u+/fJvbkKi07Su/38tXv/pXXHrpeD7zmW+zf/9RCgvzufnmhdx222JGjy4HXObOvQTLMvnsZ99HIOBnxoxJHDvWgN/vZcKEyp7LO7Vy0cVxHGbMmMStty7mqqtmUViYx//7fx/iuuvm86MfPU5t7Yl+3WYRERERkXRL/RQrclHEgZq4wfaoSZ1tkFhGX0RkaDINA69lcuXk4fxi+RKe+9INXDFpGAGvhQE4rks0bvPc1mPc8e1V/PMT2/nX4w53HoJVHRBzE+s4GkCRBX8zDF6YAB8sSazt2N83f8MwmDFjIl/+8n9RW9tIW1sne/Ycobm5jWg0Rn19M+3tnTQ0NPOZz3ybSy4Zh+O4GIbB0qVz8fm8HD5cC7i88cablJUVsXDhDPbvr2Hs2JG8+eYhOjq6ePbZV/H7vcmmKjbt7YnGLPZJrbdPztEMA4qK8nnXu5by9a8/gmkazJlzCd/+9v/Q2tpBcXE+5eWlPft3dYU5fvwEH/rQ7cydeyl/8Re38j//8wy27WAYBtOmjWfixNGsWfMGbrLJTDgcoakpMYX50kvH9VRDJkLSk29X74AvEolx8GAtU6eOZerUKhobWzBNg/z8HPLygpimiW3bDB9ewk03LeQ73/kFrutyxRWX8Xd/959MnToWv99Ld/ufmTMns2LFelpbO2hpaecnP3kK23YIBv3k5eUQDAZobm5n8+Y3qawsZ+7cS2loaOl1m0RERERELjSt8SgXlQ002QaboxabIhbVMYtjtknYMQgY4Df7/wVZRLLTW1Vx2bvGYyrTMPB6TEYUBXnPleOYN7GMpo4Itc0hbMfFdlwcx6WqPB/PhJGsDZnEktOqc0y4sxC+XwnvLYJ8K1Hl2M9CR0gGjzk5QRYtmsGqVRt5+eUtdHaGmDlzMrNnX8Krr25h1apNHDx4jA984FYmTKjEMAxGjRqG12sxfvwo2to6ufLKGezde4Q//vFlLMvk3e9expw5l7B27WZeeWUr06dPZP78y3Bdl1de2cL+/TWEQmHGjBlBIOCnpKSg5zZVVJSRmxtk5MhhlJYWEgj4mTChkksvHUdubpBnn32VTZt2U1SUx4IF0/H7/cRiMUaMKGXcuJHk5+cydmwFoVCEiRNHU15eSmFhHlOmVBGJxJg791Icx+Xw4eMcOlRLVVUFV189G5/Pi2EYuC7k5eUwZswIAEzTYNy4UT2Via7rsmLFel566Q0uuWQsV145g87OELt3H2Tv3iOEw1FGjy6ntLSIMWNGEIvFqagoY9iwYjo6urjqqsvJy8sBoKysmOnTJ1JX18Rzz73Gtm17mTv3UkaPLqe6+jBHjhxn794jjBhRyp49h3nhhfUEg36WLJmNZSWmgotI5tAajyIikulOXuPRWL58uebgyEURdQ32xQy2Ri1O2AaJHq4JFlBmuVzqtZngcwkaepqKDFXdgaPjOLiui23bOI7Dww8/nLpr1nNcl+bOKE9uOMx/v7iX1w80EYvbvGPuGKa/ZzH/3OjBMGBWEO4rhXcUQp45sLDxdFzXJRaLY9sOHo+F15tohx2LxYnHbUzTxOfzYBgGjpOoIkyEdImwODHuEo3G8Hisno7L8bhNLBbH7/diWRa27WDbidp30zQxzcTldAd+rpu4bE76It59HaZp4jgO0Wgc13V73c5EFWbvL++JasfEWPdtdRwXyzKJxxPPNdM0TgnwHCfxvDTNxFji/ibWYyR5e2zbIRqN9TR5sW0nuV5l4n4ZhpE8v5Gcyp24vNRjR/J+2nbiOIHRc5wT/05sT4SeLpFIDJ/Pc8ptFpHMcO+992KaZs/f8MlLSIiIiGSCdevW4fF4Ep/lUzeKnG82cMw2WBO2eDnsoT4ldOzep842eCXiYXXI4kDcJOzqw5aIDG2mYVCa5+dDSyfyh/93Hd//6AJK8gKEInGKvAYFFvx9OfxxHNxdDPlpDB1Jfun1+bwEg/6eMA/A6/UQDPrx+xPVgJwUrHWfr/vflmX2nL87XPN6PeTkBHqazViWic/nxefz4vFYKZf11mWf/CX85C/npmkSCCQa4Jx8O7sDzJNZlnnKbe1uEOPxWMnbkLitJzPN7tCw+99vhY4kL8fjsXruV/e/T75fltV9P7pv/+mPXff/W5ZFIOAnEEh06TaSj4fP5+1pvGNZies83W0WEREREbnQFDzKBdXhGGyJWKzs8rA7ahI6SyFjxIV9MZOVXR5eDVs0nCakFBEZagzDID/o5QNXTWDLv97OJ2+cytI8g5cnwf3DoNBKb+AoIiIiIiIyEAoe5YIIuwaH4yYvhixeCVs0O30PEF2gy4XtUZMXQh62RCxaHTWgERExDBhWEOCWWZXMyDGZ6Ot/t2oREREREZHzRcGjnFdusnnMxojJ810eDsTNZH/OgWmwDV6LWKwKedgTNQlp+rWIiIiIiIiIyKCk4FHOmy7XoDpmsjLkYWvEostNBJHnKubCkbjBmrCHl8MWNXGDqAJIERERERERkQvGth0ikVi/Tt2N8WToUFdrSTsbqLcNtkcsDsdNus7jM8wECkyXCV6HKV6HYstVmi6SZdTVWkREhhJ1tRaRTFFTU8/u3QdTh88oNzfIvHmX4vEkmgpKdlJXazkvXCDkGmyNWLwQ8rA7dn5DRwAHaHEM3khe587k9OvzfLUiIiIiIiIiQ1pzczu7dh3s12n//qPYtjo2DCUKHiUt4hgcipus6LJYH7Foti/sL7IOUGcbvBr2sLLL4kDc1PRrERERERERkfNkIIXYhmECAzijZCwFj3JO3GTF4cawyQtdHg7GTaIXsdww7ML+uMnKLg/rIiYNdt+7Z4uIiIiIiIiISPooeJQBC7kGu6Mmq0IeXk82jxksQi5sjVisCHnYErFodjT9WkRERERERETkQlLwKP3mJpvHvBpOrKtYEzcYjCs0uMAJ22Bt2GJVshozrOnXIiIiIiIiIiIXhIJH6Zc2x2BLxOL5kIfdUTNjqgiP2garujysDVvUxA0iCiBFRERERERERM4rBY/SJw5wJG6wOmSxLmLRZA/OKscz6XRhd9Tk+ZCXTRGTFkfho4iIiIiIiIjI+aLgUc7IAZodg3Vhi1UhD4fiJrFMKXM8DRfocGBLxOKFLg/boiYdWv9RRERERERERCTtFDzK24phsC9msqLLwxsRi9YsqhCMA8dsg5fDHl4MWclANXvun4iIiIiIiIjIxWYsX75cxV7SSzzZlGVX1OJAzKRzCDxD8kyY4LGZ7HMotcCrGkgZxDo7w5w40ZI6nLVcN/H36LouruviOA6O4/CnPz2RuquIiEjGu/feezFNE8uyMAwD00zUihhG+n8kt22bo0dP9LzX9teIEaX4/d7UYREZIrZv38eqVZtSh8+otLSIO++8Rq8dWW7dunV4PB5M01TwKL11OAZ7Yya7YiZNtoGTukMWs4AC0+USn8Mkr0O+6ZL+j3ci527v3hpWr97EAL8jZLC3AkhwCYdrUncQERHJeBcyeKyra+Kpp9YM+DPFkiWXM2VKVeqwiAwRCh7l7ZwcPGqqtQAQcw0Ox03Whi1eDVucGGKhI4CdXM9yQ8RiZcjDnphJ2NX6jzL4uK5LJBIjHI4MyVMkEiUSiaYeFhEREekH23bYvfsQodCp77V9Pe3YsZ9wWO/JIiLy9hQ8Ck2OwcaIyaqQxb6YSTx1hyEm5iY6eK8NeXgxbFETH3ohrIiIiIhkt/b2Lg4frk0d7peGhhYaGppTh0VERHooeBzCIm5iWvXKZPOYNkcB28k6XaiOmqwKedgYtmiyDezUnUREREREMtCRI3W0tXWmDvdLNBrj4MFzCy9FRCS7KXgcgmyg3jZ4NWzxYshDrQK1M2p1DDZGLF4IedgZNWl3NP1aRERERDJXOBxl+/Z9OM65f6rdv/8oXV3h1GERERFQ8Di0uECnY7A7arIi5GFb1KTr3D9rDAk2cNw2eCnkYU3Y4nDcJOqmf4FvEREREZHzbd++GpqaWlOHB6StrZOdOw+kDouIiICCx6Ej6hociZu8FLZ4Neyh0VZoNhAOsD+WWA9zXcTkuG0QV+9rEREREckQ4XCUPXuOpKXasduOHfvp7AylDouIiCh4zHYu0O4YbI6YrAxZ7I2ZhNL3GWNI6j6mWyJWonI0ounXIiIiIpIZGhqaqa9Pb0OYzs4QR47Upw6LiIgoeMxmYdegOpYIHF+PWLQ7qsxLt2bbYH3EYlXI4s2YSZemX4tIGsXjcR544AEqKyt573vfS3t7e+oug8LOnTuZMWMGY8aM4Y9//GPqZhERGSQcx2Xfvhqi0VjqpnNi2w4HDx5NHRYREVHwmK2abIN1YYvVIQ+H4ybp/WghJ4u6cChusjrkYW3Iojau7uAi8vZs22bjxo188pOfZNq0aVRWVvacrrjiCh588EEikQgATU1NPP/88wBs2rSJAwcG5xpaq1evpqmpCcdxeO6551I3i4jIINHS0s6BA8dw3fTP1Tl2rJHW1o7UYRERGeIUPGYRF+hwDLZGTZ4PedgRNYmm/zOFvI2YC9WxxLFfH7ZodNQtXER6a29v55Of/CTvete7ePLJJ2lt7b2w/9GjR1m3bh3xeByAkpIS7rjjDgzDYOHChYwbN67X/oPFsmXLqKqqIhAIcNNNN6VuFhGRQcC2Hd5889B5W4uxqyvM5s17sG39BC8iIm8xli9frmgqCzjJrstbIhYHYqYCr4vMBEosl+k+mwlel6ChPzNJnz17jvDcc6/hOEPtg/3Jf0curptZa0nF43G+/OUv8/Of/xyA/Px8PvCBDzBz5syefbZv386JEyf46le/Sm5u7knnFhGRoeLee+/FNE0sy8IwDEwzUStiGOe2pE9rawdPPbWW5ua21E1pk5MT5N3vvpqSkoLUTSKShbZv38eqVZtSh8+otLSIO++8Br/fm7pJssi6devweDyYpqngMdO5yXUGD8RNdkdNmrSO46DiN6DS43CJz6HCcgkogJQ0OJfgsaSkAK/Xw3mYYXXeJaaFJU6u69LQUJ26y6B2+PBh3vnOd9LQ0MCYMWN47LHHGD16dOpuIiIyxJ2v4HHnzgO8+OLrxOPnt0ThqqsuZ+bMSed8e0Vk8FPwKG9HwWOWiLoGNfFEleNx2yAxMU8GGwPINWGsx2Gaz6bMcrXGgZyTcwkeb7ttMQUFuRkVPHavQ+W6Lq7rYNsOjuPw+OOPpe46qG3dupU777yTUCjEggUL+OlPf6qqRhEROcX5CB5t2+Hpp9dy6NDx1E1pN3p0Obfcsgifz5O6SUSyjIJHeTsnB4/KPzKQDTTaBq9FEg1NahQ6DmqJtTdhR9RkZcjDG8kO4/2PjETOXXFxAaWlhZSVZd6ptDRx2xP/zbwpXMFgEL/fD8D+/ftpaGhI3eUUnZ2d3HXXXT2NZ+rre08vd12X1157jXe/+92MGTOGyspK5syZw+9//3s2b97MpEmTqKys5DOf+UzPeerr67niiiuorKzkrrvuor29naeeeoqrr76ayspKxowZwyc+8Qlqa2t7XdeZPP/88z0Ncn7wgx/0jJ+P6xIRkf47fryRo0fP/r6TDvX1zdTXN6UOi4jIEKXgMcOEXIOdyeYx2yIWnRlUtXQmeQYEBv4jbkZwgQbbYEPY4vkuD3tjJhE3y++0DDoDqZKU9Bg3bhxXX301JAO522+/nWeeeQbbHtiUN9d1+a//+i/uvPNONmzY0PPY1tXV8alPfYrvfe97Z+1a2n0Zn/jEJ9i3bx8knyNPPfUUd999d1oDwQt5XSIi8pZ43Gbz5up+T7G2LBOPx0odPqtIJMrOnQcG/P4mIiLZRcFjhoi5BsdsgzUhi1fCHhrszO+YbJAIGyd5HZbmxFkciFPpcfEbiW3ZKgYctQ1WhzysDVscjRvEFECKZD2Px8MDDzzAjBkzAGhqauLee+9l4cKFPPHEEz2drPtqzZo1fPOb34RkNeW3vvUtNmzYwJo1a7jnnnt49tlnCYfDqWfrZf369TzyyCM9533qqaeYOHEiAHv37uVPf/pT6lkG7EJel4iIvKWhoZkjR+pSh8+qoqKMMWNGpA73yb59NTQ2nr8mNiIikjkUPA5yLtDmGLwRMXmhy0N1zCR65gKWjGABIyyXhYE4S4I24zwOU30O1wbjzPfbVFgu2b7iQ8SFXVGTF0IeNkVMTthGr569IpJ9Kioq+M1vfsOHP/zhnrGjR49y3333cd1117Fr165e+7+deDzOY489huM4mKbJww8/zD333ENFRQXjxo3jX/7lX/jrv/7r1LOd1oMPPthz3lmzZvGNb3wDjyexLterr77a70D0TC7kdYmISMKBA7X9fn31eCxmzJjE1KlVPa/T/RGP2+zbV4Pj6NOtiMhQp+BxEIuT6Fb9YshifcSixcn8YMoECkyX6X6bZcE403wOOclOz0Zy2+XJbZf7E41Y+j/BI3O4QKtjsDFisSrkYVfUpMPN/MdZRN5eTk4OX//613nllVd473vf29M0YO/evdx8880888wzqWc5RXNzM2+88QYA8+fPZ968eb22G4bBDTfcQCAQ6DWeatKkSSxevLjX2MSJEykvL4dkVWYkEum1faAu5HWJiEhCOBxl376afjeVKy4uoKpqBMOHF1NQkJO6uU8OHaolEommDouIyBCj4HGQqrcN1oVNXgp5OBQ3syKI8hsw3uuwNGgz3+9QYr39vSq2XOb4Ha4Lxpnhtyk03ayefu0Cx22Dl8MeXgpZHIybhDX9WiSrjRkzhgcffJDXXnuNm266CZKVjF/60pc4ePBg6u691NbW9jSnqaysPG13bMMwztoBtaSkpKfhzfl2Ia9LREQSdu7cT1tbR+rwWVVVjcCyLPLycpgwofKs7yen09zcfsEa2oiIyOCl4HGQCbkGu6Mmq3q6HydCqUxmAmWWy3y/zdVBmyqPgz9Z5XgmXsNlmOWywG9zbU6cyV4Hb7IyMluFXdgXM1nZ5WF9xKTeVvdrkWxXUVHBD3/4Q97znvdAsvHM2rVrU3cTERHpl1AozI4dB/o93dmyTMaPH4VhJH7EuuSSseTmnrmC/nTicZstW/aoyYyIyBCn4HGQiJ/UPGZN2EO9nfnxmgHkmTDN57AsGGe63+6ZVt0fHgNGWS6LgzbX5cSZ6HUIZv7hOaMuF7ZHLF4IeXg9bNHsZPkdFhniPB4PN998c8+/29rOvCB/MBjsqR7s6uo67dpdra2tZ20uIyIi2evQoboBVTuOHTuSsrLCnn8XFuYxZsyIAVU91tc3UVNTnzosIiJDiILHQSDkGmyNmjzT6eXNmEm4/9ncoGMBozwuS4NxrgrGKU/DWo05hstEr8M1QZtFgTgVlkv/l7rOHDZwwjZ4LWKxssvDvphJVNOvRTJWdXU1Tz311GlDwng83mttx4KCgl7bUw0fPpwxY8YAsGrVKrZt29Zrezwe5xe/+AVufxf1EhGRrGDbDvv3H+13taPX62Hu3KlYVu9P7pMmjRlwk5m9e2tU9SgiMoQpeLyIwq7BvpjJ810W68MWXf37XDAoWUCp5XJFINEgZpzHOefAMZXfcLnE53BdTpwFAZsRlos3i/M4BzhmG6wKeXgpbHE0biiAFMlA4XCYv/mbv2HOnDl84xvf4Omnn+bpp5/mV7/6FXfffTf/93//B8m1EOfPn5969l4KCwu57bbbAAiFQnzwgx/kqaeeor6+np07d/KRj3yEp59+OvVsIiIyRJw40cLx442pw2c1atQwSkuLUocpLS2kqCgvdbhPjh5toLW1M3VYRESGCAWPF4ELNNsGGyMmK5PNY2KpO2UgvwFTfA7XBuPMTjaEOZ+Kkh2wb8iJM9OX/Q1oQi7sipo80+Xl9YiZFV3ORYaixsZGfvCDH/Cxj32Mj33sY3z+85/n1VdfheQU6u985ztMnjw59Wyn+MAHPsDSpUsh2RH6E5/4BLNnz+aGG25g48aNfP3rXycYDKaeTUREspzjOOzYsZ/OzlDqpjMyTZNx40ZiWad+RczNDTBp0ujU4T7p6Oji4MFjqcMiIjJEnPquIueNC3S5BjujicBxa8TKimnVXgPGeByuCsRZFLApty5cAGgAhabLXH8i8Jzhtykw3ax+YodceCNisaLLw/aoSYejBjQimWDatGn85Cc/4c/+7M8YNWpUz7hpmkydOpUvf/nLrF+/nmuvvbbX+d5Ofn4+jzzyCF//+tcpLy+H5GUtW7aM3//+98yePbtn3wkTJpx0ThERyWaNja3s3380dfis8vKCjBo1PHW4x9SpY8nL6/8PWrbtsGfPEUIhrTssIjIUGcuXL8+C6CszHLMNtkcsDsRNolly1AtNl8leh2k+h7xBUHFoA0fjJrujJofi2bFe5pn4DBhpOVzmc6jyOlkduMpb9uw5wnPPvYbj9D9yft/7bqKk5MzrBw423esUOo6D67rYto3jODz88MOpu8pJ1qxZwz333IPrunzxi1/kk5/8ZOouIiIyCN17772YpollWRiGgWkmPuH1pbmL47hs3LiT117bkbrprGbPnsKVV07vub7TWbt2M2+8UZ06fFamaXLttfOYOrUqdZOIZLDt2/exatWm1OEzKi0t4s47r8Hv96Zukiyybt06PB4Ppmkqp7gQWh2D1yMWq0MeqmPZEToGDZjsTXSrnut3yB8EoSPJNSbHeByuCtosSa4xGRgMN+w8ibpwMG7yYtji5bDFcdtAS3eLCMCGDRt6Qttx48albhYRkSwUCkU4eLA2dfis8vNzmDKl6oyhI8D48aMIBv2pw2flOA579hwmHI6mbhIRkSx35ncWOScxDA7GTVaHEs1jGu3MX5PPBMotl8WBOFcHbSo9Lh5j8N2roJGoxLwmJ9EBe2QaumoPZu2OwdaIxQtdHjZHLNqdLE5bReSsdu7cyU9/+lMARowYwbRp01J3ERGRLFRb28CJE62pw2dkGFBZOZzS0sLUTacoLS06bfOZvqivb6alpT11WEREspyCx/PABpocgw1hkxVdHg5nQfMYEyhINnO5Nhhnqs8hMAgDx5MZQK7hcqnPYVlOnCsCNsMsl2wt6HaSz7tXwxarQhZ7YiZdakAjkrV27tzJX/3VX/H4449TU1NDfX09NTU1/Pd//zd33nknjY2JbqZ//ud/zujRA2sIICIimSMWi7N1615su3/zX7xeL+PHV/ZpKrfP52HSpL7tmyocjnDgwDGSxfgiIjJEKHhMs5Br8GbU5PkuD1siFqEseGP1GzDO67AsaDPf71BqZd6dKj4pNJ3ptykaJFPDzwcXOBw3eTHk4eWwxdG4QczN1nsrMnTF43FWrVrFpz/9aRYsWMDs2bNZsGABDzzwAO3tiYqS97znPdx3330D+oIoIiKZ5dixBmprT6QOn1VxcT7l5SWpw6dlGAZjx46kuDg/ddNZOY7Lnj1H6OrqX7dtERHJbAoe0yQOHLcNXg5bvBz2UG8bxFN3yjAWMMxyWRCwWRKwGe1x8A7yKsczOfn+LM1JVG1mawdsN9n9enfMZFXIw6aISZPWfxTJKmPGjOETn/gEU6dO7bUmV05ODtdeey1PPfUU3/72t8nJyel1PhERyT62bbNr10Ecp3+f1U3TZMKESnJy+r5uY25ukIkTRw/oR63W1g727q3pWYNYRESyXzZmLhdc9/p6K0Me3oxmRyflPBOm+22uCcaZ5rPJM7PgTiUZQKXlsjhgc3XAZoLXIaf/n5syRotjsDlisSrkYXvEokPrP4pkhaKiIv7mb/6GFStWcPjwYWpqaqipqaG6upqf/vSnzJo1a0BfCkVEJPO0tHQMqNoxPz+HqVPH9uv9wjBg3LiR5OYGUzf1ye7dB9VkRkRkCFHweA5s4FCyecxryeYxTupOGcab7Aq9JBDnyoBNeZY2ZTGAgOEy1uuwNGizKBhntMfFk7pjlogBx+zE+o9rwhYH4yZRTb8WERERyQrV1Yfp7AynDp+RYRhMnFhJbm4gddNZFRXlMXx4cepwnzQ3t1NXl1iHWEREsp+CxwFwgUbbYF3YYnXI4lDczPhp1SZQarnMC9hcE7QZ73WyNoRLFejugB2MszgYp8LK7gByX8xkVZeHV8MmdZp+LSIiIpLR2ts7qa4+3O/py4GAnwkTKlOH+yTRkGYUltX/r5OxWJy9e2tSh0VEJEv1/51iiIu4BntiJitDHt6IWLRlQddgvwGTvQ7XB+PM8dsUZHHjlbdjAoWmy3Sfw3U5ieNQnKXHwQU6XNgatfhTl4etyenXmf48FhERERlqXBf27q2ho6MrddNZDR9eRElJQepwnxgGjB1bQWFhXuqmPjl4sJbW1o7UYRERyUIKHvso7hocsw3Whi1eCnk4bmd+UOM1YLTHTVb62QzLwG7V50OR6TI3YHNdTpwZyQAyW/9Q2hyD9RGL50MeqmMmnZp+LSIiIpIxQqEw+/cf7XdTGcMwmDZtAl7vwOf5BIN+pkyp6tXgrK/C4QibN+/pd5WmiIhknv6/SwxBIddge9Tk+S4PO6MmoSx4fywwXS732VwXjDPJ6xDM4G7V54MJjLBclgRsluXEmeB1CGZpJhd1oSZusDrkYW3I4rimX4uIiIhkhLq6Jk6caE0dPquyskKqqkakDvfbpEmjB7RGpOvCwYPHaG/vf6WmiIhkFgWPZ+Ce1DxmfXJadaYLGjDF67AsGGeO38mqbtXny0jLZUnQZmkwEUBmawfsqAvVMZMXQh7Why1OKIAUERERGbRs26a6+jCxWCx10xlZlslll03A4zn3FpJ5eUFGjRqeOtwnnZ0hjhypSx0WEZEso+DxDFygLm5QHzeIZEE+V265LA7GuTpoM9rj4lWVY5/lGC4TvA7XJDtgV3qyd/p1k23wesRiRcjD7qhJSNOvRURERAadhoYWDh2qpb+zlfPzc6msLE8dHhDLshg/fmTqcJ/YtsO+fTWabi0ikuWyNTtJCxOY6XdYlhNnus8hPwPX+jOS06pn+22uDcaZ7HXwK3AcEAMIGm5PxejCgE15lnbAdoAG2+DlsIfVIYuDcZOIAkgRERGRQSEet9m16yCRSP+qHQFGjy4nPz+YOjxgo0YNp7S0MHW4T+rrm6mtPZE6LCIiWSTTcrQLzm+4jPa4LArYLAvaTM6gtf58BoxPVuldEXAotTIvOB2MjGQH7Jl+m+uDcWb6bYoyMJTui4gL+2ImK7o8rAub1NsGTupOIiIiInJBtbd3cuhQberwWXm9XiZNGo1lnfs0626BgI/Zs6dgGP3/khQKRdixYz+2rQV+RESyVTZmJeeF13AZ43FYErS5JifOeI9DrjE4D6AnOa16vt9macBmjMfBk/E9uAcfEyi2XBYEbK7NiXOZ36EwCwNIFwi5sC1qsTLkYXPEosXR+o8iIiIiF8uhQ8fp6gqnDp/VmDHlDB9ekjp8zsaMGUFRUX7qcJ8cOnScxsa21GEREckS2ZaRnHd+w2WCx+GaHJurgnHGex0C/f9x77zJM2Ca3+b6nDgz/DY5ah5z3pnJBjRX+m2uDtpMytIGNG5y+vX6sMWqkIc9Ma3/KCIiInKhxWJxqqsPY9v9m4fi9XqZMmUMXm/6qh27BQJ+xowZ2LqRoVCEgwf7v1aliIhkBgWPA5RjuEzyOlwVsFkQiDPWc3EDSJ8BVR6HJcE4V/gdik2X9H+kkDPxGS5VHoergjaLg3HGeRz8F/E5cb7EgJq4wdqQh1fCFjW2QUwBpIiIiMgFcfjwcRoamlOHz6q0tICRI8tSh9PCNA2qqiowzYF9vTxy5Hi/u3OLiEhmGNg7g/TIM10u9SXWUVwQiDPCcvFewAzGAEqS06qvDtqMV/OYiy6YDKWXBm0WBuKM8rh4U3fKAiEXdkdNVnV52BgxOWFfwCe+iIiIyBAUicR4/fU3cZz+fd43jEQwGAj4UzelTXl5CSNGlKYO90miyUxj6rCIiGQBBY9pYCUDyMt8DjfmxJnvtxl2nrsdJzosw1Sfw7XBOJf7bQpNF0U/g4OZfE5M8zlcH4wzx29TamVfFaoDtDgGr0cS6z/uiprE9SwUEREROS/q6ppobGxNHT6rQMDH+PGjBtQApq8CAR+XXTYej6f/n3jjcZvXX99NLBZP3SQiIhlOwWMaGUBBstvxDTmJsGn4eQggvcAoy2VJMM7igM0IS4HjYGUA+abL7ECiA/blfpviLGxA4wB1tsHrUYuO/i03JCIiIiJ9tHfvEeLx/odz48aNoqSkIHU47aqqKgZ8PceONVBf35Q6LCIiGS7b8o9BwQJKTJf5Pd2ObYrSEDYZQKHpMsufuNzJXoeAplVnBAsYZrlcGUh0Rb/E55BrJh7TbBJzEyGkiIiIiKRXR0cXBw4c63cTlkDAx+WXT8I0z/8nz0DAx5gxIwZUWek4Lnv31vR7GrmIiAxu55qFyVmUmS5X+J2eLtMDbfqSYyamVS8N2swJOBSoW3VGMpLVqgsDNlcHEuFxbv8/l4mIiIjIEOK6Llu27CUUiqRuOqsRI8ooKspLHT5vqqpG4PMNbIXzw4frCIf7fx9FRGTwUvB4AfgMlxHJsOmaYJzJvr6HTSYw3HK50h9nadBmjMfBg0LHTBcwXCZ4HZblxFkUjFOZpQ1oRORUlZWVqUMiIiJn1NrayZ49R3D7W+4ITJgwCssaSOnDwAwbVsywYcWpw33S1tbBwYO1qcNyEbluIvh2HIdQKExbWycnTrRQX9/Uc2psbKW9vZNoNIbrugN6nmaS7mPiui7xuE04HKW9vZO2tk7q65t7HZvEqZm2tg7a2zuJxeI4TuK8WX6YBo2TH6uOjhBtbZ00NJz6ODU0NNPW1kl7eyfhcBTbtofE8/lCMJYvXz7oj6LjupgDKNcfrMKuwXHboDpqcsw2aT/N3NTutQEneR2meB2KsrAxiSQ4QLtjcDhusCtq0eQYxAb9X+VpuJCPy+35cUqsTLwDmWPPniM899xrOM5pXjzO4n3vu2nAay9dLN1v9o7j4Loutm3jOA4PP/xw6q4ZobKykpqamtRhERERAO69915M08SyLAzDwDRNtm7dy9q1m/s9DTk3N8h73nMdeXnB1E3n1d69NaxYsX5AzWLKyop497uvPq8duOXMIpEooVCUjo4umpvbe4KYUChCLBYnHI5g2299DvV4LPx+H8Ggn2DQT35+DsXF+QwbVkxu7oV97p0P0WicaDRKNBqnoyNEZ2eI9vau5PGIJbfHcF0IhcKnBFWGYRAM+jEMg5ycAD6fl0DAR15ekKKifHJzA/h8PgIBH5aVWbVh27fvY9WqTanDZ1RaWsSdd16D339+Sm9iMZtQKEwoFKG1tYP29i46OkLEYjG6uhLP3XA4fMrrqWkaydcdg2DQh8fjwe9PPFaFhXnk5+cQDAZ6xgaypMRQsm7dOjweD6ZpZkbwuKOmlUkV+fgy7I/wbGKuwVHbYEfU5EjMJJYcN4Eqj8PsgE25AschwwW6XIPtEZPqmEmLk0EvZA4QgXzH5fZhcUq8g/5lJaMpeFTwKCIi2Ss1eHRd+MMf1nLkSF3qrme1ePHlzJo1OXX4vHMcl//7vxU0NDSnbjor0zS5/vr5TJ48JnWTnGcdHSGOH2/k2LEGamtP0N7eRSwWT1Z+pe799kzTwOv1MnPmRObPn5aRAY1t2zQ3t9Pc3E5DQwuNjS20tHT0hK7xeKIabqAMw8CyTLxeD4GAn7KyQkaMKKWkpIDS0iJychJB5WA3WIJH13Xp6OiioaGFhoYWjh1roLm5nWg0jm0nqkwHyjDA4/Hi9Vrk5QUpKytixIhSSksLKS0txOtNdzvh7JBxweNDL+xjQnkeU0fmM6wggN+TPQGkm6yAPBQz2BMzibgGU3w24zwueVrHcUiygRO2QXXM5GDMpM0xBm/DFhuIAdHE/+dbLrePUPB4vil4VPAoIiLZKzV4PHq0gT/9aR2RSDR11zMqLMzjjjuWkpeXk7rpgti0aTfr1m0b0Bf+yZPHsGzZ3CHzhb61tYP9+4+mDp+Rz+dl4sTR5xTeuK5LOBylqamNI0fqOHasgcbGViKRxJTpc7Vo0QxmzZpKBuRn2LZNV1diKnltbSP19c20tLTT3t5FPJ747Hk+GUYidA8G/RQVJapFR44cRmlpAXl5wQu6XEJ/XMzg0XEcurrCNDa2UlNTz/HjjTQ3txOJxM7r49UdGufn51BSUkhFRRkjRpRSXJyP3+/NiMD4Qsi44PF7z+3BMCDotbi0spBLRxaQH/Rk1fRrN1kBGXUh13Szrtux9J8N1NkGO6MWh2ImXYPpL9VJBo6R5A1Nyve43F6u4PF8U/Co4FFERLLXycGjbTusWLGe/fuPpe52VpddNp6lS+dctC/BDQ3N/P73LxIO9y8wBcjPz+G22xZTVlaUuikrHTxYyx//+HLq8Bnl5+dy++1XUVg4sMZB8bhNXV0Tu3cf5MCBY+clrLnlloVMmDC417aOxeK0tHRQU1PXE14lqjzTeyz6yzQNPB4Pw4cXM3ZsBWPGlFNYmI/HM7gCyIsVPLa3d3HkyHEOHKilpqaeePzcqhrPhWWZBAI+xo8fRVVVBRUVZQQCvtTdhpyTg8eMKR10XeiK2rxxsJnntx9nR00bHeE4Thp+iRkMjGQTmjyFjpJkASMtl6sCNkuCcSZ4HXKMxHPlonGT1Y1dQKh36Cgi0lePPvooH/vYx3qdnn322dTdMk4kEuHb3/52VtwXERkcGhqaOXy4/1OsPR6LsWNHXrTQEaCkpICKimGpw33S2Rli796BNdPJRKZp4rpg206fTwMNCW3bpqGhhdde28HKlRvZufMAoVBkwJd3Jvn5ualDg4LrunR2hti//xivvLKNF17YwKuvbufgwdpkU5H0H4v+chyXaDRGTU0969ZtZ8WKjaxfv4NjxxqSFamp58h+ruvS1tbJrl0HWLVqI2vWbGH//qNEo7GLFjpC4u+2szPMtm37ePHF13n55a0cPnycaLR7MT3JmOCxm+241LaEeWXPCVbvqudAQydx++I9yUTON7/hMtHrcHXQZlEwziiPi/dCf4Z0kxWOXclTLDkmItIPW7du5WMf+xgjR47koYce6nU6duwYf/d3f0dra2vq2UREhiTXdTlw4BjxeP9/6R02rJgRI0pThy8oy7K4/PJJA2qW4Tgue/bU0NERSt2Ulbxe64JUssVicaqrD7Nq1Ua2bKmmpaU9dZe0MU2TnJxA6vBFFw5HOHToOGvXbmHlyg1s376PhoZmbLv/f2cXSjxuU1/fxObN1axcuYmNG3dSV9c4ZIJ5ks/dw4ePs2bNZl56aTOHDg3OYK+9vYvduw+yYsUGNm7cTUtLR+ouQ1L/3wUGiWjc4UBDJ2t2N/Dq3hMcbwkTHwS/TIicDwaQa7hM9TosC8aZ7080HjrvAaSbrGoMAZ3JqdX6MxORATh06BC//OUv+eIXv8iNN96YupkPf/jD3H333TzyyCNEIpHUzSIiQ05XV5jDh4+nDp+Vx2Nx6aXjCAYvflfoiorSAQegra0dHDxYO6TClfPFdV1aWzt47bUdvPzyNurqms57VV9eXhDPIOrNEInEOHjwGGvXbmHVqo1UVx8+b5We54ttOzQ3t7F58x5WrtzI5s3VtLR0XNRqv/PNcVza2zvZtGk3K1du7KlwHMwcx6GzM8SWLdWsWrWRgwcH9gNSNsmYNR7PxDINCnO8TKnIZ2J5PoVBb0YsYCsyUDbQYhvsjZnsjZu02OehAY2dnFYd7XvYqDUeLwyt8Zj5azx+9rOfpbq6GoDJkyfzqU99Cr8/8QXx0UcfZd26dT3733fffcyYMQOA1tZWvvnNb3LzzTfzzDPP0NTURElJCX/7t3/LunXrePzxxwFYsGABH/7wh3su49ChQzz44INEo4l1tu64445e4V/35TY1NQH0XGZhYSEAzz77LNu3b+eqq67ixz/+MZzmdkciEf7zP//zjPdr5MiR3Hjjjb2ur6SkhNGjR3PrrbdSVVXFo48+ypw5c3ru85ku99FHH6Wpqann3933895772XGjBm9jqXP5+P++++nqqqq132aOHEif/zjHyF5XBYsWNBz297uPCcfh5OPVfdtveyyy3qO79mOfaq3u81ne4y2bt3Kr371K26++WZ+8YtfQPJ5cM899/Q6fic/n0RkcOpe43H37kOsXbuZ/r7dDx9ewrvedfU5rZ+WTtu27WPNmjcGFHSNGjWMm29eOChC1POptvYETz65pl+BSm5ukHe96+o+fa47duwEr722ndraxgtW2TdmzAhuvXXRBankPBPXdTlxooWdOw+yf/9RurpCWRPUeb1eysuLueyyCVRVjcDnu/B/8+dzjUfbdjhypI433niTuromYrF46i4ZoaAgl5kzJ3PJJWPPep+zSUau8XgmtuPS1BFl/b4mVu2sZ09dO6GoPSTXPZChwQJKLZd5AZvrgnEu9TnkmWkoYXaTIWMkWeEY1jqOIudDSUlJzxTjefPmwUnrAwI92774xS/y8MMPs3Xr1l7nf+aZZ/jbv/1bvvvd71JWVsYXvvAFjh071nOe119/vec8hw4d4r/+67+4//77eeihh/jWt77F6tWre21/4IEHuPvuu3uud+nSpXzzm9/sNe25urqaHTt29FzGiRMnWL16NZwUDl522WU9l1FSUsIvf/lLSAabTU1NLFiwgEgkwiOPPMLSpUt56KGH+PjHP87hw4d7rmfkyJFs2pT4AHu2y73jjjs4ceIEb775JgArV67ktttuY8aMGbS2tvY6zrfddhu/+c1velVTVldXEwgEeOihh7jvvvt4/PHHeeCBB/j4xz/OQw89xOzZs097nu7j8HbHqtvZjn2q7iD1u9/9Lg899BDLly+HfjxGTU1N7Nu3j4dOeh58+tOf5vrrr+ehhx7ijjvu4Fe/+tVpb6uIDC7hcJRt2/b1OyAxTYOxYysG1ZfbysrhA+6s3djYSmPjUHjNMvpdOGPb9llDRNu22bfvKGvWbKampv6s+6dTYWHugKbZp1M4HGHXroO88MJGtm3bS0dHV7//pgazWCyxBuTq1ZvYsGEnbW2dWXP/otE4b755iBdffJ2amvqMDR0B2to6WbduG5s27SYcHpqzei7uK0Ga2Y5LTVMXL+1u4MVd9dQ0dRGN9/+XNZFMYQLllsvCgM31wRiTfOfQgMZJVjd2pjSOGdCFiciZjBw5suf/lyxZgt/v58033+TEiRPccccdPduqqqq47bbbeoK4bnfffTeFhYX4/X6uv/56SkpKes5XVVXF7Nmzqa2thWQYd8011/RU7RUWFrJ06dKey1y5ciWzZ8/uVQW3dOlSysrKOHToUM/YydfRfRnHjiW6rHYHf0uXLu3Zf9myZdTU1NDa2kpLSwvBYJBAIMDx48cJBoM9+xYVFTFs2DCKihKdSysqKnou42yXW1hYyN13383zzz9PdXU1NTU1LFiwAJK38Z3vfGfP+aZOnUpXVxfhcLhnbPLkyT2XPWXKFCZPnsxtt93Wc6yWLVt2ynlOPg4kqwpJhoOpznbsT3bo0CFqamr4y7/8y54q0cmTJ1NVVTWgx6j7ebBgwYKe8y1YsICcnBxaWlp6ziMig9OhQ7W0tLSlDp+V3++jqmpE6vBFlZ+fw5gxA7tN4XCUffuOZv10a5/Pg9frSR0+J65LMnR8g/r6RLX8hVRYmHfRmhs5jkt9fTOvvLKNl1/eQkNDc1Y/h8LhKFu37mXFivUcOlQ7oFlRg0lXV5jXX9/FK69spa2tM3VzRorF4mzduocNG3YNyfAxq4LHbqGozZ66DlbtqmfD/iaaOqLYWZL8i5yO33Cp9LgsTXbArvI4+PoaQLpqHCNyoT3++OOnNFKpra2lrKyMQKD3QuwVFRU0NTWdcd3D052PZMVgU1MTjz/+eK8O0o8//jhNTU20tbXR1NTUKwgF8Pv9lJSU9ISXvM11dN+u2tpaqqur+fSnP91zHd/4xjeor68/JeRqbW0lGAz2hGsnh5Ikj0P37enL5U6ZMgWAb3/727zzne/smXpMMsxbvnx5z/m6urp6tr2dk4PP00k9DoFAgLKysl770Idjn/p47t69m5ycnFOOcffl9OUxOp3U84nI4BeLxZNrG6ZuObvy8hLKyhI/5AwWHo/F5Mmj8XoHVoX55puHsiZ8eDumaWKa6ftqbtsOBw8e49VXt9Hefvb3vnQzDIPc3GDq8AVh2w6HDtXy4oub2LFjP+FwYqmTbBeP2xw92sBLL73Brl0HM/Z+d3WF2bBhJ2+8UU0o9PaffTNRLBZn8+ZqNm7cTSTS92UVskH6Xt0GodauGFsOt7BqVz2bD7fQ2JGZf3wifeUzXCYlO2AvDMQZZbn43i59dIF4MmzsTAaOqMJR5ELonir7hS98gUcffbRnvKSkpCeQS6c77rijZ4pu9+lzn/tcz3WdLWzri8mTJ/dMEe4+fe973+up9utWWFjYU7FIsirwyJEjhMNhDh06xPr163uqCOnD5XYHcKmeffZZHnzwwZ5pzl/84hfJyRnYVL9zcbZjf7IzPf7peIxEJDM0NbVSV9f/CjWv18PMmZMu+pp6pzNsWAmVlcNSh/skEomyY8f+rK5YA3cA9+/0H9pdFw4cOMaLL75+0QJbj8dDIOBLHT7vQqEIW7ZU89JLbwzob6i/TNPA7/eSmxukqCiPkpIChg0rory8pNeppKSAoqJ88vNzBhzA91VbWyevvLKVTZt20dmZWV3h29u7eOWVbezceSCtzVgMw8Dn85KTE6CwMPE4pT5GI0aU9jxOeXnB87pcxc6d+9m168AFXfrgYsvq4JHk9OtjzSFeqT7Bqp117D7WRns4PqBfEEUyRYHpMt3nsCwnzhy/TZnl9v5jt5PrN3Yk13PU34PIBXfjjTfyrW99i5qaGg4dOkRFRQXV1dWnrL9XW1t7xkDqTLpDue4p0am6t6dO/e2usutr2FVRUcGJEyd6TUk+2YgRIwiFQrz55ptUVVUxf/58vvCFL/Cxj32MOXPmMHnyZL7whS/w4IMP8hd/8Rc9VYtnu1ySTVWampr46Ec/yvPPP08kEiESibB9+3buvffeU4LPdAuHw3R1dfWqtKQPxz7V2z3+6XqMRCRzVFcfGVC10vDhxYwePbApzeeb12sxadLoAU8nTjQFefv3gkxnGGa/pyUnGu6dOqW2sbGF9et3pL3S0TAMTNPANE0sK3Hyej3k5ATwej1YVqJqMxHyeC54Q6BwOMLGjbtYvz6x1mG6v+8n7r9JMOhn+PASJk6sZNq0CcybdylLllzOtdfO5/rrr+CGGxZw4429TzfccAXXXTePq6+ezZw5U7nkkrGMHl1Obm4QyzL7vb7n2YTDUbZs2csrr1yciteBsG2bzZurqa4+dM6ho2EYeDwWhYV5jBkzgksvHcecOVO56qrLufbauVx//RVcf/0VpzxGifH5LFkyi3nzpjF16liqqkZQUJCT1orkSCTGxo27OHKkLnVT1krf0csAtS1hXtrdwModdWyvaaVDAaRkuULTZZbf5tpgnMv9Nl43GTh2N45x3/bHUhE5j7qn2ba0tNDZmahGmDJlCmVlZT2dqUlOFV61ahXLli3rGeuvZcuW9Wo2QzKs6/736bZ3N43pnsZ8Nqe77a2trTzxxBOQDM+uv/76nsYmN954Y0/134wZM/jwhz98SiVjXy63tbWVX/3qV1x//fXMnDkTkrc9NayLRCL85je/6dNU67Oprq7uOT4kp81XVlaeNuA83bE9+dg/++yzfPvb3yYSiZz2vlZXV3Po0KHTXk5/HyMRyRwD+TJqWRZTp45Ne4CRThUVZRQU5KYO90lHR4ijRxtSh7OG12v1O5R1XZdotHfDjaamNlav3kRTU//XB01lWSa5uUFKSwuprBzOJZeMZc6cqSxaNINly+Zx3XXzue667v/O59pr53HllZcxdepYystLyMk5dQmY86W5uY21a7ewffv+tDch8fu9lJQUMHnyGBYtmsF1183j2mvnsnTpHBYunMGMGZOYMKGSkSPLGD68mJKSAgoL83qdhg0rpqKijHHjRjJr1mSuumoWy5bN5brr5rFo0UzGjRtFQUF6m/HYtk119WHWrt2clufD+RSP22zevCdZBXhqmN5XgYCP4cNLmDZtPNdckzi+1147l8WLZzJr1mQmTRrNqFHDGT68mOLi/FMep+HDixkxopTx4yuZMWMiS5Z0P07zWbhwBmPHjiQvL6ffPxKcTigUYcOGXYP+sUmX9D2zM0Qk7nC4sYuXdtezalc9+xs61IBGspoFFJiJENJnJKsd9ZQXuai61yx88MEH+cQnPkFVVRV+v59PfepTNDU19awHePL2gaqqquLee+/l+9//fs/lPv/88z2BVVVVFffffz8PP/xwz/bt27fzqU99qs9Vln6/n7/8y7+kurq65zIeeOABLr/88p59ZsyY0TO9PLWrc2trK48++ugp6x6e6XIjye7YkydPZsaMGfj9fu666y7+8Ic/sHXrVu64446e891///3MmzcvLVOtJ0+eTDgc7rk9TU1N3HPPPam7QR+O/clO9/g/+uijFBUVpeUxEpHMMZDKvtzcAJWVw1OHB5Xc3CCjR5enDvdJLJbocJutEpWE/QszEgU0b1XRxOM2mzbtpra2cQDTthNM0yAY9DNmTDmXXz6Fq6+eza23Lua22xZzzTVzuOKKy7j88slMnVrF5MljmDhxNFVVI5g4sZIpU6qYPXsq11wzh2uvnUcweGGCx87OMC+/vJXduw8Sj6cndDQMA7/fx7hxI1mwYDq33LKIa6+dy+WXT2bs2JGUlRURDPrx+RKVnv0JojweC7/fS0FBLmPGjGDmzEnceOMCrrtuHtOmTSA3N9ivyzsTx3HYu7eGF198g+bm9tTNg8aBA0fZsGHngNc99Pm8jB07kiuvnM6tty7i6qtnM3VqFSNHDiMvLwefz4tlWX0+roaRCN79fi95eTmMGjWcWbMmc/PNV3LNNXOYMGEUPt+5T8Wuq2saAstIJBjLly8f9Pfye8/tSR1KmxyfxaiSIFNG5DOiKEjAaw3qXwpF+soFOh2D47bBm1GTY7ZJ2D1pbcdo+hvJ5Htcbi+PU+JN44XKKfbsOcJzz702oI5173//zRQX56cOD2rdb8aO4ySnFdk4jsPDDz+cumtGqKyspKamJnV4yGhtbeWb3/wmTU2911667777enVtHoyeffZZBX4ict4ZxvCUKSln/3Jy+eWTWbRoRlqnA54Px4838uSTLw0oYAgEfNx222IqKk5t6JXpQqEwTzzxEg0NvRuynYnX6+HmmxdSVTUCx3HYtm0f69ZtJxrt37E1TYNAwE9ZWSEVFWVUVAyjuDgvrQHY+dLc3M7LL29JdnI+9+8fHo9Ffn4uo0cPZ9y4UZSVFV7Qys1YLE5DQzP79h3lyJE6Wlraz6kC8GRVVSNYuHBG2ptPbd++j1Wrei8HczalpUXceec1+P1empvbePbZ12hoaE7d7YwSDYwCjBw5jIkTRzNiRCk5Of4L8pwNhSIcOnScXbsOUFvbeE5rNQaDfm64YQGjR5dnXQ61bt06PB5PYgmGoR48dvN5TCYMz2PqyALKCwN4rSx71GVIiWNwLG6wM2pyMG4SO91fuZsMHiPJIDIN064VPF4Y5xI8vvvdSy9al8GB6g4eXdfFcZye069//avUXTPCUA8eM5mCRxG5EPobPPp8Xu66axmlpb3Xmh2MXBeefnotBw70bf3bVFOnjmXZsrlpnZI6GEQiMZ588iWOH29M3fS2PB6La66Zy9SpVRw71sDTT7/c77VBAwFfMripZMyYEQQCvgsS3KRDJBLjxRdfp7r6cFoqxvLzcxg3biSTJo2mvLz0oj7HHMflxIkWtm7dy/79NQMK6k9n9Ohyrr12Lvn5A1vy4HTOJXg0DHj22XUcPFibustZjR5dzmWXjWfs2JEXpaGW60J7ewfr1+9iz57D57Qu5ciRZdx66+KL0pDpfFLw+DYMoDDHS1VZLuOG5zK8wI//IjyJRQYq6ho0OLA/ZnIgZtLq9OGDg3NS9eM5zk5Q8HhhnEvwWFpaeFHenNMh8aEycXJdl/r66tRdMoKCx8yl4FFELoT+Bo+XXJII4wZ7tWO3Q4eO88wzrwxoLb6CghxuvXVx2qu2LrZ43Oapp9ZQU1OfuultWZbJ4sWXM2lSJStWbOTgwb6HuV6vh4qKUqZMqaKycjh5eee+FMmFFA5HWLduB7t2nXv342DQT2VleXJqbllaptCmSzgcYf/+Y+zceYD6+qZzrn4MBHwsXTqHSZNGp24asIEGj3fddQ379h1l5coN/apWLSzMY9Kk0VxyyTiKivJSN19wXV1htm7dy9atewYcEHu9Hq6//gomTBiVuimjKXg8C9MwyAt4GDssl0sq8hleeOHKq0UGwgWaHIM9UZM9MZM2x+j/Mo5OsvoxOvA1IBU8XhjnEjxmtpOfVy6u2/cP54OJgkcRETmT/gSPfr+XG29cQFVV5nS4D4cjPPHEGurrey+50ReWZbJw4Qwuv3xy6qaMNpDg0TRNFi+eid/vZfXq1/sc5ObmBpk6tYrLLptAfn56GmVcSK7r8sYbb/Lqq9vP+bNwcXEBM2dOZNKkMfj93kF5LBzHpbm5jc2bq9m7t6bfU+m75eUFmTVrClOnjk1rZd1AgseysiLe+c4l/OEPa6mr6/vrQHl5CXPnXkJV1Qgsa/AUUiQ6cu9hw4ZdxGIDe3zGjRvFbbctSh3OaCcHj5nxs9gF5rgubaEY24608MKOOtbtbaS+LULcVpgig4sNtDsGmyMWL3R5eCNi0TKQ0JFkq6kAkAv4z/gZV0TOgUJHERFJl7KyIoYNK04dHtT8fh9jx45IHe4T23Y4cODYgCuLBrP+hl6u63L4cB1btuzpU+hoGAbDhxezePFM5s27lIKC3H5f58XmOC4HDtSyZcuecwodPR6LsWNHsmzZHC69dPygnmJumgalpYUsWjST+fMvJT+/f9WplmUyatQwliyZzfTpE9MaOp6L119/s89rmpqmyfjxo7j22nmMGzdyUIWOAJZlMX36RC69dOyAK89raur6FcJmmoEdlSHCdeFER5TXDzbzwo7jbDncTFNHlH5UAoucN12uwe6oyZ+6PLwWsaizjXOdKZ0IGz1AEMgDfAogRURERAarceNGEQxm1tIPhmEwadIYvF5P6qY+qatr4tixhtThjGYYibU6+8N1XWpq6voU3pimSVXVCK65Zi4TJ1YO+NhfbCdOtLBmzWY6OkKpm/osEPAxbdp4li6dzciRwy7qWo79EQj4mD59IldddTllZYV9akTi8VhMnjyGa66Zy/jxIwfNfW1t7WT79n19Co8Nw2DcuAoWL55JaWnhoA2IfT4Ps2ZNYeTIYamb+iQWi7Nx4+5znk4/WA2OZ94gZzsuJ9qjvLqnkRU76th+pIXWrhi2Eki5wFwg7Brsj5msDlm8HPZw3DZO3zzmXHQHkDnJk1cBpIiIiMhgUlCQy7hxIwftF/EzKSrKY+LEytThPonF4uzYsX/AU04HJ2NAa3DH4/ZZG6uYpsGECaO4+urZDB9ePOCKrIstHI7y+uu7aWvrSN3UZ8Ggn1mzprBw4Yx+Vw4OBh6PxYQJlSxZMovy8lJM8+3/9gsL85g/fxqLFs2kuDh/UL1OxGKxPlXpWpbJhAmVXHXVLAoLL/56jmeTn5/DggXTKCgYWPOe2toGWlraU4ezQma+6lwkLlDXGmbd3kZWbK9j+5FW2sNxzvJaL5IWUdfgcNxkbdhidcjDvphJ5Hw/94xk1WNOsgqy+8fR8329IiIiIvK2EmFSJYWFA/uCe7GZpsmll47H7x/YtM+jRxtobGxNHZYUpmkwdmwFCxfOGHAYMli8+eahAXdDJxnUL1o0k5kzJw0o5B1MRo4cxpIlsxg7duQpQbJlmVRUlLFkySwuv3xSxlVEn6yqqoKFC6dnVEhcXl4y4OY9kUhsQGvfZgIFjwMQiTscawmxds8JXtxVz5u17XQogJTzJA4ctw02RkxWhSx2RU06L/RzzUyu+5ibEkCKiIiIyAUXDAaYPHnMoKpi6q+ysiLKy0tSh/skFotx4EBt6nBGOx+P5YgRpVx11ayMDx0bGprZsGHngDtY+/0+5s27lEsuGZux08xPZhgG5eUlLF48kzFjRvRUPnq9HiZPHsOyZXMZO7Zi0K2F2B8VFaUsWjQzIyodT2aaJpdcMpacnP43KHYch5qa7FpGopuCx3PgOC4HGzpZW93Ai7vq2VffQUf47CXDIn3hAE22wethixdCHrZELNqd9H8g6ZeTG9AE9AoiIiIicjGUl5dQXJyfOpxRvF6LMWPKU4f7xHXh0KHaPk3XzASGYZCb2/+g4kxycgI9TWQyWTQa5/XX3yQUiqRu6hOfz8vs2VMGXIU2mBUW5rF48QzGjBlBYWEeV1xxGVdeOYOSkoLUXTNKQUEuV145naKizAoduxUVFTB9+sQB/ZhQV9c04IB9MFNscI5cIBS12d/Qyaqddax5s4GDDZ3EbVezUWVAXKDLMdgRNVkR8rAhYtGUjsYx6WQlKx9z1YBGRERE5EIyTZMJE0ZlfOWWYSSmAQeDAwvcGhtbOXgwO6oeDQO83v41lzkTn8/LFVdMY/TogQW7g0lt7QmOHKlLHe4Tj8fisssmMGvWlIz/e3k7xcUFLFo0k2uumcOsWZPTHmBfaKZpMn36BCoqBtakZTAwDJgxY+KApoh3doY4frwxdTjjGcuXLx/0+dj3ntuTOjRoGQbk+T2MLs1hYnk+I4oC+D3Kd+Xs3GSn6iMxg90xi3rbOP9rOKaDm5wPHoV81+X24XFKvJlwwzPXnj1HeO651/rUCS67nPy8cnHd+pP+nTmMjz+bOiQiIueB+8MbU4cygmEMT/lVt/cvvKWlhdxxxzUEAgNbH3EwsW2HNWs2s337vrM2STmdkpIC7rxzWcYfC9d12bhxF+vWbU/dNCBTplSxbNncjF/LMByO8uyz6zhy5PiAljWbMGEUS5bMJi8vmLop67huIou40LZv38eqVZtShwfEMAwmTqxk6dI5WfE3vWrVJnbs2J+66azmzJnKwoUzUoczzrp16/B4PJimqeDxfAp6LSaMyGPaqAJK8/xYZ+g6JUNbDIPaeKLK8VDMJCN79LnJ4DE/Toln0L+sZDQFj4n/z9TgUURE5EzOFDwahsE118xh2rTxJ23PbA0NLTz55Et0dYVTN/XJrbcuZvz4kanDGSWdwWMw6Ocd77hqwOtnDhau67Jz5wFWrdo04FD61lsXUVSU2UsSDHbpDB7z83O47bbFlJUVpW7KSPv2HeWZZ17p9/N39Ohybrttccb/cHBy8KhSvPMoFLPZfqSV57fX8dq+Ro61hIjaQy0okDOJuAZH4gZrQxarQhZ7MzV0JPmZ2KMFHERERETOl8LCPKqqKlKHM1pJSQHl5aWpw322f//RIfhj7OmZpsGMGRMZNizzg5uurgi7dx/sd2gDEAj4mD9/mkLHDDN5clXGr117suHDi/H5+j/Fv6mpjc7OUOpwRlNEcAE0dUTZdKCZFdvqeONgM00dUZz+v35KFnGARttgU8Tk+S4v26MmbRe7cYwMCaZpZsHJwDT19iUiIkPP6NHDB9QtdTCzLJNx4yoG1IgB4MiROrq6BtZ4JNsUFxcwe/bUrPicVF/fRGNja+pwn4wbN5Jx4zK7CnaoycsLcsklVRndiTtVMOinoqIsdfisurrCdHRkV/CoqdYXmMc0KM33M35YLhPK8ygIejUFewixgRbbYH/c5EDM5IRtkE09q/JNl9tz45SYg/5lJaOdy1TruXMvycAvLG5yXR8X13VxHAfXdXnllRdSdxQREcl4bzfV2rJM3vnOJYwaNfykbdmhtbWD3/1uNe3tXambzso0DebPn8bcuZcMOLy82NIx1dowDBYsmM7cuVNTN2Uc27ZZsWID1dWHUzedVWFhHrfcsoiyssLUTXIepGOqtWWZzJ17CXPnXoqZZdnIrl0HWLFiQ+rwWd1005UZ34ldazwOApZpUJrnY2pFAePL88gP9L8EVzJLl2twMGawI2rRkGWBYzcFjxfGuQSPH/jALRQW5qYOD2rdU2y6A0fbtnEch0ceeSR1VxERkYz3dsHj6NHl3Hrroqztzvvii2+wbdueATURKSzM493vvpr8/Mz6jNMtHcFjIODjjjuuobQ08wO3hoYWfvvblcRi8dRNZ+TxWFx55XRmzpyUsSF0pklH8FhcXMA737lkQF2gB7sTJ1r57W9XEo32b0G1K6+cwZw5UzL6eaw1HgcB23Gpb4vw6t5GVu6oY0dNK+2hOM5A3mll0HKTgeOemMmqkMXasIfjWRg6mkCB6TLN55Cbua+NQ4LjOBiGkRUnERGRocLr9TBz5qSsDR0BLr98EsHgwGZltLV1cvhw3YBCy2wxatRwioryUoczjuM47N59sN+hI0BZWRETJ1bqc2KGGT26PANnZPVNXl5gQIFqR0dnVr2eKXi8yGK2w+HGLta+eYLntx9nz/EOwjG7V+9WyUwx1+Bw3OSlkMWqkIcDMZNIFj6wfgMm+xxuyIkzy2/jN7LwToqIiIhcRGVlRQNaKyyTFBbmMXp0eepwn7iuy/79xwYUVmUDw0g0lcmG9fG6uiIcPFibOnxWhmEwadJocnODqZtkELMsk6qqciwrO6Mpv99HXl7/g8fEurXZ8706Ox/dDBS1HY42h1izu4GVO+vZV5cIINWEJvPEXINjtsHasMXqkMWeZOCYTQ+lAXgNGONxWBKIc1XApsJyyd7f4EVEREQuDsOAqqoR+P3e1E1ZZ/z4kQMOzxoammlqGlgzkkxXUlJAWVnmd7IGOHGiZUAdfQsLcxk3bqSqHTNMYWEeFRXDUoezhmEY5Ob2v5ozGo0NqKP7YKXgcZAJxWz21XXw4u561r55goMNHYSi2TYxNzu5wAnbYEPEZGWXh51Z3Kl6mOUyz2+zNGgzxecQUJWjiIiIyHkRCPgZM2bEkAhUKirKyM8fWMVaV1eY6urDA1oDO9NVVg7H7/elDmeko0fr+125apoGU6eOo6AgM9f4HKoMw2Dy5DFZ/6NKXl5Ov1+/o9EY2fRSpuBxkOqK2Ow61saLuxp4pfoENU1dROIKIAcjG2i2DbZFTVaGPGyKWDQ7Bln0OgHJKscC0+Uyn8PSYJw5fptC0+219LmIiIiIpNfYsSOyomFIX+TmBpk6dSz9/I4OyenW1dWHaW3tSN2U1Twei2HDigd0zAYb13U5dOh46vBZBYMBJk0a3e9wRy4ur9fD1KlVqcNZJzc30O9u3fG4TTzevwB+MFPwOMh1ROLsrm1n1c56Xq5u5FhziLit6rLBosMx2B01WR328GrYQ53dvxeUTBEwYJzHYUnQZmHAptzSc1BERETkfAsG/UybNiFr1z87nSlTqga0JhpAKBRh376jOENovSqv15s1wXRjYyttbZ2pw2dVXl5CXt7AKmXl4ikuzicnJ/sft2Aw0O9QPBaL97sT9mA2dN7BMpjjurR0xdhR08rz2+vYeKCJ+rYw9hB6Qx1MXCDiGuyPm7wYtlgT8lATN4hm4cPhAcotlwWBONfl2IzzOGoeIyIiInKBjBhRRnl5aepwVisoyGXs2IrU4T7bv/8okUg0dThrBYO+rOkIfODAMeIDmOU3atRwPJ6BrQ0qF8+wYcX9rgTMRD6fp9/Bo+u6WuNRLp62UIzXDzazYnsdmw40c6I9QlwB5AUTdQ2OJDtVr+5KdKrOnt8h3mICxabLLL/N9cE4l/oUOIqIiIhcSJZlMm5cRVZMoe2vsWMrBrzuW1NTG3V1TanDWau4uGDAx2owsW2HY8ca+h22GIbB6NHDU4clA5SVFfU7kMtEXq8nuXBZ30WjqniUi8x2XBo7ory2r5EV2+vYdriFtlAMp58v0tJ3NlBvG7wWMXkh5GF3zKQzyzpVk3w5DBowxeewLCfOFQGbYstFvx+KiIiIXFjBYIDKyqEZqAwfXkJxcUHqcJ/EYnHefPNQvwOsTFVYmDfgTuCDSVdXeEDTrEtKCiguzk8dlkHOMAxKSwf2N55pDMPo9w9Itm0PqPp3sFLwmOEa2iOs39fEc9vq2HakldaumKZgp5ENNNgGm8IWK0IetkYsOrKta0yS34Aqr8PiQJxFAZuRlhrHiIiIiFwskyePJjc3+9c/O51g0H9OzUIOHDhGfX1z6nBWKirKy4rpqu3tXXR1RVKHz+qSS8Zimoo1Mo1lmRQW5qUOZ6WBvo5lE/2FZoGo7VDbEmJt9Qme336cN2vbCUWzJx2/WDocg13RRIXj+ohFo519naq7lVouc/w21wVtpvocgppWLSIiInLRBAI+Zs6cPGS/sBqGwYQJleTnD6zJTCwWZ/v2fThOtn56TzAMI2vWdwyFwth2/x4v0zQZM2ZE6rBkgMLCPAIBX+pwVvJ6rSHVIOx0hva9zzKO41LbEuaVPSdYubOOnUfb6AhnTwv2C6U7cFwVsngl7KHBNrJuSjXJadUFpstMv811wTgz/QocRURERC42w4AJE0YNmS/lbyc/P4fx40cNuJrv2LETtLd3pQ5nFb/fmzXBY3t7F67bv+AxPz8na+7/UDN8eAmGMTTiKMMwh+yPSN2GxiM9xISiNvvrO1mzu4GXdjdwoKGTaD9/PRqK4sDBuMnqsMWLYQ8H4yaRLM3hPMA4r8P1OXEWBhyGWy6erIxXRURERDKLx+Nl7NhRqcND0qRJo/H7BxbAdnR0cfRoQ+pwVvF6Pfh8md9YBqC1tZP+LstZUJCbbNwhmWbYsKIB/6iQefr5xM5CCh6zWNR22FffwcqddazaWc/hxi7CMbvfL+jZLuoa1MQN1oQ8rOzycDBmEsvSY+QFKiyXJcE4S4OJdRwVOIqIiIgMHkVFuZSVDY2mC2dTVJRHaWlR6nCfxOM2b755KKsaNKTyej0EgwMLZgebtrbOfjcEys0Nan3HDDVs2MD+riUz6a90COiK2Oypbef5bcd5ZU8jNU1dxFQBiQ2csA02RkyeDXnZEc3OTtWcNK16lt/m+pw4l/occjWtWkRERGTQmTp1LD5fdoRJ5yoQ8DNxYuWApynW1TVz5Ehd6nDW8HgsPJ7sqPgLh/vfWCY3N9DvbsFy8RmGQTDoTx2WLKbgcYhwga6ozY6aVlbtqmf9viaONoeIxodeABkHmmyDNyIWL4Q8vBGx6HKyN3DMNWCqz+GaoM38gE2hqW7VIiIiIoPV6NHDFaacZOLESgoKclOH+yQWi7F790GiUa17P5g5jjOgytScnMCAQ2m5eLxeDx6PlTosWUzB4xDU2hVjy+EWVmw7zob9TTS0R7CdbIzdTtXuGGyPWqwMedgYtqjP4k7VXmCMx+GqYJyrAjajPY4CRxEREZFBzu/3YdsOtu3gOIn/DuWTz+dl6tSxqYepz2prG2lubksdlkEkFrMHFDzm5gZThyQD+P1eLEvB41BiLF++fNAnTt97bk/qkKSJZRoU53qZMDyfSSPyyA968WThIq9drsGRuMGeqEmNnb1rOJJsHFNkuUz2OkzyOuSrwjHr7NlzhOeeew3H6X9s/r733URJSWatG9W93o/jOLiui23bOI7Dww8/nLprRvnHP+7jy0/u7fn312+fyAO3TOi1T3+sP9jKT14+yg/fdynrD7bylz/fwTPLZzOqSN0es0V7OM4t//k6n722ijtmlUPK82jxxGL++KnZ5P9/9v48Os48v+97389SewGowr4DJAECBPelSXazFy7d05JsjSZqjY8sS9dxorl3/shcS4mdyD73KortkyOf62s7R/5jnJHjKE7i2NGMrMy1ND3dbPbebO7NBSQBkASx71vtVc9y/ygARBUAEgCxVAHf1zl1uvHUQwC14nk+9f19v+7tsexOiJ3q6NHXURRl/gJz/925wuEYDx8+XXUPQABVVXnllTZOnmzLvipn2LbNtWv3uXz5bvZVz1VeHuS9987nffXY5GSIP/uzj4lEYtlXPdd3vvMWdXXpv4dia9y9+4hLl65nb36ukpIi3nvvPC7X9hiM9CJTUyF+/ONLRKPx7KuWpesav/Irb1JdXZZ9Vd64fPkyuq6jqqoEjyLNoSoE/U6aKwtoLPUR9Dm3xRKPhK0wbCq0J1X6DJX4Nu3hOKdAtdntsGh1WJRoNvl9CCKWI8FjfgePc+ERkBES/Tc/6eD/eb5+zUHhP/qLR7RV+fnVoxUSPG5T2cFjKG7wP381wA/O1QPwG//qNm1VvpcKsIUQW0/Xq2YbJc0djG+Dg/J1YL5Ej/qKimJ++ZffyNm+cjs9eBwdneTP//xTYrHV9Xn8tV87T1VVafZmsYnWEjyWlgb41V89J8Hjc2y34FGWWgsAUpbNyEyCy13jfNQ+zN2+aUJxA2sNnyrmghQKQ6bCV3GN96M6XSmV2DYNHRXArcBu3eItj8kZt0m5hI5C5Kz/4aOn1AXdfPZ3TmZUpv3jX91LTcBN/1Scxr//Kcr330f5/vv8o794NL/Pb/yr2/zXP+ngjX9yBeX779P49z+lfyp9ENM3maA26OYnN4c59YeXudMfovb3Psn493Oe9zNCcWP++y+8brntC79X4HcvcqV7ev57/aO/eDS//2/8q9sv3J/Zys1D//DL+dvF7PeZ+/dXuqcJ/O7FRb/H3H4Lv77SPc1f+Rc3CMWN+e/7/f+tHeX77/OTm4uHDfzGv7o9/33f+CdXCMWf9QT7yc3h+esW3u/LbV942xfezv6pOG/8kysZt+83/tXt+d9n7rbO/S5z/7Z/Ks7Bf/Aln3dN8t6/vMUb/+QKwHzoOKetyp/xtRAi/5imiWnai5Yc7/TLyxgenuDp06HszSLPud25GSSL58vTiEG8BAkeRQbTshmcivNV5xgX7w5zf2CGUNzIm8DOBEZNhWtxlQ+iOveS27vKUQeqdZtX3QZnvSa7dEsCRyFyWChu8H77OL92bPllQV8/meaffrcF+4fv8vXvneZHn/dlhHP/42e9/H9/LX39a3sC/N0fdwDww7/RxsnGIn71aAVf/95pDtYU0PeHby1Z/bbcz5irqHu3rQT7h+/S94dvURf0PHf7r//x7fnv9fO/fYLf/jf36J+K85Obw7zfPs7MP7+A/cN3+d//80OL9p/6Zxc42ViU8bvtq/RR5NH5+kn6NofiBl89nuZ3LjTQPxXnr/2P3/A//d8OYP/wXWb++QXebx9fMkRcSs9EjNqgC/uH784vVZ7TPxWnLuie/77MhsTMhov/5f/5kL4/fAv7h+/y3/1y0wu3//Hn/fPbF94vK/Fvrw7ya8cqsH/4Ln/nnUb+qz99SKFb587vv8brTUF+/P84sii4Tle8+hbdLiGEEGn37j0iHk9mbxZCCLHBJHh8AUWBoM+JU9tZd1XCsOidiPLp/VE+uT/C4+Ew0YSZs59OWMC0pXA7oXEppnMtoTFlbd/BMSoQUG2OuEzOewwOOC18So4+OEKIDIVundrg8suff/VoxXx4tK/Sx4Hqgozr/847jfNh3a8dq6B3Mp5RmbcSy/2M+0MRCt06f/t8AwA1ATd/89XqZbd/cH8cgHf2lcx/r7qgm/6pdPXldMxgZsHvVuDWqQu6aR8Mz2/LVuDWebetZH6f+0MRmP3e//rLfl7bE5j/3QvcOr97oYE/vbGy4LG+2MPfeq0mezPM3qZ//Kt7YcHvMOdPbwzzT7/bMr9s/W++Wk1NwL3k9kK3zj+7+DRj+8nGIg5U++fD1Bf5669Uzd/Gb7WVLrofs81VeS4VMgshhEgbHZ1ibGwqe7MQQogNtrPStDXQVZVXm0s42VRMRZEbp76z7jLDsnkyGuGTByN8+mCErtkAMpeELIV7SZVLMY0rCY1hc3v3wfGr0Oq0OOcxOOGyCKgSOAqRT2biBn2Ty1e+LVzSXPg7F/ni0WT2LvNqg24K1zBIZLmf0TcZp8ijLxpOstx2gM+7Jin8nfTS58Lfuchf3B2lbzLOycYi/uCv7qH29z7JWIL8L/9GG++3jy9aJr3Qt9pK+epxugLz5+1jvLq7aP5nt1X5MvadCzhXG74uZeHy6LmBLaG4wXTMWBQWL7edZcLltirfcwPX5dQEXBR5Ft/vC7UPRmSJtRBCvEAqZfD4cX/2ZiGEEBtsZ6Voa2FDkcfB0YYg7x6s5FhjcNsMXlmNSMKkczjMx+3DfNExytOxKKmX7LXyshK2Qreh8nFM4/OYTq+hktzGGZwO1Oo2b7gN3nSb1Oo2DqlyFCKvzFXSLVehN7ek+XcvNMwv+T2zJ5i920t50c9YroJyue1//ZUq7B++m3GZq9b71aPp5cL/9Lst/Pof3yYUNyhw63z2d04+d5n0ycYi6oJuvn4yzVePp/lW27PG8e2D6QrIOc8LRVfjH/3FI9oHI/O34R9+O71smueExavZvpHh4P/+nx+SJdZCCLECjx71kUymsjeLPGUYi49LhBC5R4LHF1Ge9Qcs8jo42hDgwv4KXtldTFmBC13dWQlk3LDoGApzqX2Yzx+OMTAZI57a3ArIhK3Qayh8Gksvq35qqGznPzk6UKbZnHanl1XvcVgSOAqRx/7WazV8+WhqfljKnP/mJx10jEQyqujuD0W4OxDK2O9lzWRV6i38Gad2FdE7EZ/vbdg/FedPvhp47vYvH00tGR4utJZl199qK+GfXUwP4plbWv6ttlL+4u7o/M8LxQ3+2cWn8z0z26r8vN8+TiieroD8r/704XOXKC+UDgbT1ZSh2V6cLAiL/8v/8+F81eaffDXATNxY8fYr3dPcHQhzalfRfIXq3LLrn9wc5t9eHeRlLBy+I4QQYnnhcIy7d5euthdbR9NUlDVU9iQSEiILkQ8keFwlXVOpCrg5ubuEXzhcyYG6IvwundW/TeYvy7YJxQ3u9U3zH28NcOXROBPhJNYGZ2HW7OCYr+Mqfxl18CClEra27+AYZqdVtzkt3vUaHHGZFKn2jnquCbEd1QTc3Pn91+idjM8v61W+/z6ndhVxvD69PPnUH15G+f77/Pa/uUd9sSf7W7zQXE/BpaZa1wTcy/6MmoCbL/7rk/zx5/0o33+f2t/7hAK39tzt//7/fpj/7H+5O3875qZBL5z2/K3/4Rp//Fv7KXTrGZOxeU5fwlO7irg3EOZbC3otnmws4ud/+8T8zyv8nYv87oWG+Wq/uV6Thb9zkbq/9wl/7Xjlipei/3/e2zt/++r+3icZ/+7/9Ut7+O3Xa6j9vU9Qvv8+f/xFH4VufcXb/9r/+A1/+YNj1ATc830p3/uXt1C+/z5/emOYv/5KVcbvspyF/zZ76rYQQoiVuXWrk2h0cbW62DperweHY2V/rxdKpeTvoBD5QPnBD36Q87nNH/28M3vTpnFoKu+drKWswJV9FQAp02JkOkHXcIi+iRgzsRTGRidwOUZVFEr8DhrKfOwu81Psd+JYx2E8BjBlKjxOqXQZKpPm9h0aQ7rIFpcCdbpFq9OiWrNxSoWjWKCzs5ef//xrLGv1r4S/8Td+geLiwuzNOc2enWplWRa2bWOaJpZl8aMf/Sh7V7GN9E/F+fU/vs3/8duH5oe0CCHETqAo5bNHhPNbFvy/eFmqqnDhwklaW9MD03KBbdtcu3afy5fvZl/1XOXlQd577zy6rmVflVdM0+T/+D8+YGJiJvuq5zp37jgHDiz9AabYHHfvPuLSpevZm5+rpCTAe++dw+VyZF+1LU1Nhfjxjy+t6gMPXdf4lV95k+rqsuyr8sbly5fRdR1VVaXi8WU5NJWaYg+vt5Rxrq2CttpC/CusrtguLNtmNJTkxpNJPrw7zDdPp5gMJ9dlAnbIUrib0PggpnM1oTG+A0LHKt3mNbfBOY9Jo25J6CiE2JH+9Zf9vNtWIqGjEEKIdWVZNk+e9M9/sCm2nqZpa6p4jERi8jgKkQckeFwnmqpQHXTzWnMpZ/eVs6+mkCKvY0cNobFsmIgkufp4gg/uDXOrZ5LJSBLDXN0fAwsIWwoPZidVX05ojG3zwFEDSjWb4y6Tc26D/U4LlwSOQogd6Er3NIHfvcj77eP87fO5U40ihBBi+xgcHF91dZ3YWC6XM3vTC0UiK68gE0JsHQke15lDU2ks8/Fmaxln95Wzp9yPx5nfpe+rZVg2w9Nxvu6a4KN7I9ztm15xH6qkrfAkNTupOq7TY6iktnn+5lFgr9PirMfgpNukWNvmN1gIIZ7jZGMRU//sAp/9nZMvPalaCCGEWEo0Gufu3cdSLZdDfL7Vr3CIROJraj0khNhc0uPxBV7U4/FFYkmTnvEoT0bC9E/GiKXMdVmCnE/mlqM3VfhpKPHhdS0OYk1g0FDoSGl0p1QiO+A+cipQpVm0OCwaHfa2qHA0Zz/N2EGFvltCejxKj0chhBDb1/79p1AUBUV5Nul3LRN/tzvbtnn4sIdkcm2Tjf1+L9/5zpsEg1t/XLTTezwCXLnSzpUr91YVBhcXF/Lee+dwu9d2ri5envR4fDHp8ahK8PgiLxs8Atg2xFImQ1Mx7vXPMDAZI2msPjDIZwrgcqgcqg9was+zCaVzhk2FD2M6U9t8STWz90WpZtPqsGhyWHhVO+9Lj21g2lLoNxQaHTa+bRCi5jIJHiV4FEIIsX39p//p30JVVTRNS5+wSfi4JNu2+eyzW7S3P8m+asXefPMohw41bfl9K8EjPHjQzUcfXcM0V35863Q6+Gt/7W2CwYLsq8QmkeDxxSR4lOEym0JRwOvU2F3u53xbOWf2llJX7MXjUHdMD0gbiKcsRmYS2VcBkLAVItb2Dh1VoFC1Oeg0ueAxOOwy8ed56GjNDgBqT6p8FNW5ltBISOYohBBCCLFmDoc+f9H19NANuSy+OJ0Ojh/f91LhxZMnA2uumBTrq6DAi6quLkBNJlMMD49nbxZC5Jh8zjzyks+l01ZTxNsHKni1uZTaoBeXvnMeBtNaOpVSsbf18lyPAnscFmc9Jq+6Lcq0/L+9UUuhI5UeAPRFXKffVFj60RVCCCGEEGL9BQJ+6uoqsjev2MjIJKOjU9mbxRbw+bx4PKsfMNPZ2bvjWpkJkW92TuKVQ1QF/G6d/bVFnNtfzqk9JVQH3Dg0Je/DqBdZ7va5le35ZHQAVZrNKbfBWY9Jg27hzONlyDaQshV6DJVP4xqfxXSeGqpUOQohhBBCiC3R2FiNqi53lvF8iUSS+/e7MU0z+yqxyfx+D17v6gfM9PePEo3GsjcLIXLIdsx68kqRx8GBuiLOtaUrIKuDHrQ1/uHMB8v1tlSV5UPJfKQCxZrNMZfJ216DNqeFO48DRwADGDAVPo9rfBzT6EypxPP7JgkhhBBCiDxXU1OGx7P6wGrOo0d9jI/PZG8Wm0zXNUpLA9mbXyiVMujvH83eLITIIRI85gBNVSj2OzlcH+BcWzlHG4OUFbi2ZQCZWCZ43C5rdBXACbQ4Ld7xGBx3mwRUm9V1K8ktFjBmKtyIa1yM6txNqkxb2++5KYQQQggh8o/f76GlpT5784qlUgZdXb1Yy7SEEptnz54aNG31Z049PUOrGkojhNhcEjzmmKDPycndxVw4UMGpPSWU+p3bMoDM5lBAy/OKQKcCDQ6Lt70GZ9wm5Vr+B46TlsI3CY2PYjrXE5oEjkIIIYQQIqeoqsq+fbvw+73ZV61YT88Q8fjSQzDF5qmuLsPnW3316vDwBLGYPH5C5CoJHnOQpiqUFbg4vivIOwcrOVhXRKHHsW0mYC/V/FfL46XWyuyy6pMuk7c9JnscFp48D1FjtkJHUuWDqM7ncY1hU8HI3kkIIYQQQogcEAwWUl1dmr15xSYmZhgYGMveLDaZrmvU1JRnb36hmZmILLcWIodJ8JjjSgtcnG4q5Z0DFRypD1Cc5xWQhmmR3CZl8ApQpNocdplc8BgccZl5HTjas4FjV0rlo6jGZ3GdYTN/n2tCCCGEEGJnUBTYvbsGh0PPvmpFTNPi9u1OGTKTA+rrK9C01cUUhmFy794j4vFk9lVCiBywule02BIOTaE66OHM3jLOtVWwt6qAAvfa/qhuNdsGe4mSRyXPnoxOBXbpFm95TM64TSo1O28rNgFMoM9Q+CKucSmm89iQwTFCCCGEECJ/VFaWUFDgy968YoOD4/T1SdXcVisvL8bjcWVvfqGhoXF6eoayNwshckA+ZT07nqJAdcDN63tLubC/goN1RfjdOmq+rcFeItBSZ8O8XOdUoEazOeM2eMtj0qBbef0iStkKg6bCV3GNj2M6D5ISOAohhBBCiPzj83nYvbsaZY3nRpZl0dHxFMOQqsetVFDgoby8OHvzC5mmRWdnr/TqFCIH5XNmsmO5HRp1JV5eay7lfFsFTZV+PI78GGNi2jbxZSZbr+0QYfMENZujTpPzXoM2p4Vfze+EbsJSuJlU+TCq801CY8pSlsqEhRBCCCGEyHmqqtDa2rim4SRzBgbGCIUi2ZvFJtI0jf37d68pQO7vH5VenULkIAke85hTV2ko9fJWSxln28ppqSrA69RyegiNadlEEkuPKcnF6FQB/Cq0OS3OewyOu00Cqp23LxwLmLYUbic1LkZ1rs0GjktHwUIIIYQQQuSPYLCA+vrKNYVWAJFInKdPZbnuVquuLqWqqiR78wslEklu3+4iEolnXyWE2EL5mp+IBdxOjT0Vft5sLePN1nIaS3249Px6aDWFnKsgdAANusWbHoPX3SbVmp2T4ehKxWyFjpTKxajOl3GNIVPBzK27XAghhBBCiJfS1FSHrq+tH75pmnR09BCLyXLdreR0OmhpaUDTVn/21d8/woMH3ViWlFYIkSvyK50Sy1Jml2A3V/o531aRDiDLfLgdam5VQNrpqsdsCja5MqxbB8o1m1Nuk3Mekz26hStPp1XbQNxWeJxS+Sym8UlMp99USOXnzRFCCCGEEOK5SkuLCAb92ZtXbGxsiu7uQZaYhyk2UW1tBcFgQfbmF7Ism7t3HzE6OpV9lRBii0jwuA15XRot1QWc21fO6aZS6oq9OVMBadg2kfjSS61zIXcsUm0Oukze9hgccpk5V4W5Gklbod9Q+HJ2UnVHSiWZvzdHCCGEEEKIF/J63TQ11WVvXrG5ISWJRDL7KrGJCgu9NDfXrWnZfCgU5fr1B8Tj8hgKkQtyI40S604B/G6dg3VFnG0r51RTCXXFXpza1j7ktmWTNBeXvSuAdwurCj0KNDksznpMTrksSvJ4WbUBjJgK1xIql2I695IqUXvJYeJCCCGEEEJsK4qi0NLSgNe79iEzIyMTTEzMZG8Wm0hVVfburV9T1aNt2zx+3M/Nmw93xJRy27axllhVKESu2NoUSmyKIo+DA7VFnGsr52RTMRVFbhxbta5ZWbqyUQVcS12xwXSgRrd53WPwhtukXrdwbGEA+rImLYXrsxWOc5OqhRBCCCGE2En8fg8tLfXZm1csHk/S3T2ALeutt1RBgY+DB5twOFbfs9O2be7de8yTJ/3ZV207w8MTPHrUh7lEgY8QuUCCxxewbZtY0sz7TxA0VaHI6+BIfZBfOFTJ8d3FlBW40DY5gLRtSBhb/4aozi6rPuYyecdj0Oqw8nZZtQ1EbIV7SZUPZydVj5gKSy9oF0IIIYQQYvvbs6cWt9uZvXlFbNumq6uPaFSmI28lRYGmplrKy4PZV61ILJbgq6/uMjAwum1D5MnJGT7//Bs+/fQmt293yGAkkZMkeHwBw7L5/OEod/ummY6lsPL8DUtRoNDj4FhjkHcOVnC8MUhZgQt9EwPISGLpSGwzKg0VwKfCPqfF216DE26TgjwNHAHCtkJXSuVSTOOLuM6QqbD1sa4QQgghhBBbKxgspKxsbYEVwMxMmM7O3m0bWOULj8fN4cPNa6p6BJieDnPp0nX6+kayr8p709NhvvzyDoODY0Sjca5cuc/XX99jZiYiw5FETpHgcQXGw0k+ezjKpfZhHgyEiCbMvO+Xp6kKJX4Xp5pKeOdgBYcbAgR9zk2ZLL3cm6Bvg3+2DtTpFm+4Dc56DKrzuI9j0lboMxS+iGm8H9V5klJJLHO/CiGEEEIIsdO4XA727KnJ3rxitg3373fLgJItpijp6tV9+xrXNGgGYGJihq++usPIyGT2VXkrHI7yxRe3efJkYH5bMpnizp0uPv74OqOjExKai5whweMKWTb0jsf4omOUj+8P83AwRCi2dOVevinxu3hldzHvHqzkcH06gNzICkhzk5et60ClZnPabXLOY9LssPL2iT83qfqruMbFmE5nSs37EFwIIYQQQoj1pigKDQ1VBAKrH04yZ3o6zNDQePZmsQWOHWulqqoke/OKjYxM8sEHV3j6dCjvA7mpqTCffXaLx4/7l7wtT58O8cknN3nyZGBHDNcRuS9f85ctE09ZPBqJ8HH7CB/fH6FnPIqxDZq4OjSVskIXr+0t5e39FeyvLaLAvbZy9heJp0yWyh43Iur0q7DfZXLBY3DUZVKYx8uqJ2cnVX8Y07mdVJmxFAkdhRBCCCGEWEZhoY+mplrWWChHKmXw6FFf9maxBQoKvBw92rrmJde2bTMxMc2nn96kp2cobwexTE2F+fLL2zx6tHToOGdoaJyPPrrG/fvdmKaEj2JrSfC4RinTonsswqX2YT5+MMqTkTDxVP6/oFVFoTLg5lRTCefa0gFkkcex5j/WS7Hs9Bt/Npe6fkufPQo0OyzOeQxOuyyKtcU/Lx9YwISpcD2RrnD8JqExI5OqhRBCCCGEWJFdu6rxej3Zm1esu3uQyclQ9maxBRoaKjh+fN+aw0eAqakQH310nVu3OgiHY9lX5yzLsujrG+Hjj6/z5MnzQ8c5sViCr7++y5Ur7Xl1W8X2I8HjS5qJGTzon+Gj9hEud43TPxnDNF/8JpDrXLpKQ6mXN1pKOb+/gr2VBXid6xULLk2Dl+4xqQDVms3rboOzHpNG3cK5CUNrNkLMUniYSlc4XolrDMqkaiGEEEIIIValuLhwzVORmQ1v7tzpyt4stoCmaRw5spe9e+uzr1qVcDjK1avtfP75LcbGplYU4m2lVMqks7OXS5eu09s7jLXU8sFlxGIJbtx4yOef32JqKpx9tRCbQoLHdWAD0aTJ3b5pPrw7zJddY4zMxEka+Vm+vZBDU6kt9vDWvnLOtZXTVOHH59JfKiBMGtbyfR6X2fwiGlCi2bziMjnvNWhxWrjzMHC0gait8NhQuRTX+CymMyyBo1hHa23KLYQQQgiRjxwOncbGatSXOIF58mRAQpsc4XBoHDvWSl1dxUs9pqmUQVdXLxcvXuXu3ceEw9FVBXqbwbIspqZCXL16j88+u8XU1Noqby3L4tGjfj777BbRaDz7aiE2nASP68i2YSaW4nbPNP/x5iDXHk8wHk4uH7LlEZeusqvcz/m2ct5sLWN3uR/PGisgE4ZJaomeGk7AuYa/HT4FWpwWFzwGJ9wmQdXekH6RGy21YFL1h1GdxzKpWmwA0zQxjPy8mKaV8bUQQgghxIsoikJjYyWFhf7sq1YsHI7R1zeSvVlskUDAz/nzJygvL86+alVsOz105osvvuHjj9PDWOLxRPZuWyKRSNHV1ccHH1zh1q0OYrGX/b1sHA4NXV/7MnUh1kr5wQ9+kPPRxh/9vDN7U15QFCgvcLGnooD6Ui9BrxNdy8dIbLFo0uTpWISuoTDDM3HiSXPFxYrFPiffOVGLz5UZXIYthT+L6EytsIehW4EKzWKf06JBt/N2SXXKVhizoCul8iSlMr3C25+LClSbb/sMivN4iE8+6Ozs5ec//xrLWhzgv8j+/bvxeFzZm3NeegmMjW3PXSxu3vwiezchhBAi733ve99DVVU0TUNRFFQ1XSsiqxZezpUr97h6tX3NVW2NjVX8lb9yZv7xWE+2bXPt2n0uX76bfdVzlZcHee+98+j62gpC8l1PzzBffPEN4+PT67Jc2ufzUFNTxp49tVRWluDxONG0zbtvLcsmmUwxOjrFw4fdPH06tC4VioqiUFNTxtmzxwkG1z7lfSl37z7i0qXr2Zufq6QkwHvvncPlcmRftS1NTYX48Y8vreqx1HWNX/mVN6muLsu+Km9cvnwZXddRVVWCx83g0FSCPgfNlQXsKvMR9Dmzd8lLlm2TSKWH7DwcDDE2EyeWenEQEvA5+U+O1+DPmpodshT+wwqCRw0o1mz2OSz2OCx8eVrhaAPjpsKjlEpnKj2lOt9ruCR43BwvEzxqmprHJy5zz6v0f1OpwYxrhRBCiO1AgseNMTUV5s/+7GPC4Wj2VSvi8bj4q3/1dSorS7KvemkSPK6NZdkMD4/z2We3GB6eyL56TRRFwe12UlVVSl1dBVVVpRQUeHG7N/YcPhyOMTo6SXf3IL29w8zMRNYlTFUUhcrKEt588whlZcXrOjQWCR5XRIJHVZZab4aUaTEyk+BK1ziX2ke40ztNKG5grcMbyVZSFQWPU2NfdSFv76/gdHMpNUEPTv35T6t40lhyqbWupC/LUWeDrUMukwseg4MuE38eho7mbMh6J6nyUUznekJjchuEjiI/ZC9Xzs9L+jYIIYQQQqxUQYGHqqq1h4ZzQ2bkGCR3qKpCVVUpr712iIqK4nWpRrVtm1gswePH/Xz55W0+/PAKX355m3v3HjM8PEEsFieZNDCXOJ9dDcMwiccTDA9PcOdOF59/fpNPPrnB3buPmJ4Or1PoyGzoeJTy8vUPHYVYqZd/ZYoVS1k2/ZMxvuoc4+LdYR4OhgjHt8fYEL9bZ191Ief3V/Bacym1QQ8Obemnl2mBucQbqVOxcS3zZuhWoNlh8S2vwSsuizLNzssnb8RSeJhU+TCqczmeHhwjhy5CCCGEEEJsLE3T2LOnJnvzqjx+PMDExHT2ZrHFqqvTy4gbG6vWJXyck0oZjI1Ncf9+N1988Q0ffniF99//msuX73D//hP6+kYYGZlkaipMJBInHk9imtaC1kDpSzJpEI3GmZ4OMzQ0zpMnA9y48YCLF6/NBpt36OrqJxRaWzXuUuYqHV9//TBlZYHsq4XYVNqpU6f+IHtjrrnyaH3KpnOFadnMxFL0jscYjyTRNQWPQ0NX1bz+FEJVFNwOjfIiN7UlHtxOjVjSJGXYGdWdmqrQVluI17m4se3DlMbMgqXWugKVms0Jt8lhl0VQtZ9bFZmLbCBhK/SZKtcTGneS27PCUQUCKux1WMsGyGJ9TEzM8OhR/7p8EprP/uAP/m72JiGEECLv/fSnP51fYq0oyvwSa1lq/fJ8Pg+dnT0kk6nsq1bENC38fi/V1aXr/ngMDIyteoCNz+ehrW3XuoZt+UhRFHw+DxUVxSQSSaanw2tqSbQc27YxTYtYLMHMTISRkUl6eoZ49KiPnp4h+vpGGRgYob9/hKGhsfnHsq9vhN7eER4/7ufx4346O/tob3/MgwdP6esbYWJihlgs8dLVk9lUVaWxsYrXXz8yW+m4vs/VhUZG0svDV8PrddPWtmvHtAiIx5Pcv99NKrXyojNVVWltbaCgwJd9Vd7o6+ub/zu2s9+htljKtOgejfDx/RE+vj/Co5EwsWT+x1EKUOB2cKQ+wLcOVnBsV5CKIjeO2cE6lm1jmosDEwVQZ3u3qUCJZnPcZXLBa9DqsHDn4fCY5Nyk6rjGpZhOV0olmX8344W8sxWpr7kNfNLfUQghhBBC5CC328mRI3tfqtijp2eIZHLlAYLYPEVFfs6cOcTx4/soLNy4wGYuiEwkUkxOhujvH6Grq4/797u5ebODa9fuz1+uX7/PvXuP6ezspa8v3bsxlTLWPOToRZxOB/v2NXDmzGFKS6XSUeQGCR5zQDRh0jUc5oM7Q3zVOU7/ZIx4Kv8DSE1VKPG7eGVPMRf2V3C0MUjQm24gm1ziUx0FcCngU6DFaXHeY3DSZRLIwyDLBEZNhesJlQ+jDtqTKuHFNznvOUhXpL7mNjjnManVbXbG51ZCCCGEECIftbTUv1QV0ejoJMPD49mbRY7weNwcO9YyX+2nLdP+azvyeFwcOdLMW2+t//RqIV7GznkV5gHDsrk/MMOHd4f5qnOcgan4tgggFaDE7+R4YzHn9ldwsK4Ir3PpeKpWt3jDY3DGbVKp5WfgOGkp3Ihr/Dym801CI5x/N+OFNCCo2pxwmbztNWhxWjjysCJVCCGEEELsLC6Xi/r6yuzNK2YYJjdvPpQhMzlM01T27KnhwoUTHDy4B7/fm73LtqKqKjU1Zbz55hGOHm3ZUWGryA/yjMwxlp3u/3i3b5oP7gxy9dEEI9Px2QXI+U3XFGqCHt5oKSPoc2ZfDcA+p0Wzw8KThyFW3Fa4n1T5IKpzJaExYSqsrXtMbnMArc70oJ/jbpOgmp+DfoQQQgghxM6jqsrsEJK1r7fu6RmWqsc8UFoa4NVXD3H27DFqa8s3tNfhVnG5nLS2NnD27HH27m3A6UyvMBQil0hekMNmYgZ3+qb58N4wX3eNMzITJ7VEb8R8pC7zpr90HWRui9gKD1IqH0Y1vpqdVL0NV1XjUmC3w+KC1+A1t0m5ZrP0oyiEEEIIIUTuqqgopqwsmL15VTo7+9Z1gInYGLqu0dhYzblzJ3j99cNUVZWgafl41pnJ6XTMVjke5cyZwxQXF2bvIkTOkOAxx5mWzXg4yfUnE/zlN0PcejrJTCzFDh9mmxMMoMdQ+Sym8UlM54mhEt+Gj4sClGo2p1wm5z0mzXk66EcIIYQQQghmp+ru37/7paoee3uHiceT2ZtFDlIUCAT8HD68l7ffPsXRo3spLi7My2ngqqoQDBZy7FgLv/ALr9LS0oDbvfRqQiFyRf690nYoy4aZWIprjyf4+Z10ADkZSWJu0DQssbyErTBgKnwR0/goptG5TSdVq0BAtTniMrngMTjsMvNyCbwQQgghhBDZGhoqCQTWPoAjFIrw6FF/9maRw+YCyNOnD/DOO6c4ffoAtbXleL3unO6LqCgKTqeDiopijh/fx7e+dYpjx1rxet0vNaFdiM2Su68usSTDshmcinO5a5xL7SO0D8wQihvZu4kNYAITpsKNhMr7UQd3kxoha3u+07tnl1Wf9xi8OrusWuQO27axpexZCCGEEGLN/H4vdXWVa+77Z5oWN28+JB5PZF+1JmtZtm1JEcqaKIpCeXmQo0f38u67pzlz5jAtLQ0UFxficOjZu28ZRVHwet3U1pZz8mQb77xzildeaaO8PJgzQelaTklse/XP9Xxm2+nzt9XYbud7yg9+8IOcvzV/9PPO7E1illNXqQ56aK7wU1Psxe/S5VOPdWYCM5ZCd0qlK6Uyaips1xl2TgXKNZtWh0m9w8YnFY45aWhogvb2x9vqj9GLzN3W9B9hC9u2efjwWvZuQgghRN773ve+h6qqaJqGoijzy0HXGpCJ5Q0NjXP/fveaQj9mH5Njx1peqnKS2eObJ08GePJkIPuq5/L7PZw40ZYzIVQ+i8eTTE+HGRwcY2xsirGxacLhGIZhYBjmphx3Kwrouo7DoRMIFFBaGqC2tozS0gCFhb6cfA/o6xuho6NnVfePz+fhxIl96Hr+99pciWg0zrVr90mlVl4wpigKR4+2EAy+3HvLVrp8+TK6rqOqqgSP24GyIIDcV1NITdCD27EzXsQbLWIrdKcUHiQ1Ri2FVM6/WtauWLNp0S2anBaFMqk6p1mWjWmaa/qEMR8tDB0ty8KyTEzT4k/+5F9n7yqEEELkPQkeN49t27OhUvY1K6MooGnaS/WKnGOaFqa5ugBUVZUdE95slvTjYDI9HWF6Osz4+DSjo5NEIjFisQSRSGxdK00VBdxuF36/F5/PTVlZkLKyICUlhfh8HnQ9/T6QqyzLwjDkefs8a3mfSYfQuf3Yv4gEj9uYx6HRWOZjT7mfqqAbl0OTycOrZANxW6HPUOhMqfQZKomcf5WsnV+FRt2ixWlSodl5OVlcbG9zwaNlpSsdTdPEsix+9KMfZe8qhBBC5D0JHoXIHaZpkUgkiccTTE9HmJycIR5PEY3GiEbjxONJUimDZDI9AHa56llVVVGU9DRqt9uJz+fB63Xj9bopLPRSXFyEx+PG7XZsi6nbQkjwuM2pCnicOjWzFZCVATdOKb9fEQOFAUPhfjIdOMbsdBC5HTkVqNQsDjotanUbpyyrFjlKgkchhBA7iQSPQuSmdMsfG8tKV7Cll2FbWFa6StI0LWKxxKJlx7adXhavqgqapqHrKg6HA13XUFUVVVXk9S22HQkedxC/S2d3hY/migJKC10SQC4jZStMWNCZUnmUUpnZpkNjAHQlPa261WGxz2nhlsBR5DgJHoUQQuwkEjwKIYTIdwuDR0mhtrlwwuBu7wwf3B3m2qMJhqbipFbZO2Q7M4FRU+F6QuXDmM43CW3bho4K6cDxkNPkXY/BIZcpoaMQQgghhBBCCCE2jASPO4Bl28zEUtzonuTivWGuP5lkPJzAXMemuPnGAqYthfakyqWYztWExoSpsB0jWQVwK9DksDjrMTjlNimWXo5CCCGEEEIIIYTYYBI87iA2MBFJcqt7kkvtI1x/MsFYOLFtexguJ2wpPEyqfBzT+CquM2xuzwpHAAdQo9u87jZ43W1Sp9vo2TsJIYQQQgghhBBCbAAJHneglGUzOBXnyqMJPro3Qnv/DDMxY1Xj3fORCXQbKh/HNT6N6/Rs42nVc8uqj7pMLngM9jkt/Oo2vbFCCCGEEEIIIYTISRI87mA2MDwd57MHo1y8N8S9/mlmYim22wrslK3Qa6SXVF+K6XSnVJLb7DbOUQC/CgecFhe8BifcJoUSOAohhBBCCCGEEGILSPAoSJkWfRMxPm4f4eK9YToGQ8RTZvZueccGxk2FKwmVD2I695MqYSu9fTvSFKjVbd7yGLzpMaiWPo5CCCGEEEIIIYTYQhI8ink20DcR47OHI1xqH6FzKEw4nn9LsE1gzFS4Htf4MKZzI6ER2Y5TY2Y5gErN5ozb5LzHYLduyQtbCCGEEEIIIYQQW07yCbFIPGXRNRzm4r1hPn84Ss94hKSRH8ld2FK4n1T5KKbzdUJjZBsPjgEoUG0Oukze9hoccsqyaiGEEEIIIYQQQuQOCR5fQFcV9lUXUl7oQle3d4iVLWWmA8iP74/yRccYPWPRnFyCbQMRW+FBUuXSgknV+RGVrp4CeBRodVqc9ZicdFkEVZud9ewUQgghhBBCCCFErpPg8QUUReFwQ4Dz+ys4VB+gyOvI3mVbs4GZWIr2/mk+ah/mctc4A5OxnBlAYwJPDZVPYhqfxXWeGirxHPndNoIK1Gg2r7sN3nSbNOgWDmUb32AhhBBCCCGEEELkLQkeV6iswMXpphLOt1VwsLaIQo8DbQdVQFo2hOIGd/um+ah9hK86xxiZiWOYWxN6pWyFflPh85jOpajO41Q6cNya32bjaUCxavOKy+S816DFaeFSpMpRCCGEEEIIIYQQuUuCx1XQVIXaYg+v7S3lnQMVtNUU4nNpKDso/bFtmIwkufV0ig/uDHOje4LRUAJrkybQWMCoqXAtoXIxqnM3qRLexoEjgG92WfU7XoPjbpMiWVYthBBCCCGEEEKIPCDB4xo4dZXqoIc3Wsp4q7Wcpgo/BW4ddQclkJZtMxFJ8vWjCS7dG+Z2zxQT4eSGVUCawJSl8E1C46OYzrWExrS1ffs4ArgVqNct3vQYvOkxKddstOydhBBCCCGEEEIIIXKUBI8vQVMVdlf4eau1nDdby2iu9ON17bxoaHgmwdePJvjw3jB3+qaYjqXWrQekDYQshfakyqWYzpUdMKlaB8o1m1Muk/Mekz0OC31b13QKIYQQQgghhBBiO5Lg8SUpgMepsbvczxstZbzZUs7uMh9OTd1RS7CThsXwdJzLneN83D7C/YFpwnHjpQLImK3wOKXyaVzji7hOn6GQfInvl+tUwK/CQZfJBY/BIZdJgSyrFkIIIYQQQgghRJ6S4HEdeZwaTRV+3tpXzrm2cnaV+XHpO+suNiyb3vEoX3aMcen+CJ1DIULx1Krq9ZK2Qq+h8HlM4+OYzpOUSmo13yAPeRRodlhc8Bi84rIo1bb5DRZCCCGEEEIIIcS2t7NSsU2gKOB36+ytKuBcWzmvNpdQG/Tg0HZO3ZoNxFMW3aMRLrWP8PH9UbpHI6RM67kBpAmMmApXEirvRx08TKlEt/ngGB2o0mxecxu85TGp19PTqvONDURthc6UStTaOc91IYQQQgghhBBCLE/5wQ9+kPMpxx/9vDN706ZxaCrvnaylrMCVfdWKWDaE4yl6J6J0DIYYmU6QNLfzSJTFFMDn0qkOejhYH6A64M7ehaitcDep0plSmTYVzOwdthkNCGg2zbpFk9MikKdLqu3ZJfE9hkJHUiVsK/yC16BYzfm3FZFHbDv9fLIsC9u2MU0Ty7L40Y9+lL2rEEJsCuX772dvEjnM/uG72Zty2ve+9z1UVUXTNBRFQVXTtSLKTurjJIQQIq9dvnwZXddRVVUqHjeaqkChx8H+miK+dbCKV/YUU17oQlN3zoGDDYQTBh1DIe70TmVfDcCYqXAzoTGxA0JHjwItTou3PQavuE2CeRo6pmyFXkPl85jGR1Gdp4a6rXtwCiGEEEIIIYQQYnUkeNxEPpfGkYYgF/ZXcGpPCVUBNw5tZz0EidTysWI+hm+r4VZgl8PinMfgjNukPE/7OCZshT5D4Yu4xqWYxsOUuu3DYiGEEEIIIYQQQqzezkq9coCqQGmBi2O70gHkofoiSvzOHTMBe3bF5CIOxd7WT8Yyzea02+C8x2SPw8Kdp30cx02FqwmVD2M6d5IqM9LPUQghhBBCCCGEEMvYzllPTlOAoM/JK7uLeftABcd3FVPkdaBv8yXY1jLJo2sbPhkVIKjaHHeZnPcY7HdaePMwcLSASUvhekLjYkzndkIjJIGjEEIIIYQQQgghXmC7ZT15x6GplBe6Obm7mF88VMn+2kIKPY7s3baNRGqZwTrbLMdyKbDHYXHWY3Bqdll1Pr7YIpbCg6TKh1GdK3GN4R3Qg1MIIYQQQgghhBDrIx+zkG1JUxXKCt282lzG27NLsIs8jm03hMawlq74U2BbLDd3KlCt27zuNjjnManVbbTsnXKcPRs4dqZULsU0Po3rDEngKIQQQgghhBBCiFWS4DHHODSFmmIPrzWXcv5ABS1VBfhd+rYI5Z7HqYDG0qFkPlCBoGZz1Gnyi16DVmd+9nFMotBjqHwe17gU0+k2VFL5dzOEEEIIIYQQQgiRAyR4zFEOTaU26OGNljLO7y+npbIQn0tDzfME0rJtzCWqHvP1VqmAT4V9TovzHoPjbhNvHg7KSdkKA6bCV3GVj2MaHSmVhJ2ufhRCCCGEEEIIIYRYi3zLR3Ycp67SUOrj9ZZS3mwtp6nCj8+lZ++WN0zTJmUu0+cxzziABt3iLbfBa26Tai3/llUDjJoKVxIqH8d07iU0mVQthBBCCCGEEEKIdSHBY57wODWaKvy82VrG6y2l7C734XZsn4dPBfQ8ybt0oEKzOeU2ectjsseRf8uqLWDKUridVLkU07mZ0BiXPo5CCCGEEEIIIYRYR9snudoh0gFkAWf3lfNGSzkNpfkVQNrYLFXwqMxWEOYyBShSbQ65TM57DA65TArU/AocAUKWwsOkykdRna/iOsOmIkuqhRBCiG3iH/xyE4l/8Q73/tsz2VdxvqWYvj98iz/+rf3ZVwkhhBBCbIj8SazEPFUBn0untbqAbx2s4LXmUqoCbhyamvO9Ek3LJpJIZW/OaQrgAvY4LM55DF51m5Tm2bJqG0jYCo8NlU9i6cEx/aZCUhJHIYQQYltqq/JvaMAoIaYQQgghVkKCxzzndmi01RTx9oFKXm0uobbYi0vP3YfVsiFlLk67FMCVg8uVHQrUaDZveg3e9JjU6fk3OCZhpydVfxbX+GR2UrUsqRZCCCG2r5m4wY2eGf7a8Up+61R19tVCCCGEEJsm3zIUsQRFgYDXweH6AO8crODknmLKC13oaq7XPz6jKTa+HHo2qkBQtTnhMrngNWh1WPhyMBh9HgsYnh0c82FU535SJWzJpGohhBBiJ/hfvx5gJm7we7+wK/uqDHOVi/YP38X+4bv0/eFbnG8p5rdOVTPzzy/w4e+cmN/3w985wcw/v8B/+P5R/vIHx6kJuPnPz9SS+Bfv8A9+uSnj+wohhBBCIMHj9uNz6RysC/DOgUpe2Z0OIJ05VAFpWRBPLa63s2cvW00B/CoccJqc8xgcdZkU5lkfRxMYMRWuxTUuxnRuJzSi+XUThBBCCPGSxsIp/qcv+qkLupcNBc+3FPO//K2DPBiKoHz/fZTvv890zOCPfn0f/+brAf799SFONhbxW6eq+a1T1RyuLeCfX3zKd354k1/8o+v0T8X5V1/04fovPuD3f9qV/e2FEEIIISR43I40VaHY7+TE7mLePVTF8cYgAW9ujG4xbYtI3MjejDI7LXorqUC9bvGWJ72sukbPrz6OABFb4V5C46OYzpXZSdVLzPIRQgghxA7w+z/t4kr3NP/ZmRrOtxRnX81vnKwC4L//y8fz2358Y5jyAie/daqa3/439+idjPM3X63mb75azUgoKQGjEEIIIVZFgscXsG2bSNzAsvOzZCzgdXCkIcCF/RWc2F1Mqd+55Uuwl7onVcC/RUuZdaBCsznjNjnnMdmlWzk/pGchGwhbCu1JlQ+jGl8lNEZlUrUQQgghgD/5aoBCt87f/8Xd2VfRWOKhJuDm4u++Mr/U+v/9V/ZQ6NZpLvfCbBD5RlOQk41F/OHPnmR/CyGEEEKI55Lg8QUMy+aLzjHu988QTZp5Gebomkp10MPJ3cV861AlB+sC+F1bXV+YSZmd1r3ZfAoccpl8y2twyGVSoNp5FTqmZgfHXIppfBrX6TFUmVQthBBCiHkLl0wfri3Ivpr+qTgX/tnV+aXWyvffz1g63TkSJWHI+gkhhBBCrI0EjyswEU7yeccYP78zxIOBGcJxA8vKv3RHUxVK/C5ON5Xw9sEK2moKCXgdaJuY+Nk2hJZYas1s+LgZFMCrwF6HxQWvwSm3RUDNr2nVcVuhz1D4NJ5eVt1tqKTy7ykphBBCiE0wt2T6vzjXkLG9ezxGoVunJuDO2L7Q7/3CLq50T88vuRZCCCGEWI18ylq2VNKw6B2P8umDUT55MELHcJhoYvGQlHygawp1xV7ebC3j/P4K9lUX4nNtXjfD1DKfmns2YYiLDlRqNmfcBm95TBp0Cz2P6ljnBsdcTaj8LOqYn1QthBBCCPE8P74xTG3AlREy/u9XBhdNvv6tU9V8/ndPAfDHv7WfuqCbP/lqgB/fGOZkY9GiQTWNJZ6Mr4UQQgghFpLgcZWShsXjkQifPxzhs45RHo2EiSSMPIqunnFoKjVBD2f2lvJWazmtVQUUuHWUzSo9zOLM3rCONKBEsznuMjnvMWh1Wri3qKfkWhjAhKlwc3ZwzO2ERsxeul+mEEIIIUS23/9pF591TWZs++jhBH/vzzqpC7rnezz+8W/t56MH4/yDX27it05V8++vD/Fvvh6YH1TzOxca+K1T1Xz0cIKf3RvjQmsJiX/xzqJAUgghhBACQPnBD36Q89nFH/28M3tTTlAV8Dg1qoMe2mqKqAq4cWj5meXaNiRNi8HJGPcHZuifjBFLbkxFZ2tVAW8frFy0tPpRSuUvouvfe9Knwi7dos1pUqLZWz49e7VClsLjlEpHSmXcVEhl75BDClSbb/sMijehelXsHPbscC/LsrBtG9M0sSyLH/3oR9m7CiHEplC+/372JpHD7B++m70pp33ve99DVVU0TUNRFFQ1fX6hbFV1gBBCCLFKly9fRtd1VFWViseXYdkQSZh0DoW51D7MV53j9E5ESS6zlDiXKQq4dJXGMh9n95Xzxt4ydpf7cDvUda+AjBvWkj0yHcr69nl0KdCoW7zpNnjNbVKRR6GjDUQshftJlU9iGl/FNYZyPHQUQgghhBBCCCGEWEiCx3UyEzO40zfNR/dG+LprnKHpOIa5OFzLBx6nRnNVAWf3lXOurYL6Eh/OdazknC1eWsSprM+AFw0o12xOu0zOeUz2OCxcebSsOjE7qfrjuMbn8dnBMdk7CSGEEEIIIYQQQuS49ch5xCzLspmJpbjVM8UHd4a4+mSCiXAyLwNIVQGfS6epws/5tnJe21tCbbEHl66+dFXi3LLJbMpLTrZWgULV5qDL5G2vwSGXiV+1X+p7bqakrTBiKnwV1/ggqvM4pRKXPo5indl2+r3KNC0Mw1x0mVvGvNzrdLPZtj3/+2b/zkIIIYQQO8Vyx2+5duwmdp658wvLWvz8lOfoM887DzPN9KrQ7XoXSY/HDaSrCkVeB82VBewu91HkdaKr+RKDZbJtCMUNno5F6BwKMRpKrHlJeXmhi185XoPbkTlJe8RU+LOIg+QanpFeBepm+ziWa+nqyXxhoDBpQkdK5XFKZcZSWNs9u/Wkx2PuSiRSJBJJQqEIoVCMRCJJPJ5Y1PbA4XDgdjvx+dwEAn7cbhdut3NT+0rZtk08niQeTzI9HSYSiRGPJ4jHk4CNbdvYtsXNm19k/1MhhNgU0uMxv+Rbj8e/9bf+s/kej6qqzv8NXupvcboHpLLkdbks3bM584g33dMyYxMss+9W0fXM85fNEIslCIejTE6GiMUSRKPx+etsO/07eTwuCgt9FBX58fncOBxrbzBlmpsXEGnas+f386z1A2dFST+v1mqp556qqqibfE6/8Pbbto2up/u/LmTbYJqZ99NK79+1Sibnzi9izMxESCZTxGIJLCvzPtN1DbfbhdfrIhAowONx4Xa7Xup+tG0bwzA39PbNednnkWlaxOMJpqfDTE2FZ8/Dkhn7uFwOXC4nwWABhYV+PB7nS/3MXLCwx6MEj5tAUaC8wMXeqgIay/wUenTUTXiBbJSpaIrHI2G6hsOMhRKYS/RrfJ6gz8l/cqIWnyvzhTRtKfyHiM6MtfL7RgMqNZt9LpNdup1Xk6otYMpUeGyodKVURs2V3+5cJcFjbrEsi0gkztjYFP39o4yPTzM9HSYcji06MFlIURTcbheBgJ9gsID6+grKy4spKPDON7hfb3MHS5OTodnfd4Tp6TDT0xEikdjcXgv/BbY9suBrIYTYPBI85pd8Cx5feeUtFCUdbqRPqpXZQG7xsaLDoeN2O3G7nTidTjweJ16vG03T0NaxVdJ6i0bjtLc/mf9a01T27duF2+3M2A9gejpMV1ffpoVhy3G5nOzfv2vDjoUWsm2bcDjK6Og0jx/3MTY2zdRUiFTKyN51nt/vIRAooKamjPr6SsrKAmsKLrq7Bxkbm8revO5UVWHfvl14PK7sqzLE40kePOheU/ioaRoFBR6czvRrxO/34HI5VxzWJxIp2tufzB8327ZNaWmAxsaqFf379TAzE6ajo3f+a8uyOXSoadFrJRqN8/Dh0/mgVNNUmppqKSjwZez3sizLJhqNMz4+TX//CGNjU0xPRwiFos89vwBwu50UFfkJBJ6dXxQV+df0XjU1FaKrqy9784bweFzs27dr1UGpZVlMTYXp7x+ht3dk/lxsufcyRYGiooLZ869K6uoqKCryr/rn5goJHreIS1cpK3Sxu8xPY5mPQq9jicOH/GBaNpORJD3j0VUHkMV+J985vjh4DFsKfxbRmVpB8KgAJZpNs26xx2lRpK5Pf8jNMm0p9BgKHUmNUUshtbK7LudJ8JgbLMtmcnKGp08H6etL/5GLxZIvPBhYiqIoeDwuSkqKaGioZM+eWgoL1/cAJpUyGBoa58mTAQYHxwiFosTjySX+KEvwKITIDRI85pd8Cx6dzurZ/5s7Jl7+2FhV01OvNU3F4dDxeNwUFfkpKvJRWVkyWwHnWdOJ/UYaHZ3kxz++NP+1w+HgvffOEggUZOwH8PTpID/72eUljgs2V2Ghj+9+98JLVROuRCKR4unTQR486GZsbJpYLL5ohcrzOBw6hYU+Ghoq2bdvF8XFhdm7PNdHH12jo6Mne/O60zSV9947R3FxUfZVGaamwvz5n39CLJbIvuqFFEVB19MhvMuVDr2KiwupqiqhpCSA3+/J/icZDMPkpz/9lOHhqfnj0KIiH7/8y2++8N+uB9u2+fTTW9y//yykLykp4tvffgOXKzN4HBub4j/8h0/mA1qn08G7756ipqY8Y7+1sm2bqakwvb3DPH06OHt+kVhTIKwozBY5pAPIpqY6gsGCVYW5T54M8OGHVxZVpG6EYLCQX/u1c6sK8sPhKI8e9dPR0cPkZIhEIrPC8UVcLielpUXs3VvPnj21Lwzoc9HC4FE7derUH2TvkGuuPJrI3pSXTMtmJmbQPxljLJREVRR8Lh1Hjh0IrISqKHhdOlUBD1UBD7qqkDQsEinzhT0JHZpCa3UhLj3zdidthQcplbj9/DccjwJNDotX3SZNTgvPOk/D3khJW6HbULmS0LiX1Ji283dZ9VJcCrTMPiZia8TjSR496uerr27T0dHL1FSIZNLIOFhXlMylWQsvS72aUimDmZkIvb0jTE2FKCjw4vN5V3VwsJzJyRB37jzi6tV2enqGiUTiiw5g5n43VZ37//R//9v/9u9m7CeEEJvlv/v/PcreJHLYH/zVpuxNOe33f/8fz/dLS18W/n/mZa5XWDJpEI8nCYWijI1N0dc3Qk/PMMPDExiGicfjwul0rMvf7vUQicS5fbtr/naoqkJb2+4lT66npsJ0dDzFMNJ94rbq4nI5OXBgz4aGuPF4klu3Ovj663uMj0+TShkZPd+WOn7LPnazLItYLMHg4DiTkzMEgwX4/d6MfZZj2/D4cT/DwxOLbv96XwD279+N1+vO/jUyxONJ7t17TCKRXPQ9XnQxTYtUyiCZTBGNxpmcnGFwcJSenmEmJ2dwOh2zK3qWfl2kWx2oPHrUN9+nMBZLUF1dRjC4ukB3LSKROJ9+eoNEIjV7n9kcPtxMbW1F9q5EIukq4lTKwJp9TTU3169LwUAqZfDoUT+XL9/lwYNuJiZmSCZTiwLxpZ6fc8/R7LcewzAJh6Pzq7K8XjcFBb5lH4tsk5MzdHT0bMr7gsfjYv/+3Suudp6cDPHFF7e5d+8xMzORRcUfS91P2a9j0zQJhdL3TyKRpLi4aFHYnOv6+vrm24VIxeMWcjtUqgMeWqsLqQy48br0JU7584Np2oxHEjwZjdA5FGYmllq2AtKpq3z3ZB3F/swXTsJW+POIzvAyS45dClRpFvucFnW6nVeTquO2wpCp0JFS6U2pxLbh0Bhldpr4L3gNCqXicdNZls34+DS3b3fy5MnAok+FNU3F43Hh83koLi6iqMiP1+vK+ANmGCaRSIyxsSkmJ0PMzIRJJlOLDniLinwcOdLCvn2Na+51lEqZPH06wO3bXfMnRQs5HDp+vwe/30txcSF+vwePx4WqqliWhW1bfPjhf8z4N0IIsVmk4jG/5FvFo9tdM3uiPndMvPjYeK6/mW2n//951YBOp4PS0iJ27aqmqamOggLfohBgs42MTPLv/t0H81+7XA6++923CQYXVzz29AzxwQdXsLL6xq2EZdkkk6n5rxVFwenUF9y3K2Pb6Uq39947v+ZjnxcJh2Ncu9bOgwc9pFLPfmdNU+ePh0pLAxQUeOeP3yzLIhSKMjo6yejoFKFQJKMCTFEUiosLOXPmEPX1lS+83bYNFy9ezaiwS1cMLt1/c63melN+5ztvvbAic2oqzI9//FFGb0uHQ19RADw3nHCp14iiKBQUeNi3bxcHDzYtGXoz22PzT//0I6amQvPb2tp2cfbssVVVwK3Fw4dP+fDDq/PPfb/fy1/5K2coLw9m78ro6BQ/+cml+ee7y+Xgl37pDLW1a694tG17tkigi66uvozHgNmKa4/Hjc/nJhgsJBDw4/W6Z5eBp58wpmkRiUSZmJhhYmKGmZnIopVNiqLg93toa9vNwYN7ln0sFnr8uJ+f/eyr+ee7oqTf6170HF8t205XmX7nO2+u6PGenJzh88+/4enToYzb6HDoFBX5KS0NUFxcmNHCKpUymJoKMTw8wcTEzII2U2maprJrVzWvvnpwyarwXCVLrXOMrio0lHrZX1tEddCTlxWQc2wbxsIJ7vfP8HgkTDiR+SkdgENT+bVTtZT6M99QLODPIw76jMw3CxUIqDYHnBZtTgtHHgWOJjBmKrQnNTpS6poG5+QDJ1DvsDjgNKnV82eS+HbS0zPM55/fYnx8OmN7Oij009BQSX19BVVVpTgcjud+mmjN9oZ88mSAJ0/6GRwcX9RTyONx8eqrB2ltbVzRgd9CyWSKu3cfcf36g0WNlR0OnZKSIhobq2hoqKK4uHD+E8F04GjPf+L8ox/9KOPfCiHEZpHgMb/kW/D4+uvfmq3un60Uma32zw4gI5EohmERicQIh6NMT6eHOxjG4uNvZkOC2toKXnllH5WVpc89FthoqwkeQ6EoPT1Di6qrXkRR0v/22rX789s8HhenTh3I2G+lnE6d5ua6FVc9rYZhmHz11R1u3erI2O50OmhurmPfvkbKy4tnq4cydoHZgHVsbJI7dx7R1dWXEbYClJYG+OVffv2FlY9LBY+7dlXT0FCVsd96UFWFPXtqF/UqzJYdPCqKMn9/vEgqla50DIdjjI9PEwpFFx3TOhwahw4188orbUsuo7csm0uXrmX0JC0uLuRXfuWtDV9u/cEHV3jwoHv+68bGat599xROpyNjPzYoeBwaGufTT28yPLx4BWpBgZeGhirq6sqpqSnD5XIteK9azLJsYrEET58O0t09SG/v8KLnqcOhs2/fLk6fPoDLtfg2LpQdPLrdTo4ebdmQqkCPx8WePTUvDDVjsQQffHCFp08HM7YXFflpbW1k7946CguX7tmYPsexePp0kDt3HtHfP5rxYYuqKrS2NnL27PFVn3ttFQkec1SBW6e+xMfuch8VRW48zhcn6rkqZVoMTyd4NBLi6ViUcNyYr4DUVYXvnq57YfCoAT7Vptlh0eSwKNXyp4/j3KTqrtlJ1RMr6FuZj5wKVGg2zQ6T3Q4bTx6FwtuFaZp0dw/x1Ve3mZx89kmsqioEAgU0Nlaxe3cN5eXBFX1Kl23uYP/u3ceMjk5mfHI3d/De1rZrxX8AE4kU16/f586dRxkHGw6HTnl5kL1766mpKaOoqGD+j/Lcz5TgUQghxE7wve99b7ZvY3py7VzQtdRJr23bJBIp4vEk0WiM6ekIw8MTjI9PMTExs+gDPmZDk0OHmmlpacDpXBy0bIbVBI8vI/vnBAJ+fvM3f3HJ+3IrdXcP8uGHVzJWrJSUFHH8eCsNDVUvDOfmxONJursHuH79ARMTMzB73+7eXcOZM4dfWEm2VPB46tQBXnll35bdZ9nBo6oqXLhwktbWhuxdl2Tb9nwbgtHRSR496mNwcHzRcejJk20cPrx3yWParq4+/vIvv5z/WtNUvvWt0zQ11Wbst55isQT//t9/yMxMBGZf/2fPHmP//t1LPhbrGTxalsXAwBhffPENIyOT89vTVaJe6usraWqqpbKyFIdj9ecX0Wic/v7R2ZVP4xlVupqmcvx4K8eOtS4ZBM/JDh4LC3185ztvUVTkz951U1iWxc2bHXz99d3530lVVerrKzlypJmamvIlA8elzMxEuHv3Ucb5UlGRnwMHdnPkSMuKv89WWxg8Ln5ViS0Tihu0D0zz/u0hLneNMzQdJ7UJzVI3gkNTqS328PreMs7uK2dvZQF+d/qNw7IhZSwOqBRAm12A7FRgj8PinMfklNukPI9Cx2lL4U5C5WJM50ZC27ahY0C1OeYyedtj0Oa0JHTcIj09w1y6dC0jdASorS3nrbeOcfr0QaqqStcUOjL7aWZb2y7OnTtOXV1Fxqf86f5BYyte+pRKGVy/fp9btzqyDvYc7N+/i3PnTrB//26CwXSVoxBCCCGeT1EU3G4ngYCf6uoyWlsbeOONw7zzzilOnz5IdXXZouqoiYkZPv/8Ft9807mo+mu7Sy9Nz966tdKBxYOM0NHlcnL69AH27q1fcejIbNVXS0sDp08fxOl04Pd7OHlyP6+//uLQcXk5doetkjI7KLG8PEhb2y7On3+Fo0f3ZtyvqZTBnTuP5kO+bDU1ZRn3n2la3L//ZEMHm3R29hIOP1ty6/N5qK2tWDJ0XG9DQ+NcunQ9I3QEKC8P8sYbR3jzzSPU1VWsKXQE8HrdNDXVcf78cfbsqc1oX2CaFgMD4ySTq31v2trnaSQSy5gqzuz9deHCidlzqJU/boWFPo4fb+XQoSYcDp3KyhLeeOMIhw83r+r75JJ8yXJ2DNuGpGnR3j/DxbvDXO4aZ3g6TnID39Q2kqYq1Jd4eb2llPNtFbRWFeJxqkv2f1QAnwp1us0Zt8HrbpN63WJtb2ebywJClsK9pMrFqM6VhMaoub0GxzD3GCmw32nxjtfgqMvEr8rS6q0yNRXm6tX2jAPV9BKFRt566xi1teVLfmq7WoqiUF4e5OzZY+zeXQOzP6elpYETJ/atuNdRR0cPt293ZfxBLijwcupUGydPHlj1NDshhBBCZFIUBU3TKCz0ceDAbt5++xVOnz5AaWlRxjGBYZjcvPmA+/e7NzQ8ES82NDTOwMDY/NeKonDgwO4V9WRciqIoNDZW8dprh3jzzaMcPtyM273W0HF7UWZ7CR4/3srhw80Zr4lQKMqTJ/0Z+89xu50cOpQ5pKqvb4TJyXRV6XpLJFI8eNA9/+G+oijs3l2zLoNiXmR6OszXX9/L6GmpaRq7d9dw9uxxdu2qXnNBw0KKkp4W/frrR2hpaUBV0xPId+2q5vTp/S8RlG+NwcFxpqfD819rmsqxYy0vHJ60HJfLyfHj+3j11YOcO3di3e73rfLyZ6SboDLgRs/TZHetLNtmIpLkTu80H94b5vrjCUZm4iyR1+UFt0OjvjQdQL7VWk6Rd+meDXsdJmdnK+h8eTKgJG4rPE6lKxy/jOv0m8q27OWoAfW6xTmPwWtuk0rNZvnid7HR4vHEkssf9u6t57XXDm1I4+GiIj+vvNJGRUUxBw/u4Y03jlBcXLiig+LJyRA3bz7MqKzwej28+upBDh1qfmEfFyGEEEKsjjLb5/nAgT1cuHCS3btrM1YuJBIprl27T0/PUMa/E5urs7M3o39lYaGPgwebVvzB7lI0TWX//l3s3v3ivnQ7kaZptLXtprQ0ML/Ntm0ePHi6ZC9RRVFoaWnA43kWIhmGyaNHfRtSQTsyMsHY2LO+7W63k7176za82i2RSHH58l36+0czttfXV/LGG0coLw+u+/PJ53Nz/Hgr1dVltLQ08NZbx6iq2toetKtlWTZ9fSMZwzJLSwM0Nr5cb1SnU+fgwT2UlhZlX5V38iJ4fOdAJaeaSqgocuX14JW1MC2biXCSm0+nuHhvmJvdk0xGkktWDOY6BfA4NfZU+CmYXXadrU63Caj5saw6aSv0GgqfxTU+ien0Ggrx/HtYXkgDyjSb026Tcx6TXQ4Ltyyr3lKWZfPgQQ9PnvTP9z9U1fQnoSdP7l/zJ2srUVpaxPnzJzhxom3Fn0TGYgm+/DKzB6XDoXP0aDNNTbXrUpUphBBCiKVpmkp5eZAzZw7R0lKfEWhFIjGuXLm3qGWL2BymaWZUlgFUVpZQUPD8ITArkR5Ekz/hzWbz+z0cOLAn4z6amYksmig8p6DAS3V1Sca2np5hEonFfVRfhmXZ9PaOYJrPQqzi4kKKizc+fHr8uH82TE2fXyiKQk1NGa+9dnBDqy2LivycPXucV189sC7P/c2WSqUWDeDZv3/3ulQobsQwq62QF7ci4HVwuD7ALxyq4sTuYkr9TrQ8SsDXg2nZjIWSXH08wc/vDHG7d4qpaCpvKyDzmQEMmApfz/ZxfJhUiW7Dx0EBClWbgy6TdzwGh10mBXlShbrdRaMxHj7szviEtbQ0wGuvHdrw6XrM/qyVVijaNjx5MkB397Ppbpqmsm9fIwcPNq3LH2QhhBBCvFhBgZfXXz88u6zx2Wng2Ng09+8/yRggJzZHKmWQSDzre60o6UBMbI7q6rKM+9uyrPmhPNlUVaWurjKjEm9yciZjee16SKUM+vtHMrbV1pZv+CCoeDxJe3tm38qCAh+vvnqI4uLCjH03QjBYkFFRmk8sy8pofQVQU7P6oT7bWV4Ej8z2Ciz0ODjeGOTC/gqONgYpK3DtuCXYKdNiZCbBlx3jfNw+wv2BaaZjqbysgMw3BjBuKtyIa1yM6txKaIQsZYvb2K4/BfAosNth8abH5IzbpESz86LX5k5g2zYdHT2Mjz87KFJVhYMH91BUtHGfRK5VMpmko6MnYwBNSUkRR47sfe6kOiGEEEKsP7fbNd82ZY5lWXR29i4buIiNYxjmogE/UqW4efx+z6KVQs/reVpdXYrL9WwoTTJp0NnZm7HPyxoZmcjoHelw6DQ0VG3o88K2bbq6+hZV7e3b10h5eTBjm1iZjQ6K803eBI9zFAXKi9yc2BXknYMVHGkIUrwDKyAt26Z3IsqXHWNcujfCg4EZQvHVTn4SK2HNTqq+ndD4YHZS9dQ2nVTtAKo1m1fdBmc9Jo26lX9vEttcKBTl7t3HGcsv6uoqaGqq29ADkrUaGBhbdBDT0tKwocs1hBBCCLG89KTjtozVC6FQhNu3uzJ6lImNp2naog9ipfB08yiKsqpegoWFPmprn1Wy2bbNo0f9RCLxjP3WyjRNOjp6Mqpga2rKKCt71otyI8RiCW7ceJBxfhEIFNDWtktaIq3AUq/Z5wXYO1HePoscmkqJ38XJPcWcb6vgQG0RAa9jxwWQ8ZRF70SUzx6O8en9ETqGQsSS5pJPfrE69uzgmI6kykcxna/j6UnVz/4MbB8qEFBtjrpMznkN9jstvIpMq841tm3T2zucsaTD4dB59dWDOJ0rW/q8mQzD5OHDHpLJZ6+aggIve/fW52RIKoQQQuwEiqJQX19Ja+uu+b/Htg2PHvUt6jcoNpbDoWccw9l2uu+m2BzxeJJ4PPPs7nmHqA6Hzt699RlhcTgcoafnWUuhlzEzE+XRo775rzVN5fDh5g3v87fcRGZZ9r8yqqou+gBhcPDZpHqRx8HjHE1VqAq4OdVUwvn9FeyvLaLIk3sn4BstZVo8GYvw6YNRPn04SvdomEhCPrFcq6it0JVS+Sim8UVcp89Q2K71pH4V2pwW5z0Gx1wWQenjmLNM01o0ebKysoSSko1vNr0WoVAk4/dVFIVDh5oWLWkRQgghxObbt68hY1BcIpFcNM1WbCxd1xYdFw0PjxMKRTO2iY0xPDxBKBSZ/1pV1RcON6mtrcjoeWhZNt3dg4uWzK+Wbdv09AxlVDsGg4VUVmYOtFlvlpX+uQsFAgU0NlZnbBPLczi0RVWp9+49lgryBfI+eJzj0lVqgh5e31vKuf3ltFYV4nNpO6piy7YhljTpGAzxwb1hvugYZWAyJv0fV2FucMwXMY2PYzqPUttzcAyAPjtF/A23wRtukxrdxiHTqnNaPJ5Y1H+prq5iwz8FXQvbTn96unDSn8fjYt++XRn7CSGEEGJrBAIFGSfLlmUzNDQuQ2Y2WU1NWcbXk5Oh2SEfElpspHg8yb17me0FPB7XC6dHO5069fWZQ2bSAebLhcWGYfL0aWblZF1d+aJKuvVmmiajo5MZ2yoqivF4nvWyFM+naRqVlaUZK7oGB8cWDQnayXLvbPUlaapCbbGXN/eVcmF/JU2Vfvwu/bkl09tRImXRORTi4r1hPn0wSv9kjKT0GVhWCoUhU+HL2cExD1Mq8W16zKUD5ZrNabfJBY/BHoeFLoFjXgiFYhkHNaqqUlVVmrFPrrBti6Gh8YxtpaWBnFwSLoQQQuxEup4eWrHQ8PAEqZQEXpupsbF6UZXd3buP6O4ewpICkg1hmumBSn19mRW+2YHicmpry3E4nh3TxmKJl64WDoWijI9Pz3+tKMqGD5VhNoCdnMxssVBTU56ThQ25rLq6NGNpumla3LjRwdRUSD7M2Y7BI7NTeV26RkOpl28drOTNfWU0lvpwObblzV2WZcNUNMXdvml+fnuIa48nGJlJSAXkAhYwZSnciqv8LKrzzezgmO16D/kUOOAy+ZbX4KjLpECVPo75ZGJiOmMZh8vlIBgsyNgnV5imxczMs6UrACUlhXIQI4QQQuQIRUmvnFgYbExPh6XH4Cbz+dy0te3KCLyi0ThffvkNjx/3vfQSXpEplTLo7Ozhxo0HGdWObreT1taGjH2XU1oaIBDwz39tGCbd3YMvVaXa0zNMOPzstRcMFmRMn98oY2NTGf3YFUVZtGxYvFhxcSHV1ZnVy319w1y6dJ3BwbEdHz5u+zNAVVHYU+7n7L5y3motZ0+5H69Ty95t2wsnDG52T/Hh3SGuzAaQO7kCcm5S9Z1EusLxWkIjtE0nVQN4FWh2WJz3GpySPo55a2zs2aegAGVlwQ1ffrFWyaRBNJo54S8YLNxx1edCCCFELvN6XRQW+jK2Za9YEBuvtbWRysrMVSxTU2E++eQmX3xxm97eYWKx+JaEF+lgOpcO4JQVH0/ato1pWiQSKcLhKN3dA3zxxTd8/vk3GR+QKwo0NdVRWrqywM3tdtLcXJcR2g8NjTEykrlkeaVSKYO7dx/Nf60oCkeO7N2U4/zBwczXeyDgx+t91vs1f6z8ebERdF3j0KGmRUUhfX0jXLp0nRs3HjI6OpnRhmon0U6dOvUH2Ru3I6euUlLgoqHER4FHxzBtYilzR1X/2aR7QA5NxRmcipEwbHwuDc8OC2LjtsJjQ+VqQudeUmXGVtiuEawGVGg2J1wmR1wWpZqNtoVvyGLtbBtu3nyYcZDU3FxHfX1mpUKuiERi3L37KONT+iNH9i46uVmNuYNt27axbZtvf/vb2bsIIYQQee+nP/0piqKgqiqKosz/nd+Yv/cKfX0jTE09m2jrcjnYvbsmY6/1FonEuXfv8fzXuq6xf//ujGE36yH757jdTg4dat6g+3LtXC4nhYU+BgZGM4aLpFIGo6OT9PePMD0dRlEUbDu9/0bdhidPBhgbm5r/OhAowOVyEApF1+0SicTx+Twrug3xeJL795/MH1MqCpSUFKEoyqLvu/AyPR1hfHyaoaFxHj3qp739CXfuPGZgYGxRFWllZQlvvnl0Vc+/YLCQ9vYn81WThmHi8bioqSlb0e1a6OnTQW7f7pr/OhDw8+qrh1bVoigajXP/fjfmbHGRrms0N9e/8Nj79u2ujKXWtbXlNDfX5/wqpcnJEF1dffPnB7quU1ISIJFILnourP0Sw+l0oOsry0v8fi+FhX4GBkZJJp89x9JL8UcYGkr3AtV1FVVVVvX45qO+vr5nf8d+8IMf7JzkbZZlQyRh8HQsQsdgiPFwgnhqu0ZPy9NVhYoiN7vKfTSU+Aj4HKirfJPMF/Zs4DhgpKdV9xoqsW38zNeAQtVmr8OiyWER1GRJdb6zbZt/+29/ntH75e23X8nZYS3j49P85CeXiMfTn+opCvz6r39rxZ8kLzR3QGFZ1uwn1yaWZfGjH/0oe1chhBAi733ve99DVVU0TZsPINmw4BE++eRGRuhRW1vOd77z1ob9PICRkUn+3b/7YP5rl8vBd7/79qJqoZeV/XOKivz85m/+4or6+G229FTjYW7ceMDQ0PiiibiKouDxpCtUKyqKKS0NzA4BceHxuNbl8bJtuHjxKvfvP5nf5nY71z0g8Xhc/OqvnltRoDM1FebHP/4oYyWNx+N6YTXgXLWjaVoYhjEfyC3kcDioqyvn5Mk2ysqC2Ve/0MWLV2lvf3ZflZQU8e1vv5nR6+9FTNPi0qVr3L/fPb9t//7dnD9/ImO/FxkdneInP7k0v2za5XLwS790htra8uxdM/xv/9vPMoZXHjrUzJtvHlmX59NGevy4n5/97Kv5x1VVlRWH2SulaRrnzx9ftIT6eSzLpqurl6tX25meDi963mmais/nobi4kIqKYkpKApSVBXC5nLhc6/s622qXL19G13VUVd3+S62XoipQ4NZpqyniWwcrebW5lJqgZ9uGbssxLJv+yRiXO8e5eG+YBwMhIom196XIVTYwaCp8NjupujO1vUNHtwJ7nRbf8hocd5sUS+i4Ldg2zMxkTsvzeld+ULPZ0gd5C99PFNzulX+KLIQQQojNkR3gTE1lDpoQm0NRFOrrKzh//gQHDuxZFF7Ztk00GmdoaJw7d7r47LNb/OVffsWnn97k4cOnjI5OLgo51kM8nmRmJrLOl5ebAB2LJZb4npmXUChKNBonkUguul8URaG4uJDjx1s4e/bYmkJHgD17ajNePzMz0UUTol9k7jGdo2kq9fUVGftspFgsc+lvYaF3XcO7zWJZNqFQdNHz4GUv2c+dF1FVhebmOt599zQtLQ2LwsS5PvhPnw5y7dp9Ll26xl/+5ZdcuXKP7u4BQqHolrRU2Gg7Mnicoyrgd+vsryniwv4KTjWVUFHkwqHtrLvFsGyGpuN8en+US+3pADIcN7Dy/AlvoDAyO6n6o6hOR0olaqeDyO3IqUCDbnHWY/C626Rcs3nxZ4gin5hm5rKQXD4oWBw8pv8QCyGEECK3ZC8vXbjUV2wuRVEoKvLz6qsHOX/+BG1tuyguLsTh0DOO+yzLJplMMTk5Q2dnLx9/fIMPP7zKl1/epq9vhHg8kfF9X4aipI/h1vvyMtKVwEtfljo+djj0+SqzxsYqXn31IBcuvMKxY634fGv/IL+0NJAxkTyVStHXN5yxz4sMDY1nDJUpLPRTXr7xQ2WeyTw71vXnV5Lmsuznwnpc1kJRFEpLA5w5c5izZ4/T2tpAIFCQ8Tq27fT5UiyWYGRkkm++6eSDD65w8eJVrl5tZ3h4YlFLgHy2Y3o8Po+igNuhUVHkprbYi9uhkTIs4imLPM/eVsWybaaiKfonokyEk6iKisepoWtqXlXM2bOTqu8lVa4mNLpTKjE7n27B6ihAuWZzyGnxisuiQrdxbN+bu2PZNty48QBrQV/a1tYGioqeTdTLJdFonIcPn87/voqicORIC07n2g9mpMejEEKInWBzezzC06dDDAyMzn/tcjk4dqxlw34eS/Re3Ok9HrOpqkogUEBtbTm1tRX4fG5cLgeGYWJZNpaVWYVlWRbRaJyRkUmePh0kHI7h87nXtAQ7u8djaWmAurpKSkqK1u1SVhagoaFqRcHOUj0eKytLqKkpX/R9S0oC+P2ejKoxRUm3Dzhxoo2DB/fQ2tpAbW05BQW+Ff3859F1jZmZMENDE/PbotEE+/Y1rmgZuW3bXL58d76VkqKkj++bmjIH16zEWns83rjxMKNYoL6+ksrKkox9clF2j0eHQ2fXrmrKyoJLPC/Wfqmvr8TrdWf/+BXRdY2SkiJqayuoqSnD43GhaSqmaWKa6RZSCxmGycxMhKGhCfr6RkilDPx+L263M2O/fLHjezy+iG3DWDhB52CI7rEIM9EUqR00hGaOx6lRV+yludJPddCDS9e2dFLUi1jAjKXQbyh0pDT6jBz+ZdeBChSoNg26zT5nusJRbF+2bfO//q8/y1j+9M47p2htbcjYL1cs1ePxr//1dykpKcre9YWkx6MQQoidZLN7PH766U2++aZz/uvKyhJ+7dfOb9jPY4nei9Lj8cVisQRjY1OMjEwyNDTO1FSIcDhGKmUsCjCYDQyPHm2hqal2RSEYy/R4fOWVNo4da83Y72UpyuIl/svJ7vGoqgpnzx5n7976RUVCigKJRJKLF6/R0zM0v72qqpR33z2dUZ24XkZGJvnJTz4mlXpWKfzOOydpbW3M2G8pY2NT/Pmffzp/2zweN9/5zptr6om+1h6Pf/In/5GZBcMrjx1r4cyZwxn75KLsHo8FBd7Z/prr+Rjbsz0K1+f9wrYhFIowMTHN4OA4Y2PTTE2FiERiGIa55Ot4165qjh/fR0VF8br9Hptlx/d4fBFFgbICF6/sKeb8/gqO7gpS7HfmVdXfeoglTTqHQ3x8f4QvOsboGY+QyFo6mSsitkJnSuWTmMYXcX3bh44eBXY7LN7ymLw6u6xabH8eT+anXdPT4SX/QOWCuROmhdZz2Y8QQgghXp5ppivlFgoE/BsaOoq18Xhc1NVVcORIM+fPH+fChVc4ffoAjY3VFBYuDlvGxqb46qs73L/fvahCcjVUVcXh0HA69XW7rDR0XI6maTgcS39fv9/LkSN7M6pnR0Ym6Ozsyfge66W4uJCamtKMbXfvPl7Uciibbds8ftxPLPbs+LiysnhNH9K/jOzVU+FwbNV9DXOBoqT7Y2Y/J17u4ljXsE9RoLDQR2NjNSdO7OP8+ROcO3eckyfbqK0tX7Ky8unTQT755DoDA6M5e963EhI8PodDU6kscnNyTwnn95Wzv7aIIo8DbR2ffLnOtiGSMGnvn+FS+whfd00wMBkjlQNvRjaQtBWeGiqfxzQ+i+n0GCqJ/H09vpADqNJsXnUbvOUxadAtnMo2vsFinqIoBAKZVQAb1UR8PTgcekYz5fQnfM/61wghhBBi6xmGkTHRFqCsbDP7y4nV0jQNj8dNZWUJhw83c+7cMd588xgtLQ2LlqqHw1G++uo2vb0jGdtXJ//ONaqrS2loqJr/2jQt2tufMDUVzthvPei6xq5d1WgL5kSMj0/PL59eTiyWoKdnaD5M0jSVxsbqTQ/9s6uMJydnMqo3xcZI9x11U1tbztGjLVy4cIIzZw7T2FidEcxbls3o6BRff32PSCR/z6UkeFwBBagKenhtbynn91ewv6aQIq8jp5cdb4RQ3OBu3zQftacrIIem4mzVCnQTGDDmJlVr235SNUCxZnPCbXLeY9DqtPBK4LjjZE/cy+Wmww6HvmiKtUzJFEIIIXJLLJZkevpZGKMoCnV1ZRn7iNzm83lobKzijTeOcObMYYqLCzOuTyRS3Lz5kEQic3rxduZw6Bw9ujdjafXUVIgrV+7NL0VeT9XVZRlDalIpI6Nv6lLGxqaZnHz22vN4XFRVbX5vxYqKzJ85MTGzaNK12FiKolBQ4GPv3nrOnj3GmTOHFvXmHB4ep739Sd5WPUrwuAouXaW22MPrLWWcb6tgb2UBHqfGDiqAxLRsJiNJ7vRO8+G9Ya49nmA8nMTcpATSBMZMhatxjQ9jOu0plRlLycPP4VZGmV1Wvc9pcd5jcMxlUizTqnessrJgxvLleDxJKPSsJ0su0XWNoqLMP5gTEzMvtdRHCCGEEOtrYGA0Y0moz+emoOD5wyhE7lEUBY/Hxb59jbz99kmKizOX6w4NTTA6+mxgzE5QWhrgyJG985WItg2dnb0vWf25NL/fS3n5swIB27Z58mQgYyhktt7e4YwwuKqqlGAwMzTeDJWVxRkVdqZpMTmZWQUtNoeqKhQUeDl4sIlTpw5kVDCbpsWDB08JhaIZ/yZfSPC4BpqqUFvs4Y2WMt7ZX0FLVSE+V24PXtkIk5EkVx+P8+HdIW73TjEaSmCYy7+5vgwLmDAVvkmkA8frCY0Za3vf4S4FGhwWb3kMXnebVGm2vGB3OJ/Pjd//7NNU27YYGBjP2CdXqKqyqEJzdHRyQz5lFkIIIcTqGYZJd/dgxrby8mJ0/eX674mtVV5ezPHjrRkDZQwjxcOHTzP22wmam+szJjRblsXt250kEut7PJqeqFwzPwiK2YrGkZFn064XikbjPH06mLHMev/+3evaT3ClvF73ouq6/v7R54amYuM1NdVy/HhrRtFJKBRhYGAsY798ITnGS/A4NRrKfJzfX84breU0lPpwO9QdNYTGsmFkJsHnD8f46N4wd3qnCMWNRRPG1sqeHRzzMKlyKabzRVxj1FTYzjVTKlCi2bziMvmWx6TZYeGWZdVi9sBgYR8W24b+/pGcPDBQFIXq6rKMA7CZmQhPnz6bMCiEEEKIrRMKRRkdfRaMpP92l25J+CHWj6KkJ+FWVDzr1Zk+Ztx5YZLP5+bgwaaM/ot9fSMZU7vXg6JAXV0FgcCzQS3JZJL797uXXBo7MDCa0QOytDRATc3zp09vFF3XFhULDA6OkUzKcuutpOsahw41U1z87NzPsmzGx/OzclmCx3WgKgpNFX7O7ivnzdZymir8eJw7bzHsyEyCK48nuHh3mNu9U8zEUmvuAWkDESs9qfpSND2pesDc3gdBKlCo2hx2mbzjMTjkMnFJ4CgW0HWN2trMg5KBgVEmJp7fvHqrFBX5qK7O7BN17dp94nE5kBFCCCG2km3bdHb2Eg4/G1bgdjupqZH+jtuBy+Vg9+6ajEElyWSKcDg/l2m+jIaGKpqa6jLui6tX2xkeXroaca28Xje7dlXPB/e2DT09Q8zMZLZFSqUMHjx4Vn2qKArNzXVbFvirqkpdXUXGtvHxaQYHc3NV1U6iaSq1tRUZK2sXvmfnEwke14kCFLh1WqoKONtWzpm9pdQEny2J3CmShkXvRJTPH45xqX2ER8Nh4slnfWNWwgJ6DZXP4hofx3SeGNt/cIwK7HZYvO0xeNVtUiZ9HMUSFEWhsbEat9s5vy0eT3L1antO9k50Oh20tTVmLPWZnJxZtKxLCCGEEJtrdHSS27c7MyrgamvLF/UGFPmruLgw4xjMNC2i0XjGPjuB06lz/HhrxqCZeDzJnTtdmObqzlOfR1GgqakOl+vZcXo4HF0UcM7MRDK2eb2uRcHfZqutLc/oJ2gYJjduPFz3Jeli9dLDojI/QMhHEjxuALdDo7WqkPP7KzjbVk5diRenvrPuasu26R2P8smDET5qH6FrKEw0aT53CEzKVhgwFb6Ia1yKaXSlVBLP+wfbgAOo0Wze8hi84TGp0SVwFM9XWOijtbUx41PR7u5BnjwZWLcWB+upvr4iq9k2tLc/zttP64QQQoh8FwpFuXz5LrFYYn6bz+fh0KHmjKBK5Den05GxxHgnCwYL2Lu3PqPqsbt7kJ6e4Yz9XlZRkY/S0sD815Zl09MzlLHcemBgLGP1T1lZcFGPxc3m87k5dqwl4/kyODjGgwfdO255fq7ZqkrY9SbvRBtEUSDgdXCgtoi391fwyu5iKopcaNvkibMSNhBLmjweCfNR+zCfPhhheGrpT9litsLNhMrPIzq3ZwfHbOe3OAUIqDZHXSZvew32Oy38sqxarICmqbS17aaw8FkPGcMwuXWrk1hs6dfXRkgmUxlTMJfjdrtobq7L2DY8PMHdu+v7KbMQQgghXiyZNLh9u5P+/tH5bYqisHt3DVVVz4ZwiPwXicRIpYz5rxVF2bHBsqqq7Nu3K6MHYyyW4OrV9nWtAnW5nIt6NQ4NjRONpkP+Z9Oun61Uamqqy5gqvRUURWHfvkZKSp5VPNu2zd27jzZ1wnUqZWY8ZwWLqk4X9s/PJ/n5W+cRBfC7dY41Bnl7fyWnm0qoCrhx7qBPn2wgYVh0DYW51790L7pxE75JaoTs7T04RgH8KrQ6Lc57DV5xmxSq9o4aSCReXjDop6Ul81Pb4eEJrl5tJx5/Vr2wUUzT5Pr1B1y92s7MTOS5lZbpk5najImChmFy584jOjp6MM3t/IoXQgghckc4HOPq1Xbu3HmU8eFhMFhAW9uujOMKsflM01y34yLbthkensz4fg6Hht+/81qBzQkE/Bw/3orT6ZjfNjIyyb17T9btfgfYtasq42dMT0fo7h4AYGJihoGBZ6F/IFBAXV15Trz2PB43+/Y1ZkxRnpwMcfny3U3pDWqaJt9808lXX91hYmJmyaE8+SCVMtb1dx8dncz4fl6vO+P6fLFz0q8cUOx3crg+wDsHKjm2K0iJ37njKiDD8aU/wbDY3hWOzC6rrtUtXncbvOk2qdFseQGKNZn71HbhtELTNLl37zE3bjwkmVz6dbYeTNOkvb2bO3e6uHmzg08/vcno6ORzl2H4/R5ee+1gxsFuPJ7kypV2enszl58IIYQQYn3ZNkxNhfn667vcudOVUVHkdjt55ZU2ysqeLQ8Vmy8ajXP37mMeP+5fl+OiaDTOkyf9GdsKC/243c/6+O1Ezc311NU9q0i0bZsHD7qZmgpl7PcySkqKMoZBWpbFgwfdxONJvvmmc/71pygKe/bU4PPlThjc1FS36P7p7h7g66/vEYmsX2VoNsuy6Ojo4dath9y584hLl67T3z+aV6ujbNtmcjLE9ev3mZ7OHCi0VrFYPKM6HaCo6FnVbj6R3GOTaapCkdfBiV3FXNhfwbHGIKV+J/oOCiCX4lS2bwinA+WazUm3yTmPSbPDwinLqsVLKijw8tZbxzKawJumxZ07j7h+/T7hcGxdDlwXSiYN7t/v5vLlOyQSKUzT5MmTAT7//NYLKy1raso5cmRvxlKSmZkIn332DR0dPXnbKFkIIYTIVZZlE48n6Ozs4aOPrvLgQXdG6OhyOTh8uHnRxF+xeVIpg56eYT7//Bu++uouV67cY2xs6RViK2Xb6f6Fk5PPwjRVVdm7tz5jv51I1zUOHmzKOB6dng7zzTedK2ohtBKKonDoUFPGsvahoQl6e4fp7R2Z3+Z2O6mvr8yp157X6+b1149QXv6suMGybDo6evj667tMTYXX/fzCMEw6Onr5+ut7xGIJLMtiYGCUzz67xczMxldarodEIsWjR3188skNrl17wI0bD156ybhhmNy82UEo9Ow+cDodVFQ8652fT7Zr1pPzFAUqityc2FXM+f0VHKwrotjvZLvnj/YydY3ObfpkLFBtDrpMznkMDrtMitSlb78Qa1FeHuSVV/ZlTKFLJlPcutXB55/fYnBwbN0ODkKhKDdvPuDKlfaMhtiaplFaGlhRb5q2tt20tjZkLOGYmgrxxRe3uXmzg5mZ9fl0UAghhNjJLMtiaio8eyJ8k88+u0V//2jG6gSHw8H+/bs5dKhp2wwvyEd37nRx6dI1Ojt7SaVSTE6G5lvZrNXY2CS3b3dlHAMWFvpobKzM2G+nqq4uo7W1cf5r27Z5+LCH7u7BjP1eRllZcHYacZplWdy48YBI5FmIFAwWUlLybJ9cEQwWcPJkW8bAG8MwefCgm08+uUFPz1BGj8qXEYnEuHWrg6++up0RsKmqQnFxIV5v7lfoxuNJrl1r55NPbtLXNzL7fHrKjRsPX1iY8TxPngxw797jjNdxTU055eX52Yt3O2Y9eUXXFCqK3JxqKuFCWwWH6gL4XTpqDn3ysZ7iyWXepLbZzXUp0OSweMtjctptUa7JtGqxMfbsqeH06YMUFnrntxmGSVdXH5cuXeebbzqZng6v6VNc27ZJJFJ0dw/y2We3uH79AZHIs2nUqqqwe3c1J07sW1Hw6HI5OH36IC0t9Rn7RyIxbtx4wMcf3+DRo37i8eS6HdAIIYQQ25Ftp8MM0zRJJg3i8SRTU2EeP+7n2rX7XLp0jU8+uUFHR8+i4RkFBV6OH2/hxIm2Hb/0dquFQlEikdj8cY9t2zx50s8nn9xgYGBsVUtNDcOkt3eYS5euMzY2Nb9dURSammrx+Z4dK+5kmqZy8mQbpaXPVg0ZhsGtWw/XbTmxy+VYNGRmZCSz52ZdXQUuV26+/hoaKnn99cMEg4XMxRKmadHTM8THH6er+sbHp2f7GWb/6+ez7XShRG/vMJ99dourV9sJh5+dXyiKQnV1GadO7cflcmb821xk2zYTEzPEYvH5kNAwTG7cSBdshMPRVZ3XJBJJHj58ypUr9zKKPbxeNwcP7sbhyM9UQTt16tQfZG8Um09TFfxunaqAh+pgus9DPGWSWsdGt7nA5dA4VL+4h0zcVniY0kiu8o0r1+hApW5zzGVyxGlRJoGj2GCqqlJSUkRBgZfJyVDGH6hYLMHQ0DgDA2NEozEsy0bTVDRNRVGUJZd22LaNaVrMzEQZGBjl1q0O7tzpYnh4IqNSQtc1du2q5rXXDlFQsPIDWV3XqKgoRtNUJiZm5gNRy7KZmYkwMDDK8PDE7PIEBU1TF1Vi2LaNbdt8+9vfztguhBBCbAf/4l/8iJmZCNPTEaanw0xNhZmaCi34b4jx8WkGBsYYGBjl0aN+Hjzopr39CZ2dvfT2DjM1tfhDx/Tf4BJOnmyjtbUxYwDGZotE4ty793j+a13X2L9/d8YqjvWQ/XPcbieHDjUveQy0FYLBAsLhaMayaNtODyQZGhrHNC0cDh2n07HksZtt2xiGycTEDA8fPuXatfuMj2cu1a6tLef06YO43SsLcZ48GcgILv1+L6qqzj/31vsyd/uWE48nuX//SUZvxN27aygtXXxOuVIOh45tQ1/f8HxYFIsl8XpdVFWVZu++aunHSeHhw6fZV8FsiHT69P51HfYTjca5f797PtzUdY3m5vqMysWVUhSFYLCAoiIfU1NhotFnwWAikWJ4OH1+MVelqKoKmqbN3+7sl5dt21iWRTgcZXBwjNu3u/jmm06Gh9PP8TmaplJbWzEbehYt+j4LTU6G6Orqm3/8VFWlqMhPJBJb9Bxbj4thGEv249R1nWCwkLGx6Yzg2rJsxsenGRoah9kw2uHQUZS550da+rwmfb8ODY3zzTcd3LrVmVEBqigK+/fvYt++XWh5NKS4r68PVZ097/zBD36Q51HP9mRaNr3jUbqGw/SMR4glTZ4zuyFvBH1OfvNMQ/ZmIrbCn4Z1ZqznvLvkMBUoVG2aHBYHnBYFsqRabDLbthkcHOf69Qf0948s2VfE43FRUVFMSUkRfr8Xn8+Dx/PsIDSZTBEKxZiYmGFiYnpBAPiMoqT7i+zdW8+pU/vxeNY2Wc00Ldrbn3D7didTU+FFnwQqikIgUEB5eZDCQi+FhT48Hhe6rmFZJpZl8dOf/lnGvxFCCCG2A1WtmP2/uePi5Y6P0yesz6Mo6bYofr+XpqZa2tp25cRwgpGRSf7dv/tg/muXy8F3v/s2wWBBxn4vK/vnFBX5+c3f/MVFH2pupVAoyuef36K7e3BRWKwoUFoaoKqqbDYI8s9XPBmGycxMlPHxKQYGRhf1hlQUhYqKYs6ePb7i4UG2DRcvXuX+/ScZ27MDz/WiKPD22ydpaVl8fjhnairMj3/80XzlrqoqXLhwktbW5f/NSkQiMX72s8sZU6YLCrz81b/6+kuFmnMSiRR/+qcXmZiYyb6KpqZafvEXX8ve/FJGR6f4yU8uzfdNd7kc/NIvnckYdLNatp2eqnzt2n16e4dJpVKL3nPcbidlZUFKS4soKPDh83kylkinUubsBynpD0wGB8cXnV8wGwbv3l3NqVMHVvQe9fhxPz/72VcZwWX6aboxz9WWlgYuXHhl2feOkZFJPv305myxRuZ5ja5rVFaWUFFRTHFx4WyYr8wHjtPTYcbGpujtHc5YXTb3b+vqKjh37viSwWcuu3z5Mrqup8NHCR5zWzxl0j8R49FImP7JGJG4sUyXxPxQ5HHwG681oGuZL9jobPA4nYfBo1+Fet2izWlSqoEjrx8hke9mZiJ0dfXS2dmbUVG4kKoq6LqOw6FnfGpmWRaplEEisfSgF01TKSsL0Nq6i+bm2pdenmWaFqOjk7S3P6GnZ2jZgTiqquJ06ui6iqKogA3YzMx0Z+8qhBBC5D1FKc86eV798bGua7hcTgIBP9XVZezZU0MgULCi1iibITsQ3MnBI0AoFOH27Ud0dDwlEnm2ZHMhp9OB0+mY/91t2yaZTC153OZw6NTUlHHixL5VVfAtFzxulHTweOq5IeJGBY+2bdPTM8QHH1whFnvWi6+5uY7z5088twpzJWzb5u7dx3zyyY2Mx9Ph0Hn33dPs2lWdsf/L2ojgcU44HKOrq4+url7Gx6eXHAqpKHPnF1rGYJ2552kyaSz5vJ7r57h3bwOtrY34fCsralgqeNxILS0NvP32yWXfO2zbZnR0irt3H/H48QCx2OJl+6qq4HI5M96HTdMimUwtGca6XE727q3n6NG9Kwpjc83C4FGWWuc4XVMp9jupK/FS7HNiWDbRpJmx5DGfODSV/TWF6FklwikU2pMqCXvpF3IucihQpducdJkccloEVFlWLbaey+WkqqqU8vJiHA4N07RJJo2MqgjbTv+RmwsZ5y7JpLHoj7eipJdOBIMFNDXVcvLkfnbtqkbXX/7ERVUV/H4vdXUVBIOF2LPLvA0j8w/v3DKi9EHLs8sf/MHfzdhPCCGE2A7+4T/8J/PL8V58Sbck0XUNj8dFYaGP0tIAjY1V7N+/m4MH98z29/Pk1BK9SCTO/ftP5m+HpqkbtNQ6lvFzcm2p9RyXy0ltbRlFRX5SqXTPTsuyMqrL5gKKZ8dtqUXHbaqqEggU0NrawKuvHsoYcLJST570MzExs4rn4Novqqqya1f1cysMY7EEDx48xTTNBf+m6rn/ZiUURaGw0MfMTITx8en52xuJxCgpKVrTfbeQoih4vS6ePBkglUrN3+ZgsJDjx1vX/UOAaDRGe/sTwEZR0u8JTU216xJYOZ0OKitLqKoqwel0YhjGbH/HzKrrhUUMz3ueKsqzpdGNjVWcPLmf5ua6VYW9k5MhHj8emL+9G30pLS1i9+5qlGXeOxRFwefzUF9fgcfjIh5PkEikMsJW205XKi+8f1IpY1GFpKaplJYGOHJkL0eP7s27Ssc5stQ6j4XjBr0TUZ6MRBicjhFNLK5mymV+l85ff60ed1ZT1Lit8GcRnTFz6RdyLtGAYs2mxWHR6LAIyrJqkaOSSYNQKN0jaGwsvXQ6FovPf6qWfRDAgh4tTqcDt9tJIFBAZWUx1dVlBIOFuFwrPyBYrWg0zsTEDCMjE4yMTM5/oppMGhiGiWUtfL+zse2RBV8LIYQQ28Phw6/NnuymT9hYZqmrbdu4XE50Pf132+Nx4/e78XjcuFzp6rhcFQ6np9nO3SxVVTlypHnNLVyWEw5HZ39O+ge5XE6OH9/33N5xW8m2bcLhGIODYwwOjjE0NE48niSRSJJKpVvNLKQoCg6HjtvtpKDAS3V1GfX1lZSWBnA61xZsdXT0MDo6mb15wzQ311NeHszePC8WS3DnTldGRVhzcx3l5cUZ+63V+Pg0HR09Cwb8QEVFMc3Nddm7rppl2bS3P2Z6Ojy/raSkiL17G5atnFurcDg2O808fTtUVWXfvl0EAi8fPC6UXuIfYWhojNHRaUZHJ4lGF55fmIuWYyuzQejcc7Ww0EdlZQnV1WWUlBSuaRXV+Pg0Dx8+XbKKciOUlQVobq5f8r04m2lahEIRentHZs/DpmaDSAPDWFz5Obe6y+VK3zd1dRXU1VVQWlqEqubOB0arJUutt4F4yqR7NMr9/mkGp+OYeVIB6XNp/PrpBryuzOAxYSv8XxGdoRwPHj0KNDssDjpNirX8uM+FYPbAJxKJMT0dZnIyxPR0mHg8sah62unU8XrdBIMFlJQE8PncWzJRLpFIzQeR09MzhEIxEonk7O+bHi7T2Xk9+58JIYQQee+3f/t7aJo2Xykyd+K5+IQ3XemTr7Lzgo26KemT/LkAN/va3GUYJrFYnKmpdP+3UCiaMUSQ2SX1gYCf8vJigsFCvF7Xujwnsh+bjbSSXzfz91n/5/3i27u+P2Ph91/Hb7vIZv2cOaZpEYvFCYWis8fsYWKxxKLiBl3X8HrdBAIFlJYW4fd71hQ2Zlv42t5oa70/UymDcDjGxMQ0ExMhwuHoomXVLpeTYLCAsrIARUV+vN71/QBmq0jwuE1YNoTjKbpHI3QNhxkLJ0ikFlcw5RK3Q+VXjtdSXpj5RpPrwaNHgRrdYp/TokqzcSnyshH5y7IsLCsd3mUfaKmqMr/8YT0PuNZqbvn13H/Tv7uFZZn8z//zv87eXQghhMh73/veSoNHsVPMHQtlf2A8d8yWS8voxc6UPreYO8fIvC79PpY75xdbIf36TbdPyH4dq6oye9ler+OFweP2umU7jKpAocfBwfoAv3SkitN7Sij1O9HWuWx7PVk2pJZY3qlAToZ5KlCh2bzqNjjvMWnUrZz8PYVYDVVV55c7OJ2ZF13X0DQtZw4KlNm+T+llZAt/19xdPiaEEEK8jIV/g3Pl77HYWksfCy0eFCjEVplr17TU+YXDkVvnF1shfU6THryTff/oevqDpu1se9+6HUIB3A6Ng/UB3j5YySu7i6kMuHHq+fPwqoqNN4d+XQ0o0WyOu0wueAz2OyVwFGKryAmYEEKInUj+/gkhhNgOZKn1NmRaNjMxg67hEJ1DISYiyUXlzlvFoaq8c6iCPeWZTW5N4FJM535y69NHjwK7HBZtTpNyTSZVC5EL0svC05f0MgV7tnn1s6/nLkIIIUS+UBZMTZ1bhjhXGTT39dxFCCGEyBfS43GHMC2bsVCCruEw3WMRQjFjyWXOm0lR4K3Wcg7WFWVsN4FPYzp3tzB4dClQpVnsdVo06DZuqXAUImcsDBYXho0SOgohhMh3S4WP2aGjBI9CCCHyiQSPO0zKtJiMJHk0EqZzKMx0NJW9y6ZRgDdbyzhUH8jYbgPXEhqX41tTX1im2bQ6LPY4LHyqLT0IhMgxc6FidvjI7LCchfsIIYQQ+WQuVJzr8ZUdOi7cRwghhMgHEjzuUIZpMzQd49FwmKdjUcIJAzNrotJGU4kGdVQAABzESURBVIDXW0o50hDMvoqbCY3PNzF4VIAC1aZxdlp1qSaBoxC5bKnwcblKx6W2CSGEELliqSAxu8JRQkchhBD5SoLHHS5pWozNJHg4GOLpWIRw3GAznwRHG4O8vrc0e/OmBo9uBWp1izanRZVm45Rl1ULkhezwMXu7EEIIkY8WhosSOgohhMh3EjwKACwbno6GeTgUYmgqTiRhYm3CyfuB2iLOtZVnb+ZBSuWDqJ69eV05FChRbVqdJnsdtkyqFiIPLQwfl9ouhBBC5JPscFFCRyGEEPlOgkeRIZY0GZqO0zkUom8iSiRhZu+yrpYLHh+nVP7jBgWPKlCk2ezVLZqdFoWqTKsWIp9JyCiEEGI7k9BRCCFEPlsYPEpLO4HHqbGrzMdbrWW81lzG7nIfbofKRh3uGJa19NLuDfiByuy06hanxQWPwQm3SVBCRyHy3lI9sIQQQoh8JX/XhBBCbFdS8SgyWHa6ArJ3PMLDwRCjoQSx5PpWQDaW+vilI1VoauZBVY+h8n9F9KVDyTVwKlCtWbQ6LWp0G68sqxZCCCGEEEIIIYTYUFLxKJalKuBzabRWF/LuoUpebSqhJuhZFBK+jOXiP6eyPpWIKlCs2bziMrngNWl2WBI6CiGEEEIIIYQQ4v/f3v0HWVkf9h7/nN3lx7qUFVAwZSOislZD/AF3JdDLTcTi3F3azjQymaHV0qTTZEqQWdLgpFQTmzi000wGSixMm45C/IPW0obqlZgyJe3YCshIlWGYAopjXBwXSxQN4g929/4he2bPYSEQH2AXX6+ZHed8n+f8evaMh33P9/s8nGPCIyc1fEhtrh0/MrdOHpdP/8qlaRpdnyG1H34J9tk6N1tNksaanlw/rCu/Vn8sNw7rEhwBAAAAzhPhkVOqKZXSWD8kn2hqzOzJl6XlytEZ2zjsQ82AfOf9rrzf1V09nJoPcZrHIaVkwpDu3FLflZnDuzKutseHGwAAAOA80mY4bSOG12XKFaNy6ycuy7SrxmTcyGEZWnvmH6FjXT3ppztmeCmprzmzGYofnMexJzOHH8tnhnfl43X9PDAAAAAA59yZVyM+0kqlZMyIobnpiotz6+RxuemKUblkxNBfeKZiXzVn+IFsrOnJlKFdmXXRsVw3tDsjzjBaAgAAAHD2nEnngbKaUiljRgzL1ImjMusT4/K/rhyd0SOGntYS7GPdPenu6X9m4s+/d9JQk1w7tDu31B/LlOFdGVXTc1r3AwAAAODcER75UGprShnXODwtV47Or31iXCY3Nebii4acMgQefa8r7x07cXbikNIHS6dPpi5JU11P/s/wY5k5vCtNdcVcBRsAAACA4tVOmzbtvupBOFM1pVJGDK9L0+iLcunI4SmVknff78qx7p5UX8S6tqaU65pG5qKhdRXjpVLy/Pu1ebO7sj7WJbm4tic3DOvOzccvHFNXOr3ZkcBHQ0/1/2gAYBAplfzLFoALR0dHR2pqalIqlcx4pFi1NaWMH1Wf/33Npbl18mX5lV8emV8aXpe+K7B7enqSfhpBf//c+qWa5BPDuvJ/64/lxmFdGVGyrBr44P8jfX8AYDDzvQbAhap01113+WbjrHm/qzsHfno0e199Kx0/fTtH3/vg3I6fbWnKxy4eXrFvd5L/d6QuPzlWk2GlZHxdd64b2p3xtT0ZUvIxBT7Q+wdZ9R9m1bcBYDConu3Ye7t6HAAGi61bt6auri41NTWWWnN21daU0tgwNONH1WfMiGFJKXnnva5MHDsiI+uHVOxbStLRVZMhSW4a1pUbhnZnbG1Pav2bCziub3TsGxpFRwAGq/6+w8RHAAazvkutzXjknHrn/a4ceP1oxo0cnhHDK8/xmCSvdJUyvJSMrvGxBCpVR8e/+qu/qt4FAAa9L3/5yx/8oSY+AjBI9Z3x6ByPnFPDh9TmqrEj+o2OSfLLtT2iI3CC6ujY3+wQALgQVH/X+c4DYDATHgEYFPr+Idbd/cH5YgHgQtPd3X1CfASAwUp4BGBQ8UcYABc633UAXCiERwAGFTMeAbiQ9c54BIALgfAIwIDW948vf4gB8FHh+w+AC4HwCMCg4A8wAD4KfN8BcCERHgEAAACAwgmPAAAAAEDhhEcABhXLzgC40PmuA+BCITwCAAAAAIUTHgEAAACAwgmPAAAAAEDhhEcAGCAOHTqUf/iHf8h3vvOd3H333bn//vvz/e9/P52dndW7AgAADHjCIwAMAI888kh+53d+J6tWrcoTTzyRt956K1u2bMlDDz2UefPm5Vvf+lZ+9rOfVd8NAABgwBIeAeA8e+ihh7J69ep86lOfyne/+9388Ic/zOrVq/P4449nzZo1+d3f/d3853/+Z+6+++68++671XcHAAAYkIRHADiPnnzyyXz/+9/P7//+7+e+++7L5MmTU1dXV94+YcKE/N7v/V5WrlyZ/fv3Z/ny5RX3BwAAGKiERwA4T3p6erJq1ar86q/+au644468/vrr+fM///M888wz1bumubk5S5YsyY9+9KN+twMAAAw0wiMAnCdPPfVUDh48mK9+9atJkgcffDA/+tGP8s1vfrN61yTJrbfemptuuik//OEPqzcBAAAMOMIjAJwn//3f/53m5uZcfPHFSZKbb745pVIpn/rUp6p3LZs6dWp2795dPXxW7Ny5M5MmTUpTU1OampoyadKk7Ny5M0myatWqittn07l8rjPV3t6eadOm5eDBg9WbAADgI094BIDz5ODBg7nkkkvKt2fOnJnNmzfnj//4jyv26+vSSy/NoUOHqocLt2nTptx+++35x3/8x3R0dKSjoyOrVq1KZ2dnkmTBggXZt29frr/++uq7Fu5cPtepHDx4MLfddltFAF2xYkW2bduWsWPHVuwLAAAIjwBw3tTV1eWdd96pHj6lo0ePZtiwYdXDhXv88cczZ86citg3e/bszJ49u2I/AACAkxEeAeA8ufbaa7Nnz54cO3asetNJPffcc7n88surhwvX3Nycjo6OHDlypHpTcnxGZPUS4/b29vKy7Pb29rS3t2fVqlVJkiNHjmTu3LlZtWpVxX6920+l73N9mMfpu39TU1M2bdpU3tb7HJs2bSovL++7vHvTpk2ZMmVKdu/enba2tvLrWbVqVebOnVtxnFatWlXxPH1f28GDBzNt2rRs2LAhc+fO7fe19O7T91gCAMBgJDwCwHkyY8aMvP3222d0sZjp06dn9+7d2bBhQ/WmQs2dOzcvv/xyZs2adVrnL2xvb09HR0f27NmTjo6OzJkzJ+vXr6/eLcuWLcucOXPS0dGRhx56KMuXL/+Fzt14Jo/TGyuTlJeNb9y4MQsWLKgIfgcOHMhf//Vf59lnny0vLb/99tuzc+fOzJ49Ozt27Mh1112XjRs3nnR5dXt7ezZv3lw+Djt27MjatWtPCKNLlizJ17/+9XR0dGTp0qW55557ymF1wYIFmT9/fvl4Tp06teK+AAAwWAiPAHCejB49OvPnz8/f/M3fnFbcy/Hlzl/72teycuXKsxofx44dm23btmX69OmZMmXKCbP6+tq5c2eeeuqpfP3rX09DQ0Ny/HX2xr6+5s6dW16uPWPGjNxwww3l80aeiTN5nKeeeiovv/xyli5dWh67/vrrs3jx4jz++OPlsfr6+or30Pu4//Ef/1He51T6Ow5jx47N/fffn82bN1ccv8WLF5eXsc+dOzeNjY159dVXy9snTZqUJGloaMidd95ZHgcAgMFEeASA8+iOO+4oR7AXX3yxenOSZPfu3fna176W5557Lkly2223ZcmSJfnLv/zL/PM//3P17oVasWJF9uzZkyS58cYb+51V2NnZmVKplMsuu6x60wmam5urh7Jv377k5yxRrnaqx6m2b9++fPzjHy/HwF6TJk2qWE4+evToivfQ0NCQpqamPvc4tZMdh3HjxuXNN9+sCI+9YbHX4cOH09nZmYaGhsyaNSuf//znTxl7AQBgMBAeAeA8KpVKuf/++zN9+vR84QtfyJIlS7JmzZps2bIl69aty1e+8pV8+ctfzrZt2/LGG2+U79fa2pq77747K1asOOvxsaGhIevXr8+cOXPy4IMPVm9Okn7D3plasGBBeSl0R0dHFixYUL3LL6ypqelDv77TUeRxaGpqyjXXXHPKAAsAAAOZ8AgA51mpVMrChQvz3e9+NyNHjsy//uu/5hvf+EY2bNiQYcOG5atf/Wr1XZLj8fGP/uiPzkl8zElmGeb4jL6f/OQneeGFF8pjR44cSUdHR8V+58ukSZOyZcuWE5az79u375RBsvc9VM9OPJn+jkOOz4QcOXLkSZ/nZFasWJGNGzdmw4YNJ7x2AAAYDIRHABggJk+enHvvvTcPP/xw/uVf/iV///d/nz/7sz/LnDlzkiT33Xdfbrnlltxyyy3l+/z6r//6WZn5eO+991Ysqz548GDWrl1bfi19XXXVVbn88ssrZkOuXbs2W7durdjvfJkxY0Y+/vGPZ9myZeWxnTt3Zs2aNfnCF75QHjtw4EDFPmvXrk2O379X75Lo/lx//fWZMWNGvvnNb5aXSB88eDD33HNPvvSlL51WeDx48GC+/e1vl293dnbm8OHDFfsAAMBgITwCwCCwfPnyLF++PPPnz6/elNbW1rS3t2fFihVndIXsU/nYxz6Wtra28vkWp0yZkvvvv798QZe+Ghoasnbt2vLy4N7zIvZ3cZnzob/Xd/vtt+dv//Zvyxd4SZLx48dn6tSp5X16r0bd90Ix8+fPz+c///lMmzat31mIK1asKC+R/nnHrT8NDQ3Ztm1b+TXcc889eeyxx/q9gjYAAAx0pbvuuqunehAABoqeng++prq7u9PT05Ourq50d3fne9/7XvWuHwn/9m//lj/90z/N8uXLkySjRo3KhAkTkiR/8id/kqFDh+Yb3/hG1b3OvSNHjmT+/Pn50pe+dNrR7XzatGmTyAcMCH/wB3+Qmpqa1NbWplQqpabmg7kipVKpelcAGJC2bt2aurq61NTUmPEIAIPR4sWLs3jx4qxZs6Y8NmTIkIp9zqe1a9fm5Zdfzg033FC9CQAA+IgQHgFgEPnMZz6TH//4x/nxj3+cT3/609Wbz4sjR45k7ty55eXBTU1N2bx5czZv3mz2IAAAfIQJjwAwSJVKpTz77LNpb29Pe3t7nnvuuepdzomGhoasX78+HR0d5Z/169ef1sVUBorZs2dn27ZtQikAABRIeASAQeqKK64on98xSSZMmJArrriiYh8AAIDzxcVlABjQXFwGgI8SF5cBYLBzcRkAAAAA4KwSHgEAAACAwgmPAAAAAEDhhEcAAAAAoHDCIwAAAABQOOERAAAAACic8AgAAAAAFE54BGBQKZVK1UMAcEHxXQfAhUJ4BAAAAAAKJzwCAAAAAIUTHgEYFPouO7MEDYALle87AC4kwiMAA5o/wAD4KPL9B8CFoHTXXXf1VA8CwEDS09NT/unu7k5PT0+6uroqbvf+AMBgUSqVyj81NTUplUqpra2tuN37AwCDxdatW1NXV/fBd5nwCMBA1zcs9o2NoiMAg11/8bE6OgqPAAwmwiMAg0pvVKyOj0nK/xUeARiMeqNiTc0HZ8Gqjo599wGAwUB4BGDQ6S8+nmymY39jADBQ9BcSq2c4io4ADFbCIwCDUnV8rB4HgMGob1wUHQEY7IRHAAatvvGxv3EAGEyq46LoCMBgJzwCMKiJjABcyERHAAazvuHxgzMYA8Ag0t85sABgsPK9BsCFyoxHAAAAAKAQZjwCAAAAAGeV8AgAAAAAFE54BAAAAAAKJzwCAAAAAIUTHgEAAACAwgmPAAAAAEDhhEcAAAAAoHDCIwAAAABQOOERAAAAACic8AgAAAAAFE54BAAAAAAKJzwCAAAAAIUTHgEAAACAwgmPAAAAAEDhhEcAAAAAoHDCIwAAAABQOOERAAAAACic8AgAAAAAFE54BAAAAAAKJzwCAAAAAIUTHgEAAACAwgmPAAAAAEDhhEcAAAAAoHDCIwAAAABQOOERAAAAACic8AgAAAAAFE54BAAAAAAKJzwCAAAAAIUTHgEAAACAwgmPAAAAAEDhhEcAAAAAoHDCIwAAAABQOOERAAAAACic8AgAAAAAFE54BAAAAAAKJzwCAAAAAIUTHgEAAACAwgmPAAAAAEDhhEcAAAAAoHDCIwAAAABQOOERAAAAACic8AgAAAAAFE54BAAAAAAKJzwCAAAAAIUTHgEAAACAwgmPAAAAAEDhhEcAAAAAoHDCIwAAAABQOOERAAAAACic8AgAAAAAFE54BAAAAAAKJzwCAAAAAIUTHgEAAACAwgmPAAAAAEDhhEcAAAAAoHDCIwAAAABQOOERAAAAACic8AgAAAAAFE54BAAAAAAKJzwCAAAAAIUTHgEAAACAwgmPAAAAAEDhhEcAAAAAoHDCIwAAAABQOOERAAAAACic8AgAAAAAFE54BAAAAAAKJzwCAAAAAIUTHgEAAACAwgmPAAAAAEDhhEcAAAAAoHDCIwAAAABQOOERAAAAACic8AgAAAAAFE54BAAAAAAKJzwCAAAAAIUTHgEAAACAwgmPAAAAAEDhhEcAAAAAoHDCIwAAAABQOOERAAAAACic8AgAAAAAFE54BAAAAAAKJzwCAAAAAIUTHgEAAACAwgmPAAAAAEDhhEcAAAAAoHDCIwAAAABQOOERAAAAACic8AgAAAAAFE54BAAAAAAKJzwCAAAAAIUTHgEAAACAwgmPAAAAAEDhhEcAAAAAoHDCIwAAAABQOOERAAAAACic8AgAAAAAFE54BAAAAAAKJzwCAAAAAIUTHgEAAACAwgmPAAAAAEDhSnfddVdP9SAAAADAYNHS0pLPfe5zGTZsWMX4u+++m0ceeSTbt2+vGD+f2traMnv27Bw7dmzAvbb+VB/bUx3Ttra2zJw5M//0T//U7/azaenSpbnsssuSJFu2bMm6deuqdzlrFi5cmCR54IEHThgfOXJkli1bVjF+odu6dWvq6upSU1MjPAIAAAAXjpNFoIFi6dKlefHFF89pGPswWlpa8pu/+Zt59NFHs3379sybNy/XXXddHn744ezdu7d69/Ni3rx5mThxYpYtW5a2tra0tLRk3bp15+z1DfTP3LnWNzxaag0AAADAaXn++eeTJI2NjdWbBpx58+aVoyDnhxmPAAAAwAWjevbZvHnzMn369CTJ4cOHyzP1li5dmqNHj+byyy/PCy+8kJEjR+Z//ud/MmnSpAwbNixbtmzJmDFj0tzcnK6urmzatCkbN26sWHrcd7yv3uXUtbW1SZ+lv32XA7/66qsVS3CrZ+r1vZ0kd955Zzn29T5e3+c51RLoD6N6xmPf29OmTUt9fX3Gjh2b119/Pc8++2xaWlqyY8eOzJgxI08++WT52PTO9ExS/n1UH7++x+fll1/OyJEjs3v37vIxONXS5d779v0dz5s3L2PGjOl3JuLJjl3f19D3sVL1+vpu6/uZW7hwYa666qps2rQpV155ZXm8+v579+7NAw88cFqfp8HGjEcAAADggte7BHfRokVZtGhROjs7c9ttt5W3jx49OqtXry6HoUmTJuWRRx7JE088kZtvvjlJsmjRorzwwgu58cYbkyTTpk3LSy+9lEWLFmXx4sUnRKK2trbccsst2bRpUxYtWpSHH344119/fdra2rJs2bK8+uqr2bJlS7/x7GSmTp2ao0ePlt9Hb3RsaWnJ6tWrs2jRouzYsSOzZ8+uvmvhpk2blqNHj5YD59ixY/PII49UvJ89e/bkwIED5fDW0tKS+vr6PP/881m3bl35fTz99NPl49ob73q3ffvb387u3bszceLEJElzc3PGjBmTZ599tvw8vebNm5dRo0Zly5YtGTFiRPl3PHHixBw6dKh697S0tGTmzJnl39GSJUvK0TF9XkNnZ2fmzp2bHI+GJ9vWa968eRk3blxWr159wueiN7wuWrQoDzzwQMaMGZO2traf+3ka7IRHAAAA4II0ZsyYXHbZZVm5cmVWrlyZ5ubmjBw5srx99+7dFecB3LFjR7Zv357XXnstP/vZz7Jt27YkqYhXhw4dSnNzc+bNm1ce66uxsTEvvfRSOSBt3769IsL9Ig4fPpxLL720YtlwY2NjxowZk4ULF2blypWZPn166uvr09zcXHHfIgwfPjx33nlnVq5cmXHjxmX9+vXlbS+99FK/syz3799fnjF69dVXp7OzM9u3b09zc3O+9a1vVbzmWbNm9RsVn3/++dTX16elpSVXX311eayvtra2NDc353vf+17WrVuX1atXZ9y4cfniF7+YJHnmmWcq9k+Sq6++Om+99VZF5Os9bps2bSqPbdu2LfX19fmN3/iNk25raWlJkowfP/6k575sbm5OfX19pk+fnpUrV2bhwoUZM2ZMGhsbf+7nqQh/+Id/mBUrVuS3f/u3K8bHjh2bu+++O9/5znfS2tp62tvOhPAIAAAAXLD27t1bnqW2aNGiM5pp2J/eGXsTJ07M8uXL09bWVr1L4TZu3JjFixcnSVauXFmOVK+++mrFe7v33ntPiF5FeOedd/Lwww+f0XP0BsLJkyenubk5+/fvT3Nzc+68887s3r07ixYtyhNPPJFjx46loaEhdXV1ee211yoeY/v27ens7MzVV1+dK6+8Mnv37j3huRsbG/P++++Xx/fu3ZstW7bk2muvzYsvvnjC/jkepN98883q4Q+lrq4udXV1Jz335bFjx/LEE09U/L7WrVt3Tj9PQ4cOrR5KkpRKpQwZMqR6OPk5206H8AgAAABckA4dOpQJEyaUZ6UVadmyZXnhhRdOmMl4+PDhTJgwoRyQWlpaMn78+Ozfv79iv2qvvfZahg8fXp7Zd+WVV6aurq5inwceeCBbtmzJxIkTc/jw4YwaNeqshqoPozcSfvKTn8zbb7+djRs3prGxMXV1dTl8+HDS5z3u2bMnR48e7Xep+P79+zNx4sSMHDnyhNmOOX68q4/DjTfemNra2vIy7Wr79++v+B3l+OtNUvEaepeVP/bYYyfd1jvb86WXXsrOnTvzuc997oTP2969e/P++++Xl5X352SfpyKsXr067e3tWbNmTcX4wYMH8xd/8Rf5yle+kkcfffS0t52J2mnTpt1XPQgAAAAwGPWem/Hpp5/Orl27cs0112TWrFlpbW1Na2trLr744uzatSszZ87MG2+8kV27diVJxe3x48fnmmuuyZ49e/LKK6/kk5/8ZEaNGpUnn3wyCxcuzB133JHW1tbU1dXlBz/4QcVS7H379uWSSy7JLbfcktbW1txwww155pln8oMf/OCE5+nrlVdeybXXXptp06aVl7Z2d3dn165due222/LFL34xra2tGTt2bB577LH8+7//e8XztLa25qqrrsrTTz9d8bgfVvWx6Kvvsc7xc2SOHz8+u3btyqFDh1JfX5+bbrope/bsya5du075Hnfv3p2pU6fmt37rtyreS6lUytSpU/PTn/40GzZsqHj+9HO8W1tb88orr2TdunXlx+v9nZ/sPrNmzcobb7yR//qv/6p4DXV1dfm7v/u7HDp0KJ2dnSfd1nscHnzwwVxyySWZM2dOLr744lx00UXJ8eNTff/e5/zsZz97ys/TYHTgwIHU1NSkVCq5qjUAAAAAA1Pv+Q+3b99+wV145UK1bdu21NbWuqo1AAAAAAPX1KlTU1dX1+8yawae9957r+K28AgAAADAgNJ79espU6bk0Ucf7fciMQw8b731VsVtS60BAAAAgA9t//79ee211yy1BgAAAACK0d3dnddff718YZlYag0AAAAAfFh79+7NsWPHPriatfAIAAAAAHxYr7/++gmzHZPk/wNgL7BUlxpVOQAAAABJRU5ErkJggg==;" vertex="1" parent="1">
                    <mxGeometry x="-150" y="330" width="530.53" height="260" as="geometry"/>
                </mxCell>
                <mxCell id="3" value="" style="shape=image;verticalLabelPosition=bottom;labelBackgroundColor=default;verticalAlign=top;aspect=fixed;imageAspect=0;image=data:image/png,iVBORw0KGgoAAAANSUhEUgAABRcAAAJ9CAYAAACvjUX3AAAAAXNSR0IArs4c6QAAAARnQU1BAACxjwv8YQUAAAAJcEhZcwAADsMAAA7DAcdvqGQAAF/dSURBVHhe7d15nBx1gf//d/XcuUggIQlnwh3uG0FECa6u4AnqKux6Bdf1+O6uwrq7gucX94R1D3W/rrie4P5U4noA4oEKCIjcRwIESICEJOROZjKTObp+f0yOSSeBSYkC4fl8PDozXV1dVd01k0fnlU9VFTfPm18GAAAAAGA7FTc+8pi4CAAAAABsVVEUm33d7LFr73tAXAQAAAAANiqKYjAmFkmtqKXW1JRarZZarbb5fF1dXeIivACM/ODsxkkAAAAA29Tekuw/vshRezblRfs055Dd2tPc0pJarbZpNKO4CC8M4iIAAABQVVEk7zu5Oa87oi0dHe1pbm5OURTZfBwjAAAAAECDskw+d31/3v/t7jy8cG0GBgZSlqW4CAAAAAAMz5zF9dz6aF/6envFRQAAAABg+3zuhv7MWbwuAwMD4iIAAAAAMHxlmVz/UF/6+/vFRQAAAABg+9w1fyB1IxcBAAAAgO310LKkrNfFRQAAAABg+6ztLVzQBQAAAACopoy4CAAAAABUYOQiAAAAAFCZuAgAAAAAVCIuAgAAAACViIsAAAAAQCXP27hYJlk7UM9/LE3e+Hgtszr7M1A2zgXbr16vp79/IPV6vfEhAAAAAIZ43sXFMklPPblpTZmzHi3z0VUtuWZtc16zoD0fX9Cfx9bV0/d7ioz1epl6vb5dt7L8PW3cc1hZDr5vz8X3Ym13d777vz/KH73l/+Qb3/he48MAAAAADFF0dXU99wrPNvTWyyzqS/57RS1fXdWaFWWRsqin3lQkZS2t9TLTyrV5zy71vHJsU8Y1F2kpGpfyzOjqWpt58xZk7dqebGpkRcpy89FuxWbrLzN27OjstdduaW9vH/rAC8qcOfOyamVXRo8ZkQMOmJJi8zfpWbVmTVe+8uUr8g//8LW8971vyYUfPbdxluetkR+c3TgJAAAAoLJr3tf2/IiLA2WyfCC5fk1/vrCiKbfW27IutZTFQDJQT61sS1KmKJOmWtKegbykvTczxtVz7IgiY2tFmp7hfnXrrXfnvA/9c26//ZHUmmopUqRIS5Le9eMrt6Yvr3zVCbnoog9lv/2mND74gtDVtTYvOfmP8/BDyzLt4N3zwys/m/Hjd26c7VkzGBf/N//4D5flve99Yy746LsaZ3neEhcBAACAZ9I172t7bh8WXSZZU09u704+taSW85e055betqyrFykGkqaBZOdakZ1b1t+p1VMv61ldq+Xqnta8f3FL/nFJmTu6y6we2Hbyq6ZIWbakrb0jJ7zokJz68iNz6mlHZvr04zN9+glbuR2fU6efkMMOPSAdHS/cUYtXX/3LzJnzRFrbWvPEwpW5+urrG2d51pUpk6I/ZZxzEQAAAOCpPGdHLvaWyYK+en7SlXxjdUvu6W1KX1EkRZGmvqSjGMiBbf35w1FlarV6ftyZPNzTkdX1pLepnlq9OU1l0px6DmrryzljBjJ9ZLJXa9Je++2HMd566z350Ac/k4WLnsz3v//vmTZtn8ZZaNDTsy5vPOtDuenme/KHr3pJfnT1rzJ9+tH58pcvyqhRIxpnf1YMjlz8bv7xH7+SP/uzP8qFH3134yzPW0YuAgAAAM+k5+Rh0WWS5f313NadfGt18qPuWlaVbSnqTSlrA2kb6M/+RZkTRwzknbuUOXTE4ODLh7sH8j+rmvPzrqbMrtfSWa8l9SJpKlOWZcamnlPa+vKGMfWcMKrI5JYizb9FYxyMi/+aRYufzPe+92/i4jDccP3tOevMj2Tf/XfJNy77h7zudX+Z/r4y//qvH8orX3ly4+zPis7Ornz5y9/NP/7DV9fHRedcBAAA4NlzzF4j8tFXT84rDh6Tjpbn9AGoO7zuvnp+PGt1/u8PF+a2x9Y2PvyC9Jw7LLq3XmZ2Vz1fXl7mwiVFvtPZlpX1ttQGijTV65mQMq8Y0Z/zx/fmk7slh42opUhSJNmvoyl/PbHM30/qzx+P7M8RzQPpaOlLvWkgZVOR1WVzrl7bmo8sbc4lS5NfdCUr+svf4lDpIkktRZrXf89T6evry1e+8r309vbn7W97XSZPmpA3vP7ULF/emR/+8JdZt6638SnPmsELzNSSovpPBwAAAPy2jtlrRK7/8IF53RFjhcXngI6WWl53xNhc/+EDc8xez40jMJ8LnlMjF1f21fM/S/rzuTUtebRoS70oUivrGVUvc0hr8opR9bxhzECmtj31BVrW9Je5qTO5uqvMDeua8kh/a/rrtaRI6rWB1OplprWUOXNUb14+ssyhHbW0bueh0rfddk8++JefyaJFy/O9738m06ZNbZyFIe6+5/6c+Ya/SmtzS37+y//KhAk759e/vjtv+aMLssdeO+fzn/9Ijjh8WuPTfu86O7vy5a98L//wD1/Ne997Vi684E8bZ3neMnIRAADg+eV/37dvXnfE2Hz5xmX56yvmZ0lnf+Ms/B5NGNWcfzxrj7zzpF3yvbtW5vWff7hxlhec59zIxfamIseOLvKmnQZybOtAdq4n+xUDefPogVw4YSDvH1/Pfu1PHRaTZHRzkT8YW+QjE5K/GTuQN4zoy24t/SlST5ki9SK5b6Apl6xszd8vKnLtyoGKl+6op6j4zKdTlmVWrlqdJ59cls7OrpTl9jXg7u6eLFm6LMuWrUxvb1/jw9tlYKCe5ctXZsmS5enuXtf48NMqyzLf+vaPs3Ll6px55ssyceL41Gq17L//3nnJKUdk/vwlueaaGzMwsP3vZVkmPT09WbZ0Rbq7exof3kxPz7osW7Yiy5evTF/ftv9CHvzxKje76ndZlunq6s7SpSuyenVnpW0FAACA7fGKg8ckibD4HLGksz9/fcX8ZMi+4VkeufjD2+fm5AMnZezIjs2mr+ovc9vaIvesTSY2D+TkMUV2a6llOwcXJkn6y2ReX5nruor8tLPITb3NWVYWqaeW2kAtTd0DeUP76vzXgW3bdQ7GwZGLl2Tx4qX53+89cxd0Wbjwydz6m/syb96izF/wZNb19mT06BHZe6/dctih++Wwww/IiBGbv18brF3bnfvufTj33fdwHp//RJavWJmiaM2EXcZnzz13yRFH7p9p0/ZLc3NT41OTJAsWLM7tt9+f0aM7cswxhyRJfv3re3PffQ/l8fmLMtBfZpdddsqUKRNz/PGH5oADhvea581bkLe+9W+zYMGiXHXlZ3PoYQckSdat683/fvdn+fO/+OeceNLh+bd//avsvffujU/f6LHH5ufXv74zkydPzEknHZulS1fkZz+7KQ/NeTydnety3HHT8sY3vWKz53R39+TBB+fmnnsezmOPLc6yZStTFGV23XXXTN1nUk468fDsvvukjfN3dnblK1/53/zDP3w5f/beN+evP/yuPPzwY7nt1vvy0MMLsmpVV9rb27LbbrvksMP2zXHHHbbN/fFcY+QiAADA80v5hWOSJMV7bmt8iGeR/bLJNe9rS9MFF1zwicYHfl/e9cWb89iSFWlvSiaOHZnmpsGBlO21IlNak6NG1HPIiFrGNddSbEf4G6pWJDs3FTmkrczBbWV2a6qnuyyzrDvpX1NkoDPZq9aTN05u3q54uXDhkvz4mhvT2dWVt7zl9EyYMK5xlu0yMFDPL37x63zx0v/J5Zf9MD/96S1Z+MTyLHhiae6554Fc+/NbMmvW3HR2dma33XbNmDGjNnv+3LkL8s1vXpkvf/n7+e53r82s+x/KosXL8tiji3PTTffmhutuyQMPzE3X2rWZMmWPdHS0bfb8JLn33ofyH//+rcyduyB77z0p37niJ/niF76fX/7ytixctCSPz1+cm2++J9dfd1vmz1+cXXcdlz322BTmtuVrX/t+rr7613npS4/Ku2a8IU1Ng3GzqamW1taW/OY39+axR5/MXnvtmsMPP7Dx6Rvdeuvd+fRFX8jart4cNG3f/NM/fTVf/sp388tf3Jb5jz2ZceM6Mv20EzfOv2DBonznOz/Of3/pe5l5xc9zzz1zsnDR0syb+0R+8cu7csuv786cOY9m9KiOTJ26R5Kkt7cvd955f66/4c4cdugBqRXJZ//jm/nud3+a+2fPyxNPLM299zyUX/zi1tx114MpamUOOWTbwfa55O+uWdo4CQAAgOewT7xmtyTJJ3+4sPEhnkX2yyZ/clzzsxsXP/atWbnt4aWZ88SqLFy2JiNai0wYMyJNtcGY2Fwr0lS1KjZoKors2lJkcnOZBX213N9VS9eqIuXaZP/2/rxx96btjItP5pprbsiTS1dlzz0nZ+HCJ3P//XPzwAOP5oH75226PbDp+4VPLM6IEe0ZNWrzk37W6/VcddV1+dfPXJbrrrs9J7zosPzxn7wmr3/D9PzBy1+Uk198ZCZO3CV33TUnN1x3a9paazn88APT2taaJHn44cfyhf93Rb72tSvT0tqcM99wWv7oj16Z01/1kkw/7YScdOLh2Xnn0bn55nvyq1/dnYGBgRxyyL5pb988MC5YsDhXXXVj1qzpybxHF+RHP/pFjjxiWv7kT87Ia19zSk477fgcf/yh6VyzLj/+8a+zauXqHHvsIVuEzqGefHJZLv7nr2bBgqX52Mf/NPvvP2X9BVMGL5zS3NKc1as78+Mf35QRI9vz4hcfmY6O9sbFJEkeeujRfPv/+2VaWkbk3nsfzNU/uiGnn35y3vJHf5hXv+YlefGLj8qkyROSJI899kS+/OUr8qVLZ2bdunpe/epT8kdveWXOOP0lmT79uBxz7LSsWdOZK394Q+Y8MC/Hn3BIxk/YeX1cfCDXX3d3mptbc/vt92bZspV5/RtOy5ve+Iq88g9PzEtPOToTJ+6SX/3qrtx26705/PD9s/feu218Xc9V4iIAAMDzi4j13GS/bPInxzU/u4dF7/n+mVnVVU+KMjt1JIfvMS4vO2hCTj9m9xy0585pqj1zp4TsGihzc3eZq1bXcmNPSx7uaUr3uiL1tWVe3d6Ty47Odh4WfW8++MF/yt13z83ee++e1pbmFClTT339ufo2LGz921sm++23Rz7wgbfm5JcMDp/d4NZb787HP/7F3HvvI/mz95yZM8+cnv3232vjCL+yLLN8+apcd91tuf66W/Kylx2fV7zy5LS3t2XVqjX5z8//Ty699Hs58sgDM2PG63PiSUdkp51Gbxa7ljy5LL+87vb8+7/9T5YtX5m/+Iu3ZMaMMzeuI0luv+Pe/M1f/2seeGBhmlvKvPMdr8lb3nJG9tlnj9TW74uBgXpuv312Lrzgc3nssYX52Mf+NG89+1Ubl9Ho//v/fpQLL/xc9tl391z2jb/P+PGbj/AcGKjnppvuzHv+7KLsNGanfOqT78nL/+BFm82zwS9/eUtmvOvv0j9Qy4iOgfztR87NaaedkIkTx6dp/ajXJFmzpjOXX/bDfOYzX8s+++yVc9/9przkJUdnl112GvI6BvLAA/PynW//JJ1ruvLBD/1JJu+2azo71+YrX/lePvrRL2b0mBE59th9854/fXNOPPGIzSLq0qUr8q+f+Ub++8vfy6v+8IR84b8+9ZwfveiwaAAAgOcXh98+N9kvmzzrF3RZ15zUyjIZKLK8p8gNDy3L56+dk7/+nzvy2R/NztzFq1LfzguZNOqrl7lrbfJPS5vyiSWtubyzNff1J93NSTkiaRnXn7GjqpwUtUhSpKW1NQcdtE+OOebQHHPsoTnmmENz9NGH5JhjDlk/7bAce+xhOfa4w3LIIftnp7Gbn/Czr68vV1zxo9x++4M5642n5u3veE0OOHDKZtGvKIrsssvYvOpVJ+dD570zf/AHL9446vC22+7L1T+6KRMm7pwZ574h0087IWPHjtliFN2EXXfJq199Sj7wf96cnnXd+d73fpEHHpy32TzNzc1pamrO8uUrcuKLDs1b33pG9t13z41BLusPZT7kkH3y2te+JMuXr8htt207WHV2rs2Prr45y5evzhvf+PKtjnBsaqpln332yKmnHp9H5i7O9Tfcuc0LszQ3N6VWK7N0yZK89ezT86Y3vSK77bbrZmExSR588NH87//+MqNGj83b3v7avOpVL86ECeMaXkdTDj5437z3fW/OX64Pi0P19fZn9Oj2vOY1p+RlLztui20fP35c3vzmV2TM6JG57vo70tOz9W0GAAAA2JE9q3ExZUvKDKRW9KeoD2SgLPLk2uT6B5fns9fMzvlfvyVfuXZ2Fq7oGnLd3uEZKJOH15X5t6VN+ZvFLfnqqpbc1ducrrIp9VqRsujPuHIg54zsz3t2f/orUDcqUqZIkTGjRuQ973lDPnLBO/O3H3lnLrhgRi644N254IJzB7//yIx8ZP3t3Heflf3222uz5Twy9/HcccecjB07Mm9+0ysyceL4LcLgBu3tbdljj0npGDF42PC6db35zS2z8tBD8/OqP3xxjj/+0LStP1R6a9rb23LyyUdl+qknZM5DC3LDDbdv9niRIimLNDc15TWvOTV77DFpq9vS1taaQw7dL/V6LU8uXZH+/oHGWZIkN918e+6+Z06mTJmUl55ybFpamhtnSdaHuunTj09ba1PuuP3+3H//1i/lXhT1FEU9o0a15W1ve80Wh3Vn/Xty332P5N575+bEFx2eU089YZuHWSfJhAk7Z7fNwmKZpJ5abSAHHrBXXvay47f5nh540NRMnDQhy5aszpIlKxofBgAAANjhPatxsVavpV4rUq8NJp2yaEqRpgzUm7JodX+uvX9Z/un79+cv//vmfOfGOVnVta5xEVsokyzrK3P5snrOW9Ccz69qzk19tSwtitRrRVKUae8r87Lmej4zsTd/Myk5YmTTxoOYh60Y/KO5uZbJk8dnr70mZq+9JmWvvSZl770HvzbeJk8ev8WFVGbPejiLFq3MkUcdlD33nLTFKLynsnTp8jz88GNpb2vJEUcckHHjnv4y6OPGjcmLX3x0Vqzoypw5j6Ver28+Q5nsNnlC9tlnr7S2tmz+2Hq1Wi2jR41KrdaUnp7e9Pb1Nc6Svr6+/OjqG/LEgkV5w+unZ/LkCVsNlUnS2tqSgw7cO8ccvX/uu+/B3HLLPVtu1/oRnGVZz8RJO2fSpPGNDydJVq1akwfun5eOjvYcfsQBFS+0U6attTl777lb9txjcuODG7W1tWanMSNTrw+O0gQAAAB4oRl+yfodqJUDqaeWgaI5KWopyoHUyt4URT31NKdvoDkLVvflp7OfzEe/fU/ee+mN+fEdj6a7d+uHMffUk2tW1fO+RfVctKIp1w0kS4oy/WVSlElTOZB9mnpz4S7rcsnkgbx6p2TPtmz3qMVNtnc85Zbmz1+SztV9OWD/vbYIj0+nq6s7nZ1dGTt2VHbaafRmh/1uS1tbW6ZO3T3NtVoWL16WtWu7G2fJzrvslBEd7duMgUlSqxVJOXgxmnIrh67fe+9DueOOh7Oup8yKFV355jevzqWXfidf/OLMXPrF/11/+24uvXRmLr10Zn7845tT1mtZtmxNbrttdubPX9S4yJRlkqKWnXYatc3X2tOzLitWrM7YsWMyadIu25zvKZWDh7vvNG50mpu3Ptpyg6ampvU/BVvGUAAAAIAdXYXy8syppT8pausPyC1z4MSO/MUfTMk+o/vTUvYlZS1lUUtPvSnzV9ZzzT1L8oGv/Drv+a/r8qv7n0j/wGDQKZPc1jWQP5tf5IOLW/Pj7o4sHGhPb605ZTGQplpvdq2vy7kdPfnSpP6cu0uR/duLtD8Dr77Y/jGPm+nrrWegXqS9vW27Q1hZlqmXSVNz87CfW6sVaWlpTpki/f1lBta/h0O1NDeneLpLZxdJuY24WpZlrrnmxjz00OL09Q/km9+8Op/61H/m0xddmk9+6tJ84pOX5hOf/GI+8X+/kE998gv55CcvzSWXfD2/uvG2DAyUueXXs3P77Vs7l2ORlLWnjJ5lmdTrZZqamn6LC6wUqRVFmocxinTDO7CVvgoAAADPQxPzs88ck/ILQ29H5mcvHzrP3pn1hWMy6+1Dp/1uXPrJY1J+cu/GyTyHPH09+R0qBg+GTlEOpCj7suvIWj7wqkPytb98eWa8dK/sOrKe2kA9Rb0pZYr01Ms8saaeH9y5LOd87vp88P+7Mb0D9Xx8UVfOXtif7/W3Zn7RnHKgllq9SAaKjOxvyiuKej6/a18+OrnIkSNqGdVUbHzhZZInu/u2kcm2rSw3BaVtp66nN378uIzoaM/jjy/MunW9jQ8/pZaWlrS1tqRzzbr09Gx5aPLW9PX15cknl6avtzfjxo3JyJEdmz1ebjMZNio2hdWGJzzyyOP5zS2z093dkze9aXrOPffMzHjXG/P2t78+73rn6/KuGa/NO2e8Ju965+vzzne+Ke965xsz411vzLnnnpkTTzwi8+Yuzm9umZUVK1ZtvuAyKeu1p3y/m5ub0jGiLZ2dXVm5ck3jw0+v3PjH8PZsOay5AAAA4Hlg78z6wh6Zvnppivfctul2Y1+mv2loTHw0B7/nthz81c2fzQvTsxoX6ynW/zkwGKtqRUa0NefwKRPyd3/8onzngy/J2SdOzriOeprTm6IcSOpJ/0CytLOWy385P2vW9WfmipF5on9M+vqakqJIvdabeltX9mvuysd37snn9kpePq45Y5s3v3DLwz31nLcg+fuFgxeAeTYcNG3vjJ8wMrffPitr1nQ1PvyUdt11l+y2+6QsXbYqjz76RHp6nv6clJ2da3PnnQ9m5KiO7LXnhKc97LeKX/ziltx770M55ZTD8uG/flsu/Oi7c+GF784FF56bCy+ckQsvfFc+euG5ufDCc3PBhe/IhRe+LRdc8I584pN/lne844yM22V0brr5vsyaNbdx0ettO+eNGzcm++67RxYvWpIHH3h0u4Pt4EXA1x9HXwznh2I48wAAAMDzwNtHZVp68qWPP7r59K/ely8tSqYdeUDO2/wReJbjYjF42GqReupFc/rSOhgZiyJtLU05er+J+dyfviRX/OVJedXBYzOmSJrrZYrU01ysy7re/gzUy4xsbcvgkbJlytQztqnIO1r78v3JZd43oSm7tm4eFZf01/N3Tzbl9Mc68pVVrVlUbt+5Dp9Jhx66f6ZM2TUP3P9orr/utnR3P30g3GDUqBE54oj9MnHX0bnqyl/mkUfmN86ymbIs88QTS/Kdb/84e+y+a0466ajGWbZbY39bunR5fn3z/Vn85Mr84R+elL32mpTW1ua0tDanpaU5ra3NaW0ZctvwWGtzWltbctjh++XYYw/IXXfNzl13P5je3iEjMrfdFDcaMaIjB0/bN5N3m5gbb7wnt99+X+MsT61MUg5jRetJiwAAAOwozttl6xd2TZJzP35big8+mEuSrR8W/fIDsmLIodSzPjR4f8M8533oyJSfOSCXfujIpzjc+ukMHrK94kN7b37o9mdEz2fTsxoXywyebzGpJbWWLO9J7njkyfT2D6S+/pjjplqR4w/cPV//4CvylfefkFMOGJ3RLUXKemtSK9LfP5Dmpt6k6M8u9f68vOzMV3dZl8/s3pK9OjaNyhsokxX9ZS5bUeS189vyTyuas2igSH9zc9Jc4W1YX5XKlKnX69t1G3oBlI6Otpz1xj/I3nvvlb/79Jfym1vu3upou3q9nrlz5+frX/1uHn7o0Y3LeOlLj8uJJx6a6355a7552VVZ+MSSrV5puV6vZ/78xfnUJ/8zy5Z25oQTDs8JJxzeONuGkyk+bTXb9Bo2D3E333xP7r7r4Rw8bZ8ceeRBGTFi88Oun87++++d444/NCmK/OLaW/LQQ5v+t2TjJj3Nth12+H559atfkttvuzeXXfa9zJ07f6vvSV9ff6668ue5/LL/zcDAQMOjww+M2zcvAAAAPDddcvfarEx7ZjSGw6fz8gOy4k2js/DG9YdRf3tNJh84OmMb5xsxOjN2WrH+cOv5uXZtU6afsf1hcOyB4zP5zk3rWjlidC780MTG2fg9qVDVnllFWWag1p6i7M9Djz+ZP/nPm/NXX7kxdz28OGvX9adeHyxJLc1NecUx++bbH/7D/Mc7jswJU8ZkdMdAunt6MnmgyMHpz8d37stlU5ty6rjmNK2/IMlAmazsL/PT1f05d36Z855szj19zSmLpKyVKWtl2p6uVm1NkRS1enp61+XmX9+Tn/7s5lx77U352c9uys9+dvPg159uefvlL2/Jo48u2GxRp59+Sv7oj6YnRUve/o6P54uXfidPPLE4q1Z1ZvXqrixbtio33HBn/uIvPpPzz//3/OtnvpY1qzuTJJMnT8i7ZpyZF73o6Pznf87MX//1v+TXv747y5atzOrVnVm9qjPLlq3Kz669Oee++5O59to7c8pLj85555+d1tbG/5EokqI5KYph9bKiVqRI08ZZ16zpzA033J2HH56fV77yhEydulvDM55ee3tbjj5qWqYdNDU3//qe3D977qaLzpRJ0pTyaa7MPGHCznnTm0/Lqacdk2996xc5//zP5OfX3pIlS5Zn1arOrFrVmYWLluTf/v3recc7P50P//W/5aabbx98cpHBiwwVzevPCfrUiiIpaoMjbgEAAOB57acPZty312RlkmknDX9k4KUvGZ2xi5ZuOgfjTx/MRQ80DuJJstkh14tz2p09yYgROX27Ri8maVjXFYuSsXvu9JTbyO/OsxoXW8ueNJc9qdV7k7I/9aKWpd0t+eoN8/PO//h5Lpl5e+59dEnWdPduHMnY1tqcM086IN/9m+n5xJlHpSn1vKa1O9/as8y7JiYj149CHCiTlQPJLV31fGThQM59sjnX9LWnu2xObaBIPUl7U3f2a+7LS0f15+kujtyoKJKWlqZ0runOX/3Vv+ect34kb/2jv81b33JB3vKWj+Qtf3RB3vKWC/LWIbe3vOUjede7PpYrr/zFZstqbm7Kh877k3zgA2/K2LEj8+mLvpjTpr8773rXx/P+9/1dzjn7b3P2W/4299xzf6a//Ji8/Z2vy5idRm98/otedGQu+Oi7Mv20o3L9DbflTW88P29+09/kve/5+7znTz+d17/uL/Mnf/zRPPLwE3nNa0/KP/zjB7LHHlsW/aIo09pSprV18PU9lVotaW8fSEtLfeMlYO67b07uuXt29th9fF784qMyfvy4xqcNy+FHHJBjjzswPT1r85tb78mSJcuTJE1NtbS2FWltffqrQB955EH5yEfendNPPzF33HZv3vH2j+RNZ/1l/uxPP5H3vPtTeeUr/jQX/9PXM3anEfnQh96ek048ZuNzm5qS1tZ6mpqfPi62tpRpay2f8grWAAAA8Lzx0wczbv2FXM7fEAhHjM7FXzgmK7Y6OnDvnDQpWbmqZ7Opg6MgG6zty+zGaRU0rotn17MaF/tqLRkoBkcRDl51t0xRSwaK5sxdNZB/+fEDmfH/rsv/+9G9ue+x5ens6dt4OO7I9ta8Z/phmTJpfN6+Z1v26hh8KWWSNQNl7uwuc/GS5F2LWnNZ94isKNtSq9dS1pKmloFMKQZydkdLLtu1L2/fedPVo4drp51G55RTjsnrX/eyvP51L8vrXnNaXvva0/La170sr33dS/Pa1w/eXvO6TbfXvf6UnH76Sdlnn90bF5e2ttb8xV+enW9849M5d8brstdek/LY3IW5996HsmLlqrzopENywUfekf/4j4/k2GO3PJz5pJOOzP/7wsfyqU+9Ly879bh0da3LfbMfzf0PzstAfSCvfvWLc/E//0U+//kLM3XqHo1PT5KMGTMyJ598WE455fCMGTOi8eGNiqLI2LGjcvoZL8rxLzpo40Vhent7s9/+E/Ouc1+VaQdXv0z8rhN2yRmnn5y3vOXl6WhvTnd3d5Jk5513yh++6pi89GVHpjaMGnzkkdPyr//6t7n4kvPyyj88KQP1Mg8+OD9z5jyRsaPH5Y1vPC1f//r/zYc+9I7UaoM/Ac3Nzdl3v91z+hnH58CD9mpc5BaOP2FaXv2aF2WnnUY2PgQAAADPa5f8y51DDmEePBz50saZeMErurq6nn541u/IxP/z/XR1dQ8mwTJpKgbPw1imSFkUKct6avWBtBTJYXuMyVtPnppTDp6UKbuOTkdby2YHopZJuuvJ3N4yv1hd5hurWjKrbE5/0ZRaffCiMS3lQCYW9Rza3p93jB3IqaOb0jGMSPVs6O3tzaJFS9PX25/2jtbsuuv4tLQM78rOZVlm6dIVWb16TYqiyLidd8q4sTs1zvaCUpZlVqxYlZUrV6coiuy889iMGTPqBTXicOQHn4n/HwIAAOD3pfzC4FF2xXtua3zo9+/th6Q8qSXXfvvOnPbTvTPrC+OTG2/LwV8d/H7yA/Mz7l8Wb5p/yHkYD/7q4AVdLt5zbc7feFGYxmVueupQl37ymMzI0hQff3T9BV32yNGPb76uSz95TGaMWbP5sn+HnlP75Vl2zfvatnvA3jOquewfcvGQImNHtefkA3bJ7mOa0lL2pyiK1GvN6SuL3PH46lzw7Xvz4W/cmm/f9Gjun7886/r6kyS99TJz1iVXrEzOW9SUjy/vyH0DrRlIkaKopygGMrboz4ltvfnLsb35t0llXrVT83M2LCZJa2tr9tprt+y7317ZffdJww6LWT+ycMKEnbPvvntnn332esGHxax/T3beeWz22WevTJ26Z3baafQLKiwCAADAUxu8EnP5yac6ErEvc7eIgI/mxkXJ2J3aN5t63uEjtrygCzukZzUu1tOSsmhNWbQkKXLArh35lz8+Mh96xZScdsDoTB5ZS1NRT1kbSIre9A305boHVuf8y+7NR//ntsz89bz0DdRz9eqBfHxRkb95siW/6mlLT62WelNSS5lRZV+OaO7JO8f05tMTy7xz11omt9U2jnpc2p881L3hrIEAAAAAL0TrL7AyafxWzq04MT87sj0rH1iacxseSZJzr1+TlZPGb7rC9MsPyIUHNiUZyMLNr2nLDuhZjYu1jVf9raVImZb0ZfedR2bGK4/M3//xi/J/Xr5fXnbghEwY2Z4iTamnKQNNtfT29+Qn9y3LX112R9b2DuTjy5pzVXdz1tQGBi94nHra6vXs3dSfMzv68rFdyvzVhCJHjKilZf1otTUDZX7dlfzXsqZ8bWmRAXURAAAAeCH76n0p3rM0Cw/cY9OVor9wTMovTE6uvG3zw56HWn+V6ckbrjD9phG5/cbBq06z43tWz7m45we+mxVd/SlTpFb25ZR9RuSb570iY0Z2JEl6+wcya/6q/OTuhfnlrMW5+9GVWdnTm1oGUs/gFYPnfvbMvHjxTpnfn9TSm6Q5uzQN5MW1gbxizEBOG11k99ZNh7/21JNZ65Lru5IrVzfnrnXNOa2jN1/bu55mR8myA3PORQAAgOeX5/W5/d5+SMqTki+9576tjnZ8Pnte75dn2LN+zsUyZYoMpEiZFEUWrannmrueyOKVa1OWSWtzU46csnP+zx8emE+cdXA+8AdTc9K+Y9Pe0pSiTMr0pz4wkNFFX2plmTEDtZzY1J//s1NvLth1IOfsvCks9pfJA+vKfGNlkYuWNOefl7fk5r6WdBdFBmobRlACAAAAMHzrz9X4mQNy3tBpR7Ynizp3uLDIlp7VkYt7fGBm1nR2JWnKQK0tLU217DO+JadN2yXTD90tx+2/a3YZPTiKMUm6untzx7zl+cWshfnp7IWZNXdJfvN3r8t7Vu+UxSnyuhHJy0clR48qM6JpMCrWy2R+f3JDZ5GfdBa5cV1zFg80ZSBJPUWa62XO7FibL+5dbPfIxa6utbnrrtlZ29WddevWZd99p+TAg/ZJkjz66BOZfd/cNLfU0txcZNrB+2XSpAlZsWJ1Fj7xZCbsunMmTNh5/bzzM2rUyIwbt1MeeGBu5j++KOvWrcsRRx6YSZMm5t57HsxRRx+8cZ3Ll6/MuHE7Zc2azjQ1NWfChJ1zz90PZMGCJenvq6epafDqyIcfeWCWLV2ZI448KJ2dXbnzzlk5+eTjUhRF+vv7s2zpiqQoMnHi+CxftjKz738knWu6MjDQl/32m5qp++y5xYVk+vr6c9eds7P/AVOy006jU6+XmT//iaxatSaHHHJAarVa+vr6s2DBouy889gsXrws8+Y+kb7edWlpbcmhhx2QyZMnbLbMNWu68thjT6RWSx55eEHKspakTHNLkcMOPSC77T4xRVGkt7c3t9xyT3rW9qd/YF1OeelxKcsyP7/212lqaknKenbeZUwOOHBqHp03PwsWLElba2v22XePtHe0piiKjB+/c1paWpIks+57IHvtvXvuu/ehnPCiIzMwUM8TTyzOfffOSWrJiBEdOfSQ/dPb25f7H5ibtWt7krLIhPE75eBD9svKFZ2ZPfvR9Pf1Zq+9d83Bh+y/2et6rjFyEQAA4Pnl+TNCbvCK0dOGTlq04QrPO57nz3753XvWRy7uslNHylpz6mlKmSJ9A2UeXNSVL183L5+aeU8u+f69ue6ex9PZvS5JMrKjNSdPm5Q/f9XB+cRZR+fPX3FQkuT1I8p8fHx/3r9rmZN3SkY0FSmTLO8rc9Xq5O+X1vIPy1vyvbWteSK19NeSpEh76jmhY13eMCbZ3gtHr13bnZ/85IY8sWBR2tpa0tbWmrvvfiD1ej2PPPJYfvrT69Pc0pSO9rasWdOVG264NQsWPJmFTyzJlT/8RW79zd3p6elNktx5x6w8/vgTefLJpfnFz29OU3NTWlqa88SCRVm3rjdX/vCXG9e7Yvnq3HfPnCxbtiKzZz+SuY/MT5K0tDSno6Mtt952X7p7etPe0Zbm5qZcfdUvMzAwkMWLl+YbX/9BbrvtviTJunW9mfPQY3lozmN58snlufnmO7J40ZK0t7elqamWhx9+NN3dPRvXu8HSpctz1ZW/yC2/vjtJMjAwkNmzHs63/ueqPPjgvCTJunXrcvtts7LkyeX5zW9mpad7Xdra27J2bU9+8IOf5r775my+zCXL8+ub70xLS3PaO1ozb94TeXTeE+lob0tT0+Dh70ly8813ZNHCJWlra82aNZ3p6lqbVavW5Kab70h7e2va2lvT2tqSVatW54EHHklX19r09/fl5ptvz+zZD+U3t9ydFctXJRmMr1dd9cuUZfKdb/8k9XqZxx9/Ij/60S9TFElHe3tWrlydefPm58EHH839989NU62W9vXr6O/vzzU/viH9/X1pb2/N/PkLh7wiAAAAeCF5NAe/57YUQ287aFhkS89qXLzorMPyxy/eO5N2ak2t7E/K/pRJuvuL3LNgbb58/aP5xBV35Z//987cfP+CdK/rS5KMGdGWl02blPeffngmjB2ZN04o8tqxTZnQMlgIu+rJLzuL/MPSpvz90uZcsbop8/pr6StrKcukpb+eA2t9+YuxPfn4hP78wdjtfyPuuGNW1nb35PgTjsqLTz4up05/cY4++pAURZHvfOfqHH74QTl1+nF58UuOzikvPT5tbe258ca70tXVnbbWtsybtyCzZs1JWZZZtaor3d29Wbp0RTo7u3PCCUfktJeflKn77J16vZ5FizedArW/fyBr1vRk3bq+dK7pydqudSmKIgdN2zcvfdlxGT9+bI459pCcOv2ETJ68a558cnnKcvB5o0ePya9uuD1PLl6Wer2ers616ezszv2zH8qa1Z05+SXH5JSXHpfpp704hx12YNraWjd7zfV6PTfffGcOOHBK7r1nTnp7e1OWZZqbmtLZuTb33vNAli9flYGBelatWp1163qzZk1njjjqwJw6/YScOv1FOeywA3P5N2dmYGBg43LX9fans7Mn++47JdOnn5h99t0jU/fdM6e89PhMnDQ+xfqL8Nx55/2ZMnX3nHTy4fmDV5ycUaNGZmBgIKPHduRlpx6Xl516Qo48anCEZ2tbS44++uCc8rLjsnZtT4rUMn/+4ixfviplWWbevAVpbm7NiBEdWbhwWXrX9eYnP/lVpk7dM6dOf1FOOeW4vOTkY7PbbhPT2bk248aNycknH52Xvey4HH7EQSmKIvMefSxHHX1AXnrqsTn8iM3+fwYAAADgBWF7m9oz6tVH7ZG/fu2hufiPj8rZJ0zK+PZ6amU9ZWopi9asXteUWx7tzqXXPZ6P/H935R//987cM29J+gYGz5E4bnRHRrS1ZHxrkVpRpL9M7u4q80+LmvKJpc35+prW3DPQlO6mMkVZT1N9ILuU/Xnr6N5cNLEv79u5zIkja+nY3mGLSR6Z+1j2339Kdt99Ymq1Wpqaatlv/72TJI8//mSOPfbwNDc3pyiKjB07JnvsMTlLlixPz7p12X3Pidl3v70ye/ZDefzxhUkG1z9p0oR0tLfn8m98P3fcPisTJuySpEit3DR6rywHR92tv5cyg98XRZGiKFIrklqtSK22fteWg8uu1WrZb789c+CBU/P97/80/f39SVFPT093li5ZmZ3Gjs2uu47P6lVrcv11t+X2W2enZ/2I0Q26u3ty150P5GWnviiTJu2Su++6P0nS2taaQw47IAP1gdxx+73p7+9LmYGkKFOkKbWillqtljFjRubEE49OV1d3Vq1avdmyk9rG15CUScoh9wcdf/wR+eUvbs03L786XV3daW9vz0C9zL13P57vfPsn+e7Ma3LbbwZHVD7xxJP5/g9+kW98/aqUZVOmTNkzkybvmkWLl6anZ11+8Ytf55SXHjf4PhUD6e3rz333PpaTTz42ra2Dh1CPG7dTJk2akKJI7p/1SGZ+56f51v9ck3vufjC1opYpe+2Rb/3Pj/Pza3+dnXceO+S1AAAAALwwPKtxsSiSvSeMyRlH75W/ecMRueRPjs3rj5yYce1JrVyXprI/tbLMqp6B3DKvK/993WM57xu35F9+eG8eWbw69fWRrUwyf91APrM0Oe/JWv67qzm39daypqil3lQmRZmRZT2ntfXl78b35a8m1HPa6GR8S1H5Dehd15+mWtOmiLdeURRpbh6MaZsrU6/3pV4fSK0pOfzwg9LW1pIHHng4XWu7UyQZM2Z0Xv3aU3PEEQfl/tkP52tf/t76yNY/ZCll6mU9RTEYGrdQFutT5Qa1bOhzra0tOebYQ9LW3pZf/Pw3g7OX9Y2BMklaWlsyceIumXXfg1sEwOuvvzUdHW15csnSdIxoyfXX37J+i5Jddh6XI488OAueeDKzZz8yGDXLJEW5oZ1uVJTNqQ9sWmfR8INYluWQgLrJUUcdnFe84sWZPHlCvv717+f++x9OURSZOHFCDj1svxxyyH7ZfY/JSZIxo0dk4sRx6enpyT777Jnd95iU4447LPfd93AWLlyS+Y8tyNSpewwGzKy/oM9AucVozSRJWcuEXcfnkEP3y+FH7J9Jk8enY0R7XnX6S3PiSUdk5co1+fxnv9X4LAAAAIAdXmMBe1Y0N9UydeJOefVxU/OJtxyTf/njo/OKg3fOyJZ6igysj1TJiu56bn6kM//vp3Pyp//vhnz+x7PTN1DPV5YUee+iWj6/sjW/7m/K8qKe1OppGijTuq4ph5RFzh/fn0/tNpA37FRkSluR9UdQVzZl7z3yyCOPZ/n6c/glyaqVq9PX15dRI0dm/uObzsHX29ubVatXZ0RHR9rbWlMkGTmyIy9+8bF58IF5mfPgo6nXB4PaHntMzNHHHpKXv+LFuf76G1MURdramtPTMziKsLu7J51dXRk1auT68LhxNYPWj1TcoCgHRwCmLFMriuy889gcc8xhmTf3icx/bGk6OkZm5Mj29PSsTU9PTzo62nPAgVPT3tG6cZuyPvj9+JpfZdKkXfLQg49m5epVWb2qM/PmLti4f/bZZ6/sucdueejB+Vm2rDMpalucy3LhE4vT070uY8eO2fyBYvPY2PiykqSpqZZDD9s/J734yBx11EH56U+uS60oMnHXnXLQQVNz4EH7ZvJuu6Ysy4waNSJHHnlQpkzZPX19fRkY6M9uu+2anrX9ue663+SgaftkxIjBiwUVSZqbmzJ134m5685NFz3p7e1NZ1dXBur92WX8mBx40NRMO3jf7LrrLmlqasr48WNz1NHT8tKXHZc5DzmXBAAAAPDC03TBBRd8onHis6W5qZZxo9qzz6QxedH+E3LAxBFZsaYrSzrXpb8+GKDKepnu3v4sXNmduxetzR+fsm8+sLwtdw2UWVO0pizK1Mp6irLI+NpA3jSqL+ePr+cVY5I9Wou01rYerrbXrrvukln3PZA777w33d3r8vDDj+crX52Zo486OPvsu1e+8Y2Z6Vq7LiuWr8qvfnVL5s17NK961anpWtuV1WtWZ5999s64cWPT2tqSa676RQ6aNjVNzUUu+8bMlGWRe++9P+t6e/Kyl52UNZ2rc+ONt6WnZ11uv/3ujBjRnsMPPyh3331f5sx5JJ2da7N40ZKMHjMq9957Xw44cGp22mkw3v34ml/k5a84OStWrspjjz6eo485LGPGjMratWtzw3W/HhyNd/iBuW/W7Nx11+z09PRm/vzFuf5XN+f444/MLruMS5LcecfdWbNmVc564+mZMmXPTJ2yZ1qaWzLrvjnZeeed0r22O4ccekAmTNg5s2Y9lHlzH8/Rxxychx9+LMuWrczjjy/Mj398XX7+8xvytre/MbvtNnHje7l06fLMfeSxHH/CEUmShx6al6JI9t9/ysZ5kuS7M6/KHXfOSu+6/vzi57fkpJOOzJixo/LDH16TtrbWPPLIY1m2bHlSJMtXLM/uu0/KlCl75K4770lrW0smT56Yer0/3//eT3PWG1+VXXfdJUVRZObMH+RNb351dt5lTK6+6tosWrQ0K1euzs9/flMenbcgSZmHH5678arWixcvTVEUufSL/5O1a3vyxBNPZt68+XnlH5682fY+1/zdNUsbJwEAAPAc9onX7JYk+eQPXUT0ucR+2eRPjmtO0dXVteXxp88BZTkYERet6MpP756fr1w/L7Oe6MxAPSnLwfPzlU1FHvrX1+blT47JE+vq6a01JykzKgM5vrUv544byImjioxrKtL8TBTFBqtWrcmCBQvz8MOPpbW1Nfvsu3emTtk9RVHkiScWZ+7c+Vm5cnUmT56QKVP2yC67jMuaNZ1Z19ObXcaPS1NTU/r6+nP/7IcyafKEjB49KnPnPpaH5jya0aNH5LDDDsrOu4zL6tVr8sD9D2fRoiXZbbddc8CB+2bUqJF5/PEFefLJZWlpaUl7e3v23HO3LF2yLBMnjk97R3uSZNasOZk2bb90d3dn+fJV2WP9YcNr1nTmiScWZ8L4nTN23E5ZuXJ1HntsQRYsWJSW5ubstvvE7L//1LS1tSVJFi1anKZaUybsOj5Zv39Wr+7M0qXLs/POY9PX25ddJw4+tuTJZVm5ck12223XLFm6IqtWrU69XqajvTVjdhqViRMnbHYV6M7OtVm2dHn2nrLHxucnyYRdd9k4T5KsWLEy9933YJ5cvCz77jclBx20T+r1MnfceW9GjhiRsqxnxIiOTJiwS9b19mbM6FFpb2/PggWLMmrUiIwbNzY9Pevy0Jx52W//KWlvH3xtd955b4488tD09w9k0aIn8+i8+Vm2bHkmTdo1++w7JfX6QJ54YnHK9aNA29tas8eeu2Xx4iW5//6H09RUy2GHHZzdd98UTJ+LRn5w06hMAAAAnvvKLxyTJCnec1vjQzyL7JdNrnlf23M3Lm5QlmV6+gayeOXafO+WR/PFX87LY8vWpqleS38xkAf+9XV505Njcm9fc9JUZkpTX94zpj+vHzt4TsXW30FUHGpgYCC9vX3rD18evBBI1m93b29f6vV6mpub09LSvHF61p+bcYN6vb7x4iX1ej3r1vWmqVZL65Dz//X19ae/v3+zZdXr9dTr9ZTl4PKammopy3Kz8z0ODNQ3Th/62Ib7G9abJP39/enr609RFGlpaUlT06blDN3GDYYuI0Ne09DpZVlu3MYNF75ptLVtS8N7tEFvb1/6+/vT1taapqamlGWZgYGBjeef3PA+bLDhPR267fV6veE9GtgYO8uyTF9ffwYG+tPc3JKWlub166gP2a6sX3fS27suyeb7/rlKXAQAAHh+WfvZo9LRUsuu592VJZ2brsfAs2fCqOY8eckR6e6rZ8QH7mh8+AXnmve1PTfOufhUiqJIR2tz9p4wJn/2yoNz5YdflvNPPyg7j6inOd3p7+/NyGJtRjb15V3tXfn27n05d0KRya2/+7CYDEamjo72tLe3bRaXivWxsaOjfWMM3DC9MULVaoMjMTd839HRvllYTJKWluYtllWr1TbGxubmphTFkKtEr7chtDU+tuH+0G1pbh5cR3t72xYRsHHeNCyj8bVvmD50GxuXucHWtq1xXRu0trZkxIiOjTGwKIqNyx/6PgxdRuO2b/kebRpFWRRFWltb0tHRsfG9HlxH05B1DF4FvFYr0t6+5b4HAACAZ8KPZw1eaPUfz9ojE0Zt6gE8OyaMas4/njV41OWGfUOe+yMXt2agXmbBstX516tn5V2nHphv9Y/Jq3ZJjh/dnFrxzJxTEXY0Ri4CAAA8vxyz14hc/+ED09Gy9cE6PDu6++p5yT89kNseW9v40AvO8+KwaOCZIS4CAAA8/xyz14h89NWT84qDx4iMz7Luvnp+PGt1/u8PFwqL64mL8AIiLgIAAADPpOfFORcBAAAAgOcmcREAAAAAqERcBAAAAAAqERcBAAAAgErERQAAAACgEnERAAAAAKhEXAQAAAAAKhEXAQAAAIBKxEUAAAAAoBJxEQAAAACoRFwEAAAAACoRFwEAAACASsRFAAAAAKAScREAAAAAqERcBAAAAAAqERcBAAAAgErERQAAAACgEnERAAAAAKhEXAQAAAAAKhEXAQAAAIBKiq6urrJxIgAAAADAU7lhziNGLgIAAAAA1YiLAAAAAEAl4iIAAAAAUIm4CAAAAABUIi4CAAAAAJWIiwAAAABAJeIiAAAAAFCJuAgAAAAAVCIuAgAAAACViIsAAAAAQCXiIgAAAABQibgIAAAAAFQiLgIAAAAAlYiLAAAAAEAl4iIAAAAAUIm4CAAAAABUIi4CAAAAAJWIiwAAAABAJeIiAAAAAFCJuAgAAAAAVCIuAgAAAACViIsAAAAAQCXiIgAAAABQibgIAAAAAFQiLgIAAAAAlYiLAAAAAEAl4iIAAAAAUIm4CAAAAABUIi4CAAAAAJWIiwAAAABAJeIiAAAAAFCJuAgAAAAAVCIuAgAAAACViIsAAAAAQCXiIgAAAABQibgIAAAAAFQiLgIAAAAAlYiLAAAAAEAl4iIAAAAAUIm4CAAAAABUIi4CAAAAAJUUXV1dZeNEAHZ8ZemvfwBgeIqiaJwEALlhziNGLgK8kJRlufEGADBcPkMAsC1GLgLs4LbnHwHbMy8AsGPanlGK2zMvADseIxcBdmDbGl0wdORB4w0AoPHzwVN9VtjWdABeOIxcBNgBbe1DfuO0xvsAANvSOEKx8f62pgGwY7thziPiIsCOpDEYPtX9xscAALZlaDhsjIhPdx+AHZe4CLADaYyFG+5vKyhua34AgMZAuK24uOH7p5ofgB2XuAiwA9laOBzuVwCAbWkMiE/3tfF7AHZc4iLADmJbYbExIjY1NaWlpSXNzc1pamra+BwAgKcyMDCQ/v7+9PX1ZWBgIGmIigIjwAuTq0UD7ACGExbLskx7e3tGjRqVtrY2YREA2C5NTU1pa2vLqFGj0t7evtXPGhu+32Do9wDsuMRFgB1M4wf8siwzcuTItLW1Nc4KALDd2traMnLkyK1+5gDghUdcBHgee6rRARs+5Hd0dKSlpWWzxwAAfhstLS3p6OjYalR8qs8nAOx4xEWAHUDjqIENtw2HMAEAPNM2nGql8fNHREWAFxRxEWAHtOHDfWtra+NDAADPmNbW1q2OXgTghUNcBHieavwQv7URA83NzZvNAwDwTGpubt7ss8fWQmPjfQB2LOIiwPPc1j6wb5jmqtAAwO/Shs8aT/V5BIAdm7gIsIMZOnoAAOB3zWcPgBc2cRFgB9B4GJIP9wDA79PQzyBDP5MAsOMTFwGeh57qA7vACAD8Pg3ns8dTPQbA85u4CAAAAABUIi4C7IAcjgQA/L743AHwwiYuAjyPNX6Qb7wPAPD71PhZpPE+ADsecREAAAAAqERcBAAAAAAqERcBAAAAgErERQAAAACgEnERAAAAAKhEXAQAAAAAKhEXAQAAAIBKxEUAAAAAoBJxEQAAAACoRFwEAAAAACoRFwEAAACASsRFAAAAAKAScREAAAAAqERcBAAAAAAqERcBAAAAgErERQAAAACgEnERAAAAAKhEXAQAAAAAKhEXAQAAAIBKxEUAAAAAoBJxEQAAAACoRFwEAAAAACoRFwEAAACASsRFAAAAAKAScREAAAAAqERcBAAAAAAqERcBAAAAgErERQAAAACgEnERAAAAAKhEXAQAAAAAKhEXAQAAAIBKxEUAXjCueluRotj6bdyeR+ec/7gpKzfOPTeXHFakeNtVmy1jx7L+NR52SeY2PvQ78wyvc+lNueT087Mj76XfuS3ew2d4Hz2nvZBe6+/BFj9Lz7LK2/NC+PsfAJ454iIALzDtOepNMzLj3UNvp2fq0jty+Z+flJM+dkfjE3gOm/vlGTn/6oWNk9kO3kOeKc+1n6Xn2vYAwI5KXATgBWZqzvm7S3Ppfw29XZnb19yeC6Yks//vRbm8s/E5O6qpOe+eMuU952Vq40O/M8/GOmFb/DwCAPy2xEUASJLmo3LOn05LMjsLFzU+uEnPQzNz7nHjNh1Ofdw5+dzNmw6mHrQyN/3HOTl6csemQ6/HHZyz/nnoYddJVt6US848OONaGubpHzrTcNe5FU+7/K0fErrou+fntD3XP6fj6Jz73UWZ+bah8204ZHBmFn333Bw9bsO8+2z5GrfQuM7qy7rqbUX2+fDsJJfnjGLzQxhX3vC5nFPlPRvuvkuy8uanX8dw5hnW/n3afTnMeRo81XuY9GTR1RcO+VnY+j4Z1vZvzTC39+mXv+Fn6Eu56k8nr1/WOfnkezpSFGds+Z8F/VflnKJIx/uu3crP46BnbL9tYevbevn6pw13mZv9jo47Ouf/fOXgaR827r9tHda79enDWu/T7K+n/lkaquF3vmNweR37n5VLbtjytT797/LW39MPv2Vb2zP833EAYHjERQBYb+Hjc5O0J82NjwzqufrcTN3/rHyp8/Rc/LUrcsXXLs7pnZfnAydOzTk/2PTP0js+cnRO+vPL0/MHF+Wyb12RKz5/QU4fPzszP3xSzvrihnI5N5e85KSc//OxOevvLssV37osF/9BT2Z++KQc/anZ273OLQ1v+Y1W/uCcTDvzklw76uxc/LUr8tn3tufKM6dlxg8a50zygxmZ9uYbM+0jl+WKr12cs6fMzcwPn5QZ3+xpnPPpVVjW0X9+RT771klJTsx537oiV/z50cn61zD1JR/I5SunD75nnz8v0+YP5z0b7r5bv44TP5DL50/LeZ8fuo7pueSh4c8zvP07nH05nHm2tK33MEly74U56bUzM+nPL8sV3/psZmxlnwxv+7dmeNu7Xcv/+rk54+dn5LPfuiwXf/icvOfd52VSrsplP2j4Gbr6slye9sw4e/rm09d75vbbU2jY1uljh7/Mld88K5PPvCTXjpqRz37rinz2ne350vSj84HrN1vDsA1vvU+/v57yZ2lrfjAj0868MpP/avB3/vTMzPkvmZpzr960v7brd7nhPf3j87e+PcP9HQcAhq/o6uoqGycC8NxWloN/dQ/9WpZl6vX6xq/1ej0TJkxoeOYL21VvK3LG16fl4jmzct5+Qx7oWZnZ35yRk941MysPvTiP3HNepmZuLjlsn5x/1JUpv3Z6ktm5cOrB+fRhl2bFzBkZuzFArszlrx2Xc+65ILPmXpRpuTbn73lGvnTqFVn4tdPTvmG2zstz1uhzMvNP1i/voUty8P7n56iZZS57w6Zlfen0cfnAiotz+03nZdqw17kVw1r++teY9a+5/9p8YPRp+dyhF2fWTedl2vr1rfzBOZn62su3fG/unZaLZs/KBQetX3z/VTmn5YxcvuE1blXDOn+rZSVz//ng7PPho3JleVlOT5INr2G/izLrjgs2vob03JTzp52US/IU79lw992G/ZILcvuci3LUhnWsvDxnTJiRuR+7MbM+2j78eZ5u/w5nXw5nng2TG2zxHm7cJ1NzwW8eyUXHrp9xw/vw1itSXn7mdvxObMWwtne4y9+wvafn0hVXZsbYDfNteP5l6f7+2Rv351VvK3LGTy7I7QsvylFb/Dxux7592u3amqfb1qdb5k35QMdJW/x8r/zuOZl85uXp2fgz2vj31waN04e53mHtr639LG3NhvdgbM7+/txc9pr1b0L/Hblw/6Pz6Q2/o8P+Xd7We7q17Rnu73jj+8TTWbJkSWq1Wmq1Woqi2Pi1KIok2eIrADuOG+Y8YuQiAC80s3P+/usPhdtw6xiXg981MyvHTs+l397Gudfun5mZ85Jpk5JrvzszM7+94XZtVoyalMybmaseSpLpufjx7qwY+g/XJBl1Yk46NMnKlelJkkmTMy3J5R8+N1+6dVF6+pNkbGZcVaZ7Qwga9jq3YjjLb3TzzHypJzn9Q+/f9A/5JGNfc2HO3xD9hjronJw5dHrztBx9aJI7Zm//lXefqWVteA0f2RRHkyTtJ+b8D52YzPtSLrt1yPTNDHPfzbsqV81Lpr1vxqb4lCRjz86Vfd2Z9dGjhjfPcPfvcPblcObZXgfNyDkbwmKGvA/3zB3cJ8Pd/q0ZzvZu7/IPnZ7pQ8JSMi3n/MnU5AeXZeaGQ6P7r8plX0+mvvucHDV01g2eyf32VBq3dbjLvPXKXNGTTP/zGZv/jr7h/Jw3acjyhmu46x3O/tpeh16YizaExQyemmLG+6Zt3Afb/bvc+J5u1TB/xwGA7SIuAvACs5WrRX/w4lx27aysWPizzNhaREuSObMyO8nsL56bs9581ma3D3xzUZLZmT1nyPz9PVk5745c9e3Lc8mHzslp+x+c8+9NMndhFibJqLNz0X+dnkkPfSnnHjc5HS0dmXzcObnk23dsOufc9q5zqOEsv9GSFenJtJx01Gb/7E4yLUcd1zApSZrbN/8H+m/jmVrWihXpyaQctf+WS5s0ZWqSRZn7dBePfbp9N3t27khy1EFbzdCDhjPPcPfvcPblcObZXk+3T4a7/VsznO39bZa/3rS3vT/Thh4affVluTxTc/abt5HDnsn9tj2Gu8yFc7MoyaRJjSXxqBx9asOk4Rjueoezv7bXUdO2+I+cqQcdleSO3H7PM/S7vC1P9zsOAGwXcRGAF5itXC36X87L2adOy9gt/w27hbO/P3gI+tZul75qcJ7ZXzwjk1s6Mm7q0Tnj7Pfn4m/PTvtrZuT0hh4w7d1XZmH3wtz+rYsz49Sp6bnz8pz/5qMz7sRLMnvIP9iHs86tGe7yN+jpGca54nZww9p3/d1D7mzDcOZZbzj7dzj7cjjz/C4MZ/u3ZrjbW3X5SZL9zsn7X5Rc9e2Z6Uly1bcvT6acnXMObZxxvWd4v22v32aZ7UNH922n4ax3uPvrmdDxW7yWpzOs33EAYLuIiwAwHJOnZlKSa2+6o/GRzc3/XGb86VVZ+ZpLM2tNmbJvRRY+fnuu/JcZWz8Ms31SjnrTebn02llZ0d2d2z81Lbn1wnzu5u1Y51N5quU3zrrn1LRndm68o/HAwLmZ/Vtswu/VuHFpz6LcMafxNSSL5s1NMi0H79/4yHrD3XeHHZ2jktxxf+MB23NzyXFFxp19eVYOZ57t3b/D2ZfDmeeZsr3bvzVPtb3PxPIzKWedfWLy3Ssyc+XgIdHT3jdj24fx/i7223AMd5n7H5xpSRYtarzwyOzc8ZuGSUkyf2E2n3N2Zt875O5w17vBU+2v7bXFtiVz778jyfSceNRv+bu8LcP9HQcAtou4CADDcew5mTElWfSZizNzswF+KzPz7I4UHWfl8pVJ7rgxNyU5850zMm3Uprl6br4slw/5l3TPD87N5I5x+cDPN01Lc3um7jHkQMHhrnMrhrX8Ri86MzPak6v+5XObj0S69Uv53NAg8Vy24TX8XcNoqp6bcvG/3JSMPT3Tt3Xo+zD3XaacntOnJLM//6XcMXQd91+eL92aTD7qxIwdzjzD3L/D2ZfDmecZN8zt35phbe9vsfyhJr1pRqZnZq7888tyeU7M+9/6FO/JM7jftstwl3nQmTlzSnLtv39p85/vGz6Xi+8fcj8dGTshyU13ZNaQ+VZ+97JcNnS2Ya53WPtre/38knxp6Db3XJtL/m528qIzc8ak3/J3eVuG+zsOAGwXcREAhmVazv/3szO25/KcNeHgnPufMzPz65fk3JdMy1nf7MlRn7ooZ49NctT0TE9y+ZvXz/Pty3PJ2wYPHZw75FC/9lPPzBntK/O5VxycMz72ucz89sx87mNn5Oh3XZUce1HOO3k71rkVw1t+g+bpuei/z0xuPT8HH3ZOLvn6zFz+sTMy+bhPb99FVX6POsZOTjIzl3zk8sy8ddHga/jW2Rl774U5eNpZueTrMzPzP8/PSVNPyiXzxubsr12YExsXssEw993G/TLv0zl64zrOzcGHXZjZY2fk4vdO3b55nmb/DmdfDmeebdniPRy24W3/1gxve6svfzOTzsjZpyaXf/3y5EXn5Kw9GmcY6pnbb9tnuMuclgs/P2Ozn+/L//ms7POSz2XznjkpZ7x1etLzuZz1kvPzuW/PzOc+dFKmvXl2pm12SPjw1ju8/bW9P0uzc+FhB+ecf748M79+Yc6Yelo+t/KoXPzl92dS1v99VPV3eb0ttmfYv+Nb8YNzUhRFDv7n5+rfhgDw7BEXAWCYxr7mssy96bM5+8iF+dL7zspZbzs/lz00OTO+9Uhu/Kv1B1ruMSNX3HRxzpwyd3CeN8/IxbOPzmfvWJGfvbc9uffG3NSZZNTpuXTOlbngJcmNf/+BwQso/P2NGfvuK/LI9ZuuWD2sdW7NMJffaOxbr8jCmTNy1KLLc/7bzso5/7wwZ8z8WS7a1jnqnmWT3nRBzjsyufbvz8lZ770scze8Z9d/NmePvTbnv+2snPW+SzJ7jxm59J65uWzo1WkbDXffDd0vG9dxWXpec3FunHtpTl8/Imq75nmq/TucfTmcebZha+/hcA1r+7dmmNtbefmbmZRz3n16kmT6u84aDFdP4Rnbb9tpuMtsf9WlmXvTxTkzVw3+jn5sbqZv5Xd00ruvyI3/dGbG3XlJPvDms3L+Dybn/OuvzUUNx/8Oa73D3F/b9bN06EW54vPTctPHzslZb/t0btxjRq6Yc2POGzIasfLv8npbbM92/I4DAMNXdHV1lY0TAXhuK8vBv7qHfi3LMvV6fePXer2eCRMmNDwTqpidT087OBcedUXKy89sfBB41s3NJYftk/OPujLl1wZD6nPX+m3NxXnknqcO3zx/LFmyJLVaLbVaLUVRbPxaFEWSbPEVgB3HDXMeMXIRAFhv0ZdyWsu4nPYfDeON7p+Zy+5Pph3lkgcAAMDmxEUAYNCkM3L2S1bm2j8/KSd9aPC8apf/8znrzzd3di5+tzFGAADA5sRFAGC9SZlx1SO54t2TM/c/B8+rds5Hrkr7Wz+bG+dcltOf/hRnAADAC4xzLgI8DznnIgDwXOGciwAvXM65CAAAAABUJi4CAAAAAJWIiwAAAABAJeIiAAAAAFCJuAgAAAAAVCIuAgAAAACViIsAAAAAQCXiIgAAAABQibgIAAAAAFQiLgIAAAAAlYiLAAAAAEAl4iIAAAAAUIm4CAAAAABUIi4CAAAAAJWIiwAAAABAJeIiAAAAAFCJuAgAAAAAVCIuAgAAAACViIsAAAAAQCXiIgAAAABQibgIAAAAAFQiLgIAAAAAlYiLAAAAAEAl4iIAAAAAUIm4CAAAAABUIi4CAAAAAJWIiwAAAABAJeIiAAAAAFCJuAgAAAAAVCIuAgAAAACViIsAAAAAQCXiIgAAAABQibgIAAAAAFQiLgI8jxVF8ZT3AQB+nxo/izTeB2DHIy4C7ICKovBhHgD4vfC5A+CFTVwE2IENDAw0TgIAeMb4rAGAuAjwPPRUowM2PFYURXp7exsfBgB4xvT29m722WNbnuoxAJ7fxEWAHcCGw5EaP9yvW7euYU4AgGfOhs8aQz+DOEwa4IVFXATYwQz9cN/f35/u7u7GWQAAfmvd3d3p7+/f4j83AXhhERcBnue29kF+6If8zs5Oh0cDAM+o3t7edHZ2PmVY3No0AHY84iLA81TjB/bGw5CG3l+1apURjADAM6K7uzurVq16ys8eQzXeB2DHIi4C7ICGfrjfcOvs7MyKFSs2HsIEADBcG061smLFio0jFhtvALwwFV1dXWXjRACeH8py01/hG74vy3KLW71e3+z+0Pkanw8AMDQWDo2HQ2NirVbbIjAOnW9rywJgx3LDnEfERYDnu8ZAuLWAuLXb0OcKiwBAo8ZQ2BgRtxYUh94f+lwAdkziIsAOoDEubvja+H3jtK19BQDYYGtxccPXxpDY+H3jMgDYMYmLADuI4QTGbU1r/B4AINuIhFuLiFub1vg9ADsmcRFgB7K1WDjcrwAA29IYDp/ua+P3AOy4xEWAHUhjKNxaQNzW91u7DwC8cDXGwW2Fw62Fxa3dB2DHJC4C7GAaA+FT3W98DABgW7YWFId7H4Adl7gIsIPaWjhsnNZ4HwBgWxqDYeP9bU0DYMcmLgLswLYVD7c1HQDg6WwrIG5rOgA7thvmPJJa40QAdgzFkCs3bm361m4AAI2fD57qs8K2pgPwwmHkIsALiFGLAMBvS0wEYAMjFwFeYJ5q5AEAwLb4DAHAthi5CAAAAABsNyMXAQAAAIDKxEUAAAAAoBJxEQAAAACoRFwEAAAAACoRFwEAAACASsRFAAAAAKAScREAAAAAqERcBAAAAAAqERcBAAAAgErERQAAAACgEnERAAAAAKhEXAQAAAAAKhEXAQAAAIBKxEUAAAAAoBJxEQAAAACoRFwEAAAAACoRFwEAAACASsRFAAAAAKAScREAAAAAqERcBAAAAAAqERcBAAAAgErERQAAAACgEnERAAAAAKhEXAQAAAAAKhEXAQAAAIBKxEUAAAAAoBJxEQAAAACoRFwEAAAAACoRFwEAAACASsRFAAAAAKAScREAAAAAqERcBAAAAAAqERcBAAAAgErERQAAAACgEnERAAAAAKhEXAQAAAAAKhEXAQAAAIBKxEUAAAAAoBJxEQAAAACoRFwEAAAAACoRFwEAAACASsRFAAAAAKAScREAAAAAqERcBAAAAAAqERcBAAAAgErERQAAAACgEnERAAAAAKhEXAQAAAAAKhEXAQAAAIBKxEUAAAAAoBJxEQAAAACoRFwEAAAAACoRFwEAAACASsRFAAAAAKAScREAAAAAqERcBAAAAAAqERcBAAAAgErERQAAAACgEnERAAAAAKhEXAQAAAAAKhEXAQAAAIBKxEUAAAAAoBJxEQAAAACoRFwEAAAAACoRFwEAAACASsRFAAAAAKAScREAAAAAqERcBAAAAAAqERcBAAAAgErERQAAAACgEnERAAAAAKhEXAQAAAAAKhEXAQAAAIBKxEUAAAAAoBJxEQAAAACoRFwEAAAAACoRFwEAAACASsRFAAAAAKAScREAAAAAqERcBAAAAAAqERcBAAAAgErERQAAAACgEnERAAAAAKhEXAQAAAAAKhEXAQAAAIBKxEUAAAAAoBJxEQAAAACoRFwEAAAAACoRFwEAAACASsRFAAAAAKAScREAAAAAqERcBAAAAAAqERcBAAAAgErERQAAAACgEnERAAAAAKhEXAQAAAAAKhEXAQAAAIBKxEUAAAAAoBJxEQAAAACoRFwEAAAAACoRFwEAAACASsRFAAAAAKAScREAAAAAqERcBAAAAAAqERcBAAAAgErERQAAAACgEnERAAAAAKhEXAQAAAAAKhEXAQAAAIBKxEUAAAAAoBJxEQAAAACoRFwEAAAAACoRFwEAAACASsRFAAAAAKAScREAAAAAqERcBAAAAAAqERcBAAAAgErERQAAAACgEnERAAAAAKhEXAQAAAAAKhEXAQAAAIBKxEUAAAAAoBJxEQAAAACoRFwEAAAAACoRFwEAAACASsRFAAAAAKAScREAAAAAqERcBAAAAAAqERcBAAAAgErERQAAAACgEnERAAAAAKhEXAQAAAAAKhEXAQAAAIBKxEUAAAAAoBJxEQAAAACoRFwEAAAAACoRFwEAAACASsRFAAAAAKAScREAAAAAqERcBAAAAAAqERcBAAAAgErERQAAAACgEnERAAAAAKhEXAQAAAAAKhEXAQAAAIBKxEUAAAAAoBJxEQAAAACoRFwEAAAAACoRFwEAAACASsRFAAAAAKAScREAAAAAqERcBAAAAAAqERcBAAAAgErERQAAAACgEnERAAAAAKhEXAQAAAAAKhEXAQAAAIBKxEUAAAAAoBJxEQAAAACoRFwEAAAAACoRFwEAAACASsRFAAAAAKAScREAAAAAqERcBAAAAAAqERcBAAAAgErERQAAAACgEnERAAAAAKhEXAQAAAAAKhEXAQAAAIBKxEUAAAAAoBJxEQAAAACoRFwEAAAAACoRFwEAAACASsRFAAAAAKAScREAAAAAqERcBAAAAAAqERcBAAAAgErERQAAAACgEnERAAAAAKhEXAQAAAAAKhEXAQAAAIBKxEUAAAAAoBJxEQAAAACoRFwEAAAAACoRFwEAAACASsRFAAAAAKAScREAAAAAqERcBAAAAAAqERcBAAAAgErERQAAAACgEnERAAAAAKhEXAQAAAAAKhEXAQAAAIBKxEUAAAAAoBJxEQAAAACoRFwEAAAAACoRFwEAAACASsRFAAAAAKAScREAAAAAqERcBAAAAAAqERcBAAAAgErERQAAAACgEnERAAAAAKhEXAQAAAAAKhEXAQAAAIBKxEUAAAAAoBJxEQAAAACoRFwEAAAAACoRFwEAAACASsRFAAAAAKAScREAAAAAqERcBAAAAAAqERcBAAAAgErERQAAAACgEnERAAAAAKhEXAQAAAAAKhEXAQAAAIBKxEUAAAAAoBJxEQAAAACoRFwEAAAAACoRFwEAAACASsRFAAAAAKAScREAAAAAqERcBAAAAAAqERcBAAAAgErERQAAAACgEnERAAAAAKhEXAQAAAAAKhEXAQAAAIBKxEUAAAAAoBJxEQAAAACoRFwEAAAAACoRFwEAAACASsRFAAAAAKAScREAAAAAqERcBAAAAAAqERcBAAAAgErERQAAAACgEnERAAAAAKhEXAQAAAAAKhEXAQAAAIBKxEUAAAAAoBJxEQAAAACoRFwEAAAAACoRFwEAAACASsRFAAAAAKAScREAAAAAqERcBAAAAAAqERcBAAAAgErERQAAAACgEnERAAAAAKhEXAQAAAAAKhEXAQAAAIBKxEUAAAAAoBJxEQAAAACoRFwEAAAAACoRFwEAAACASsRFAAAAAKAScREAAAAAqERcBAAAAAAqERcBAAAAgErERQAAAACgEnERAAAAAKhEXAQAAAAAKhEXAQAAAIBKxEUAAAAAoBJxEQAAAACoRFwEAAAAACoRFwEAAACASsRFAAAAAKAScREAAAAAqERcBAAAAAAqERcBAAAAgErERQAAAACgEnERAAAAAKhEXAQAAAAAKhEXAQAAAIBKxEUAAAAAoBJxEQAAAACoRFwEAAAAACoRFwEAAACASsRFAAAAAKAScREAAAAAqERcBAAAAAAqERcBAAAAgErERQAAAACgEnERAAAAAKhEXAQAAAAAKhEXAQAAAIBKxEUAAAAAoBJxEQAAAACoRFwEAAAAACoRFwEAAACASsRFAAAAAKAScREAAAAAqERcBAAAAAAqERcBAAAAgErERQAAAACgEnERAAAAAKhEXAQAAAAAKhEXAQAAAIBKxEUAAAAAoBJxEQAAAACoRFwEAAAAACoRFwEAAACASsRFAAAAAKAScREAAAAAqERcBAAAAAAqERcBAAAAgErERQAAAACgEnERAAAAAKhEXAQAAAAAKhEXAQAAAIBKxEUAAAAAoBJxEQAAAACoRFwEAAAAACoRFwEAAACASsRFAAAAAKAScREAAAAAqERcBAAAAAAqERcBAAAAgErERQAAAACgEnERAAAAAKhEXAQAAAAAKhEXAQAAAIBKxEUAAAAAoBJxEQAAAACoRFwEAAAAACoRFwEAAACASsRFAAAAAKAScREAAAAAqERcBAAAAAAqERcBAAAAgErERQAAAACgEnERAAAAAKhEXAQAAAAAKhEXAQAAAIBKxEUAAAAAoBJxEQAAAACoRFwEAAAAACoRFwEAAACASsRFAAAAAKAScREAAAAAqERcBAAAAAAqERcBAAAAgErERQAAAACgEnERAAAAAKhEXAQAAAAAKhEXAQAAAIBKxEUAAAAAoBJxEQAAAACoRFwEAAAAACoRFwEAAACASsRFAAAAAKAScREAAAAAqERcBAAAAAAqERcBAAAAgErERQAAAACgEnERAAAAAKhEXAQAAAAAKhEXAQAAAIBKxEUAAAAAoBJxEQAAAACoRFwEAAAAACoRFwEAAACASsRFAAAAAKAScREAAAAAqERcBAAAAAAqERcBAAAAgErERQAAAACgEnERAAAAAKhEXAQAAAAAKhEXAQAAAIBKxEUAAAAAoBJxEQAAAACoRFwEAAAAACoRFwEAAACASsRFAAAAAKAScREAAAAAqERcBAAAAAAqERcBAAAAgErERQAAAACgEnERAAAAAKhEXAQAAAAAKhEXAQAAAIBKxEUAAAAAoJL/H9jUrT5WvmK+AAAAAElFTkSuQmCC;" vertex="1" parent="1">
                    <mxGeometry x="200" y="20" width="530.53" height="259.36" as="geometry"/>
                </mxCell>
                <mxCell id="4" value="" style="shape=image;verticalLabelPosition=bottom;labelBackgroundColor=default;verticalAlign=top;aspect=fixed;imageAspect=0;image=data:image/png,iVBORw0KGgoAAAANSUhEUgAABQ0AAAKDCAYAAACwmSy/AAAAAXNSR0IArs4c6QAAAARnQU1BAACxjwv8YQUAAAAJcEhZcwAADsMAAA7DAcdvqGQAAJkOSURBVHhe7N15fFTl3f7x68xkMkkgG1tCADEEwQREFhfEDQG1guBWq5VaHwWlVdtHBX20WqmtVatg+2u1bmBrW6itVSsIVCuIWlGrEGRJWBMgLAFCVrJMJnPO749ZMuckgQQDEvm8X68xyTn32Yc4XHzv+zb2l1dYyZ0S5Ha5BODE9ElBtf78aane31ilggP1aghYziYAAAAAAKCDi3Eb6tc1VhcNTNSNI7vonH6dbOstqzEPMAIB0gHgRHb7/CK98FGJczEAAAAAAPiGm3Z+N/3+hj6RnwkNAUiSLvvdVr2bV+lcDAAAAAAAThCX5CRpyY+yJEdoSJ9k4AR1+/wiAkMAAAAAAE5w7+ZV6vb5Rc7FhIbAieiTgmq6JAMAAAAAAEnSCx+V6JOCatsyQkPgBPTnT0udiwAAAAAAwAnMmRUQGgInoPc3VjkXAQAAAACAE5gzKyA0BE5ABQfqnYsAAAAAAMAJzJkVEBoCJ6AGJk0HAAAAAABRnFkBoSEAAAAAAAAAG0JDAAAAAAAAADaEhgAAAAAAAABsCA0BAAAAAAAA2BAaAgAAAAAAALAhNAQAAAAAAABg840IDS1J1Q2mfl3coElbG7Susl6OWaKBI2KaphoaGmSapnMVAAAAAADAN1aHDg0tSXWm9HFFgyZtrtMDBwwtOejSpYUu/WRbrbbXNchvHpv00DQtmabZxtexObfjmWUF75tlHX/3oqamVv94fZGuvvoHeuWPbzhXAwAAAAAAfGMZgUDHrMnzmZb21Ft6ab+pl8vcKjMNWYYp021IlkuxppSjGt3Rw6XLunrUxWPIYxjO3bSLgwertW3bTlVX16kx+zJkWY3VaUbkP2GWUlIS1bdvb8XHx0WvOKFs2lio8vKDSkrupIEDM2UcpWd0JKqqDmrOnNf0y0df1p13TtbPHvmBs0mH5f5hrnMRAAAAAAA4wTX8fmjk+w4XGgYsqTRgaXlZvX5fYum/gVj55JJlBKSAKZfllWTJsCS3S4pTQBcmNOi27obO7hSjFLchdzvnUp9//qV+fOdj+mLlFrncbhmSDHkk1YfqIZvToPETRurxJ+7TgAH9nCtPCNXVNTrrzGu1ZXOJcgb31rvvvqTu3bs4m31tqqqqNeelf+iXv3xFP7rjes38+W3OJh0WoSEAAAAAAHCKDg07TPdkS1JlwNIXNaYe2h3QXXti9KkvVj7TkBGQ3AGpq8tQF0/oB5cp0zJV6XJpUU2Mpu2UHt1Tr5U1AVUGrBajvCNhWZJleRQXF69zRg3W2EtGaNzFwzVu3EiNG3dOs6+x40ZqyJBTlZAQ79zdCePtt5dp06ZdivXGateuci1a9L6zyXHBUECWwZiGAAAAAADgxNEhKg3rLWlnfUD/qjT1SpmhNfUu+WVIhiG3X4o3Ajo1LqAJyS65XKaWVJjaWutVhSnVu025zBi5LSlGpnLiArox1dLFSS71jXUprh3KDv/73y/14zuf0u7ivVryr+c1KCfL2QQOdXU+TZp4p1as+FLjL79Qixb9R+PGjdC8v/xKnTt3cjb/WlRVVWvOnNf02KNzdMedN+hnj9zubNJhUWkIAAAAAACcOkyloWlJBxpMLa1s0M/2+DVzX0CrfG4FAjEyLCnO79cgl183dg7ohV4uPZQeo5/0iNUferl1W5eAhnstJcmQZClgST6XoVU+tx4pdumhooDeKm3QDp+phnaYhMOSIcMw7MMWokX//WytPvt0swae2lePP/Yj9erVVWvXFOrDj75wNv1aBZ+ncbz/UQEAAAAAAGhXx20SUm9ayjvYoJf2+XX/7gb9vcKjsoBXroAht2mqh6RvdTZ1f7qpx/p6dHrnmNBYgtIpCR491CtGs3pLNyVZGuqxFO/xy3QHZLkNVVoxWnQwRvcWS78qbtDSSkulDeZX6LJsyDBckhXjnO0EzfD7/Zo75w3V1zfolluuUkZGD337mnE6cKBKCxa8L5+v3rnJ18dwyTJchxibEgAAAAAA4JvnuA0NqxtMLS+r18sllvL9sWpwueSSqU5GQGfGB3RnV0uP9/Lomu5eJcY0Deo8hjQy0aVHern0SFpAN3YOKMcVUJwZDH8Cbrf2yK055W49sNvSc/satLLKr/rQ+rYwDEtSQBLj3rXG+vwtWrb8C2VkJOnb375EsbGxmjDhAsXFxeqLL/KVl7/FucnXyJAlQ3LxbAEAAAAAwInjuA0N490unZXs1vVdpLO8lrqa0ikuU99NNvVIT0M/TnPplHjXYWdCToox9K2uMXo4I0YPdTN0daKpXrEBGTJlyZBpSGsbXHqyxKWf7wzo36V+HUFuKMmUIeuoVKRZlqXy8krt3VuiqqpqWW3sTl1bW6f9+w+opKRM9fV+5+o2CQRMHThQpn37Dqi2ts65+rAsy9Krf12ssrIKffvasUpL6ya326UBAzI1+sKh2lm0V0uWfKRAIODc9LAsK3itJSVlhz23ujqfSkpKdeBAmfz+BufqKFYoFI5aYlmqrq7R/v2lqqioUiBAoAgAAAAAAL5ZjpuJUN76fKsuyM5Qamf7bMLlfktfVJv68qClNI+pC1Pc6hXrkss4TFrYjAbLUmG9pferTL1bIX1cZ+iAZciUS66AS+7agK5JqNYfT+usZooXW/T552v0ozsfV3FxiRYveV457TQRyu7de/X5f9epoGCPinYVy+erU1JiJ/Xtm6HTTx+g009vefbl6uparVu3WevWbtb2ot0qLS2Ty4hV927dddJJ3TRs2EDlDOqvmJgY56aSpJ07i7XyizwlJibozLNOk2VZ+vSTtVq7bpOKivaoocFSt24pysxM19lnD9Gpp7bumgsKdurb356uXbuK9e9/v6ghQwZKkurq6vXGG+/q9tsf06hzh+n3zz6gk0/u7dw8Yvv2In3yySplZKTrvPPO0v79pfr3vz/W5k07VFVVp7PPHqTrrr/Mtk1tbZ02bCjQmjWbtX17sQ6UlEmGlJaWpn5Z6Trv3KHq3btnpH1VVbXmzn1dj/7yJd155/V68CfTtGXLdn3+3zXavHmXyisOKj7Oq4xe3TXk9P4aefbpLT6P4w0ToQAAAAAAAKfoiVDcM2fO/Jlt7dfkxuc+0o59BxTnNpSe2lkx7mARZJzbUKbXpRGdpdM6uZXqcck4gsBQklyGoa4xhk6LMzQ4TsrwWKo1LR2okfxVUuCg1Nft03d6ew9bwRhtz+59WrL4Ix08eFCTv3e5unfv4mzSJoGAqWXLPtFzz8/Tn//0lt5991Pt3nVAu3bv15dfbtB7732m9esKdPDgQfXq1UPJyYm27QsKijRv3kLNeekN/eMf72n9+s0qLi7Rtm3FWvHxWn34wafKz9+q6ppq9evXR/HxcbbtJWnNmk36zdN/1daCnep7ck/9/bV/6bnn3tT77/9Xe4r3q2hHsVas+FLLl3+unTuLlZbWRX36NAZuLfnDH97Q229/ojFjRujWW7+tmBi3JMntdik2NlaffbpW27cXq2/fNA0dmu3cPOLzz1frkZ89q+rqeuXk9Ndjj83VnLmv6f1ln2vH9mKldumkiy8+N9J+5849+vvflujFF1/Xa6+9py/XbNLuPSUqKNypZctW6bNPv9TGjYVKSkxQv359JEn19X7l5ubpww9XaciQU2UY0v/7zV/0j3+8o7y8Qu3avV9r1mzS+8v+q9WrN8gwTJ122oDINR3Pfr6o2LkIAAAAAACc4B6ekB75/rgJDR+c96U+37Jfm3aWa3dJpRJiXeqRnCC3yyXDkGJchtxHGBY6uQ1DabEuZcRYKvIZyq8yVF0hWTXSgPiAvtMntk2h4e7d+7R4yYfat79cJ53US7t27dWG/K3akL9NG/K2aUN+gfI3FIZ+LlR+foF27dqrhE5x6ty5k21fpmlq4cL39dRTf9IHy7/QOaNO103/c6WuueZiXXLpubrgghFKT+um3NyN+nD5f+WNden0oafK642VJG3ZvE2///3f9YeX35LH49G3v32JvnvDeF1++YW6eNw5Ove8oeraJVErPlmjjz5arYZAQIMHn6L4eK/tPHbuLNbChR+qsrJOBduKtHjRMg0fOkj/8z+TdMWVF+mSi0dq5MghOljl07/+9YnKyyt01lmnKSm5s20/0fbuLdGvnpirnbv26xe/uEMDB2ZGAmDDMOTxxKiiskpL/rVCCZ3idP55w5WQ0DTQlKRNm7br1b8uU2xsgtau2ai3F32giRMv1OQbLtekK0br/POHq2dGD0nS9u27NGfO3/TiC/+Qz2fqiisu0g03XKbLJ16gi8eN1JlnDVJVVZUWvPWRNuYXaOQ5g9W9e9dQaJivD5avVkxMrFZ9sVYlB8p0zbcv0XXXX6bx48/T6IvOVFp6V330Ya4+/3ythg4doJNP7nXEwfaxQmgIAAAAAACcokPD46Z7co8p81VebUqGpeQEQ0P7dNGYnDRNPLOPsk8KjnvXXqoDplYcNLWw3NJ/atzaUutWrU8yayxNSqjX38+OlacNh/v8izX60Z2PafWXW3Vy396K9XhkyJQZmhjFMILj7UVYlgac0kf/e9eNuuDCM6NWSP/9fLUe/MlzWrNmi+684zv69rXjNGDAyXK7g9VrlmXpQGmFlr//X324/DONGXO2vjX+QsXFeVVRUaXf/fYvev75NzR8eLamTbtGo84dppSURFuItW9viZYv/0Kzn/6LDhwo1/Tp39Ott15rq5D7YuUazZg+S/n5u+WJtTR1ypWaPHmSsvr1kSv0LAIBU198sV73/9//0/btu/Xzn9+u7914eWQfTn+dv0j/d///U1ZWb/3977PVvXuqbX0gYOrjj1fplikzlZyUoscfu0OXXDrK1iZs2bJPddP3H1FDwFBCvKmfPjxNF188Sunp3SL3SpIqKw/qz39+S0899bL6Z/XVtB9cr9Gjz1DXrilyucLXEdCGDQX621/fUVXVQd17383K6JUW6p78hh544DklJSXorLNO0e23f1fnnjtcSUmN4ej+/aWaPesVvfTS6xo/YZT+8IfHWuz2fbygezIAAAAAAHCK7p7chmjs6PLFSC7LkgKGSmulDzft12/fzdc9f/lcv1m8VgXF5TLbOAGIU71pKfegqV/usfTgHkN/qXBrnd9SbYwlK0HypDYotXOD2lwkZhmSDMV6YpWd019nnnmazjxriM488zSdccZgnXHGaY3Lzhqis84+XYNPG6iUlCTbburr/fr73xfriy826DvXjdMtU67Uqaf2s4VghmGoW9cUTZhwge79v6m65FvnKy4uWCX4+edrtWjRx0pL76JpP/i2xl18jlJTk5pUvfVI66ZJV1yku+66QXW+Wr3xxlJt3Fhoa+OJ8cjtjlFpaalGnTNE3/veJPXvf1IkMFSoS/Hgwf115VUXqrS0TJ9/sd62j2gHD1Zr0aIVOnCgQtddd6mSkuwVlgrtLyurj8aOG6mCgj364MNVqqlpfkITj8ctl8vS/n379b0bL9f1149Xr15ptnslSZs2FuqN15cpKTFFN99ylSZMuEDdu3eJBIaS5Ha7NWjQKfrRj2/QjFBg2MiQv75BiUnxuuLKizRmzEhbYChJ3bt30fXf/ZaSkjrrg+UrVVvrs60HAAAAAADoaI6b0NCyYmUpIJfRIMMMKGAZ2lcjfbChRP9v0Tr978sfa+6767Sn9GCbZw8OWNKWWlNPF5uasVN6udSl1T63DlpumS5DltGgVJm6McnU7X09beqaLEmGgsFhYmIn3f7Db+vhmVP104dv1cyZP9DMmT8Mff2BZj48TTMfnqaHH56maT/4jk4Z0Ne2n4LC7Vq1cqNSUzvru9dfpvT07k0Cv7D4+Dj16dMzMvGGz1evzz5dp82bizR+wvk6++zTIl2WmxMX59UFF4zQuLHnaNPmnfrwoy/sDQxDsgzFuN268sqx6t0nvdlziYuL1WmDByhgGtq3r0wNDc3Pevzxx1/oyy83ql9mT40efZZiYz3OJlIogLt47Eh5Y91a+UWe8vO3OJtIkgzDlAxTiYle3XzzVZHgNJrPV6+167ZqzZqtGnXuUI0bd06L3Z0lqXuPLuplCwwlKSCXy1T2wJM1ZszIFu9pdnaW0tO7q2R/pfbtO+BcDQAAAAAA0KEcN6GhyzRkugyZLsmSZBluGXIrYLq1p8KvpXn79diba3X7Cx/pb//ZqPLq5ivQolmSSvym/rzXrx9vN/W7Upc+rjdUYgSPJcNSnN/SmFhLz/Qy9dPeMRqWGBMMAdvCsGRI8rhd6tWru/r27Rl5nXxy4/fRr4yM7k0mIFm/bov27CnT8OHZOumknm3qkr1/f6m2bNkub5xHw4Zmq0uXZGeTJrp0Sdb555+hstKD2rhpm0wz2J1awUuSLEu9Mrqrf/++8sY2H5a5XC4lJnWWy3Crts6ner/f2UR+v1+LF3+onbv26Oprxikjo+UwNDbWo+xTM3XGGQO1bt1GffbZatt5hRmGIcs0lZbeVT17dneuliSVl1dqQ16BEuLjNHTowCOeoMbrdatv3wyd1CfDuSrC641VcnKiTNNSdXWNczUAAAAAAECH0vpU6ihzKSBTLgWMGMlwybACcln1MgxTpmJUH4jRzgq/3l2/Vw/8dZWmPveBlqwsVK2vaUglSbUBaUmpX7fu8OlnJZaW+y3tk6kGKxiIua2AsmL8+llaQL/t49YVXVzqE+f6apOtfIVNJWln0X5VVdZr4MCTD1kR15zq6hpVHTyo1NREpaQk2rrftsTr9apfv95yu13aW3yg2bCra9cUxcfHtRjySZLLFVxnmqasZgK+tWs2aeXKLfLVWiovq9Ff/vK2nn/+VT3/3Gt6/rl/6IXn/6EXnn9Nzz//ml544e9a8q8VskyXSkoq9fl/16uoaI9zl7IsyTBch7zWujqfSksrlZKarJ7p3Vpsd2jBbucpKUmHHacwHPK2tRIWAAAAAADgeHMkKcpR4VKDZLgkGTJk6dT0BN3zrSxlJQXksfyS5ZJluFRnulRUZupfq/fqBy9+pJufXaqP1u9UQyAYVlmS/ltVr6mFDbpjl0v/qvZqd4NX9a4YWUZAble9elg+Tevs15/6GJqW5tGABJfiXMZXzfy+cmpYXx+QaRqKi4uNBHGtZZqWLFOKcce0OhxzuYIzFssy1NBgKtBM4Bfj8chlHH5/LQVllmVp8ZL/aNOmPfI3BPSXPy/UzJm/0yOPPK+fPvy8fvrTF/TQT5/XQw8/q4d/+qx++tPn9atfvaz//OcLBQKWPv00T180O1aiISk4s3ZLLEsyLUvuGLfcUZO8tJXL5ZI75vD3QKH3HwAAAAB0DGla+usRsh6xD50lSdPvGSrrhREqu8c5hJM055ERsn49QNOdK5pz0yBZLwzSHOfyDqpN196i4H1v7t426qu8F0Yo7ybn8pZNv2doO5xbe2n7+bfopkGyXhhhfzXznm2NOY8M1dJx4Z9ac472Nu3z/DuO1iUhx4AR7JQswwrIsPxK6+zWXROH6tV7L9O0sZnq0dmUK2DKMN2yZKjWtLSrytSCVSW69jfLdOdfPpAvENCDReX6zvY6vVHv1k65ZQVccpmGFDDUqcGtb7mklzIMPdLHo+GdY5ToNiI3wZK0t7q+zcGPZbVPWNS9e6oS4uO1Y8ce1dXVO1cfUmysR7HeWFVV1amutvnqSye/36+9e0tUX1+v1NRkde6UEFlnyWrDNRkyDEPNxa5bt+7QZ5+uV11tna67/mJNm3atbrv1Ok255du69dardeu0KzX1tit0663XaOqt1+nWKddr2q3XadoPrtW55w5TYWGxPvt0nUpLK+w7tiTLdDVzxEYxMW7FJ3h1sKpaFRVVztWtY4Xel4c8UpD1lWNjAAAAADiW9qqwUlKS1xGCpGl8n2DhRUqfZMe6vhqVLpUXVWi2bTnQ/qbfM1TWKI+WvbZSxrTwa6eWJXVre3h30yBNSXcuPJztypm2UjmvOJefGI6b0NCSS5IpQ4Fg9OIylBAXo9P7pelXN52nhfeN1Y3n9VZqvKUY1cuwApIp+QOWSg4a+vOyHaqqC+i1A/Ha1ZAov98tGYZMV71Mb7VO8VTrFz0a9FJ/jy7tFqtUj8s24cmWmoB+vM2vXxQ1KND6tKxdZedkqnuPzlr5xTpVVlY7Vx9SWlo39e6VrpKSChVu29mqGXyrqmqUm7tBnTsnqO9JPVroftvKm9FCs2VLP9XatZt04ejT9eCDt+hnP/+hZv7sh3p45jT97Ge36Wczb9MjM3+gn838gX72s1s185Fb9PDPbtUvHr1DU6ZMUpcuSVrxyTqtX7/VueuQlt/CqanJOqV/HxUX71N+3jb5fG0LYqXQ4I7h1+G0UG0JAAAAAMerqQV1UkKCxkeqryQpTj0TAlq2okrlznXjvOopac+BvVELgaMhGF6Xb9yjse9FL9+rsYuqVJ6QqCmHrBLEV9Vy4nKMmUbwXzEMmTKNGDUoOPGGYRiKi43RiAE99eIdF2nhfRdqwuAuSjIMxZiWDJmKMXzy1ftlmpY6xXpDXVYtWTKV6jY0JT6gJSfF6sc9verhtYeF+/0BPbLb0tgtLs0tdWuPYlvKv466IUMGKDMzTfn52/ThB5+rtvbwk72Ede6coKHDBigtLVGL3n5fBQVFziY2lmVp1659+turS9S7Tw+de94IZ5M2c1bZ7d9fqk8+yVPx3nJNmHCe+vbtGayIbPEVE3l5vbE6fegAnXnWqcrNXa/Vqzeovj6qgtJ5sGZ06hSvQYP6KyMjXR9//KW++GKts8nhWUaLgSgAAAAAdHivHFS+3OrZK2rZTZ2VLb8KX/Fpj2Pd9CEJSlGdVkRVXs15JLrraHT3z+aFuz6HX85uuodeH+4uGvxq765qX9ak2+m4ASprss3R4byGJuciSYoLdg8Ptztc5Zzz/Fton207djPP45D7CXed7nvYc3Neo/M5NuV4Zoftth6nno0dIu3e26TUJhWAjv1HnXOwYjFOkltjrnWea3PvJfs65/MbH/2eb8W9cW7fURw3oWGw0jA4Tp1cHh2otbRyy175/AGZoQout8ulkdl99Lf/u1zz7jpPowcmKdFjyDJjJZchf0ODYtz1kqtBXa0GXaJqzUu39MzJnXRyJ0/kWAFLKvWbemW/qUsLDT2+XyoOGGqIiZFaOXZdU5ZkWTJNs/lXwPEKLY8eCzA+Pk7XfudSnXxyX/38kRf06adfNlsdZ5qmCgqK9MeXX9Pmzdsi+xgz5myNOneIlr//uf7yykLt3rWv2ZmHAwFTRUXFevinv1XJ/iqdc85QjTpnqKOVEXxZrUjnLCsU4tnbfrJitVbnbtagnCwNG5ajhIR42/rDGTDgZJ098jTJMLR06WfavGlbZF3krh0m0Bty+gBNmjRaX3y+Rn/60xsqKChq9p74/Q1auPA9/flPrysQCEStCb0nW60V9wsAAAAAjht12lMjZfdrDErm9IuTig9qqrZrRbF9XXayO7Qu1PaREZqSXqe54a6jK/wac23LIcmcR0Zo1kB/Y/tpJdozsHckxAmuV2N31NeqpKj1YdmjUrUn1GbGxoCU3k3WC/Zl2aOiArNxA1R2baK0cedX6+LaCtPvGdrkGnqOcgZVUsrAbuq5urFNeUKiHmopeLtpkCzn+StRs5znn5CoKclljW1q3BozIapNK/dzuHNr7XOKGDdAZS90U3ZxSaSb8dziOE05ZHAYfP+lDOzdiufUV3nO/VcmalZo/7OfXi1jRZ2kgJa9tlKpTzdWyka/l4wVdVJ6txbfv1LwHo9R+DhN719rn39H0JY05KiyJBmWpYArTobVoM079ur6//eh7przgVZv2aOaumAloSR5Yty67KxT9NZPJ+n5W8/UyH7JSow3VVtXpwzTpUEK6Bfdpb8PjNe4brFyhyYVCVhSmd/UO2X1uqmwXv+729IanztYTOayZLksecP5V1u5TNX5ffrkky/17r9X6L33/qN///s/+ve/P2729e67H2vZsk+1bdtO224mTrxIN9xwsWTEaPLkn+j5F17Vrl17VV5epYqKgzpQUq4PP1yl229/Uv971681e9bLqqwMjtfXs2cP3XbbtTrnnBH63bN/1/TpT+qTT1arpKRcFRUHg9sfKNe/31uhm256SO+9l6vRY87U//3f9xUb2xiqRhgxsmQcfnRDI1gRGv12qqw8qA8/Wq0tW4o0fvwoZWVF/7NV68TFeXXGiEHKye6nT1Z8qbz8rY2BniVJLllqGgBG69Gjq66/4WKNvfhMvfrXpbrrf5/Ue+99qn37DqiiokoVFVXas2e/Zj/9R02e/IjuuWe2Pl7xReMODEOWERMac/MwDEOGy0twCAAAAKAD2avFRYGocQ3TlJkklVcEe77lV7S8TuMG6Jp0KX/F+kiIqFfWa26xlD20uZAnOB6irX1ozLjUp/dG7W91Y3fU9zbp0Y0BpQzsZg+XissibWavqVG5ZOvGGlzWWCU55/xEpdRU6dFIWHS0urj21ZSBji61LV5DSWOl3Hub9Hpxc2NIKlj9NzROKi6JCrtaOv86zZ25vbHN6uju523Yz6HOrS3PKSR8/2dEzk2aOrNE+YrTNYcI06bOXKm5xcGgbtYhKvem35OqbNu1t27/crxv9EqJljlC9KYc99h2/9rw/DuA4yY0jLVqFWPVyWXWS1aDTMOlklqP/vDBdk2e9a5+9dp/tXbbPlXV1kfCQ2+sR9een61FP/2WHr3uDLlk6oo4n/6ZFaPbernV2RPs8hywpLIGS59WNei+ojr9z25LS3yxqrVi5AoYMiXFuWt1iqdBY5LNNt8UwzAU63HrYGWN7rprtq69ZoauuWqGrrn6Pl199X26+qrg12uiXt++eoa+f+P9WrBgqW1fMTFu3Xvfzfrf//2uUlI665GZz+n8876vG2/8iW679ee69toZ+vY10/Xll/kad/EZumXKNUpOTopsP2rUcM185DaNGzdCH3zwua6Y9GNddeU9mnrLz3XLzTM1/rLbdf1192vr1l268qrzNGvWXerTp+lIoIYhxXosxXotHW4yZpchxcWZ8ngag7V16zbqy9V56tO7u84/f7i6deti26a1Th96qs46O1u1ddX67LM12revVJLkdrsU63UpNvbwsyIPH5ajh2f+UJdPPE8rv1iryd+9V1dMul233Pygbv6fhzV69E164rGXlZqSoHvvm6Lzzj1TCt2DmBhDsV5T7pjDh4axHkveWDMUoAIAAABAxzD7gF9K8ChbksYla3hCQKvWBEOl2WtqGsc1dKxrrquyIuMkhvYX7abOylZAe3Y5V4T08iilmfXBADBOo6KCokhwKUnv+bTnkOMstjB5y3sVWlUj9ex66FCpTULXGL5HYcFr8Cgzqquw7RoOKdhNt0n70PnbAq4av/Kj29i0fj9N2kRrw3MKCobNqvQ5Js8JVRI2G5Q2mjozVLE3rSRybdmjors3hybuiaqADQrtPznOttSp5fdNC5zHiX4fteH5dwSHiYOOHb/hUcCICfaGtSRDlgyXFDBiVFDRoCcX5+nG3y7VM2+v1trtJTpYWx/plts53qs7Lh6mfj27a0pmJ/VNCE7oYUmqbLC0qjqgJ/Y06MYiQ386GKdSM1Yu0yXLJbk9AWW6TN3YOU5/7y3d0j1GocLEVktJSdTo0Wfp6qvH6pqrx+rqKy/RlVddrCuvGqOrrrpIV10dfF0ZeY3WlVdfpMsnnq+srD7O3SkuLlbTZ3xff/vbk5o27Rr17dtT2wt3a926TSorq9C5556mmTOn6Pnnf6azzjrdubnOO2+4Xv7DL/TY4z/W2HFn62C1T+vzC5W/cZsCAVOTJp2v3/xmul566ZFmjy9JycmddMEFp2v06GFKSurkXB1hGIZSUhM1cdIonTMqWzExwRCvvr5epwxI163TJipnUKZzs1ZL69FVkyZeqMmTL1VCfIxqa2olSV26JGv8hLN00UXD5WrFAxs+bJCeeeZh/eb/3a/xE86TaVrauKFImzbuUkpSF11/3SV69W9P6L77psgVSkljYtzq37+3Jk4cqVOzD/WvDEEjz8nRFVeeq+Tklu8XAAAAABx3Xjmo/HDY08ujlJoaLY5USVVoVY1bw4ekhcIivwptk1LEaYptnLoRobHjWuLc3ulw649cysDe9vN8obfGtDRm3lcSHDfPdqxrE5XibNZGbQ63WtA++2n7czpkENkqwarUSDdiZxVhejfH8x1xBLMlt4ej8/y/DkYg8HXNFWyXcuvfdbC6NjQ2oOQ2guMcWjJkGYYsy5TLDMhjSKeflKLJF/bXRYMzlJmWpPhYT2jykyBLUk3AUoHP0rLyBr1S6tJ6060Gwy2XGZxsxWMFlOayNCQ+oCldpXEpsYpvRfj0dfD56lVcvF/+er/i4r1KS+suj6e5mY6bsixL+/eXqrKySoZhKLVLirqkJjubnVAsy1JpabnKyytlGIa6dk1VUlLnE6pC0P3DXOciAAAAACesNC39dW8NL9qp15N7a4pKZER185zzyAhNUYnmqpttXXDsNr/mTovubuxw0yBZoxRsc9MgWaM8WvZaVLfWJm2bWT9ugMquTdCq11Zr7HvBset6btwZ1cU2uEwroibGCI1huGfFSuW80tw2R2bOIyM0JalKM+7e5KiaC2npGmwa73f0+dj3HX1NLZ2/fT/T7xmqWX1q7OdmO5/W7EeHP7eWrrGZ5xQ8/+D+x1Ta31eKem85lx9e9D7rWty/TZPzbuZ9Y9vv9iZtmj/fqPt6oFvz96YDafh945wXx02lodtqCKZ9liQZSu0cpwtO7a7eyTHyWA0yDEOmK0Z+y9DK7eX6v7/m6u4/fKJX/1Og/J0H5PM3SJLqTUsbay29Vmrqf4tMPbjPo3UNHgVkyDBMGa6AUl0NGhXn14yuAf2+T4wuT/Uet4GhJHm9serbt5f6n3Kyevfu2erAUKFKwB49uqp//5OVldX3hA8MFbonXbumKiurr/r1O0nJyYknVGAIAAAAAHbBcQ1T+nTTqCQpv8AevEwtqJOSOmtU9HiG4W7NzXS5nH7P0OYnrtjlt40z2EQL64PdoNte2dYoONlL026qzc+M+5W0cA26aVArZgtuSQvnPy5ZwxPaUjnYTvtp4Rpbfk57VVipqLExw0LdxluqQLxpUPOzP0cJbtvS/sMzQbdj93M1c5xxXvUMV3C2cG++2vP/+hw3oaEpjywjVpbhkWRoYHon/e5/ztS9l/XXJacmK6OzSzGGKcsVkIx6+Rv8Wp5frrv+mKv7//ypXluxVf6AqbfL6vXgzoCm75I+qvWozuWS6Q5OmdHZ8mtojE9TUkw91dujW3vGKiPOHalSLGmwtLnGbM2UFwAAAAAAfGMExy6MU3ZC07HqtMsfWWcbq+2V9Zpb7NaYa6PCkHED9NBAt/JXN1OJF5pQI3tUdHgSDHasR/pGrbfPevzQQLfKN5a0XM14WKHJKtK72QKkOY90U3ZNleY6xmT8SkKTXtiuQX2VNyruK1xDaEIT2/mnaemE4OQirT//dtrPETynqR8FJwuZ9UjULN2PdFO26vR6S9Wfr5QEZ3+Ofn+F3dRNYxIat506s0T5jv1Pv6enrU27sR3Hcf+OyvP/+hw3oaErEtW5ZMiSR3717tZZt00YoSf/53zddempuig7Td07xcuQW6bcCrhd8jXU6Z21+3XXHz9XdX2DfrJXervaUJUrEJzVV6a8lqmTYwK6trOpn6e59UDPGA3t7JYnVF1YGTD1SZWp3++19HJxQMdHh20AAAAAAI6R0GQiih7PMLIuONFDc+PYBWe3jRrXMNIl2N4ubOrMlZqx0RM1DqK9W2lwvRrHhAvt76t2K9Z7m5T6WpUUNa5hk27G4wao7DCVbVLTmXzDr3AQN/vp1fZraLZLcBu9sl6G7fxD962lbtItaaf9tPk5vbdJqdNKlB817uCUpCrNOFTXdu3V2Lud75fQq99BGbZttyvHsf8mXecjIWQopD5SxcGu+i3dv6Py/L8mx82Yht2n/lVl1Q2yZMhl+TW6f2f94/7Lldw5XpLk8weUt7NM/8rdpffX7dHqbWUqr/XJpYBMBSff2P3Sd3XGjjjtbJBcqpcUo27ugM6PsfStFOniFLd6extz0jrT0ro6Sx9UmlpQbmh1rVsXd2rQX0+JkYfeqvgGY0xDAAAAAGhq+j2DNH7N+g47Hh3wVR2XYxpakgwFZMiSDEN7KgNakluk4rJqWZbk9bg1LLOb7r48R49ed7ru+laWzuvfRXGeGBmWZKlBphlQkqtBLstSUsClcz0B3dU1oIczDH2/R0wkMGywpPxaU6+UmPrZbunxfS594otRrWEo4DKdpwYAAAAAAL7x0jS+j5pUUwInquOm0rDb1PmqOlgtya2AyyuP263+3WN18aBuGjukt84e2FPdkoJVh5J0sNanVQUHtGzdLr27bpfWFezVmtnf0S0HElRsWbqqc4wuSTZ0RqKhTjHBsNC0pCK/pQ8rTb1TKX1Ua2hvg1sBSaYMxZiWru1Upz+e4lVMGysNq6trlJu7XjXVNaqrq1f/UzKVnZ0lSdq2bZfWr90qj8etGI+hQYNPUXp6D5WWVmj37r3q0aOrevToGmpbpMTETkpNTdGG/AIVFe2Rr86nocNPVc+e6VqzZoNGjBgcPObBGh0oLVOXLimqrKxSTEyMunfvqi9Xb9CunXvlbzDldgdnnh46LFsl+8s0bHiOqqoOKjd3vS644GwZhqGGhgaVlJRKMpSe3l0HDpQpL2+rqioPKhDwa8CAfuqX1bfJBCx+f4NyV63XwFP7KTk5UaZpqqhotyrKqzT4tIFyuVzy+xu0c+cede2aouLiAyos2KV6n08er0dDhgxURkYP2z4rKw9qx/ZdcrkNbdlSJMt0yzBMxcS4NGTIQPXqnS7DMFRfX69PP/lStbV+NTT4dNGYkbIsS+/9+xPFuGMky1SXbsk6NbufCgt2atfOvYr1xqp//5MUF++VyzDUrXsXeTweSdK6dRvUt29vrVu7SeeMGq5AwNSuXcVat3ajZBhK6BSv0wYPUH19g/I3bFVNda0sy1CPHikaPHiAykqrlLe+UP6GevXtm6bBpw20XdfxhkpDAAAAAHAYN0Bl5/uUeqgZeIFvuOOy0rBbSoIsV4xMuWXJkD9gasOeKs1ZvlUP/z1Xv3ojV8u/3K6qmuCsOp3jvbpgUIbuufw0PXr9mbp7/GBJlq7ubOgX6Ybu6uXShaludYoJjpZY6re0sCygXxSbenSfS29UubXbcqnBJUmG4mRqZCe/rkl1t/mm1NTU6l//+kC7du2R1xsrrzdWX67OVyBgauvW7XrnneXyeNyKj/eqsvKgPvjgv9q5c69279qnhf9cpv9+9qXq6nySpFUr12vH9t3at2+/li5bIbfbrRhPjHbt3COfr14L3no/ctzS0gqt/XKTSkpKlbd+q7ZuLZIkeWJjFJ8Qp8//u051tT7Fx3kVE+PW22+/r0AgoL17S/TKH/+pzz9fK0ny+eq1adN2bd60Xfv2HtCKj1eqeM8+xcfHye12a8vmbaqtqY0cN6xk/wG9vWCpPl2xWpIUCJjKW79Zf52/UBs3FEiSfHU+rfx8nfbtLdVnn61TbW2d4uJiVVNTp3/+812tXbvRts/9+0u14pNceTwxio/zqrBwlwoLdyk+3it3TLAbuiStWLFSe/bsU5w3VlVVB1VdXaOKikp9vOILxcV75Y3zKjY2VuXlldqwYYsOVteooaFBH3/8ufLWb9Rnn+Wq9EC5JMmyLL29cJkkS3979V8yTUs7duzS4kXvyzAMxcV7VVZWocLCIm3YWKi8vK1yuV2Kj/MqNtYjv79BS5Z8IH9Dg+LivCoq2h11RQAAAACADuG9TQSGQJS25mNHza+uG6abLuinnileuawGyWqQJanGb2jNzmrNWV6oh15dqSde/0Ir8opU4/NLkpI6xWnMoF7634nD1COls65Lj9FVXWPV3RO8tGpTer/C1C/2mHq0WPp7maFCvyG/5ZJlSZ4GU6e6G3RP1wY92lP6Vhe3QvOjtNoXX6xVTW2dRo4cofMvOFvjLj5fI844TS6XoVf/tlBDh+Zo7MUjdf6FZ2j0RSPl9cbpP//JVU11rbxxXm0rLNL6dZtkWZYqKg6qptan/ftLdbCqRueMGqZLLj1PWf1PViBgqri4LHJcf0NAVVW18vnqVVVVq5qDPhmGoZyc/rpozNnq1j1FZ5w1WGMvHqWMjDTt23tAlmWpoSGgpMQkffThF9q7t0Smaar6YI2qqmqUl7dZVZUHdcGFZ2n0RWfr4kvO15DTs+WN89qu2TRNrVixSgOz+2nNmo2qr6+XZVlyu92qqqrWmjUbVFparoAZUHl5ZegcD2rY8GyNvXiUxo07R6effqr+Mu8fCgQCkf3W1/t18GCt+vfP1LiLz1VW/97KyjpJoy8aqfT07jJCU12vWpWnflm9dd4Fw/Styy5Q586dgteVmqAxY8/WmHEjNXzEIFmSYr0ejThjkEZfdLZqa+okw6WiHcUqLa2QZVkqLNypmJhYJSQkaPfuEvl8Pr3zr4+U2e8kjR03SheNHqkLLzhLvXqlq/pgjbp0SdYF55+pMWPP1tChOXK5DBVu26EzzjxVY8aepaHDBkXdKQAAAAAAgI7nuAkNJ53RVw9ePVS/+Z8z9b1RvdQ9zpLLMmXJJcuIVaXPpU+3VeuFZdt037yVeuwfX+jLgn3yNwQDpy5JCUqIi1V3r0suw1CDJa2uCuiXO009WCz9sdytLxtcqnWbMixTbjOgblaDvpfSoCd6Wfpxmkvndo5RvLuNiaGkgoIdGjggU717p8vlcsntdmnAgJMlSUU79umss4YqJiZGhmEoNTVZJ52Uof37D6jWV6fefdLV/5STtT5vs3bs2C0pePz09DTFx8fpz6+8qZVfrFP37t1kSDKsxmo7WcEqufA2VmgGasMwZBiGXC7J5XLJ5Qo/5mA7w3Cp/ykn6dTsfvrnm+/I7/dLhimfr07795cpJTVVaWndVFFRpQ+Wf64vPl+v2tpghWdYbW2dcnM3aMzYUerZs5tW5+ZJkrzeWJ025FQFzIC++GKN/P4GWQrIkilZbrmM4PkkJXXWueeeoYMHa1ReXhm1ZyM4g3boGgzDkgwr8nPYyJHDtGzZf/WXP72tgwdrFRcXp0DA0prV2/W3V/+lf7y2RJ9/tlqGpN279+qf/1ymV15ZKMtyq19mX/XMSNOePftVV+fT0qWfaPRFZwfvkysgv79Ba9du0wUXnKXY2FgZhqEuXVLUs2cPGZLy1m3Va39/R3+dt1hfrt4gw3Dp5JN7a/68JVr63ifq2jU16noAAAAAAAA6nuMmNDQM6eQeyZp0ZqZ+eu0I/b9bRuqaET2VGi+5LJ/cVnCCk/K6gD4tqNKLywr14z/+R0++9aW2FpfLtIKBmSWpqK5BT+1p0I93BfRShaEvfIaqDJdMdzCA6iRTF8cH9Kt06YGebl2S4lZ3j6vNFYZh9T6/XC53VDjXyO2ODu3CLAVMv0zTlMstnT40W16vR/kbNqu6pkaGpOTkRF1xxTgNHZat/Lwt+sOcNyRJLqMhai+WTCs8cUszQ1NaRigmDP8cDOMkS15vrM488zR5vXFatuwzWZZkWgGFbqMkKdYTo7T0blq3doMqbMGe9MHyzxQf79W+fSWKT/Dogw8+lWUFY8uuXVM1fPgg7dq5V3l5W2QF404ZhhnOLSMMK0amGTX5jCW5ohpZpiXLbHptw4cP0re+db569uqhP/7xTeXnb5bhMpSenqYhQwZo8OAB6t0nQ5KUmNhJ6WldVFdbq6z+fdW7T7rOOvt0rVu3Rbt371PRjiJlZZ0UDCZlBm9lwFJcXKzzsJJcSkvrrtNOO0WnDx2onhndlZAQp8svH6Nzzx2qsrJK/fY3850bAQAAAAAAdCjONOtrF+N2qV96iq4YmaVHvzdSv/ufs/Wtwd3U2WPKUCA8zbLKagP6ZEuVnnlng27+3XL9dsla+QOm5uwJaGpRQL8rdetTv0ulhim5TLkDlmLr3Rosl+5Pkx47yaVru7qVGeeS5wjDwrDMzD7aunWHSkuDY+RJUnl5pRoaGpTYuZOKdjSOcVdfX6/yikolxCcoLi5WhiF16pSg888/Sxs3bNOmDdtkmpYsy1LvPmk648zTdMm3ztcHyz+SYUheb4zq6oJVfzU1tTp4sFqJiZ0i+7ex7BdmKFixJ0kuw1DXrqk688whKty6S0U79ishvpM6dfKqtrZatbV1ik+I16mn9lN8vDdyTgqNAbhkyUdK79lNmzYWqryiXBUVVSosLAoe0zCUldVXfU7qrU0bi3SgpEqG4VJUoaAkafeuYtXV+pSSkhxZZhiWpKgQMZg3NhET49aQIQN1/vnDNGJ4tt7913K5DEPpacnKzumn7Jz+yuiVJsuylNg5QcNH5CizXx/V+/0KBALq1StNtTV+LX//M+Xk9FdCQnCSHcOSYjxu9eufrtzc9ZHj1dfX6+DBajWYDeraPUnZOf00aHB/paV1k9vtVvfuqRpxRo7GjDlbmzYXRp0pAAAAAABAx+OeOXPmz5wLjwcxbpe6JMapf0aKzhmYpoE9E1RWeVD7qurVYAbTHcu0VOvza3dZrb7cfVD/c9EATdvr0mq/qUp5ZBnBLs6GZaiby9R1SQHdn+bSt1Jc6hPnUqzLUYl3hNLSumndunytWrVOtbU+bd68Q3P/8HedMWKw+medpD++8ppqaupUWlqhjz76VIUF23T55eNUU12tysoqZWWdrC5dUuWN9WjRomXKzs6S223oT6+8JtMytHZNvnz1dRoz9jxVVlXqPx99obq6On3xxZfq1ClOQ4fmaPXqtdq0aYuqqqpVXLxfycmdtebLdRqY3U8pKUmSpH8tfl+XXnaBysoqtH3bdp1x5ulKTk5UTU2NPlz+iU4bMkCnD83W2rV5Wr16verq6lVUVKwPPlqhkSOHqWvXLpKkVau+VGVlub5z3SRlZvZRv34nKdYTq/VrN6pL12TV1tZq8GkD1aNHV61ft1kFBdt1xhmDtWXLdpUcKFdR0W4tWbJcS5d9oFtuuU69eqVH7uX+/aUq2LpNI88ZJknasqlQhqQBAzMjbSTpH68t1KpV61Tva9DSZZ/o3PNGKDklUW8tWCJvbKy2FmxXSckBSVJpaal69eqpzMw+Wp37pWJjPcrISJdpNuifb/5L37nucvXo0VWGYei11/6p6797pbp2TdbCt/+t4j37VVZWoaVLP1ZhYZEMQ9qyuUBVVdXatm2n9u7dL8Mw9Pxz81RTU6ddu/eqsKBI48dfaDvf483PFxU7FwEAAAAAgBPcwxMaMxojEAg07ft5nLEsS7W+Bu0pO6h3c3dozvKtWr+rSgHTkhXqcmu5DRU9d60uKPJql89UvStGkqXOCmikN6Bp3aVzk2LUJcZQTHskhQ4VFZXauXOPNm/eJq/Xq6z+J6tfZm8ZhqFdu4pVUFCksrIKZWT0UL/MPurarYsqKw/K5/OpW7cucrvd8vv9ylu/WRkZaUpM6qSCrdu1adM2JSV10pDTc9S1a6oqKqq0IX+z9hTvU6+MdA08tb8SEztpx46d2ru3RB6PR/HxcTrppF7av++A0tK7Kz4+TpK0ft1G5QwaoJqaWpWWlqtPqPtuZWWVdu/aq+7duyq1S7LKyiu0fdtO7dpZrJgYt3r1TteAAVmKC02GsmdPsdwut3qkdZdCz6eiokolJaXq0iVFfr9faaF1+/YdUHlZhTJ6pWv//gMqL6+UZQW7/iYnJyo9vYfc7sZxGg8erNb+/aXKzOwT2V6SevToGmkjSaWl5Vq3Ll979x5Q//79lJ2dJdMytWrlWnXulCDTspTQKV49undVfX29kpISFRcXp50796hz507q0iVFdXV12rxpm04ZkBm5tlWr1mj48CFqaAhoz5692lZYpJKSA+qZkab+/TMVCAS0e/feYNdyw5A3zqs+fTK0d+9+5edtlsvt0umnD1bv3o1/yI5H7h/mOhcBAAAAAIATXMPvh0a+7xChYZhlWaqrD6i4vFpvfFKg55dt1faSarlNlxqMgLY99x1dsTNOa+vdkttSZkyDbk+1dE1Xt7p7DMUe6aCFrRQIBFRf75dhGPJ6gxNoKHTe9fXBbrEej0ceT0xkuUITl4SZAVOGKzjpRyBgqt5XL5fbJa+3cXw9v79BDX6/YqL2ZZqmAoFgt17DkNxutyzLsnULDgRMud2u4NiDlhUZazH8c/RkIw0NDfL7G2RI8sTGyu1u7MlummaTiUmi96Goa4peblmWTNOUZQUnaIneZ1hz5ybHPQqrr/eroaFBXm9s5HobQhPjKOo+NP5sNDl30zRtY04GAoHINpZlBe91Q4M8nhh5PB5ZlqVAoHHsx8Z7Lfl8vlAXcm+z53s8ITQEAAAAAABOHTY0DLMsqb4hoD1l1Xp52Wa9/O/1OlBTrQ2//a6+v8+jtQ1e3dCpQT/KiNHJcTGKdTU7LB5wwiI0BAAAAAAATh0+NIwWMC3tLKnQrIVrdNvFOZpf10mXd3drZEqsXAZhIdAcQkMAAAAAAOD0jQoNAbQdoSEAAAAAAHCKDg2bDioHAAAAAAAA4IRGaAgAAAAAAADAhtAQAAAAAAAAgA2hIQAAAAAAAAAbQkMAAAAAAAAANoSGAAAAAAAAAGwIDQEAAAAAAADYEBoCAAAAAAAAsCE0BAAAAAAAAGBDaAgAAAAAAADAhtAQAAAAAAAAgA2hIQAAAAAAAAAbQkMAAAAAAAAANoSGwAkoxm04FwEAAAAAgBOYMysgNAROQP26xjoXAQAAAACAE5gzKyA0BE5AFw1MdC4CAAAAAAAnMGdWQGgInIBuHNnFuQgAAAAAAJzAnFkBoSFwAjqnXydNO7+bczEAAAAAADgBTTu/m87p18m2zAgEApZtCYATxmW/26p38yqdiwEAAAAAwAnikpwkLflRliTJshpjQioNgRPYkh9lUXEIAAAAAMAJatr53SKBoROVhgD0SUG1/vxpqd7fWKWCA/Vq4NcCAAAAAADfODFuQ/26xuqigYm6cWSXJl2SoysNCQ0BAAAAAAAA0D0ZAAAAAAAAQMsIDQEAAAAAAADYEBoCAAAAAAAAsCE0BAAAAAAAAGBDaAgAAAAAAADAhtAQAAAAAAAAgA2hIQAAAAAAAAAbQkMAAAAAAAAANoSGAAAAAAAAAGwIDQEAAAAAAADYEBoCAAAAAAAAsCE0BAAAAAAAAGBDaAgAAAAAAADAhtAQAAAAAAAAgA2hIQAAAAAAAAAbQkMAAAAAAAAANoSGAAAAAAAAAGwIDQEAAAAAAADYEBoCAAAAAAAAsCE0BAAAAAAAAGBDaAgAAAAAAADAhtAQAAAAAAAAgA2hIQAAAAAAAAAbQkMAAAAAAAAANoSGAAAAAAAAAGwIDQEAAAAAAADYEBoCAAAAAAAAsCE0BAAAAAAAAGBDaAgAAAAAAADAhtAQAAAAAAAAgA2hIQAAAAAAAAAbQkMAAAAAAAAANoSGAAAAAAAAAGwIDQEAAAAAAADYEBoCAAAAAAAAsCE0BAAAAAAAAGBDaAgAAAAAAADAhtAQAAAAAAAAgA2hIQAAAAAAAAAbQkMAAAAAAAAANoSGAAAAAAAAAGwIDQEAAAAAAADYEBoCAAAAAAAAsCE0BAAAAAAAAGBDaAgAAAAAAADAhtAQAAAAAAAAgA2hIQAAAAAAAAAbQkMAAAAAAAAANoSGAAAAAAAAAGwIDQEAAAAAAADYEBoCAAAAAAAAsCE0BAAAAAAAAGBDaAgAAAAAAADAhtAQAAAAAAAAgA2hIQAAAAAAAAAbQkMAAAAAAAAANoSGAAAAAAAAAGwIDQEAAAAAAADYEBoCAAAAAAAAsCE0BAAAAAAAAGBDaAgAAAAAAADAhtAQAAAAAAAAgA2hIQAAAAAAAAAbQkMAAAAAAAAANoSGAAAAAAAAAGwIDQEAAAAAAADYEBoCAAAAAAAAsCE0BAAAAAAAAGBDaAgAx9CB6gbnIgAAgBMen5EA4PhjBAIBy7kQANB+/p1fpbfXVOi9DVXadqBedX7T2QQAAOCEFudx6eSusRp3aqImDEnWJdmJziYAgGPAshpjQkJDADhKNu/z6bkP9uu5D0tU38CvWgAAgNaIjTH0wwu66YcXdtcpPbzO1QCAo4jQEACOss37fPrJP3frjdxy5yoAAAC0wtXDUvTYlRkEhwBwDEWHhoxpCABHwXMf7CcwBAAA+AreyC3Xcx/sdy4GABwjhIYA0M7eza/Scx+WOBcDAACgjZ77sET/zq9yLgYAHAOEhgDQzhatqWAMQwAAgHZQ32Dp7TUVzsUAgGOA0BAA2tl7G/jXcAAAgPbCZysA+HoQGgJAOzpQ3aBtB+qdiwEAAHCE+GwFAF8PQkMAaEddO8Wozm86FwMAAOAI8dkKAL4ehIYAAAAAAAAAbAgNAQAAAAAAANgQGgIAAAAAAACwITQEAAAAAAAAYENoCAAAAAAAAMCG0BAAAAAAAACADaEhAAAAAAAAABtCQwAAAAAAAAA2hIYAAAAAAAAAbAgNAQAAAAAAANgQGgIAAAAAAACwITQEAAAAAAAAYENoCAAAAAAAAMCG0BAAAAAAAACADaEhAAAAAAAAABtCQwAAAAAAAAA2hIYAAAAAAAAAbAgNAQAAAAAAANgQGgIAAAAAAACwITQEAAAAAAAAYENoCAAAAAAAAMCG0BAAAAAAAACADaEhAAAAAAAAABtCQwAAAAAAAAA2hIYAAAAAAAAAbAgNAQAAAAAAANgQGgIAAAAAAACwMQKBgOVcCAA4cu4f5joXHX09EjX9kp6aMjhBmcluxYX/Scg0VVcXUGFRheYuKtbsjT7Hhse/OY+M0JR0STVVmnH3Js12NjjOTL9nqGYNdDsXN880VVfjV+7mUj3zxm7N3+dsgCOToDtuztSjJx1U6iPbnSsPqdXPz2+q/GC98reVfc3P7siv9dDStPTXvTUmQVJxiYyZ7blvAGi7wHPDnIsAAEeBZTXGhFQaAkAHl3lJfxU8PECzzk9UdmpUYChJLpfiEjzKHthNs+7JUcGPeoqP3McRl0txnb06Z1hPzXt4kOYMcTZA23XR649l65mRcUo5mp9yPC6lpMZ9zc/uGF0rAAAATkh8xASAjmxIXy2alKxMT+hnn1/5Wyo0/9NSzf+0VG9srFF+mRla6VLm4Awtuystagc4egJa9tpKGdNaeP10k675Z4k+CT8fT5ym3NhfU5y7QRt5lBLvXHYkTOWvC/45au61eItP5eE/Wp44TblpgKY79nD0tde1AgAAAE0RGgJAh+XVM5O6KdsjSaYKV+5Qvx+vUc5TWzT5D4Wa/IdCXfN0vnLuz9XwBRUq9ge3SsnurnnZjl0dx6bODIVsHaBrcpvsq9IbS7Zr1P1FWlwZWpaUqCkTHO3wNbG0Jz/456i514Sn1in1id1adjDUvHOiJl/vdewDAAAA6LgIDQGgw+qq4T1C3x6o1NQX96vQ0SIsd9EWTV4dHs/QqzFjujha4OtTojvX1YW+dyn7lO6O9Thubd+jqStqFH56w/rz7AAAAPDNwUQoANDOjt1EKH2V90I3ZUtS0X4Zj+5wNrDrkamCX3RRpmmqvGCvUp/a7Wwhyasbru2jh0Z0tk2oUlfjV/7GEs1qdsKHxgkT8les1AzfqZo7qpPSvZLMgIr3+FXfM04nuYLn2e/RHS2Gmw/eO0yP9ndJZo2enZmvO/e1ZiKUBE25PkPThzrO+WCdVuTu04y/7FfzT+RIrvXwGifSCGjZa6s19j1ni2aMG6CyaxOVIql8406lPr3X2ULq213zvpOm8X29Sgl3R/ebKj9QrdeX79TU92scG0TpkajpE3prxpA4pSeELrTGr9w1ezTlD/t1R+geO499+Hsv6aZBskbFSarT3GnrNdW5XtKwizL17MXJGhY15madL6DCbWV69vXteralOTZ6JGr6hF66Y3C8Mjs3/jtnnS+gPUUVenbBbtvkPpHzbaLlc3Nq+/OL+nN4sEp3Tt+kZ23rvbphUm/NGJWo7Oj32WGuP3wt5Rt3avi6zlp0aYqyOwcnzynfV6Vtscka2mz23/Rah43K0EPndtGYPh6leKP+vdgfUOH2Ks1fvlMPfe6cJImJUAAcX5gIBQCODSZCAYBvhCoVhru1pnfSM30dq532FarftJUyfpjbfGDYo7te/0WO5o1LbjKhSlyCR8OG9dS8B7L1zCEmfIg7eZBevygUGEqSy610s0rv7gr93KuTpoerI5voqQl9QgfdVa3ZrQnseqRp0RMDNeeiZs65c5zGnH+SVvwiS3c4j9kO19qeMnt5lBL6vs4X6kceZfw1p2rP/Sfphv5RgaFCk3GkJ2rK9QO15440ZUatiujbU0vvHaBZIxMaA0NJSvBo2MiTtOKRvkqNbt+ukjXr3iFadX0XndPVcZ+9bmUP7KZn7h2iRZc00623R1rovDvZAkOFts3s30Wz7snW0ua2PV6E32cTUmyBqZzXPyEheiu75G5adU0oMFRw8pyUBKmq3tGuWV5Nv2OIVtzUU1f399oDQ0nyuJXZP0UP3jLw+L6PAAAA+FoQGgJAh1WqZzeHqoM8Cbrj3iFa9YMMTRl4JH/5T9acO3rr6h7B/y2U7y7VQ8/mB8cSfGyLHvq0LjjpQ0KC7rhpQIvBX2ZGnOJq6jT/1XwZ09Zp7Ov79ctlO3RrbnWwC6crQaPGtHB+k5I1LLQqd2PL1YiNkvX6Xb01PrXpOfd7eqfm7w5IkuJ6pOjR70UHau1zre2mR5rmDI0L/eDXqtxS2+rMSwZo3iWdlO6S5Pdp2fvbNfanK4P39y/7teyAKcml9CEZWnRTsm1bKVmvT8vQmKTgT8XbSzTj6XWhZ1Oi3EopLr2brm62Ou+r8mr6PZma3j+YctYdqNKzf9kUDK5/uklT369SoV+Sx6Pxk/o3mX34wZvC5x1Q/qe7NeGxxglkpr5frWJTktwac3mmHgxtExz/cqeWhYsui0tCE8+0rsrwiIzyNIaulb6oKkP7+6xuX4V+Gb7+6PeZx6PxkwZo6bjIhjYp6XFK8fu17L1g6D/8lT2a/e+9uqAV15p5bT89OsSjOEl1ZVH3f9o6jX1xd+TPiFwejRnTWzeEDwoAAAAQGgJAx7b4xSLN3hKqTPMEK+Tm3DNY1jNDteeRU7Xoexm6Y8ghqphCMq/N0OT0UIi2caeGP1KoX64JpRHbK/TLP6zX8DerVK7ghA8zrutm276RqU/eW6/J79dI8mnZuzv00ApJiyqUG8o3h2WnN1sR92h2vOIkyVet119zrm0q8/oMXd01+L3znAs37tXkR7Zq7u7g9LYpA7vr0dDkL+13rV9N5sAU3XFllvIeCHUBlVS+pUR3rohu1U3PXBzstix/nea+uE5jXy3Rsn0K3t+PdmjsTwo0tzgYHGaPzNAzUSFn5rUZGh91j0Y9tj3UndenZe9u1/CndjZO5NHeRvXRjIFuSVJdcYmu+ckm3flRVTAM3lelua9uUr8XS5TvD80+POmkqPdFmsZkhMK2gn3K+cMeLQ73jt1XpbmvbtDklT7JNFUnt3K+th5ryZpzaaLCmWvhrsbA1/Y+27Jbo366RQ+Fr9/5PpNbY8ZkaXxka7vC1YUa+1qpCiXlrtitGe9WOZs0I1GPDkmI/Jma/XTU/ZdPy1bu0eRHtjZ2wU+N05jozQEAAHDCIzQEgA6tQjOe2qjJ71UoPzr88biVnt5J48/vqWfuyJb13FAV3Jup6c1WIdrDhVlP7222yq/w3e16vTj4fXq/LprubCBJvlotW+RcKEl7NHdzKNxM76wHm1Tv9db4k0MhUVGFfulc3YRXD2aHkjazRvP+0tw5V2nqF7WqM03V+VxKP1nte62H5daYa0fIeqH5V8E9WXrmshSFL6N8+35Nfmq3/XwmdItUCRau3qGpa6JXhlVo6kfVwfDJlaAxlzU+4zsGhq61pXu0b6/GLgtVgbazB88Nh2k+vfHqdi12NpCkNds1tyBU7dYnsZn3hRTX2dtsmLZszjoZP8xV/I/Xa3Lzg1YePT0SdfVlfbXisX6aEgoG5a/RGwvCYZ5XDw6Ouvev7Gl2XM3Cdzdp1pZgsK2unXTHKGcLSfIp9+PWhIROycrsbKrOL5VvK9NDzXb3r9Ki8LTq8ijzIsdqAAAAnNAIDQGgw/Np/mtblDN9pfo9vV2//KhCnxT7VR49NJ4rPAZcjgpu6+6o9EtWdriYbt/BQwR2Ps3fFSoXTIjTmJHO9ZIqfJrrXBYyd2WNgjlcnMZMSrSty7w+UcNckuTXso/32NY1r6tywn1Ci2t0Z7OBiKRFGxT/w1zF/3iNxi5R+15rezjoU+7GYJfh1Md2NAnWbjg5Nhg8ya/8dYcIjt47qPzQ6Wb3Cc/gm6ZhoSpDldS1PEbkospIFWj76aJRoW65qqzTonzn+kazt9SFQss4Db8wvLRc+QdC3/bookWzB2npza2rmm0/hwh9fzFAr1/ZTed0DX+MCmjZggLNiNzjqPfnvpqW772kX34ZCnzlUXZzoX5NvVYc4v61bKdG3Z2r+DtXNj+xTsj8g6HQVpKChaEAAACARGgIAN8shRtL9NBftmjUzDVKvXOl+j29VQ+9X6HcslA1k1zKHNHbPvbdyDj1DP/foE9a04Ak6rV0RGSGE8WFJ2aIZppNq9nCVpRqVWjilsy+3aK6Qno1vX8oDKqs0Ru27rkt8SgldCrlVW2ok2vPaz2sgJa9FhqHL/z66SbNCI9lJ0leac/G/bYZgKMNTw3PeuLR+JubnmPjq6fOCZ+uJ5z8xKlnuIqxrKbl56IDKqxwLvuqEtQzfM+SkjWvyflGvSZ0CgWjUlwkE/TpzgWhrsuS1DlOY0aGqmafGao9Mwdo3pXd9LX1So5SV1aj+a9u0th3o59h1Puzou4Q917Sar/KQt+mpoanwzlaEjR+ZBfdcWVfzfvRqcp7bKhqR4bvPgAAAGBHaAgA32CFG8v1y1e3aPj9uRq+IDx+mkvZI3pGJo9QZ1cktDm6ShvDsR6dNCU0xqB6pGlUr+C3xdtKW6xUbBfH7FpbsK9Ks6PHsvN4g5NgtDBzrW2m5KPGp9pwiNlu7DMFH5E125Xz1A7N3+5XXfT5edxKz0jUDZf11arnhmrVDV2aHSPzqzOVv65U8z9t7lWiX75aqAmPrVT8/fmhMTyP0D7zqHQPDxt2UV8tnTlEZc+MkPVCthbdnKlnLuumGwZ3UrZjRmsAAAAgGh8VAaCDeuYnw1T7zAhZvx7QqjH3chdt0ox1odItb5zGhGdrjeqdWJ6/w14Z1+Jrtca+17hday37uDpUdeXVOecHuyhnXhbumuzTsmX2mYPb3TG81kMpfHeTJq8Id8t1a0wzswdLkiJhWZ3mNjmvFl4zwzOGHBuZLsO5yG53eFbfw79yXnFsu32/Jj+2RvE/zNeEf+7XGxtrVHgwKkF0uTXswr56/drmQ9evxtKe/EJN/kNzr+166P3SxslZvooeRy/IHn/TIK24vpvGZHgaA2jTVF2NX/nbq/TG+7s14dOjGVkCAACgIyM0BIAOqs7lUpwnNOZesxMoNDW3Mio1C3vfp/Aogimdj0b4EiV/txYXBb/NPLmHxsirB/uFIpN91Zrb6rHbApHqs5TEQ0UuvbXquRGq/e0wFdzR/dhe62EsfmWH5oVmd5YnTlOuzWwy4UduRfh5udWzzeMq1mhPaHKclG6dDzEzbndlHlH366CrU2Oci2zHVmePbnCsbbsaLV6yQ9c8na9+03NlPLZdv1znC4WuLg3LCc9ffLzwqzxUVJuSHHfoSsiRXvUMfVtWFqwFbhej+mvuqLhgIOn3afGS7Rr705XByWPuXqOcxzbpmlf3KCWBgQwBAADQPEJDAOignt0S7hLp0ZhL+zYJnJry6pk+4YCtQeW7wstLGyed6JWoZ5qZwbb9+DQ7fN5d43XHkHSNCuU9uet3a5mt7aHs16rw5BJd4/WoY23EhM7KdklxXpfqDlYe42s9nCpN/Xtp47h9PbromZujxpqU9GxBuBrRo+Fnhmdwaa39+mRfeGbe+Mbu4E6jkpVzxKGhV9nJzYVOUcdOStDkVobaERdlKm/2MNU+N0wrJjlXStpeood+t18rwn8E4mN0taPJ1+uA8sIDFfZI0PRDvM8eHBgfqjQMqLCo+bEtj8QNwxJCs1ebyn1/syb8s0TLmkzI4tWoyLiZAAAAgB2hIQB0UIWvlmpZKDSJS++meTMzdUdfZ6uwBD34o4Ga0if0Y3GVno1U9VXp2YJQWOFK0OSberYwwUSy5v1ihKznhqn2t9ma08+5vnUKX63QJz5J8mrYNYnKliSzRiuWtSUw8emX+aGL93bSHfekNVPNlax5I0OTbJg1WrbEd8yv9bDyt2vGysbrzhzRW3Oiw70FFZGZjdNz0jXvzOarIzMvGaCyF0bIemaY9vwoLbL8oY+qQjNWe3X19c0Fy8mac2liKFxqKj9c6dhCNWvmJX11TQsbP7SuNhJ4jr8sUzc0G5x5Nf2eobJeGKHa3w7RonCX+WIprrNLcS6XzjmzaQWmJKmHV6nhDPygT284Vn+9fPrluprg9R/ifZZ5yQDN6B+eZfqg5rdjN/hUT+NHvDp/83+2Mi/pq8nh3wkAAACAA6EhAHRYezV1SZWKw910M7romZ+MUNkTg7TiR5mad3Om5t3cXytmDlbZc9l6dLAn1FWxTnNf326r6ls2p0hvhCrwUvpnaMVjA/TM+YmhIC5B4y/rqxVP9AsGPy6X6raV6pcFUTtok91aVBQ86cz0UAi2q0p3NqmCOrTCV3c3nvPADK24t6+mDwzub9iQnpo3szGoKszdHdn/sb3Ww1v8h8bzkSdOk6/pHRWA7tHk96pD4ZNXN9ySrbybe2p8KBzOHNhNj/5gkFZdk6gUSXL7teyDvZGttaJIszYGg79wsPzgkOAUxcNGZWjRL/ppSnrLHwVmb2ysdBx/7SDNuyR0n/om68GbB2nVVaHjNmdRoWYXhN6cPbpo3gODNO+y5FB45tWY8zP0+sxszRoYrFSMq6jSs+HQLH+35kdvOzNLj0Y/o4tO0tJ7uobGwgxo2ac7QxtKkl91DaFvk+L1YItB+tFV+NpuzQv94Uzpn6EVv+jfeA1N7l9Ay/5ddASTALV8rc9uDj87l865yHHvR/TUnHsHKy/8vgEAAACaYQQCAcu5EABw5Nw/zHUuOqoyL8zUoiu7KDuYBR1aTY2enV+gOz9vpvKoR5oW3ZOh8akth0iSVF60X5Mf3aHFkSVpWvrr3hqTIKm4pHUTcUw4VbWTQlWAMvXJglyNWuRsFDTnkRGaki6ppkoz7t6k2dErW3HOxRt3a/zTe2R7Kq3YTs1e6+FNv2doKAgLaNlrrZxEZUiWCu5ICYVipj5ZlKdRCxqf0fjrszXvooRDBzx+vxYv2KgJ7zqfbbKeeShTd/RprhuxpMo6FcbEKTNBKt+4U6lPR4WOStSsn2Rpet8WtjX9WvbfOg0fmagU1WnutPWaamtwmGOH1JVV6KGnt2h2dHDcI01L7+2tMUlRy5owVbhyp8a+uD80wU7Qg/cO06PhCj4p+CxeXa2x70ctasERPb+W9Oiu13/UW1f3OMT7zPTrk/e2a9TrFbbFh3zfR2n5WpM1Z2Y/Tck4zLH/W6/MkZ2ULil/xTrlvBJ+/xzBn2sAOIoCzzVXsw0AaG+W1RgTHuKTJACgIyj8oFA5d+dr6pJyfVLsV7kvanZZSfKbKj9QrTeWbNfwu/ObDwwlad9eTbh/o6a+X6H8ssaJRqTGfcx/fZOGtzFEa9aiEi2rDH3vq9WiFgLDwwqd850fVSk/elZd01R5WY3eWFSoUc7AUMf4WltjzVb9ck14cEOXzrmor20cvMWv5mv40zs1f4tP5eFmIXU1fuWv26+pT61pJjCUpArd+Wi+Ji8qV25Z1EQ4/oDy1+3V5KdKbIGbXZVmPJavye9V2O+vP6Di7aW684k1Ghua2KZ5wWOPfb1Unxxw3GfTVHlZnRa/v12j7ncEhgo+o7H35keerf0ZBVS8u0LPvrJR/RyBoST98pXtenZ79PHc6tnL3uaY2Ldf1/w0L3Lvo68h8tyeWNMkMGyLlq+1QlMf2ag7P622zzgtqe6gT5/k7tHkmWs06g8VKgy9bbL7NNfNHwAAACcqKg0BoJ0d60pD4KtprChrWmkIAMDxgUpDADg2qDQEAAAAAAAA0CJCQwAAAAAAAAA2hIYAAAAAAAAAbAgNAQAAAAAAANgQGgIAAAAAAACwYfZkAGhnzJ4MAADQvpg9GQCODWZPBgAAAAAAANAiQkMAAAAAAAAANoSGAAAAAAAAAGwIDQEAAAAAAADYEBoCAAAAAAAAsCE0BAAAAAAAAGBDaAgAAAAAAADAhtAQAAAAAAAAgA2hIQAAAAAAAAAbQkMAAAAAAAAANoSGAAAAAAAAAGwIDQEAAAAAAADYEBoCAAAAAAAAsCE0BAAAAAAAAGBDaAgAAAAAAADAhtAQAAAAAAAAgA2hIQAAAAAAAAAbQkMAAAAAAAAANoSGAAAAAAAAAGwIDQEAAAAAAADYEBoCAAAAAAAAsCE0BAAAAAAAAGBDaAgAAAAAAADAhtAQAAAAAAAAgI0RCAQs50IAwJFz/zDXuegQ+BUMAABOVIZzQYsCzw1zLgIAHAWW1fh3VCoNAeCosw7xAgAAOFE5PxfxGQkAjidUGgJAO2usNGzm12sziwAAANBS4WFwIZWGAHBsRFcaEhoCQDuyLEsxt0d1T27yG7bJAgAAAEhNU8OoHxt+P0yG0WyqCABoR4SGAHAUhH+5xtye68gGD/Vr9lDrAAAAvskOFQJGrTOCoaEkgkMAOMoIDQGgHUX/UpWkmB/mNhMGhn52LpZaWggAAPAN1kz4F1nkXGeowdE9mfAQAI4OQkMAaCfOwNCyLHmiuyfLisoEm/t129wyAACAE0FzwV9omRH1vSR/M92TnT8DAL46QkMAaCfRv1DD3wdDw3BYGP0r9nABIgAAwImo+aBQMiLL/M10TyY0BID2R2gIAO2gucDQsizF3hEe09CSZOmcfom6aVQ3XXRqsvp18yrGzQdcAACAaA0BSwUlPr2/oUKvrCjRJwVVoQAxGBzWP9tYaUhwCABHD6EhAHxFLQWGlmXJe0e4e7Kl57+XqWkXpkXaAgAA4PBe+GCvfvCXwkjloS8UGhIcAsDRFf13XZdtDQCgTZyBYeQXrGXpX3edSmAIAABwBKZdmKZ/3XWq1MJnrei/1AIAjg5CQwBoI+eHVOfPsiw9f2OmLh2UYl8OAACAVrt0UIqevzEzEhyGOT97OX8GALQPQkMAOELRH1Cj//X7nKzOVBgCAAC0g2kXpumcrM5NKg1FWAgARx2hIQB8BdFdZMKvm0Z1czYDAADAEbppVLcmoSGBIQAcfYSGANAGzX1QdX5/0anJkZ8BAADw1Vx0anKTz1vO7wkRAaD9MXsyALSB84Np+F+8TdOMfPXGJSjGzSx+AAAA7aEhYMlXVyOXyyXDMCJfnTMpM4syAHx10f8IQ6UhAByh5gJESQSGAAAA7Sj82cr5mYvqQgA4uggNAeArcH5Ydf4MAACAr875Gcv5MwCg/REaAkArHerD6aHWAQAAoH0c6jPXodYBANqO0BAA2okVNaMfAAAA2g+fswDg2CM0BIA2cn5gdf4MAACAo8f52cv5MwCgfRAaAgAAAAAAALAhNAQAAAAAAABgQ2gIAO2AbjEAAABHH5+5AODYITQEgHbCAN0AAABHB5+zAODYIzQEgK+AD68AAADHHp/BAODoIzQEAAAAAAAAYENoCAAAAAAAAMCG0BAAAAAAAACADaEhAAAAAAAAABtCQwAAAAAAAAA2hIYAAAAAAAAAbAgNAQAAAAAAANgQGgIAAAAAAACwITQEAAAAAAAAYENoCAAAAAAAAMCG0BAAAAAAAACADaEhAAAAAAAAABtCQwAAAAAAAAA2hIYA0NEtvVtZWVm218SXipytvkZFmjPRfn5NXxP1wA9C389Ybtt6+Yws3b008pPuDm3TuKyVFk7WSmOydjqXAwAAAACaIDQEgA5s+YwsZd22wLlYeU+MVtbEOTqeosO2C4aNU950Lm+jLbO12jC0+jXJPXi49FSOVp42W6XOdgAAAACACEJDAOigil6aGArUcvTAsq3aujX4Wn5/TrBB3uO6/bioOOyjqQubOb+cB7Q8tGzr1oV6/PnQ97NGO3fw1fSfrqFWgTrnzldg3QyVaJFGrJ2uLs52AAAAAIAIQkMA6JCW6+kn8iRJk15cqKl9G9f0ufX3eiBHyrl/uRbe2qdxxfY5mujoFuzs4lv00kR7t+HmqhWd+3F0Jz5Sy2dE72+57s4arceDl6gFt2UpK+tutXykxm7LTc97sfKNfqoYtkgjrEXy3tdPK7+/2LY1AAAAAMCO0BAAOqLtW7RFkjRJV4x1rgxW9jUJDMc8rlAGF7Hgtomasz34fdFLEzU6FERG5D2u0dEB3NK7leXcz5tTmg8Xj5XtczQxa4psnbTzHtfoSMg4XtmWpRF/Gu/4HgAAAADQEkJDAOiItqxvEgAeStG7bylPwerDYHfguZokScrT+mD6qK0bg3uMtFn2gHIkKe8tvbNdwTEGfxOM5ia9GO5WvFwP5ARDuqfbOjHJIY3Wr8P7jhzv12qu4/Ly3wVDzMZr26q5V0nSAs0+LrpnAwAAAEDHQ2gIACeAPrcu1NatwerDYDdgR2WepKyBwYQu74nRysrK0sR3L9XC0HiDU/tK2v6O3rJ1F85SVlQX4i0FX0dAt1xvhSZKCZ93Vlbj5Cl5G7faWgMAAAAAWofQEAA6ov6DglWArbX07iaBmlN4LMSwxhDuUGMJNjouA7qNW76+btMAAAAA0IERGgJAR9S3v/pLkhborWa6BS+fET1BSWO34sYZi8Pdk6PZZzkOdvFVM9187bM1R17tPetxGzV2mY56LZyqqJEdAQAAAACtRGgIAB3SaN1zf7AsMHoyE4UmNJnyZnCCkokvFUnaqvWhLsST7gqFaEvfcnRPLtKcicFKxOA20uhZjcFh3satUt9LdUVwkEM9/rtwINk4a7FzJub21HLX59G6InSOC34Tnoyl6bUAAAAAANqG0BAAOqjG7sR5enxMeIzBrMYZkHMe0O9v7SMpS4NC3Y4jYxHe5hzRsI+m3hWaGqWZsQEnXTba1kZvTgm1CY2NmPOA7mkyi3P7CZ6TPRwNG/2j8IQtj2u0bZzFSZoePYM0AAAAAKDVCA0BoMMKdSd+sWlH45z7l0d1ze2jqQvt3ZEnvbhVy8OViktCVYNjf93MvoJdkX8dDgSba5PzgJYflW7AfTT1mVAgeCh9p2pheKbniEma28JsywAAAACAwzMCgYDlXAgAaMqygr8uo7+aphn5Gn4lJSU5tgQAAMBXUVlZKZfLFXkZhhH5KqnJVwDAkQn/fVdUGgIAAAAAAABwIjQEAAAAAAAAYENoCAAAAAAAAMCG0BAAAAAAAACADaEhAAAAAAAAABtCQwAAAAAAAAA2hIYAAAAAAAAAbAgNAQAAAAAAANgQGgIAAAAAAACwITQEAAAAAAAAYENoCAAAAAAAAMCG0BAAAAAAAACADaEhAAAAAAAAABtCQwAAAAAAAAA2hIYAAAAAAAAAbIxAIGA5FwIAmrKs4K/L6K+maUa+hl9JSUmOLY+u8vJyVVdXq76+PnJuAAAA7c0wDMXGxqpTp05KSUlxrj6qKisr5XK5Ii/DMCJfFTq36K8AgCMT/XdKKg0BoIPy+/3atWuXSktL5fP5CAwBAMBRZVmWfD6fSktLtWvXLvn9fmcTAMA3CJWGANBKx1ul4a5du+Tz+eT1epWamqr4+Hj+dR0AABw1lmWptrZWZWVlkc8gvXr1cjY7Kqg0BIBjg0pDAOjgysvLIx/WMzIylJCQwIdkAABwVBmGoYSEBGVkZMjr9crn86m8vNzZDADwDUFoCAAdUHV1tSQpNTWVsBAAABxThmEoNTVVivpMAgD45iE0BIAOqL6+XpIUHx/vXAUAAHDUhT+DhD+TAAC+eQgNAaADCo8zQZUhAAD4OoQ/gzARGwB8cxEaAgAAAAAAALAhNAQAAAAAAABgQ2gIAAAAAAAAwIbQEAAAAAAAAIANoSEAAAAAAAAAG0JDAAAAAAAAADaEhgAAAAAAAABsCA0BAAAAAAAA2BAaAgAAAAAAALAhNAQAAAAAAABgQ2gIAAAAAAAAwIbQEABOdFtmK8cwZES/TputQme7w1k4WYYxWYudy7+SxZp8JOfydTkq9+DoWPz9HM3e4lwKAAAAAEGEhgBwIls4WcYpMzRsgSXLanwtGjZD/Y6D8Gvx9ydovnPh8WziPFnWPI13Lj/eLJysCX92LgQAAACARoSGAHACW/zafOnGRZo30b58/J8W6QbN14ynOkyNHwAAAACgHREaAsAJq1D5uc5lYeM1z7KUd2+mbeni70d3Y25F91Zn1+fvN61dLHwqx9Y1OuepQkmFmn2aEayGWzdD/Vo4VnBbZ0VkcNvoYzV/jLDFmmwYmrwwalGTfSzWZCNHs5+afOhrd3ZPdl6/81wPuT54DvZzDT0DR5dt5/XZr8Wu8KkcGZPmS8rXjFOC+29un+H7kvNUYeg8czR7of18mztOm98jAAAAAI5LhIYAcMLK1NXfz5b+PKFpmNWMxd83NOHPN2hRuBvzgmGacUrzwZEUCsROmSE9WRDq9lygWbkTbOHU4u8b6nffsMZ9Wos07L5+ynlKmr7W0qIbJQ2epQIrT9P7O/YvKfOqKcrWfM2LPoctb2juOumGa4OdhIPHkGZtDh1j8yzpvn5NwrjDy9eM+xQ61+bPxyZ0/dFdvxfdOF8Twtd/uPWtVPhUTpPry53UNGwMy7w3T9aCGyRla9bmYDA8/tobpHVz9UZ0wLdwnuYrW1OuCgfH+Zoxaa6mhI+z4AbNn2R//m1+jwAAjoqioiJZluVcLMuyVFRU5FwMAECzCA0B4ASWeW+eCp7MljRfE1qsxAsGXDP+LN2wIGq8vonztOhGaf5Pmg+5Fv98hvIHz9KiSLVipqa/OUvZ62booYWStFjznPtsocKxRf2v1pTB0vzXourz3pyrfN2gyROjzzsq5Os/XYuezFb+fQ8dNih1yn7y0daPV5i/SvnK1vDsxkXj/2TJWjtdma1Z3yqL9dB9+cp+ctFXu76Jk3WD8jX3zcYnufi1+dLgKbo6Khy1Hcf5/I/gPQIAaH8NDQ16/fXX9fbbb9uCQ8uy9Pbbb+v1119XIBCwbQMAQHMIDQHgBJd5b15jJeDg4LL8+/rZupbagrgowQq1Vcq3L44Egtnfv9oegIVCvtwNhZFKtujQrO3C1ZLzQgFZod74U7504+RgcNVMMKeWKhRbYdiprY/zwkFcuAtwE4db3xpNqgGDgteXq/xWdw0er8k3Svl/eiMU7jX3/JoeJ/r5t/09AgA4GmJiYnTddddpy5Yt+uc//xmpZv/nP/+pLVu26LrrrpPb7XZuBgBAE4SGAICQTE1f29jFNVv5mvHz6Fo1ezWiYRihsfFaFgwfo7fppxnrolsMU/bhuvkeRua9s3RDOAB0dE0O+urHODLjNS8UxEbfh8auuodb31rB4NF2n0+Z0eaQbvzDs5Qd7qLcQhh5eG1/jwAA2l/Pnj11/fXXa9u2bXrjjTf0xhtvaNu2bbr++uvVs2dPZ3MAAJpFaAgAaKr/dM26UVJuflS30qix6myv6O7FdtmR8Qztr8bux22phmtJsEpu/muLW6h2a+kYTSsQ219UEBsKCOdPip4c5HDrWyM4NqHzHrdq3MVo/a/WlMHBLsrNdU1uTuEG50w6bX+PAACOjp49e+q6667Tjh07tGPHDl133XUEhgCANiE0BIATVWjm3kNWtg3LVqakzFOHNRu+FT6V08ysuwoGcoOl/LXOereomYqzhytb+VrlbHIExl97g/TneXpobVTXZLV8jGC4aK9AzN0QfRX5WmWriGwPmZq+dpFuaOZ8gppfb7+HjhmvW7i+JrM4t0qwq3f+nx7SvFxn12RJjjEPFT630P1u+3sEAHC0ZWRk6Oabb9bNN9+sjIwM52oAAA6J0BAATlShasJmK9u2zNaMP2dr1sOh+G3iPC26MV8zTokKorbM1oT78nXDY81N3BGa9OTPE2zj9S3+/gTNHzxLj06MPn50uFWo2acZMr7ftrgrOD7gfM3/s6NrcnPXGDrvxklNQgFnZDy/0HlGdnKEFk62jQspSYVPzdD8cCXk4dYrU9nDFDVeo1T41AR79+7QpCf2Z7hYkyfNb9ukLSGZV01R9rr5mr+u+a7J+fdNaDzOwsma8JXeIwCAYyElJUUpKSnOxQAAHBahIQCcwMb/yZK1YFjTMfGukhY5ureO/5OlRTdGjVl3ygwNW2BpnmPii4j+05W3eZYUNV7fhNxZKoiaHXj8nywVPJkbNQ5eP80YtkjWn4JBVHCcvRnqd7iKyFAXZTXpmhw+hhqvMXTejV2kQxV+oeMYhqEZpxVo0Y32/bTZxHlN7m2/+6RZm0NddQ+3XtL4PxVo1uDGe95v7azQbNeNgjNgR12fMUG5TxYcegbqiY9q1uDQWIjRAW1oopqWuibf8OQUzQ0fZ1KuZm3+iu8RAAAAAMctIxAIWM6FAICmLCv46zL6q2maka/hV1JSkmPL9ldQUCBJ6tevn3PVCapQs0+zB444Eos1ubnQccts5RAAAgAcjuXnkcrKSrlcrsjLMIzIV0lNvgIAjkz477ui0hAA8I2w5Q3NXRfVVRZHZuE8zdcNmnWoKkUAAAAAJwRCQwBABxacWCXYDbaNswWjUWhSnGCXY2Y6BgAAAED3ZABoNbonAwAANDqWn0fongwAxwbdkwEAAAAAAAC0iNAQAAAAAAAAgA2hIQAAAAAAAAAbQkMAAAAAAAAANoSGAAAAAAAAAGwIDQEAAAAAAADYEBoCAAAAAAAAsCE0BAAAAAAAAGBDaAgAAAAAAADAhtAQAAAAAAAAgA2hIQB0QIZhSJIsy3KuAgAAOOrCn0HCn0kAAN88hIYA0AHFxsZKkmpra52rAAAAjrrwZ5DwZxIAwDcPoSEAdECdOnWSJJWVlVFtCAAAjinLslRWViZFfSYBAHzzEBoCQAeUkpIir9crn8+n3bt3q6amhvAQAAAcVZZlqaamRrt375bP55PX61VKSoqzGQDgG8IIBAL8LRMAWiEcykV/NU0z8jX8SkpKcmx5dPj9fu3bt08+n8+5CgAA4Kjyer3q0aOHPB6Pc9VRUVlZKZfLFXkZhhH5qqixFRljEQC+muhiFCoNAaCD8ng86tWrl7p06SKv18uHZAAAcFQZhiGv16suXbqoV69exywwBAB8Pag0BIBWOt4qDQEAAE4UVBoCwLFBpSEAAAAAAACAFhEaAgAAAAAAALAhNAQAAAAAAABgQ2gIAAAAAAAAwIbQEAAAAAAAAIANoSEAAAAAAAAAG0JDAAAAAAAAADaEhgAAAAAAAABsCA0BAAAAAAAA2BAaAgAAAAAAALAhNAQAAAAAAABgQ2gIAAAAAAAAwIbQEAAAAAAAAIANoSEAAAAAAAAAG0JDAAAAAAAAADaEhgAAAAAAAABsCA0BAAAAAAAA2BAaAgAAAAAAALAhNAQAAAAAAABgQ2gIAAAAAAAAwIbQEAAAAAAAAIANoSEAAAAAAAAAG0JDAAAAAAAAADaEhgAAAAAAAABsCA0BAAAAAAAA2BAaAgAAAAAAALAhNAQAAAAAAABgQ2gIAAAAAAAAwIbQEAAAAAAAAIANoSEAAAAAAAAAG0JDAOjolt6trKws22viS0XOVl+f7XM00XF+ja+JmrPducHXb/mM0PnNWO5c1QrLdXfW3YpsGbn+o3mthdpymqHVTxU6VwAAAADAESE0BIAObPmMLGXdtsC5WHlPjFbWxDk6jqLDFuTp8TFZunupc3kHtX2OJmZNUdMncvTs/L6hlcZD8g+TvKfmK98wlL/Q2QoAAAAA2obQEAA6qKKXJmrKm5KUoweWbdXWrcHX8vtzgg3yHtftx1PFoeM8t25drgdCp7rgtqjKvOPA6Fmhc5w12rmq7fpO1cKtW7V160JN7etc+dX1/pOlEQukmj9LNZPmKdGylD3R2QoAAAAA2obQEAA6pOV6+ok8SdKkF+1hVJ9bf68HcqSc+5dr4a19Glc0003YWeFX9NJEe/fh5qoVnfs5oi68ktRHUxfO1SRJ0gK9FX0urThGpAvxIdo06bpta7Ncd4fvw4zGdncvbdo9OXJfJs7Rcts9igo7l96trDGPK/hUFmhKePsWuycXac5E+zXYn0fU+S11tI26jtKncrRyUq6SN1vKfDJXe40cbdkSvR8AAAAAaDtCQwDoiLZvUTAXmqQrxjpX9tHUhVubBoaRQKvRgtsag6yilyZqdCiIjMh7XKOjg0NbMBby5pTmw8VWGa0rrgp+t2BJKAhrxTGWz8gKVVk62kSFaUUvTWzaddvRJmzBm+F2ORrU37EyWt7jmmK7Rws0JTo4bLXlujtrtB533O4FtzU/HuWC2xxt35wSadfl3jyNsPLUv7/9ewAAAAD4KggNAaAj2rK+SQB4KEXvvqU8BasPg12DwxV+eVofqkrbujG4x0ibZQ8oR5Ly3tI72xWsjPtNMFyb9KKji3He43r6CMclzBoY6qMstfIYRdqyMdg60ubF4NXozbdCAV5jJWaT63lzdtMJSXIe0PJWdiGOHDO8v3CV5NhfRy2bpLmH6N68fEZ43MNQu6hryHvi9kOcX2OX7rwF7xxhUAsAAAAAh0doCAAngD63LtTWrcHqw2DX26aTdYTDu7wnRisrK0sT373UPhbf9nf0ViipXHBbuKtsYwXcloJ2iLBadYw+6j/Q3uZu/ToUMP5ao2WvxJwerrg8xNiCk+6aqqi6zJblPKB7wpWdfadqurNKslWW661QleSkF0PnK0lj7wkFgnl66137vWw8vz66dFJ0yAoAAAAARwehIQB0RP0HhSraWilqbL8m3XpDwmMhhoXDQ9u4fYeQt3Grc1GrhCscWyN8jNGzwpWSQZGAMdyFuY2VmK02sL8tXLRXSbaVsyt0YxgKAAAAAF83QkMA6Ij69lcwb3JMIBKyfEb0ZBmNXX4bu7naQ7eg4FiI4dmN54aq6KQFmm0bZ885C3Lo1UJX3EOL6mp8WfT2hzvGaP06sryxy26kC3NbQ9XW2rjF1iW4LYFnU41dw4Ma7wUAAAAAfN0IDQGgQxqte+4PjagXNZmJQhOATHkzerKMrVofyrYi3VyXvuXontw4O294go3RsxqDw7yNW6W+l+qKUPfZx38XDiSjZ/iN7KzVls8Idz0OTejSqmM4f+6jqQsbg8MtBUW2ULUx8HRudwSix27cPkezw92MbYGnJG3RFue4hBFRk7/cFj378tOhe5GjKy5pVWdpAAAAADhqCA0BoINq7E6cp8fHhMf/y2qcATnnAf3+1j6SsjQoFKhFuvE6ZxVWH029KzwRR7hbcmNX5mAo1thGb04JtQmNjRg91l+L7Odp239kbL/WHCM6MA3vKxw+hgO3xjaN1+Pcz5GJHDM8w3Oz+wtdawuzSo/+UeMkKlPC9yP0THLu/32TMRcBAAAA4FgjNASADivUnTg8c3CUnPuXa+vCxskzpi60d0ee9OJWLQ8Hb+FJPMb+upl9BbsJ/zocijXXJucBLY8cq62CswdH9q/WHaPPrQsj599okuZGTXLS59aFh91Pm+U8oLnRx3Xur+9U/b7JeTWj71QtjO5WHTLpxeBkNQAAAADwdTMCgYDlXAgAaMqygr8uo7+aphn5Gn4lJSU5tkRHV/TSxGAFpzMkBAAAx0RlZaVcLlfkZRhG5KukJl8BAEcm/PddUWkIAAAAAAAAwInQEAAAAAAAAIAN3ZMBoJXongwAAPD1oHsyABwbdE8GAAAAAAAA0CJCQwAAAAAAAAA2hIYAAAAAAAAAbAgNAQAAAAAAANgQGgIAAAAAAACwITQEAAAAAAAAYENoCAAAAAAAAMCG0BAAAAAAAACADaEhAAAAAAAAABtCQwAAAAAAAAA2hIYAAAAAAAAAbIxAIGA5FwIAmrKs4K/L6K+maUa+hl9JSUmOLY+u8vJyVVdXq76+PnJuAAAA7c0wDMXGxqpTp05KSUlxrj6qKisr5XK5Ii/DMCJfFTq36K8AgCMT/XdKKg0BoIPy+/3atWuXSktL5fP5CAwBAMBRZVmWfD6fSktLtWvXLvn9fmcTAMA3CJWGANBKx1ul4a5du+Tz+eT1epWamqr4+Hj+dR0AABw1lmWptrZWZWVlkc8gvXr1cjY7Kqg0BIBjg0pDAOjgysvLIx/WMzIylJCQwIdkAABwVBmGoYSEBGVkZMjr9crn86m8vNzZDADwDUFoCAAdUHV1tSQpNTWVsBAAABxThmEoNTVVivpMAgD45iE0BIAOqL6+XpIUHx/vXAUAAHDUhT+DhD+TAAC+eQgNAaADCo8zQZUhAAD4OoQ/gzARGwB8cxEaAgAAAAAAALAhNAQAAAAAAABgQ2gIAAAAAAAAwIbQEAAAAAAAAIANoSEAAAAAAAAAG0JDAAAAAAAAADaEhgAAAAAAAABsCA0BAAAAAAAA2BAaAgAAAAAAALAhNASAE1juH+/Tffc1/3piyb7olnr5vvv08uqoRWhq9cu6776XletcHiX3j/fpvl+9o+i72y5Wv6z77ntC7xQ7VxxKrl5u67nYrnGf3vmV871yBIrf0ROHfH8d2ftv35InIu/ntm57rOT+MeqZteL9c6wctfdps47gffh1Oo6eEwAAwNFEaAgAJ7quYzXjySf1ZPTrnrHS+7O+ehh0ohl6i5588hYNcy4/TuX+8a/a4Fx4OF/LNQ7TLU8+qVuGOpcfQvE7evn9Up16Q/A93aZtj5XVL+uveVE/fy339ut3RO/Dr9MJ+pwAAMCJh9AQANBU+qW65aIuKl2T23GqfwAAAAAA7cYIBAKWcyEAoCnLCv66jP5qmmbka/iVlJTk2LL9FRQUSJL69evnXNUmuX+8T3/dO1Yz/u9S9XCs27fkCc16v4e+++QtGqZcvXzfX6Uboiq2it/RE08vVWl4g5zv6sn/cdTerH5Z982PriHqorH33K9L00M/OvehU0PHaxQ8j6gW0efQjNw/3qe/6rv6rv7aWMXV1X6N+5Y8oVl7h2ns3qVaeiD63IPX2XjGUecTOtcezuMXv6Mnns7VsHvu16XFL+u++bJdQ+4f77Odx9i0pVrquOdtvUbJeW+7aOxFPbT0/X2Hvr+R69ynd341K3jt4e3/f3v3FyNXdecJ/NdGxJiMDbRx26RDUEBDjNll3YAUkSwaGaN1MkokolGI7H3AS1j1kx/ieDtRsgKBNlG245AHP1kTGHgYWyEaBSnMJo5oWxEBFAnTnsxgGkY4gmBot7EN9oo2G7V7H+6fuudWVXd1u9u47c9HKhW+VXXr3nNuVbq+Ob9zitfVX1M/ngPVc8z2M3zLtvjul4uzqbVhre0jmt9j9br1MbavRduW0utv7Nc/iu1/7IuNtwzH7rLdKudQv+4qx5D0R6tz29Ob9dHB4nU98czA7ohNGyN2Vc5rzcYY3BzJuTb1W/04KsdY7/Puddviu9c803T91Nsqbc+i/TdG3x93N/qzVZvX1fdbO/7iu6Fsi2iz3/p+Wh5f9fqofu/0xXC767Ci9fdUdk2MrWvse8q+bfUdVnwOVlY//3uid11PDO0baXs86WegRRvUv8emfHy6NjrL7wmYZ3P190gnTp48GYsWLSpvXV1d5X1ENN0DMDvF790w0hCAdg4fOR6xvDd66w9E40dwrNuWlzRvi/VHdqdzoB14PAZ2jcX6rY2y541rjsfQo/lcYJUQrvH4SOyu7CP7kRyNfWxdH2O7OphD7+Du2B0bG8cWQ7G9PmfawaEYviU//s19+bx6u2NkTfG6/HiKuctW9UXf8oiRA+lMZmPDw3F8eV/01YOFMsRYHRvz/W27ZbgRwORmdY55GFWU3g5u7YvhfbUCzyn7qCc2fGcwNq4pytPTwLDaJ9vWdcfIrk7nSswDw2obrhyK7dX535qOa2PEvjS86sixodh9ZEPj3JYfj6En8z5ee38Mbl0f3XmwMvidDdGTz79Y7Y/BTatjZFdtvsNjQzFUXDuVwGZk157ozfto27ruiIO7Y2Ag3Za00zTXf8+XvxuDm1bnwdRgEhiVDjweA/U+bHEtH9+3Ow5vaFw/3ceG4vGprp9O+7naFq3eu8Pja6/NdVjTt3Z1xLHhGK4e24HhGInu6OvrKefWnLZvO3I8hvZFvp/Wx5No0ZbJ99h0j3doVt8TAABnSWgIQLN8rrXuW/pajlYa/s1QHF++Pu4vg46e2HBfFlY8k/9IHz4wErFmQ/Kju2/t6ogYi7HRiBg9HMejO3qrj2+uBjXD8cy+49G97v7GPoqy6X3PTLMIwerYWI56bD624jkbqiN78nPaVhkt2bd5Y6yOkdjz67GI6Im+W7ojDg5X3js/xlbtNLon9hyMWL2pMeKo58v3x/rl1SfN5hzHYs+ekYg1GxujjPLXVHXSR3VZALo+vlIZvdTT1xfdcTwOdxAajv16T4wkbV9vw1bH1Rf3b1pdPr9ztT7e0CJYqjrwTAwd6471WysjwNbeHxvXRIzsqQY43bH+S9WxrrnKtZy1SST9Vm+naa//aTX6uREotunD2rWwYU1MObVA5/081edoBsd3ttb2xeo4HsPDjTMaPjASUYT1HfdtZ7rXfaXz+Qqn+x6b7vGOzOZ7AgDg7AkNAS52x4Zie3315HwUW8vRTzEcw60CxXwk3ti72U/0vs35CL58xF2x31IeBAw92ma0TDKSqCELN6YJXtb0pT/6a8cWEbVRlGMxdiQiVvbUfsj3RV8lgMneeySGi0CkzTFGFGHB6uhLygd7omdl5Z9tXj/1OR6Ow8ciVq9NY42ea6r76KyP6nq+/N0yzChXHq6VsLY3FsN/PN7c9kUbHjlctnPzcfVGGnl2oN0o2Dayc+6JntrIseZRbM3PiYjoXll5t1XZdZK2eWra639aWT8n7xutR7w2PWcaHfdzvS+T66fz4zt76eewfn133redmapfm0z3PTbd452Y1fcEAMDZExoCXOxarZ7cwWqzx/dtT4PGgercZHnpYv7Y7oNZCWZWjlnoi/sHt8X65em+0nLC7Md28j6two050hSA1NUCkWS0U027YK53ZT0em+E5jo61HjnVInibto/qRvfEj/Lnbi9WHs7LfDt2cHftPavzzGVBU5M8hJt3Mwwaz8q0139nZhRgdWou+jk3L8fXQt+X1kd3EQC2CtHOZd8mpvsem+7xTs3wewIAYA4IDQGYle5yHrP0lo1ObJQuZtvbzQ2WzWmWPSf7YZ3Oq5aHLU3v025/7bQJq2qy0XAtlCMQqyXKbUbz5dqFKYeP1H/mz/Ac2wVso4ebAoSp+6hZWaKdP2+64LilynyGyW1zX0T0Rm9Snp1rF4TOtWOHo3UPN49SOzudXv/Taxc+TxtwT2H2/dz8OZqP42tpVV/0Lc9KlFuG9eesb1uZ7ntsusc7McPvCQCAOSA0BGCGsuCnOWAbjsfLETStS2iHD0xVntkTG76zMVYX86qt6m0xx1oxgquysEYrybyDRSjVXN7XkJcNH6mHV3kwWAlAer68IVbHSAw/0WK0U9Wq3rSUOaJRBl2Y1Tlm7V8v/0zDm076qK516fDY8HBTGNlauzbMFqnISjOz5zTNt9ci8JxrWYjbXMqZBVBzPUptNtd/XZs+HB2O4WPtQ+npzaCf632Zh7vZe3d+fOlzap+BjmWB/fE/PhPDteOfSd+mn5PmEPTs1b7HmrR+fMo2mtX3BADA2RMaAjBD+WIHB3cnc3QNP7E7RsrFFfJgq7oIQb64ShQ/fg88HgMD6WibYiGNvrVRTvSfjsgZjsd3jXSwUMFI7H6i+Ck9FnueHIrjtUUp6rLyx6HYXr4uP6faginF/GojB1uMdqrKF6QY2dX4UT/268fT8uBZnWO+6MfB3Y3wb3RPPL6vGvl00kd1eaBXXVihst92I8qq+jZvjNW1NszOudGGRTs3VvfNznferf1KtsJysXp3NK7J1RtmsihFJzq4/qfV6OdGH+bXcts+7MQM+jnpy/p7d3J8eZBcCfGbPgMz0NPXF93HRmLkWC2s76hv85CzElhnn++zNN332HSPd9JGs/qeAAA4e10TExOT9Y0ANJuczL4uq/dnzpwp74vbsmXLaq+ce4cOHYqIiOuvv77+0IwMPzEQu4+sj23TruQ5HI8P7I7YVCllHN0TP6rOqbW8vp/sNY0f5atj49be2PPoUMS6bVmJ7IHHa4tDdMf6rWm53divfxTbK4FYd/HaNopzWr9yKIaKufTWbCwXpYhin3/sa3HetWNuOqdcftxNx3Lg8RjYFbFxsLGK6/ATlTn9lufHVWvzmZ5jROMYMt2xfl1PDO0bS9tvuj6qPL5602Dcv3Ys9vzv6ryH3bF+64Y4/OjuGCnaMDnH7PnDt1SPt0W/V9ojovm4Vq9bH2P7hqKnen0l0uuvZf8deDwGdlXOP3+P+j6T/qhfby36r3jvsaRP2n8eGu/Xoh3q13/efkPH8mt07XDz+9f7MLmWW7V/J5/r6ft5+ImB2B0bY2PsbrRX7XMUMd3xRfN7rdkY21buSfuv6TqsvDyR7ytan9uUfZs9I+mT7nXbYsOR7bE7imNu0a+t1K+T6b7Hpnu8kzaa7fcEzLO5+nukEydPnoxFixaVt66urvI+IpruAZid4vduCA0BOnchhoYXoukDE2BhahXgAh+nc/n3iNAQ4NyohobKkwEAOP8dGG4xXQAAAPNFaAgAwPlrdE/8aGAgLz+vlboDADBvlCcDdEh5MgBAw7n8e0R5MsC5oTwZAAAAAGhLaAgAAAAAJISGAAAAAEBCaAgAAAAAJISGAAAAAEBCaAgAAAAAJISGAAAAAEBCaAgAAAAAJISGAAAAAEBCaAgAAAAAJISGAAAAAEBCaAgAAAAAJISGAAAAAEBCaAgAAAAAJISGAAAAAEBCaAgAAAAAJISGAAAAAEBCaAgAAAAAJISGAAAAAEBCaAgAAAAAJISGAAAAAEBCaAgAAAAAJISGAAAAAEBCaAgAAAAAJISGAAAAAEBCaAgAAAAAJISGAAAAAEBCaAgAAAAAJISGAAAAAEBCaAgAAAAAJISGAAAAAEBCaAgAAAAAJISGAAAAAEBCaAgAAAAAJISGAAAAAEBCaAgAAAAAJISGAAAAAEBCaAgAAAAAJISGAAAAAEBCaAgAAAAAJISGAAAAAEBCaAgAAAAAJISGAAAAAEBCaAgAAAAAJISGAAAAAEBCaAgAAAAAJISGAAAAAEBCaAgAAAAAJISGAAAAAEBCaAgAAAAAJISGAAAAAEBCaAgAAAAAJISGAAAAAEBCaAgAAAAAJISGAAAAAEBCaAgAAAAAJISGAAAAAEBCaAgAAAAAJISGAAAAAEBCaAgAAAAAJISGAAAAAEBCaAgAAAAAJISGAAAAAEBCaAgAAAAAJISGAAAAAEBCaAgAAAAAJISGAAAAAEBCaAgAAAAAJISGAAAAAEBCaAgAAAAAJISGAAAAAEBCaAgAAAAAJISGAAAAAEBCaAgAAAAAJISGAAAAAEBCaAgAAAAAJISGAAAAAEBCaAgAAAAAJISGAAAAAEBCaAgAAAAAJISGAAAAAEBCaAgAAAAAJISGAAAAAEBCaAgAAAAAJISGAAAAAEBCaAgAAAAAJISGAAAAAEBCaAgAAAAAJISGAAAAAEBCaAgAAAAAJISGAAAAAEBCaAgAAAAAJISGAAAAAEBCaAgAAAAAJISGAAAAAEBCaAgAAAAAJISGAAAAAEBCaAgAAAAAJISGAAAAAEBCaAgAAAAAJISGAAAAAEBCaAgAAAAAJISGAAAAAEBCaAgAAAAAJISGAAAAAEBCaAgAAAAAJISGAAAAAEBCaAgAAAAAJISGAAAAdKy/v7++CYALkNAQAACAjvT398fOnTvrmwG4AAkNAQAAmJbAEODiIjQEAABgSgJDgIuP0BBgAerq6oqIiMnJyfpDAABzqh4Y9vf3l3+DFH+TAHDhERoCLECf+MQnIiJifHy8/hAAwJxpFRju3Lmz/Buk+JsEgAuP0BBgAfrkJz8ZEREnTpww2hAAmBftAsPJyck4ceJEROVvEgAuPF0TExN+bQJ0oAjnqvdnzpwp74vbsmXLaq+cH4cPH46PPvooFi9eHFdddVUsWbJEiRAAMG8mJydjfHw8Tpw4Uf4N0tvbW3/avDh58mQsWrSovHV1dZX3USmT9rcQwNmpDkoRGgJ06HwLDf/yl7/E2NhYfPTRR/WHAADm1eLFi6OnpycuvfTS+kPzQmgIcG5UQ0PlyQAL1KWXXhq9vb3R3d0dixcv9kcyADCvurq6YvHixdHd3R29vb3nLDAE4ONhpCFAh863kYYAABcLIw0Bzg0jDQEAAACAtoSGAAAAAEBCaAgAAAAAJISGAAAAAEBCaAgAAAAAJISGAAAAAEBCaAgAAAAAJISGAAAAAEBCaAgAAAAAJISGAAAAAEBCaAgAAAAAJISGAAAAAEBCaAgAAAAAJISGAAAAAEBCaAgAAAAAJISGAAAAAEBCaAgAAAAAJISGAAAAAEBCaAgAAAAAJISGAAAAAEBCaAgAAAAAJISGAAAAAEBCaAgAAAAAJISGAAAAAEBCaAgAAAAAJISGAAAAAEBCaAgAAAAAJISGAAAAAEBCaAgAAAAAJISGAAAAAEBCaAgAAAAAJISGAAAAAEBCaAgAAAAAJISGAAAAAEBCaAgAAAAAJISGAAAAAEBCaAgAAAAAJLomJiYm6xsBaDY5mX1dVu/PnDlT3he3ZcuW1V45v4Z+9/t4+V/+LQ6/eyQmJibqDwML2CWXXBK916yMW//Tf4j1f/Of6w9zgfjxb4/Ez186Hv/69nj8P3+acx77xCVd8R8/vSS+cXt3/I//srL+8Lw6efJkLFq0qLx1dXWV9xHRdA/A7BS/d0NoCNC58y00fO/Y8fiHf3wq3nr7nfpDwAXoM5/+VPy3/3pvXL28u/4QC9QbRz+Kb/z9odj/5of1h+C8d9t1l8fP//v1ccOKxfWH5oXQEODcqIaGypMBFiiBIVxc3nr7nfiHf3yqvpkFTGDIQrb/zQ/jG39/qL4ZgAuI0BBgARr63e8FhnAReuvtd2Lod7+vb2YB+vFvjwgMWfD2v/lh/Pi3R+qbAbhACA0BFqCX/+Xf6puAi4TP/4Xh5y8dr2+CBcm1DHDhEhoCLECH3/X/6sPFyuf/wvCvb4/XN8GC5FoGuHAJDQEWIKskw8XL5//CYJVkLhSuZYALl9AQAAAAAEgIDQEAAACAhNAQAAAAAEgIDQEAAACAhNAQAAAAAEgIDQEAAACAhNAQAAAAAEgIDQEAAACAhNAQAAAAAEgIDQEAAACAhNAQAAAAAEh0TUxMTNY3AtBscjL7uqzenzlzprwvbsuWLau9cu5tGXiwvuks3RPfH7w1VtU3l47GiwM7Yld987Tuie8PXht/mtVr595d/d+LL8XvYmDn8/WHZuSu/u/F1264rL654nS8/qsfxo7n6tvPsXu3xI7bV+T/mPtj2rTtkbijJyLGXo4t25+uP9xaeUy1a6pyrONv7En6qHif+vZ2ZnVcLTU+F6MvPRg/eKq6/eO9rncMPlLfxALT1b+/vumc+vbWtbH9c5c0Noy+F10PvVl9SkfK/Xx4KrZ96/X4Sf0JZ6nd/r+9dW38z3g3rnr0SO0VubtvjBNfXxpX1rcX5ul4Px7XxcGdfxUv9L8SD9QfOkcmd95W3zTnTp48GYsWLSpvXV1d5X1ENN0DMDvF790w0hCAzqyIOwa3xKb65qncuTkGpwwiz61N2x6ZJui78Gz6TBEYRkRcFteu+WLl3x+Td0/FeERELI3ldzY2V491yaf+Ou4q/3VPfLYn+68PTkwfGM678+y6htloCgwjIlZdHZMPX5duO0/97OHbmo9/pi5fGtt/emN8u759obn7xjix8+q4qb4dAOaA0BCAxOhLD8aWgert5RiNiIgV8dl768++yI0fil8mbVXc5nZE3+wUYdvpGB07HdEUxn1Mnns/PoiIiMti2TXFxi/G8qWV5yxZ2gjl7rwyroiIiNNx8t3Kc86Jp+MHeZ82RhnCQnddfDMP3N5/7e3o6t8fXS9k3xGx6qoYujt99sftJ48eyI5x1qMCJ2LvL/Zn+yhuvzgV70dEXH55/O15dr4AcD5RngzQoYulPDktw4yI+GJseXhD3LikXh5aK2kePxS/fOiJ2Bv1stjc2Mux5Q9XxuBXr48ltVLZejlpWf47fjRGY0WsWpLv/9mIL5WvPxjLvtp4//alq43jb6i+f/PjzW2Qahxf5ZynVC//blHufefmvG3aPafaR3vi5M2VY25Vhlv0QVO7pYFmo+2PxmjPiuwYy/3V22aKfnvr2kqf1489Ve/vxrmfjvHxy2LJkkofVM+jbOsprr3a/l+MW7P/bvG8pv009X3tcxFtruu87cv3jWhqq7mmPHnh+/jKk6+Lg/nItFdf2B9rnoyIWBlDP/103HV5ZVtZ3jsRe39xINY/m736Zw/fFt9c1ShnrpYPP/bny8tAMuJ0PFYply1e9/5rb8c/XfHpbB95cHnVo0ca+61si6by5A/ib/PjbEiPr9Tm+DOt2qBFSXOrku3ac1597VRc87nq+7Ted7sy6+p5tzyX+jFVn3PfzTH5hdoI+lbHfA4oTwa4cChPBqBzd/51XJuHRmV5aKsSzSXXx9dmWsI8nSV5YBgRcer9SthzWdxYCQwjIpbcsCG+P+ORkPfE9wfrgWLEqtsficH+OSrlbdVW9XLve7fEjiQwLJ7zvdhSKeEtrLq9dsw9tzYdb1HuO/7Ov8fe5/49/jweU5coF4FhRIyfOtqmbS6LG7/a4ph6bq2FaSvijoc3tx3VOHoqH9W09MrsOdcszc597GD85p3ssSuuyo6zLFsu+r9Ve7a79noqgWHkzyuPqzkwjLzvZ34dfTG2PFwNDCNvq9nsC+bb6Xj3w+y/bvrCbTH50xvj23Ek1n8rG4VXBmgzdfnSSmAYEXFZfHPnzfGzypaIiCs/1wgMs39fEyd+Wg3OsuccvK/x7zl331/l5bwT8e7hYtvNMVmfA3HV1Xn75JoCvIibPjfFvIlTWhlDtfOOuCTu+vptjXNv8X7Zc9aedyNCAbgwCQ0BSKy6/ZHYMVi5FWHW+KF4MR+Btenz2bbxN/aUJbkvjkVErIi1/V+MeGpHbPnVoXzuuqPx4sCDzSPhOlSWS9dfP/ZyrXw6YtVn7kmfExERz8eOh4rjK445GwG2aVsRGuXHOPBgbHnpaERELLnhb5rDsbol18fXqm1V3LY1jqNoq0Yp8554fTwabRX3xPeLwK08p+J4L4sb724RvjXtq156XJ8H8Pl4JQ/j2pcon47Xf5W998DO5+Ou/jVNbVMe0+fr7dx4bdF+seRTcXOb9tt78J3s2sjLkMuA89TR8rHsOBtly6Nv5aP5prv2Eq2O6/q4495q2XP9/NpdR9H+ur731ixcrZar5++36uYW/QcfqyOx/p/z8tzI5/bbeVtM7jz7IOrVF2rlv3FZ/N3WlbVnnY7H+vdHV/978WpERFwSV15e3xZxzfL66yI79m/tj8fyL/2svLo+irAuC+Imd1Zuxei80RP5a1fG0NpsW3kO/W/H3g/zMDQP8X52ZxHgFcfbOJYZu+/qbMTkh6diW1E2nZeJ37Q2Dyp7L83er3xOfkxxSdx6y8qIJ1+ptHV+TB/DKEMALlxCQwCmNfrSg7GlUhpaBFJLbthQBmXFKKslS2vlm2ejElSmTsfrfyhCxKfjT3nYMzON8xh9qVJK+9TLeRA3xai8jlVCr1eK9stCzCKci3uvbYRzlWB01x/ycKpF+FbdVxEGJir7/FPefnt3HszC1Rb7i8hG+VVLaVctzX5Aj7/xctk2u7a3C3Arry0XOplCOa/h0lh+Z2PuxT8ffL7x2JJPxc13rohlS7LHsvkMZ3jtVY+r7Nd8FGN5DCvijsFHYsfgloh25zeNcjRkNUQuguDq/Ixwvnj29biqKfCqjXKbqQ9PxWPFKMVnX49/yvd95RX18tn/m5csvxkvFO/fatu8yuc5LAK2u6+IW/OS55u+UISLjTLoLMBcGZ/NZx95/7X3yrLrB56rBLAz8LPr83YpQ9tKmHn5pdlIyMN/yedezJ/z0yvi/+QjQtuuGg0Ac0hoCECiGNn3yzcaYVRRKtqRouR0wagvsPF8HDtV/fcU2i2EUoZORejVgfFT5YjJiGqwNnONlYiLQOyR2FGW4nYShtYWJplzR+NkEcx+/tpsxN/4O/HKc1EJgS+LZWuK0YCn4lgncwPWrr2szLpQ79en4wfF6MOIpK3qpd5nJ10lGs4nDzxUHxlYGeU2Uyc/ShYqefWDicq/Gt7/oPn/6Gi1be40FkJphKSXxDW96bOmUg8+3z1WCeye/Sjmfo2mS+Ozd2fh6/96rdKOlYBx1uEuAMyA0BCAlvbu/GFZrtluvsDmlZarIxIXiuoqvjHHgVkRjnWgPiKtLJ+dqcZovHbalygX6gHbXKuUS/esyMq3K3NW7norL+29IS/tHvtz06IqnVx76cjDFv361I7Ga8uy44glN9zaPD9iJyrl5Y3b/C2GArNy3835SLrKfIPPvh5XFSsoz9ayxUnYeNMV1fkNzw8PPFSU90bc9IVW5dgtVlpuUfKblE7fvTiS/wmZqdH3mt+vUnJdrh5dKV+Oswl3AWAGhIYAtLVre2W+wHJutkY5cGNbthBE61FarUZaVYK6OzfH2mlCrrnUCJIq53F7dVGSfH66olz2rDTCt+rcdpu2VeY+fOrPeRuviDtazoVYjMDrULXcuR5gFcFYMa/fFIrFSqoB2l3938uOe4pFTjq190SaShZzFkY0lzg3RgzO8NrrWdOYl7Ler/duyUdg5n3/3BMxUAaHra7ZusZzipCz+n5z2VYwp4qS12S+wcacfs0qo/LuvjH+rl29fWXuv+rzXj00f3Ps1UcATq86n+Mlcded12Wbn/0gXs7nCiy3xXVxMBnVdyT+dDJ75MprrygDu8Y8h80a4eJ1tUViIh44lAeAq64qw8tvb12bBbr54iv1f8eTrzSCw6KEuZSPTgSAOSQ0BGAKlRLOJdfHl/JQpjHfXjGHW7HK7tE4sLMetGWryO54eHPcVa7iW1lwpWnV4HnWc2vsGMxWtS3Po1rGm89FN/7G76YfIdZuIZR8/9GyrYo5+Ip5GZ+OF4tS8PzYkuc8O7ORm2VpcovReVFt/3aLfeTKORArbfO1G7If6I05Fc9CEgzWSsQrxxnVVbtbtmcH116lX8sQtpzjsNL35aI/nQS1leu6Mg9m8X5z2lYwl6rzDX7u003z97164PWszLgM0irz/DWt5Jtqft7peGG2qzF3YtXVMy/VrZb8rrq6DATXHyhCvGyfkzuvzkK5ylyN5fyFlTLhdPXjSOZlbLRvvq+qJ98rFzUpFmrZngeLRR/85NET2cIwreY9LOeBLOT7qa72DABnSWgIwNSe2lEpU85XFE5GZRWOxosDlQVFnnsiflOZFzHzfOx4qDF6MSIr6Sz2P5+qoyZLzz0RA5UViAujL+WLlMyF556IgcoKz5nT8fqvGmWre3f+MCmPzRyNF2dc2tooTU7n8ytUFk7puXaaEtyn4wdt2uYHLRenmaFqMNgU0lUXeGks5hLR4bVXqF9b44fil2UJ8/Ox46Hm84uxl5vKnBNtr+vmfc1ZW8Ece+Ch/bGtOldeRFmau6YM+Y7E+m81VjOOyEpp264W/OGpeCzZ5+l4rP+VWrA1Nx54qHZcM/STR9+tlCnnZdrVUXyFD0/Ftm/lIWrkZdyV+R8jJmLvC80LoVTLoCNatU3k7Vt7Xr56c6MP3ow1lRWlC++/9najZLo+7yEAzKGuiYmJyfpGAJpNTmZfl9X7M2fOlPfFbdmyfHnFebRl4MH6JuAismPwkfomFpiu/v31TSxEd98YJ76+NK6Midj7i8ZchBebyZ231TfNuZMnT8aiRYvKW1dXV3kfEU33AMxO8Xs3jDQEAAAAAOqEhgAAAABAQmgIAAAwG8++Hlf174+u/ou3NBmAC5fQEAAAAABICA0BAAAAgITQEAAAAABICA0BAAAAgITQEAAAAABICA0BAAAAgITQEAAAAABICA0BAAAAgITQEAAAAABI/H8QewIE+fI9HgAAAABJRU5ErkJggg==;" vertex="1" parent="1">
                    <mxGeometry x="530" y="330" width="518.06" height="257.63" as="geometry"/>
                </mxCell>
            </root>
        </mxGraphModel>
    </diagram>
</mxfile>